<?xml version="1.0" encoding="UTF-8"?>
<!DOCTYPE svg PUBLIC "-//W3C//DTD SVG 1.1//EN" "http://www.w3.org/Graphics/SVG/1.1/DTD/svg11.dtd">
<!-- Creator: CorelDRAW X7 -->
<svg xmlns="http://www.w3.org/2000/svg" xml:space="preserve" width="100mm" height="100mm" version="1.1" style="shape-rendering:geometricPrecision; text-rendering:geometricPrecision; image-rendering:optimizeQuality; fill-rule:evenodd; clip-rule:evenodd"
viewBox="0 0 10000 10000"
 xmlns:xlink="http://www.w3.org/1999/xlink">
 <defs>
  <style type="text/css">
   <![CDATA[
    .str2 {stroke:#DE5E60;stroke-width:75}
    .str0 {stroke:#DE5E60;stroke-width:50}
    .str1 {stroke:#DE5E60;stroke-width:20}
    .fil1 {fill:#26292E}
    .fil0 {fill:#DE5E60}
   ]]>
  </style>
 </defs>
 <g id="Слой_x0020_1">
  <metadata id="CorelCorpID_0Corel-Layer"/>
  <g id="_994138800">
   <polygon class="fil0 str0" points="250,6667 3333,5912 4088,5912 4088,6667 3333,9750 6667,9750 5912,6667 5912,5912 6667,5912 9750,6667 9750,3333 6667,4088 5912,4088 5912,3333 6667,250 3333,250 4088,3333 4088,4088 3333,4088 250,3333 "/>
   <polygon class="fil1 str0" points="9606,3501 6617,4232 5768,4232 5768,3383 6500,394 3500,394 4231,3383 4231,4232 3383,4232 394,3501 394,6500 3383,5769 4231,5769 4231,6617 3500,9606 6500,9606 5768,6617 5768,5769 6617,5769 9606,6500 "/>
   <circle class="fil1 str1" cx="5125" cy="4968" r="1617"/>
   <path class="fil1 str2" d="M2090 1713c-159,-379 -257,-803 -174,-1213 247,464 487,932 761,1380 205,339 432,663 677,973 -55,48 -110,95 -163,146 -314,-406 -615,-828 -839,-1293 -72,-148 -135,-301 -206,-449 -21,-42 -38,-87 -69,-123 -3,30 13,56 26,82 76,154 140,313 215,467 226,479 534,913 858,1331 -57,53 -110,110 -160,170 -20,-19 -39,-40 -55,-62 -337,-438 -653,-898 -871,-1409zm5557 -159c198,-347 382,-700 567,-1054 58,272 32,556 -39,824 -131,489 -391,932 -674,1348 -121,175 -247,346 -379,513 -55,-58 -110,-114 -164,-172 6,-7 19,-22 26,-30 -18,2 -36,4 -54,6 -48,-48 -102,-91 -152,-136 324,-409 612,-845 869,-1299zm376 -375c-86,179 -164,362 -250,542 -144,294 -318,573 -507,840 -98,136 -193,275 -302,401 7,6 14,13 21,19 40,-63 89,-119 132,-179 196,-262 382,-533 542,-819 127,-223 228,-461 335,-694 22,-51 55,-98 65,-153 -16,11 -28,26 -36,43zm-3486 710c16,-8 32,-13 50,-17 4,233 0,466 2,699 -1,88 68,167 153,187 66,16 134,8 201,10 139,-5 279,2 418,-5 80,-4 137,-65 178,-127 11,-253 3,-508 8,-762 55,16 94,61 138,96 176,175 265,427 260,673 -10,277 -155,547 -385,704 -37,130 -51,265 -67,399 -41,413 -49,829 -51,1244 4,381 11,762 47,1141 16,147 29,296 72,437 81,66 161,135 220,222 120,172 179,386 162,595 -22,170 -71,343 -186,474 -61,70 -115,162 -210,186 -6,-212 -2,-425 -3,-638 3,-66 -4,-138 -49,-190 -49,-41 -113,-69 -178,-66 -171,1 -342,0 -513,1 -67,0 -133,29 -180,77 -30,43 -35,98 -35,149 -1,222 0,443 -1,665 -18,-4 -39,-2 -54,-16 -193,-147 -320,-377 -342,-619 -34,-309 100,-633 353,-816 37,-20 39,-66 48,-102 63,-325 73,-656 88,-986 15,-569 13,-1139 -37,-1707 -16,-151 -30,-303 -73,-449 -208,-146 -351,-382 -377,-636 -42,-310 95,-634 343,-823zm-1162 975c62,-46 121,-97 189,-136 119,103 232,213 351,317 43,36 79,80 126,111 80,-31 155,-77 235,-108 61,109 142,208 241,284 68,42 52,135 75,202 -259,92 -498,247 -673,461 -183,213 -301,480 -338,759 -41,292 6,597 137,862 173,360 496,640 874,768 -14,57 -17,118 -41,172 -106,87 -209,185 -269,311 -87,-20 -160,-74 -239,-111 -160,146 -319,293 -480,438 -127,-91 -255,-185 -364,-298 -2,3 -6,9 -8,12 0,-4 1,-12 1,-16 -134,-131 -255,-275 -360,-431 146,-159 290,-320 440,-475 -77,-155 -156,-310 -200,-479 -216,-10 -432,-20 -648,-30 -25,-152 -49,-305 -49,-459 -6,-193 17,-386 48,-576 215,-8 431,-19 646,-23 49,-168 114,-331 199,-485 -147,-157 -290,-318 -436,-476 150,-224 335,-423 543,-594zm2719 290c162,-137 313,-289 475,-427 289,192 538,443 731,731 -145,159 -290,318 -436,477 83,152 156,312 193,482 217,0 433,18 649,23 70,341 66,695 3,1036 -214,8 -428,14 -641,28 -37,76 -53,166 -91,244 -35,80 -78,157 -113,237 145,159 291,318 437,476 -195,288 -445,538 -733,733 -158,-146 -319,-288 -475,-436 -68,31 -131,71 -202,97l5 20c-2,-4 -6,-11 -8,-15 -8,2 -23,6 -31,7 -44,-61 -81,-128 -136,-182 -42,-50 -97,-87 -143,-133 -19,-56 -28,-114 -35,-173 452,-143 817,-523 955,-974 103,-329 88,-694 -44,-1013 -161,-400 -503,-721 -913,-856 10,-58 22,-116 36,-174 115,-82 211,-190 278,-314 83,28 156,81 239,106zm-3979 3469c25,-84 144,-146 216,-80 51,42 43,125 -7,165 -30,32 -76,29 -116,32 27,35 70,36 111,30 19,87 82,154 151,206 78,57 153,127 251,147 71,18 145,0 217,-11 -5,104 4,216 65,303 98,141 244,240 343,381 45,60 92,139 60,216 -29,85 -151,143 -220,69 -63,-60 -15,-169 63,-186 22,-3 43,-6 65,-8 -28,-34 -72,-29 -110,-24 -17,-84 -76,-151 -142,-201 -70,-53 -138,-110 -219,-144 -83,-32 -172,-13 -258,-2 4,-106 -5,-220 -70,-308 -102,-141 -249,-242 -348,-387 -41,-56 -77,-128 -52,-198zm5663 46c-40,-67 21,-156 96,-155 79,4 154,75 150,156 3,63 -35,117 -69,166 -99,139 -244,238 -342,377 -62,87 -71,199 -65,303 -114,-22 -243,-30 -340,45 -110,81 -250,158 -281,303 -39,-9 -79,-5 -112,18 52,10 112,16 141,67 43,55 9,141 -55,161 -89,25 -185,-56 -185,-147 -2,-65 36,-121 72,-172 81,-111 190,-198 281,-301 44,-46 82,-99 103,-160 22,-70 24,-143 23,-216 72,7 144,26 216,9 92,-19 164,-82 237,-136 75,-57 149,-128 166,-225 39,17 84,16 108,-22 -57,4 -119,-15 -144,-71zm-4748 85c49,52 98,104 149,155 -72,71 -146,139 -217,212 -1,-8 -3,-25 -4,-33 -89,14 -182,36 -270,5 111,-116 229,-225 342,-339zm4071 0c116,112 231,226 346,339 -89,30 -182,10 -271,-5 -1,8 -4,24 -5,32 -72,-71 -145,-142 -218,-212 51,-50 100,-101 148,-154zm-164 170c80,75 158,151 236,228 3,87 -12,177 -60,252 -118,-107 -230,-221 -349,-328 60,-49 117,-99 173,-152zm-3976 231c71,-83 156,-153 233,-232 56,52 113,103 173,152 -118,108 -229,224 -350,329 -44,-75 -64,-163 -56,-249zm4657 88c72,26 124,83 170,142 -73,3 -146,12 -219,21 6,-56 21,-112 49,-163zm-5274 144c45,-60 99,-117 170,-145 27,51 43,107 50,164 -12,-1 -35,-4 -47,-5 -10,6 -21,13 -31,19 25,4 51,7 76,11 2,36 2,73 1,109 73,-8 147,-24 221,-15 41,6 78,28 115,46 -51,76 -133,127 -219,155l-18 -23c-6,14 -12,28 -17,43 23,-19 55,0 36,25 -39,78 -122,118 -197,154 -174,-83 -368,-131 -562,-110 42,-89 123,-157 215,-191 48,-8 97,-2 145,-2 -33,-42 -99,-16 -146,-22 21,-37 44,-74 77,-103 36,-36 86,-54 126,-87 42,-1 84,1 127,5 9,-7 19,-15 29,-22 -51,-3 -101,-5 -151,-6zm-75 217l13 18c115,20 231,46 337,96 9,-6 18,-12 27,-18 -123,-41 -245,-90 -377,-96zm5300 -172c72,-15 147,-29 221,-19 83,44 165,98 207,186 -48,0 -95,-3 -142,5l-15 20c51,-1 102,-9 153,1 93,32 176,98 215,190 -192,-20 -386,27 -559,109 -80,-36 -171,-81 -203,-168l2 -10c123,-61 255,-100 390,-122l14 -19c-144,12 -282,60 -412,121 -77,-38 -162,-78 -206,-157 41,-18 81,-41 126,-46 70,-6 140,9 209,18 -1,-36 -2,-72 0,-109zm-5833 596c31,-92 118,-140 193,-191 190,-23 381,29 552,109 -36,77 -110,132 -192,151 -50,12 -96,-20 -142,-32 -132,-45 -273,-51 -411,-37zm5913 -81c173,-80 365,-135 557,-108 72,51 163,95 186,189 -125,-13 -252,-8 -373,27 -49,12 -95,35 -145,45 -96,-5 -180,-71 -225,-153zm-5970 156c32,-28 66,-59 111,-58 154,-15 312,17 454,78 21,7 6,32 1,46 -31,66 -98,102 -160,131 -157,-75 -340,-103 -507,-47 19,-58 54,-110 101,-150zm6197 24c161,-65 341,-110 514,-72 74,47 136,114 165,198 -154,-49 -324,-34 -471,31 -41,25 -82,-5 -116,-26 -47,-29 -83,-76 -92,-131zm-6248 134c149,-36 310,-10 446,59 -30,83 -94,150 -172,190 -68,-39 -149,-60 -226,-42 -89,15 -166,74 -214,149 -12,-119 26,-244 111,-330 14,-16 35,-20 55,-26zm6431 56c141,-65 305,-95 457,-53 45,9 69,52 93,86 51,79 66,175 65,268 -50,-69 -119,-129 -205,-147 -80,-23 -167,-4 -237,39 -79,-40 -147,-107 -173,-193zm-6417 181c79,-28 169,-19 239,26 127,74 143,299 4,369 -81,52 -192,66 -276,12 -83,-58 -133,-160 -137,-260 32,-70 99,-120 170,-147zm6668 -1c133,-48 289,25 352,149 -5,86 -44,173 -107,233 -63,61 -160,76 -240,46 -59,-23 -124,-55 -148,-117 -51,-119 11,-280 143,-311z"/>
  </g>
 </g>
</svg>
