<?xml version="1.0" encoding="UTF-8"?>
<!DOCTYPE svg PUBLIC "-//W3C//DTD SVG 1.1//EN" "http://www.w3.org/Graphics/SVG/1.1/DTD/svg11.dtd">
<!-- Creator: CorelDRAW X7 -->
<svg xmlns="http://www.w3.org/2000/svg" xml:space="preserve" width="100mm" height="100mm" version="1.1" style="shape-rendering:geometricPrecision; text-rendering:geometricPrecision; image-rendering:optimizeQuality; fill-rule:evenodd; clip-rule:evenodd"
viewBox="0 0 10000 10000"
 xmlns:xlink="http://www.w3.org/1999/xlink">
 <defs>
  <style type="text/css">
   <![CDATA[
    .str2 {stroke:#DE5E60;stroke-width:75}
    .str1 {stroke:#DE5E60;stroke-width:50}
    .str3 {stroke:#DE5E60;stroke-width:25}
    .str0 {stroke:#DE5E60;stroke-width:7.62}
    .fil4 {fill:#26292E}
    .fil3 {fill:#DE5E60}
    .fil1 {fill:#F38181;fill-rule:nonzero}
    .fil0 {fill:#FBCC8F;fill-rule:nonzero}
    .fil2 {fill:#FDE6C8;fill-rule:nonzero}
   ]]>
  </style>
 </defs>
 <g id="Слой_x0020_1">
  <metadata id="CorelCorpID_0Corel-Layer"/>
  <g id="_1088523824">
   <g>
    <path class="fil0 str0" d="M4848 8366c0,0 116,603 -246,599 0,0 56,219 289,150 0,0 6,167 149,318 146,-151 152,-318 152,-318 232,69 288,-150 288,-150 -362,4 -245,-599 -245,-599l185 -1640c0,0 -91,-340 -379,-340 -288,0 -378,319 -378,319l185 1661z"/>
    <path id="_1" class="fil1 str0" d="M4604 8942l-3 46 1 -48 33 -2 30 -4 27 -8 25 -11 22 -13 20 -16 18 -18 16 -20 14 -21 12 -23 10 -25 9 -25 7 -26 6 -27 5 -26 3 -25 2 -25 1 -23 1 -21 0 -21 -1 -21 -1 -22 -1 -20 -2 -20 -2 -19 -2 -17 -2 -16 -2 -13 -1 -10 -1 -8 -1 -5 -1 -1 3 -43 1 2 1 5 1 9 2 11 2 14 2 17 2 20 2 21 2 24 2 27 1 28 1 31 0 33 -1 33 -1 33 -3 32 -4 30 -5 30 -7 28 -7 28 -9 26 -11 25 -12 24 -14 22 -16 20 -18 18 -21 16 -22 13 -25 11 -27 8 -30 4 -33 2 2 -48zm-3 46l-12 -48 13 0 -1 48zm292 120l-5 15 3 17 -21 6 -21 4 -19 3 -18 1 -18 -1 -16 -1 -16 -3 -14 -3 -14 -5 -13 -5 -12 -6 -12 -7 -10 -8 -10 -7 -9 -9 -9 -8 -8 -9 -7 -9 -6 -9 -6 -9 -5 -9 -5 -8 -4 -8 -4 -8 -3 -7 -3 -6 -2 -6 -2 -5 -1 -4 -1 -3 0 -2 -1 -1 3 -46 0 0 0 2 1 2 1 4 2 5 2 5 2 7 3 7 4 7 4 8 5 8 5 9 6 9 6 9 7 8 8 9 8 9 9 8 10 8 11 7 11 7 12 6 13 5 14 5 14 4 16 2 16 1 18 1 18 -1 19 -3 21 -4 21 -6 2 18zm-2 -18l2 0 0 18 -2 -18zm149 318l1 50 -1 0 -13 -14 -12 -15 -12 -14 -11 -14 -10 -15 -9 -14 -9 -14 -8 -14 -8 -14 -7 -13 -6 -13 -6 -14 -5 -12 -5 -13 -4 -12 -4 -12 -4 -11 -3 -11 -3 -10 -2 -10 -2 -10 -2 -9 -1 -8 -2 -8 -1 -7 -1 -7 0 -6 -1 -5 0 -5 0 -4 -1 -3 0 -4 5 -15 0 -3 0 0 0 0 0 2 1 3 0 3 1 5 1 5 1 7 1 7 2 8 1 9 3 9 2 10 3 10 4 11 3 11 5 12 4 12 6 13 5 13 7 13 6 14 8 13 8 14 9 14 9 14 10 14 11 14 11 15 13 14 13 14 -1 0zm1 50l-1 0 0 0 1 0zm151 -368l0 50 2 -17 0 4 0 3 0 4 -1 5 0 5 -1 6 -1 7 -1 7 -1 8 -2 8 -2 9 -2 10 -2 10 -3 10 -3 11 -4 11 -3 12 -5 12 -5 12 -5 13 -6 13 -6 14 -7 13 -8 14 -8 14 -9 14 -10 14 -10 15 -11 14 -12 14 -12 14 -13 15 -1 -50 13 -14 13 -14 11 -15 11 -14 10 -14 10 -14 9 -14 8 -14 7 -14 7 -13 7 -13 6 -13 5 -13 5 -12 4 -12 4 -11 3 -11 3 -11 3 -9 2 -10 2 -8 2 -8 1 -7 1 -7 1 -5 0 -5 1 -4 0 -2 0 -2 0 0 0 0 0 3 3 -18zm-3 18l1 -18 2 0 -3 18zm291 -118l0 -50 1 48 0 1 -1 2 -1 3 -1 4 -2 5 -2 6 -3 6 -3 7 -3 8 -4 8 -5 8 -5 9 -6 9 -7 9 -7 9 -8 9 -8 8 -9 9 -10 7 -11 8 -11 7 -12 6 -13 5 -14 5 -15 3 -15 3 -17 1 -17 1 -19 -1 -19 -3 -20 -4 -21 -6 0 -50 21 6 20 4 19 3 19 1 17 -1 17 -1 15 -2 15 -4 13 -5 13 -5 12 -6 12 -7 10 -7 10 -8 9 -8 9 -9 7 -9 7 -8 7 -9 6 -9 5 -9 4 -8 4 -8 4 -7 3 -7 3 -7 2 -5 1 -5 2 -4 0 -2 1 -2 0 0 1 48zm0 -50l13 0 -12 48 -1 -48zm-247 -592l4 36 -1 4 0 1 -1 5 -1 8 -2 10 -2 13 -2 16 -2 17 -2 19 -1 20 -2 20 -1 22 0 21 0 21 0 21 2 23 2 25 3 25 4 26 6 27 7 26 9 25 11 25 12 23 14 21 15 20 18 18 20 16 23 13 25 11 27 8 30 4 32 2 0 50 -33 -2 -29 -4 -28 -8 -24 -11 -23 -13 -20 -16 -18 -18 -16 -20 -14 -22 -13 -24 -10 -25 -9 -26 -8 -28 -6 -28 -5 -30 -4 -30 -3 -32 -2 -33 -1 -33 0 -33 1 -31 1 -28 2 -27 2 -24 2 -21 2 -20 3 -17 2 -14 2 -11 1 -9 1 -5 0 -2 0 3zm4 36l-1 2 0 2 1 -4zm185 -1640l-185 1640 -4 -36 185 -1640 3 -5 1 41zm-1 -41l4 15 -3 26 -1 -41zm-380 -292l0 -50 0 0 26 1 26 3 24 5 23 6 22 8 21 9 20 10 19 11 18 13 17 13 16 14 15 15 14 15 13 16 13 16 11 16 11 16 9 15 10 16 8 15 7 15 7 14 6 14 5 12 5 12 4 10 3 9 3 8 2 6 1 5 1 3 0 1 -2 47 0 -1 -1 -3 -1 -4 -2 -7 -3 -7 -3 -9 -4 -10 -4 -12 -5 -12 -6 -13 -7 -14 -7 -15 -9 -15 -9 -15 -9 -16 -11 -16 -11 -16 -13 -16 -13 -15 -14 -15 -15 -15 -16 -14 -17 -13 -18 -13 -18 -11 -20 -10 -21 -9 -22 -8 -23 -6 -24 -5 -26 -3 -26 -1 0 0zm-376 276l-4 36 1 -41 0 -2 1 -2 1 -5 2 -6 3 -7 3 -9 4 -9 5 -11 5 -12 6 -12 7 -14 7 -13 8 -15 9 -14 10 -15 10 -15 12 -15 12 -15 13 -15 14 -14 15 -14 16 -13 17 -12 18 -12 19 -11 20 -9 21 -9 22 -7 23 -6 24 -4 26 -3 26 -1 0 50 -26 1 -26 3 -24 4 -23 6 -22 7 -21 9 -20 9 -18 11 -18 12 -17 12 -16 13 -15 14 -14 14 -13 15 -12 14 -12 15 -10 15 -10 15 -9 14 -8 15 -7 13 -7 13 -6 13 -5 11 -4 11 -4 10 -3 8 -3 7 -2 6 -1 4 -1 2 0 1 1 -41zm-4 36l-3 -28 4 -13 -1 41zm185 1661l-185 -1661 4 -36 185 1662 -4 39 0 -4zm0 4l0 -2 0 -2 0 4z"/>
   </g>
   <g>
    <path class="fil2 str0" d="M5040 9366c119,-132 117,-324 117,-324 159,95 241,-39 241,-39 -185,-12 -185,-142 -185,-142 0,0 -26,31 -95,26 0,0 -21,204 -76,336 -56,-132 -78,-336 -78,-336 -69,5 -95,-26 -95,-26 0,0 0,130 -185,142 0,0 82,134 241,39 0,0 -1,192 115,324z"/>
    <path id="_1_0" class="fil1 str0" d="M5157 9017l0 50 3 -27 0 4 0 4 0 5 0 5 -1 7 0 8 -1 8 0 9 -1 9 -1 10 -1 10 -2 11 -2 11 -2 12 -2 12 -3 12 -3 13 -3 13 -4 13 -4 13 -4 14 -5 14 -6 13 -6 14 -6 14 -7 14 -8 13 -8 14 -9 13 -10 14 -10 12 -11 13 0 -50 11 -12 10 -13 9 -13 9 -13 8 -14 7 -13 7 -14 7 -13 6 -14 5 -13 5 -14 4 -13 4 -13 4 -13 3 -12 3 -12 2 -11 2 -11 2 -10 2 -10 1 -9 1 -8 1 -8 0 -6 1 -6 0 -4 0 -3 0 -3 0 -2 0 0 0 1 0 2 3 -27zm-3 27l0 -29 3 2 -3 27zm244 -16l0 -50 1 50 -1 0 0 2 -1 1 -2 3 -2 3 -3 3 -3 4 -4 4 -4 4 -4 4 -5 5 -6 5 -6 4 -6 5 -7 4 -7 4 -8 4 -9 4 -8 3 -9 3 -10 2 -10 1 -11 1 -11 0 -11 -1 -12 -1 -13 -3 -13 -3 -13 -5 -14 -6 -14 -7 -15 -8 0 -50 15 8 14 7 14 6 13 5 13 3 13 3 12 1 11 1 11 0 11 -1 10 -1 9 -2 10 -3 8 -3 9 -4 7 -4 8 -4 6 -4 7 -5 6 -4 5 -5 5 -4 5 -5 4 -4 3 -4 3 -4 3 -3 2 -3 2 -2 1 -2 1 -1 0 0 0 49zm0 -50l30 3 -29 47 -1 -50zm-185 -92l0 -49 3 24 0 -7 0 -1 0 -3 -1 0 1 1 0 2 0 2 1 4 1 4 2 5 1 5 3 6 2 6 3 6 4 6 4 6 4 6 5 7 6 6 7 6 7 6 8 6 8 5 9 6 11 5 11 5 11 4 13 4 14 3 15 3 15 2 17 1 0 50 -17 -1 -15 -2 -15 -3 -14 -3 -13 -4 -12 -4 -11 -5 -10 -5 -9 -6 -9 -5 -8 -6 -7 -6 -6 -7 -6 -6 -5 -6 -5 -7 -4 -6 -4 -6 -3 -7 -3 -6 -2 -6 -2 -6 -2 -5 -1 -6 -1 -5 -1 -5 -1 -5 0 -5 -1 -5 0 -6 0 -4 -1 -8 3 25zm0 -49l3 -4 0 28 -3 -24zm-93 68l-4 -35 2 -8 7 1 6 0 6 0 5 -1 6 0 5 -1 5 0 4 -1 5 -1 4 -1 4 -1 4 -1 3 -1 3 -1 4 -2 2 -1 3 -1 3 -2 2 -1 2 -1 2 -1 2 -2 1 -1 2 -1 1 -1 1 -1 1 -1 1 0 0 -1 1 0 0 0 0 0 0 49 0 0 0 1 0 0 -1 1 -1 0 0 1 -1 1 -2 1 -1 1 -2 1 -2 1 -1 2 -3 1 -2 1 -3 2 -2 1 -3 1 -3 1 -4 2 -3 1 -4 1 -4 1 -4 1 -5 1 -4 1 -5 0 -5 1 -6 0 -5 1 -6 0 -6 0 -7 -1 2 -7zm-4 -35l1 -8 1 0 -2 8zm-75 377l2 -49 -2 1 5 -13 5 -13 5 -13 4 -13 4 -14 4 -14 4 -13 4 -14 3 -14 4 -14 3 -14 3 -14 3 -13 2 -13 3 -13 2 -13 2 -12 2 -12 2 -11 2 -11 2 -10 1 -9 1 -9 1 -8 1 -8 1 -6 1 -6 1 -4 0 -4 0 -3 0 -1 0 0 4 35 0 1 0 2 0 3 -1 4 0 5 -1 6 -1 7 -1 8 -1 8 -2 10 -1 10 -2 10 -2 11 -2 12 -2 12 -2 13 -2 13 -3 13 -3 14 -3 14 -3 14 -3 14 -3 14 -4 15 -4 14 -4 14 -4 14 -4 14 -5 14 -4 13 -5 13 -5 13 -2 0zm2 0l-1 2 -1 -2 2 0zm-79 -335l0 -50 2 8 0 0 0 1 0 3 1 4 1 4 0 6 1 6 1 7 1 9 2 8 1 10 2 10 1 11 2 11 2 12 3 12 2 13 2 13 3 13 3 13 3 14 3 14 4 14 3 14 4 14 4 13 4 14 5 14 4 13 5 13 5 13 5 12 -2 49 -5 -13 -5 -13 -5 -13 -4 -14 -5 -14 -4 -14 -4 -14 -4 -14 -3 -14 -4 -15 -3 -14 -3 -14 -3 -14 -3 -13 -3 -14 -2 -13 -3 -13 -2 -12 -2 -11 -2 -12 -1 -10 -2 -10 -1 -10 -1 -8 -1 -8 -1 -7 -1 -6 -1 -5 0 -4 -1 -3 0 -2 0 -1 2 7zm0 -50l1 0 1 8 -2 -8zm-92 -1l-5 0 3 -24 0 0 0 0 0 0 1 1 1 0 0 1 1 1 2 1 1 1 2 1 1 2 2 1 2 1 3 1 2 2 3 1 3 1 3 2 3 1 4 1 4 1 4 1 4 1 4 1 5 1 5 0 5 1 5 0 6 1 6 0 6 0 6 -1 0 50 -6 1 -6 0 -6 0 -6 -1 -5 0 -5 -1 -5 0 -5 -1 -4 -1 -5 -1 -4 -1 -3 -1 -4 -1 -3 -2 -3 -1 -3 -1 -3 -1 -3 -2 -2 -1 -2 -1 -2 -2 -2 -1 -1 -1 -2 -1 -1 -1 -1 -1 -1 -1 -1 0 0 -1 -1 0 0 -1 0 0 3 -25zm-5 0l0 -28 3 4 -3 24zm-182 118l-1 49 0 -50 17 -1 16 -2 15 -3 13 -3 13 -4 12 -4 11 -5 10 -5 9 -6 9 -5 8 -6 7 -6 6 -6 6 -6 5 -7 5 -6 4 -6 3 -6 3 -6 3 -6 2 -6 2 -5 1 -5 1 -4 1 -4 1 -2 0 -2 0 -1 0 0 0 3 0 1 0 7 5 0 0 8 0 4 -1 6 0 5 -1 5 0 5 -1 5 -1 5 -2 6 -1 5 -2 6 -3 6 -2 6 -4 7 -3 6 -4 6 -5 7 -5 6 -6 6 -7 7 -7 6 -8 6 -8 5 -10 6 -10 5 -11 5 -12 4 -13 4 -13 3 -15 3 -16 2 -17 1 1 -49zm-1 49l-29 -47 29 -3 0 50zm244 16l-5 -3 2 26 -14 8 -15 7 -13 6 -14 5 -13 3 -12 3 -12 1 -12 1 -11 0 -10 -1 -10 -1 -10 -2 -9 -3 -9 -3 -8 -4 -8 -4 -7 -4 -7 -4 -7 -5 -6 -4 -5 -5 -5 -5 -5 -4 -4 -4 -3 -4 -4 -4 -2 -3 -2 -3 -2 -3 -1 -1 -1 -2 0 0 1 -49 0 0 1 1 1 2 1 2 3 3 2 3 3 4 4 4 4 4 4 5 5 4 6 5 6 4 6 5 7 4 7 4 8 4 8 4 9 3 9 3 10 2 10 1 10 1 11 0 12 -1 12 -1 12 -3 13 -3 13 -5 14 -6 14 -7 15 -8 3 27zm-3 -27l3 -2 0 29 -3 -27zm115 324l0 50 0 0 -11 -13 -10 -12 -9 -14 -9 -13 -8 -13 -7 -14 -7 -14 -7 -14 -5 -14 -6 -13 -5 -14 -4 -14 -4 -13 -4 -13 -3 -13 -3 -13 -3 -12 -2 -12 -2 -12 -2 -11 -1 -11 -1 -10 -1 -10 -1 -9 -1 -9 -1 -8 0 -8 0 -7 0 -5 0 -5 0 -4 0 -3 5 3 0 -2 0 -1 0 0 0 2 0 3 0 3 1 5 0 5 1 6 0 8 1 8 2 9 1 10 2 10 2 11 2 11 3 12 3 13 4 12 4 13 4 13 5 14 5 13 6 14 6 13 7 14 7 13 8 14 9 13 9 13 10 13 10 12 0 0zm0 50l0 0 0 0 0 0z"/>
   </g>
   <polygon class="fil3 str1" points="250,6667 3333,5912 4088,5912 4088,6667 3333,9750 6667,9750 5912,6667 5912,5912 6667,5912 9750,6667 9750,3333 6667,4088 5912,4088 5912,3333 6667,250 3333,250 4088,3333 4088,4088 3333,4088 250,3333 "/>
   <polygon class="fil4 str1" points="9606,3501 6617,4232 5768,4232 5768,3383 6500,394 3500,394 4231,3383 4231,4232 3383,4232 394,3501 394,6500 3383,5769 4231,5769 4231,6617 3500,9606 6500,9606 5768,6617 5768,5769 6617,5769 9606,6500 "/>
   <g>
    <path class="fil4 str2" d="M1231 2573c0,167 107,161 225,118 35,-12 52,-29 80,-37l213 191c28,28 45,38 72,63l73 70c1,2 3,3 4,5 2,1 3,3 5,4l125 117c31,25 52,38 73,71 -11,41 -45,55 -45,107 0,123 127,142 204,88 44,-31 47,-34 102,-34l13 50c1,2 2,4 4,5l7 10c17,20 37,24 53,46 8,11 4,13 19,27 3,3 23,15 31,22l153 134c66,68 81,139 145,187l20 16c2,2 7,7 9,9l74 70c2,1 4,3 5,4l441 412c2,1 9,5 11,7l23 22c78,83 170,153 251,234 9,9 12,12 21,23l281 266c-56,30 -100,71 -150,110l-45 35c-75,48 -144,111 -212,166 -6,6 -9,8 -14,12 -120,100 -64,-9 -198,-9 -30,0 -55,15 -78,30 -2,1 -4,2 -6,3 -121,83 -24,186 -58,229l-177 137c-19,16 -16,14 -38,25 -43,23 -72,75 -119,79l0 27c-49,5 -6,-2 -27,9l-86 66c-26,20 -52,39 -84,42 -4,36 -19,34 -65,70 -1,1 -4,2 -5,3l-10 8c-2,1 -4,3 -5,4 -1,2 -3,3 -5,4 -36,31 -68,45 -101,79 -40,41 -76,68 -129,96 -23,12 -38,15 -52,37 -18,25 -14,53 -14,85 -111,0 -38,16 -166,94 -21,13 -22,19 -41,31 -83,-19 -108,-137 -211,-50 -63,53 -254,189 -261,260 -6,53 45,97 69,131 -109,163 -172,374 -136,577 10,57 1,116 1,177 -100,0 -200,79 -239,166 -97,218 44,445 293,445 136,0 252,-114 278,-225 155,13 161,99 494,99 104,0 242,-39 305,-81 69,104 138,99 222,16 31,-31 60,-50 93,-77 18,-14 25,-25 42,-40 20,-18 29,-20 50,-40 44,-42 33,-59 33,-137 -34,-9 -12,-9 -45,-18 6,-78 50,-113 104,-156l23 -22c42,-35 59,-21 124,-92l183 -167c5,-5 13,-12 18,-17l13 -14c7,-9 9,-12 18,-19l207 -188c22,-26 -2,-8 30,-32l314 -287c2,-1 3,-4 4,-5 5,-5 -2,-24 39,-24 48,0 -5,45 153,45 25,0 29,-6 47,-16l38 -25c3,-3 8,-11 11,-16 13,-18 1,3 14,-21 19,-33 15,-72 15,-111 0,-79 -81,-58 -2,-127l201 -185c32,-35 1,-24 44,-29 3,-42 -4,-18 23,-39 2,-1 4,-2 6,-3 1,-2 4,-3 5,-4l103 -95c12,-10 3,0 21,-15 9,-8 9,-9 13,-13l9 -9c2,-2 8,-7 10,-9 17,-16 49,-56 73,-60 34,-6 56,24 76,42l78 75c34,30 107,76 112,121 30,3 32,4 50,22l47 52c2,1 4,3 5,4l161 144c34,37 -6,24 42,29 -2,9 -91,137 -17,233 44,58 102,55 170,55 45,0 52,-26 81,-45l50 30c1,2 3,3 5,5l41 39c2,1 4,3 5,4 2,1 4,3 5,4l360 332c1,1 3,3 4,4l104 102c9,9 18,19 27,27l200 186c37,31 101,67 105,120 56,-5 41,-13 88,29l13 13c2,1 4,3 5,5 1,1 3,3 4,4 38,37 65,64 70,119l-45 0c-35,150 10,135 204,307 12,10 16,12 25,20l32 31c62,45 134,-8 170,-62 369,195 699,-9 799,-18 16,30 20,55 41,85l40 49c116,121 322,117 437,-1 121,-123 115,-295 13,-421 -53,-66 -133,-75 -199,-107 0,-255 37,-474 -94,-687 -71,-116 31,-74 31,-183 0,-63 -98,-127 -142,-163 -29,-23 -56,-44 -84,-69 -175,-152 -138,5 -268,16 -4,-35 -5,-30 -36,-50 -19,-12 -34,0 -58,-25 -14,-14 -10,-16 -30,-33 0,0 -12,-9 -16,-12l-15 -11c-2,-2 -4,-3 -5,-5 -37,-33 -45,-71 -84,-104 -42,-34 -85,-54 -124,-92l-151 -118c-2,-1 -3,-3 -5,-4 -2,-2 -7,-7 -8,-9l-52 -38c-2,-1 -3,-3 -5,-5 -1,-1 -3,-3 -4,-4l-62 -46c-1,-1 -3,-3 -5,-5l-156 -121c0,-1 -4,-5 -14,-13l-28 -17c-2,-1 -4,-2 -6,-3 -48,-28 -83,-79 -130,-103 -14,-7 -26,-13 -39,-24 -27,-21 -78,-44 -71,-84 22,-138 10,-171 -110,-229 -26,-13 17,-7 -34,-12 -22,-2 -38,7 -58,13 -2,1 -5,2 -7,3 -38,12 -29,-16 -42,38 -39,-1 -20,2 -44,-9l-32 -22c-5,-5 -13,-12 -15,-13 -1,-1 -3,-3 -5,-4l-42 -30c-9,-9 -2,-3 -12,-14l-8 -10c-1,-2 -3,-4 -4,-5 -27,-23 -42,-22 -65,-43 -6,-6 -3,-4 -14,-12l-33 -22c-1,-1 -3,-3 -5,-4l-73 -53c-12,-9 -15,-15 -28,-25 -39,-33 -93,-58 -123,-102l423 -394c2,-1 3,-3 5,-4l27 -27c1,-2 3,-3 4,-5 1,-1 3,-3 4,-4l20 -17c1,-1 4,-2 5,-3l167 -156c2,-2 3,-4 5,-5 18,-19 13,-27 49,-31 4,-41 11,-26 37,-45l115 -109c1,-1 3,-3 5,-4l449 -412c74,-80 125,-116 209,-187 22,-19 32,-35 58,-49 40,-23 57,-6 61,-56 136,72 242,4 218,-101 -10,-45 -28,-50 -48,-87l419 -390c51,-39 93,-95 147,-131 358,189 376,-91 208,-370 -115,-191 -309,-433 -517,-533 -69,-33 -212,-81 -254,17 -15,37 -11,90 -21,132 42,11 45,69 45,108 0,35 -41,44 -71,45l10 35c-47,2 -41,19 -76,34 -88,36 -101,62 -176,111l-141 101c-2,1 -4,3 -6,4 -1,1 -4,2 -5,3 -2,2 -18,15 -20,17 -13,12 -16,19 -26,27 -21,18 -96,72 -117,72 -22,0 -40,-29 -65,-43 -124,-67 -201,92 -132,222 -78,7 -20,45 -117,45 0,11 1,8 -2,16 -11,35 -72,60 -110,96 -12,12 -5,5 -15,13l-805 613c-20,16 -37,27 -56,42l-325 250c-16,10 -22,10 -34,19l-438 344c-5,4 -5,5 -14,12l-86 49 -232 -171c-1,-1 -8,-9 -14,-14l-66 -50c-2,-2 -4,-3 -5,-4l-51 -39c-44,-31 -85,-64 -127,-98l-335 -257c-13,-9 -22,-14 -32,-22l-29 -25c-1,-1 -3,-3 -5,-4l-61 -46c-90,-55 -101,-81 -154,-116l-125 -90c-10,-7 -4,-2 -15,-12l-119 -97c-6,-4 -10,-7 -16,-11 -1,-1 -3,-2 -5,-3 -42,-29 -79,-68 -124,-92 -54,-29 -275,-219 -303,-235 -20,-11 -16,-6 -35,-19 -15,-10 -122,-98 -122,-103 0,-100 56,-92 -20,-168 -24,-24 -19,-19 -34,-47 -43,0 -62,-13 -89,-1 -95,42 -39,102 -240,-74 -32,-28 -65,-40 -99,-63 -22,-14 -26,-10 -30,-42 -66,-5 -89,-79 -186,-109 -42,-13 -71,-49 -105,-75 -22,-16 -18,-20 -50,-22 1,-41 6,-95 54,-99 -20,-43 1,-99 -14,-147 -58,-174 -339,13 -401,64 -42,35 -64,58 -103,94l-51 48c-136,145 -319,386 -319,587z"/>
    <path class="fil4 str2" d="M6670 7600c0,11 19,20 14,0 -5,-20 23,0 -4,-3 -11,-1 -10,-15 -10,3z"/>
   </g>
   <path class="fil4 str3" d="M1429 2979c-58,-31 11,-120 61,-96 60,31 98,92 158,123 20,10 43,15 65,22 12,-17 25,-32 41,-46 -3,22 -17,38 -28,56 -33,-4 -68,-9 -96,-28 -50,-32 -86,-82 -136,-113 -35,-24 -60,21 -80,43 64,59 132,116 210,155 45,24 97,28 147,26 35,-2 52,37 82,48 39,-13 73,-36 112,-47 3,4 9,13 12,17 -43,9 -82,33 -123,49 -29,-4 -45,-30 -64,-48 -48,1 -97,0 -143,-18 -85,-25 -147,-94 -218,-143zm15 -39c8,-13 19,-24 29,-35 50,35 90,84 142,118 38,24 84,24 126,38 14,14 27,28 40,44 -136,21 -241,-86 -337,-165zm329 51c29,-25 -6,-78 32,-97 47,-11 95,0 143,-5 1,7 1,13 2,20 -47,-7 -96,-2 -143,-6 -6,32 1,66 -13,97 -5,-2 -15,-7 -21,-9zm41 -35c-2,-15 0,-41 22,-39 48,-3 97,0 145,4 -16,15 -30,31 -49,41 -23,0 -46,-20 -68,-6 -16,5 -36,19 -50,0zm-72 80c7,-7 20,-22 27,-30 40,40 84,80 111,130l-4 14c-6,2 -17,6 -22,8 -43,-35 -78,-79 -112,-122zm60 -29c5,-15 15,-21 30,-20 35,32 65,68 95,103 13,11 15,37 -6,40 -17,9 -31,-15 -42,-25 -26,-32 -63,-59 -77,-98zm220 -149c208,-259 426,-512 663,-746 70,-63 141,-125 217,-180 28,-20 57,-39 81,-65 5,1 17,4 23,6 -210,142 -393,319 -560,509 -110,122 -217,245 -321,372 -47,52 -83,113 -137,159 2,-23 20,-38 34,-55zm-155 143c-18,-19 10,-56 30,-32 33,30 66,62 85,103 -53,11 -87,-33 -115,-71zm325 -296c253,-297 505,-605 832,-824l19 0c-7,-21 -27,-14 -42,-20 116,-83 245,-146 371,-213 -2,7 -3,15 -5,23 -112,45 -215,110 -318,172 -1,10 -3,20 -4,29 84,-68 182,-115 278,-164 38,-22 78,-39 119,-56 -5,-3 -15,-8 -21,-11 -14,13 -30,20 -48,13 75,-44 161,-67 242,-99 210,-70 429,-115 650,-129 83,-12 166,-4 249,-5 49,5 89,-36 116,-72 -11,-96 -44,-187 -77,-276 -11,-31 -22,-62 -40,-89 -48,-74 -84,-156 -145,-221 -47,-60 -54,-151 -7,-213 31,-54 94,-71 141,-104 6,1 16,5 22,7 -20,10 -40,20 -60,29 -2,8 -4,17 -6,25 60,-42 129,-68 198,-90 -11,-4 -21,-7 -31,-11 -8,6 -23,18 -31,23 -10,-5 -20,-11 -29,-16 41,-5 82,-18 118,-39 4,8 8,15 11,22l-36 3c4,3 12,10 15,13 170,-59 356,-64 531,-31 0,-6 -1,-13 -2,-19 -53,3 -106,-16 -160,-14 -112,-2 -226,5 -333,42 -3,-10 -6,-20 -9,-30 14,18 35,6 53,3 191,-46 393,-34 579,25 -5,1 -15,5 -20,7 -28,-10 -56,-16 -84,-25 -5,2 -15,7 -20,9 84,24 173,41 248,88 -3,-9 -6,-18 -8,-26 -36,-12 -71,-27 -108,-35 -2,-7 -4,-15 -6,-22 100,42 204,80 290,147 50,45 75,119 53,184 -12,45 -46,79 -74,115 -36,46 -67,95 -98,145 -1,-5 -5,-15 -7,-20 38,-49 68,-103 108,-150 33,-39 66,-83 66,-137 3,-62 -36,-119 -86,-153 -5,0 -13,1 -18,1 0,15 22,17 31,26 70,51 79,160 22,224 -79,90 -138,194 -195,298 8,-2 17,-5 25,-8 10,-25 22,-49 33,-74 9,-2 18,-5 27,-7 -77,114 -121,248 -148,382 14,32 50,50 75,72 52,13 106,4 159,10 443,16 880,158 1255,394 22,15 46,29 63,50 -27,0 -53,-36 -77,-52 -5,3 -16,8 -22,10 35,24 70,46 103,72 4,-7 10,-20 14,-27 176,124 338,266 479,428 124,144 251,287 365,439 -31,-23 -55,-54 -78,-83 -214,-262 -431,-526 -705,-727 -3,1 -8,1 -11,2 0,19 30,30 42,45 215,162 392,368 563,575 30,36 62,71 88,111 -3,14 -2,37 16,17 71,87 140,177 208,267 6,-6 18,-14 9,-22 -46,-64 -101,-122 -141,-189 71,67 122,154 186,229 60,4 120,-2 180,4 37,12 19,60 24,90 28,10 56,19 69,48 98,0 152,-94 229,-138 40,-16 65,30 90,52 -6,43 -51,59 -80,84 -61,46 -125,93 -201,108 -38,8 -77,0 -114,4 -23,14 -40,45 -69,44 -34,-13 -68,-29 -100,-47 -32,16 -65,31 -95,51 -5,-2 -15,-6 -21,-8 26,-13 52,-27 77,-41 -5,-2 -15,-5 -20,-7 -39,25 -80,45 -121,66 -16,7 -49,-5 -45,23 -25,15 -51,28 -76,41 -2,-8 -6,-23 -7,-31 1,8 3,24 4,32 -56,24 -106,65 -166,78 17,5 35,9 53,13 -219,114 -440,228 -659,343 -182,98 -368,187 -547,289 1,-9 3,-18 5,-26 12,-5 37,-14 49,-19 -2,-3 -6,-10 -8,-14 -77,35 -148,82 -226,114 12,12 30,14 45,21 -33,1 -59,24 -88,36 -9,6 -15,-2 -20,-8 8,-9 75,-21 46,-39 -65,37 -131,71 -197,104 18,3 36,7 53,12 -20,3 -39,13 -57,22 -104,57 -212,107 -315,166 -14,7 -25,20 -42,20 -10,-11 26,-35 2,-34 -60,32 -120,66 -182,96 -16,7 -50,-5 -46,23 -55,33 -114,58 -170,90 -2,-7 -7,-23 -9,-30 1,10 3,21 6,32 -34,16 -66,38 -102,50 -80,-1 -160,-3 -240,-2 13,-12 26,-25 38,-38 40,0 86,-9 120,19 14,12 34,9 52,7 18,-19 33,-44 59,-54 102,-48 198,-111 304,-151 -8,-4 -16,-8 -23,-12 -16,11 -35,19 -53,26 -3,-86 13,-172 13,-259 0,-45 8,-90 8,-135 5,0 11,0 17,0 -10,31 -9,63 -10,94 -4,94 -14,187 -14,281 124,-63 247,-127 370,-192 51,-30 109,-49 157,-86 -3,9 -5,17 -8,26 -90,40 -178,88 -265,136 5,2 16,6 22,8 13,-10 26,-19 40,-28 9,9 19,18 28,26 -5,-7 -15,-20 -21,-27 41,-20 80,-45 123,-61 56,-30 110,-70 173,-84 -10,-6 -19,-11 -28,-17 -14,11 -28,22 -41,34 -6,-2 -18,-6 -24,-8 42,-25 89,-44 130,-72 6,1 17,4 23,6l-47 25c6,2 18,5 24,7 42,-27 86,-56 136,-66 -9,-6 -18,-11 -26,-16 -25,20 -54,33 -79,50 -9,-5 -17,-10 -26,-15 21,3 39,-11 57,-19 63,-36 130,-65 192,-104 -9,18 -19,35 -28,53 56,-39 119,-64 177,-98 -6,-1 -17,-4 -23,-6 -35,24 -75,40 -109,65 -5,-2 -15,-6 -20,-8 67,-41 141,-68 206,-112 -2,9 -5,17 -7,26 -11,4 -32,11 -42,15 -2,9 -3,17 -5,25 41,-29 88,-49 133,-71 -3,-4 -10,-12 -13,-16 -15,11 -29,22 -43,33 -6,-2 -18,-5 -24,-7 37,-21 76,-39 111,-64 -2,15 -29,32 -14,44 69,-37 139,-76 211,-109 2,-8 5,-17 8,-25 -37,24 -78,43 -116,65 -7,0 -21,0 -28,0 44,-29 95,-47 139,-77 8,-3 26,-21 33,-8 -5,14 -14,26 -21,39 52,-33 108,-61 163,-88l19 0c-8,-6 -16,-13 -23,-19 -16,12 -32,23 -49,31 -2,-3 -7,-10 -9,-13 35,-16 70,-32 101,-55 -1,12 -38,44 -12,41 62,-32 123,-65 186,-95 0,-2 0,-6 0,-8 -27,-12 -45,25 -67,32 2,-9 3,-17 5,-26 50,-23 98,-50 146,-75 4,5 8,9 11,14 -12,5 -36,14 -49,18 -2,9 -4,18 -6,27 41,-29 87,-51 134,-71 -3,-4 -9,-14 -11,-18 -19,13 -38,26 -57,40 2,-6 5,-17 7,-22 29,-21 64,-33 92,-55 -3,14 -27,31 -15,44 62,-34 125,-66 188,-98 1,-2 1,-6 2,-8 -34,-5 -63,27 -91,43 -9,-5 -18,-10 -27,-16 45,-4 82,-36 122,-54 18,-6 35,-31 55,-22 -7,14 -17,27 -23,42 28,-21 59,-41 94,-46 17,1 23,-16 34,-25 15,-11 32,-19 48,-29l-7 -3c-47,12 -91,41 -132,67 2,-8 5,-17 8,-25 65,-31 130,-63 191,-102 -9,18 -20,35 -28,54 45,-32 97,-56 148,-80 9,13 18,25 27,37 -18,14 -36,21 -57,20 8,6 16,12 24,18 24,-26 56,-29 75,7 -5,-15 -12,-30 -18,-45 40,-38 69,-99 125,-113 3,5 10,15 13,20 -21,49 -75,76 -101,121 -10,22 24,30 39,35 34,0 51,-47 87,-40 68,6 135,-14 195,-43 -3,-3 -9,-10 -12,-13 -59,21 -128,63 -191,33 22,-14 44,-65 75,-38 7,-9 14,-18 21,-27 -30,18 -48,-7 -62,-28 -14,-3 -27,-6 -40,-11 -22,-27 -1,-68 -22,-93 -56,-6 -112,2 -167,-6 -24,-6 -45,-20 -68,-26 34,41 74,77 113,114 -13,12 -25,24 -39,34 -12,-10 -31,-26 -42,-8 6,8 19,22 25,29 -34,29 -79,41 -114,70 3,-9 6,-18 9,-27 29,-14 58,-29 87,-43 -69,-48 -128,-108 -179,-175 -174,-222 -354,-439 -544,-647 -299,-326 -700,-555 -1133,-647 -92,-23 -186,-36 -280,-54 -83,-7 -165,-18 -248,-21 -39,-1 -80,-13 -118,0 -6,84 -8,168 -7,252l-10 -1c4,-72 -6,-145 4,-217 -6,0 -12,1 -19,1 6,105 3,211 -3,317 -5,198 -4,397 -6,595 3,37 -39,63 -36,98 21,-17 30,-43 43,-65 8,-2 15,-3 23,-5 -56,85 -115,170 -144,268 -5,13 -6,29 -16,40 -2,-2 -5,-5 -6,-7 21,-72 47,-145 90,-207 1,-6 2,-17 3,-22 -20,9 -26,32 -38,49 -34,65 -58,136 -77,207 7,7 15,12 24,15 -16,79 -27,161 -16,241 7,196 39,389 84,579 14,51 20,105 45,152 -7,-1 -14,-2 -21,-3 -70,-284 -133,-575 -119,-870 1,-27 4,-55 15,-81 -6,-5 -13,-9 -19,-13 -26,183 0,367 22,549 29,169 64,338 116,502 9,24 5,50 3,76 -8,93 -11,187 -15,280 -12,57 -5,116 -12,173 -23,28 -59,38 -93,42 -12,8 -29,50 -40,27 -7,-40 2,-82 -9,-123 36,-35 62,-85 49,-135 -4,-37 -29,-65 -44,-97 -3,-36 -4,-72 -8,-107l13 5c-1,-6 -3,-17 -4,-23 0,-4 1,-12 1,-16 42,-38 70,-88 83,-142 11,-102 -64,-182 -81,-278 20,-49 34,-104 14,-156 -17,24 -15,54 -19,81 -5,0 -14,-2 -18,-3 -8,-50 -8,-102 -22,-152 -37,147 5,303 76,432 28,92 -60,178 -144,197 0,-65 -1,-131 3,-196 -3,-23 23,-37 42,-24 24,10 30,37 42,57 -12,23 -24,45 -36,67 21,-4 38,-17 55,-30 10,-39 13,-88 -20,-118 -20,-22 -51,-28 -77,-41 -9,-30 -2,-61 -2,-91 8,-186 -4,-373 9,-558 47,57 43,134 62,201 20,-85 -10,-172 -29,-256 11,-61 25,-123 48,-181 24,-106 78,-202 127,-298 38,-77 57,-173 18,-254 -12,-28 -4,-65 -29,-88 -23,-25 -60,-31 -91,-19 -7,-3 -20,-8 -26,-11 1,11 2,23 4,34 26,-5 51,-3 76,6 -1,3 -2,9 -3,13 -44,-20 -90,11 -113,47 35,-5 51,-43 88,-46 -17,16 -34,32 -52,47 23,1 47,-21 70,-6 36,17 51,59 50,97 2,60 -12,121 -46,172 -8,23 -33,14 -45,2 -31,-22 -41,-70 -16,-100 21,-9 41,6 61,12 -5,-36 -38,-50 -69,-57 -61,26 -71,105 -42,158 15,24 38,42 58,61 -36,60 -62,127 -92,191 -9,-111 0,-221 -2,-332 1,-176 1,-353 8,-529 23,-1 46,0 70,0 27,-27 54,-62 43,-104 -17,21 -33,42 -54,58 -4,12 18,11 25,17 -25,26 -89,25 -79,-23 9,8 29,25 39,33 -5,-16 -12,-31 -19,-46 12,-21 32,-22 54,-12 -2,-22 -23,-33 -37,-46 35,-6 66,-24 98,-39 19,50 24,106 3,155 -10,33 -34,60 -36,95 28,-24 50,-54 74,-83 -6,37 -24,70 -50,96 -28,26 -96,15 -81,-34 32,12 22,-23 17,-41 -22,16 -56,34 -48,67 8,25 25,47 32,73 63,-12 117,-49 159,-95 -1,-5 -4,-16 -5,-21 -10,10 -29,29 -38,39 20,-52 47,-107 30,-164 -6,-40 -31,-74 -56,-104 -44,19 -88,53 -139,47 0,-10 1,-31 1,-41 68,-12 139,-44 169,-109 9,-32 24,-64 25,-97 -12,-42 -13,-90 -49,-121 -19,-26 -70,-21 -80,12 -1,19 2,38 4,57 -28,-16 -40,-51 -25,-80 17,-19 39,-33 60,-48 13,17 34,23 52,33 22,20 43,41 68,57 10,51 26,104 7,155 -10,37 -37,65 -53,99 6,36 36,63 44,99 13,54 10,118 -27,164 9,-2 17,-4 26,-6 36,-82 22,-179 -31,-251 18,-38 48,-72 58,-114 9,-39 4,-78 -6,-116 -7,-28 18,-57 1,-83 -24,-31 -55,-55 -84,-79 48,0 88,33 114,71 7,52 6,105 -1,157 14,-5 31,-8 31,-29 122,-4 245,4 365,26 15,1 29,3 44,4 43,8 87,10 128,27 -1,-7 -1,-15 -2,-22 -182,-28 -365,-55 -549,-49 -1,-33 1,-66 2,-98 56,1 112,0 168,4 0,-6 0,-13 0,-19 -48,3 -96,4 -143,-1 -40,-14 -70,-47 -100,-76 11,-70 28,-140 57,-206 6,-12 4,-27 2,-40 -38,75 -53,159 -75,240 -27,2 -55,2 -82,2 -16,-14 -37,-15 -55,-4 -60,-34 -114,-76 -172,-113 -11,-6 -25,-17 -37,-6 -68,36 -127,86 -197,117 -13,-23 -23,-49 -20,-77 -8,5 -17,11 -24,17 14,12 19,31 18,50 -29,21 -71,11 -101,-2 -20,-86 -38,-173 -72,-256 -25,-75 -67,-142 -101,-213 -31,-37 -54,-79 -86,-114 -47,-51 -62,-134 -22,-194 16,-31 47,-48 76,-67 -6,-2 -17,-5 -23,-6 -47,36 -91,86 -88,149 -5,61 35,110 66,158 56,66 101,142 133,223 52,97 81,205 101,313 8,26 -21,39 -37,54 -24,18 -48,40 -80,41 -102,5 -205,-3 -307,9 -196,15 -389,57 -576,116 -67,22 -133,49 -199,72 -2,9 -4,17 -6,25 75,-42 159,-65 239,-93 286,-92 589,-127 889,-116 1,33 10,69 -5,99 -50,-9 -101,-6 -151,0 -179,0 -357,27 -533,59 -243,52 -484,132 -694,264 7,0 23,1 31,1 52,-26 99,-68 158,-75 -21,21 -53,30 -78,44 -205,108 -392,248 -553,413 -189,197 -371,401 -545,612 -57,69 -120,133 -195,183 28,16 56,32 84,48 -4,2 -10,8 -14,11 -16,-14 -34,-26 -50,-40 -7,1 -19,4 -26,6 53,29 104,60 155,92 -5,-16 -12,-32 -20,-47 46,33 98,56 143,91 -7,-4 -20,-10 -27,-13 -10,0 -21,2 -30,5 10,6 31,16 41,22 9,5 29,15 38,20 -4,-13 -9,-26 -14,-39 73,43 149,82 222,126 -5,1 -15,5 -19,6 -15,-12 -31,-23 -47,-33 -7,0 -21,-1 -28,-1 37,21 75,52 115,62 -8,-13 -16,-26 -22,-40 24,17 49,33 73,48 -5,0 -17,0 -23,0l-9 -3 -6 1c20,20 45,32 66,49 -8,-19 -19,-36 -27,-54 66,43 136,83 207,118 3,8 5,17 8,26 -18,-15 -37,-29 -57,-41 -7,0 -21,1 -28,1 86,51 173,99 261,146 -2,-16 -14,-29 -19,-44 78,55 164,98 248,143 3,9 5,17 8,26 -20,-16 -41,-30 -61,-46 -6,2 -16,6 -22,8 40,23 81,44 118,72 -8,-19 -18,-36 -26,-54 25,19 52,35 77,53 -18,-3 -36,-10 -55,-12 35,27 75,44 109,70 -2,-9 -4,-19 -7,-28 -10,-4 -30,-11 -41,-14 -2,-9 -5,-17 -7,-26 57,43 124,70 183,109 -3,2 -9,7 -12,10 -29,-27 -68,-38 -96,-65 -5,2 -15,7 -20,9 50,31 103,56 151,89 -6,-15 -12,-30 -17,-46 48,35 104,58 151,93 -47,-5 -86,-42 -125,-68 2,10 4,19 7,28 48,25 99,48 141,84 -7,-18 -18,-35 -25,-53 45,32 95,56 143,84 -3,3 -10,8 -13,11 -21,-11 -40,-43 -67,-35 0,2 1,7 1,9 37,20 76,38 109,65 -8,-18 -18,-35 -27,-53 20,15 42,28 64,39 0,3 -1,9 -2,12 -14,-5 -27,-9 -41,-12 21,16 44,31 66,45 21,0 -12,-23 -3,-32 26,9 46,28 70,41 -13,2 -49,-18 -46,5 23,3 43,28 63,25 -7,-13 -15,-26 -21,-40 21,16 46,30 66,48 -6,-1 -19,-3 -25,-5 -28,7 -21,39 -17,60 -43,-26 -90,-47 -129,-78 2,9 4,18 6,27 20,9 40,19 60,28 -5,7 -11,16 -21,10 -143,-82 -291,-158 -432,-244 8,0 23,0 30,0 26,13 51,27 73,45 5,-2 14,-7 19,-9 -41,-23 -82,-44 -122,-69 15,-19 -4,-18 -18,-10 -30,-15 -60,-32 -90,-49 3,-5 7,-13 9,-17 -3,4 -9,12 -12,16 -196,-112 -395,-219 -591,-331 -61,-36 -126,-64 -183,-107 2,9 4,17 6,26 26,11 56,21 61,53 -76,-47 -157,-85 -231,-134 8,0 23,0 30,0 38,23 80,41 115,69 4,-2 14,-7 18,-10 -93,-53 -188,-103 -281,-156 -52,-37 -117,-53 -166,-96 6,19 13,37 28,52 -45,-23 -87,-53 -133,-74 7,-7 19,-12 19,-23 -19,-11 -37,-22 -54,-35 21,-17 48,-36 31,-65 150,-96 245,-250 364,-378l-15 -16c-83,93 -158,193 -243,284 -40,36 -79,78 -130,96 -12,-11 -22,-24 -32,-36 102,-78 171,-187 255,-282zm151 -63l14 16c109,-128 224,-250 338,-374 81,-83 164,-166 257,-237 14,-12 33,-22 39,-41 -2,-1 -6,-4 -8,-6 -242,183 -437,418 -640,642zm658 -653l8 4c4,1 12,1 16,1 49,-48 117,-72 165,-119 -2,-2 -5,-6 -6,-8 -63,37 -126,76 -183,122zm1498 -1343c-6,21 12,36 23,50 -1,-23 -18,-50 -1,-72 24,-33 66,-42 101,-58 -7,-10 -20,-10 -30,-3 -37,19 -86,37 -93,83zm21 4c3,12 5,24 8,35 14,18 26,36 38,54 -13,-4 -27,-8 -40,-12 15,18 24,39 26,63 21,-7 11,-28 5,-43 24,24 48,57 49,91 -12,-12 -20,-26 -26,-42 -15,-5 -15,15 -8,23 16,19 21,51 46,59 -1,-6 -3,-18 -4,-23 21,30 34,65 50,99l-8 13c24,20 32,51 44,78 36,98 69,198 93,300 55,-35 110,-69 165,-105 16,-9 36,-26 55,-14 64,39 122,86 188,123 41,-155 102,-303 168,-449 9,-3 18,-6 28,-9 -10,14 -28,43 -38,58 6,-2 17,-6 23,-8 24,-46 44,-93 71,-137 -12,-15 -31,13 -45,15 27,-44 54,-89 77,-136 8,-19 -1,-42 -19,-52 -149,-89 -324,-133 -498,-126 -116,-3 -227,34 -338,65 -36,27 -87,38 -110,80zm115 -86c54,-33 118,-47 181,-58 0,-7 0,-15 -1,-22 -34,19 -73,23 -110,35 -26,7 -51,22 -78,19 2,9 5,18 8,26zm-2606 2596c16,16 46,31 67,29 -14,-19 -39,-23 -57,-38 -2,2 -8,7 -10,9zm2489 -2456c3,26 37,-6 8,-7l-8 7zm-2361 2460c22,4 48,36 66,23 -11,-20 -35,-26 -54,-37 -3,4 -9,11 -12,14zm2684 -2660c189,-44 391,-4 566,76 38,21 95,37 99,88 -11,42 -38,79 -63,115 5,-2 16,-6 22,-8 21,-27 38,-58 49,-91 11,-34 -12,-69 -41,-84 -106,-61 -225,-102 -347,-116 -94,-21 -191,-7 -286,0 0,7 1,14 1,20zm-228 399c13,23 23,47 34,71 1,-5 5,-16 6,-21 -11,-23 -20,-47 -30,-70 -3,5 -7,15 -10,20zm-2274 2342c-6,-3 -17,-8 -23,-11 -14,14 27,37 23,11zm0 16c22,13 45,26 68,39 1,-1 5,-4 6,-5 -13,-17 -34,-26 -49,-40 -7,1 -19,4 -25,6zm2302 -2287c35,78 70,157 87,241 7,2 15,4 22,6 -29,-79 -57,-158 -82,-239 -9,-2 -18,-5 -27,-8zm827 -511l1 10c25,13 13,-32 -1,-10zm-707 793c-3,-5 -8,-16 -10,-22 -32,-5 2,56 10,22zm740 -777c12,35 26,-22 0,0zm-2883 2935l4 10c3,-1 11,-4 14,-6l0 -8 -10 -4 -8 8zm2939 -2907c-3,-5 -9,-14 -12,-19 -26,-2 3,44 12,19zm-2925 2928c30,-12 55,39 78,25 -15,-17 -37,-28 -54,-43 -8,6 -16,12 -24,18zm2726 -2477c-50,119 -96,240 -136,363 12,-6 28,-10 26,-27 32,-111 74,-219 122,-324 -4,-4 -8,-8 -12,-12zm61 162c4,-8 13,-25 18,-33 -3,-3 -8,-9 -11,-12 -8,9 -26,40 -7,45zm-2435 2508c25,5 47,19 67,35 -3,-8 -5,-17 -7,-25 -19,-9 -37,-20 -54,-32 -2,7 -4,15 -6,22zm62 40c29,-16 54,36 78,23 -17,-17 -38,-28 -55,-44 -8,7 -16,14 -23,21zm2547 -2205c73,4 148,5 219,22 19,0 38,-1 55,-8 -81,-19 -166,-13 -248,-32 -7,5 -19,13 -26,18zm266 29c108,9 213,40 319,65 4,-4 9,-8 13,-12 -100,-24 -199,-48 -299,-68 -12,5 -22,10 -33,15zm-692 848c14,-10 15,-20 3,-30 -14,9 -15,19 -3,30zm-8 15c17,20 36,46 66,41 29,1 46,-28 50,-53 -10,6 -29,19 -39,26 -23,-16 -51,-44 -77,-14zm-1595 1663c83,45 168,88 247,141 -2,-8 -5,-17 -7,-26 -83,-45 -168,-86 -246,-140 2,8 4,17 6,25zm2434 -2389c85,12 168,36 251,59 49,15 100,28 146,53 9,-4 18,-8 27,-12 -95,-32 -191,-64 -289,-87 -45,-12 -92,-17 -136,-34 0,7 0,14 1,21zm-2332 2368l3 11c26,11 11,-35 -3,-11zm2542 -2429c80,25 161,48 236,86 -7,5 -19,16 -25,21l22 0c-4,14 -7,28 -9,43 -4,10 -8,20 -11,30 149,59 296,129 424,225 -6,-15 -8,-36 -27,-41 -123,-77 -252,-145 -388,-197 5,-28 10,-56 15,-84 75,30 148,65 218,106 -3,-9 -7,-19 -10,-28 -65,-25 -124,-61 -189,-85 -86,-39 -176,-65 -265,-96 2,5 7,15 9,20zm470 196c48,23 95,50 138,82 -1,-9 -2,-18 -4,-26 -49,-25 -97,-52 -142,-84 3,9 5,19 8,28zm181 216c154,105 294,230 417,371 130,145 256,293 378,445 86,106 163,222 273,306l14 -12c-124,-97 -209,-232 -308,-351 -168,-201 -334,-404 -525,-584 -21,-23 -52,-39 -62,-70 6,0 17,0 23,-1l-26 -14c2,10 3,20 4,29 -64,-50 -131,-99 -195,-150 2,10 4,21 7,31zm69 -71c9,14 27,36 45,31 0,-16 -30,-37 -45,-31zm-1493 2549l6 6c30,-3 -11,-35 -6,-6zm30 -1c49,-37 106,-61 161,-88l19 -1c-9,-5 -17,-11 -26,-16 -46,31 -96,55 -146,78 -3,9 -6,18 -8,27zm167 -18c26,-21 58,-35 89,-49 2,-9 4,-17 5,-26 -27,25 -62,39 -97,51 0,8 1,16 3,24zm149 -134c7,6 21,17 27,23 -26,13 -53,26 -79,40 4,2 12,8 16,11 69,-42 142,-75 212,-115 2,-2 6,-8 8,-11 -1,-1 -5,-4 -6,-6 -48,27 -95,55 -147,73 -10,-5 -21,-10 -31,-15zm206 -139l5 9c5,-1 16,-2 21,-3 8,-15 -26,-24 -26,-6zm174 -90l5 8c5,-1 15,-2 21,-3 8,-15 -26,-23 -26,-5zm34 -15c4,2 12,4 16,5l1 -9c-4,-2 -12,-4 -17,-5l0 9zm32 -15c3,2 10,5 13,7l5 -11 -6 -9c-3,4 -9,10 -12,13zm204 -23c46,-33 98,-56 149,-80 2,-8 4,-16 6,-25 -58,33 -115,72 -179,89 8,5 16,11 24,16zm154 -99c6,1 18,4 24,6 118,-73 247,-129 369,-197 -6,-2 -17,-5 -22,-7 -121,71 -249,129 -371,198zm403 -192c125,-73 255,-138 384,-202 3,-9 5,-17 7,-25 -114,67 -235,123 -351,187 -22,10 -43,27 -68,26 9,4 18,9 28,14zm207 -191c4,1 11,3 15,4l4 -10 -7 -7c-3,3 -9,10 -12,13zm203 -22c36,-32 88,-40 120,-75 -1,-2 -5,-4 -6,-5 -44,23 -88,46 -132,70 4,2 13,7 18,10zm177 -176c4,1 11,3 14,5l5 -11 -7 -7c-3,3 -9,10 -12,13zm206 -108l6 6c29,-1 -9,-36 -6,-6zm480 -91c89,-13 145,-88 214,-137 12,11 23,21 35,32 -42,37 -87,69 -133,101 -2,10 -4,20 -5,30 50,-38 101,-76 152,-113 19,-34 -38,-81 -71,-57 -57,38 -102,97 -169,120 -6,6 -17,18 -23,24zm-3725 -2694c-10,1 -17,-2 -20,-11 18,-2 43,-24 60,-12 -11,11 -25,19 -40,23zm-1159 1338c18,-15 41,-22 62,-33 328,-141 688,-194 1043,-200 27,0 55,-4 80,8 12,25 10,53 10,80 -8,90 -8,180 -5,269 -7,0 -14,-1 -21,-2 11,-72 2,-145 7,-218 0,-39 8,-79 -5,-116 -45,-17 -95,-3 -142,-3 -335,14 -673,68 -982,205 -15,5 -31,19 -47,10zm-1280 1317c3,-1 10,-5 13,-7l5 11 -7 8c-3,-3 -8,-9 -11,-12zm36 117c82,46 167,87 248,135 2,3 6,9 7,12 -1,2 -4,5 -6,7 -46,-26 -94,-51 -138,-81 -37,-25 -81,-39 -111,-73zm2452 -1770c-2,-33 31,-48 52,-67 24,-25 60,-7 91,-12 42,-1 92,-14 130,6 2,121 -4,242 -7,363 0,11 -2,22 -5,33 -49,-1 -95,-27 -128,-62 8,-26 52,-21 71,-39 -10,14 -20,28 -31,42 27,11 58,-11 53,-40 -4,-72 -63,-121 -122,-153 16,-22 28,-51 55,-62 22,-7 32,15 47,27 21,6 -11,-35 -10,-32 6,-4 17,-13 23,-17 34,31 18,81 -19,101 -5,-3 15,-38 -3,-31 -6,2 -16,8 -21,11 -15,-2 -31,-3 -46,-4 22,41 90,46 112,2 24,-31 1,-99 -39,-94l-2 5c-5,24 -35,15 -51,18 -47,32 -61,87 -74,139 1,21 10,41 14,61 14,1 28,2 42,3 -8,14 -23,13 -36,12 8,57 62,97 113,116 21,11 59,5 60,38 -3,14 -14,24 -23,35l26 17c-21,-3 -40,-15 -61,-11 -7,7 -22,21 -30,28 18,1 37,2 55,2 0,15 -2,30 -4,44 -35,-10 -57,-39 -81,-64 -2,35 10,73 41,92 21,19 49,8 73,5 -4,196 0,392 -9,587 -3,86 1,172 -6,258 6,-1 12,-2 18,-2 -4,-52 -1,-105 2,-157 3,-76 1,-153 4,-230 -2,-190 5,-381 4,-571 11,-167 0,-335 14,-502 81,-2 163,-4 244,2 6,141 -2,283 -2,425 -9,308 -7,617 -11,926 -9,140 -5,280 -9,420 -5,183 0,365 -9,547 -3,236 -6,473 -7,709 -9,18 -41,22 -52,3 -4,-24 -1,-49 1,-74 -50,-9 -102,-14 -151,-1 2,23 6,46 3,70 -13,17 -36,7 -54,9 -2,-29 -3,-59 14,-84 -4,-3 -10,-11 -13,-14 3,-223 5,-446 7,-669 10,-206 5,-412 11,-618 3,-60 -5,-121 7,-180 -16,4 -31,9 -47,12 24,41 28,89 28,135 -2,53 10,116 -39,153 4,-31 16,-62 12,-94 -27,-156 -78,-308 -152,-449 -35,-63 -44,-136 -37,-207 2,-22 15,-40 26,-58 -2,-7 -6,-20 -8,-27 -19,43 -39,88 -36,136 5,61 21,122 50,175 69,134 117,279 143,427 11,49 -22,93 -24,142 0,47 -28,97 -3,143 12,-70 17,-147 64,-204 3,97 0,195 -5,292 0,118 -3,235 -2,353 -39,21 -89,32 -106,78 -25,44 2,113 57,116 -24,-29 -48,-71 -19,-105 13,-22 70,-35 65,3 0,66 2,132 -4,198 -65,-14 -119,-68 -139,-129 -20,-62 32,-113 52,-167 41,-102 70,-221 37,-329 -17,51 -12,107 -30,158 -23,-24 -15,-59 -22,-89 -36,47 -12,110 4,160 -25,90 -98,167 -87,265 3,104 91,181 184,212 3,65 4,133 -11,196 -31,-22 -31,-60 -35,-94 -39,42 -12,100 28,129 21,12 11,32 6,50 -23,-20 -43,-43 -65,-65 -6,-14 -12,-28 -19,-42 6,-12 11,-23 17,-35 -9,2 -25,5 -34,6 10,-35 38,-60 61,-88 -107,22 -147,185 -60,253 30,24 69,25 105,28 2,55 4,112 -1,167 -85,-41 -167,-89 -248,-137 -4,-110 0,-220 -8,-330l-13 5c26,-65 -5,-137 12,-204 69,-206 121,-417 154,-631 4,-17 3,-36 -3,-53 -14,22 -11,49 -15,73 -5,58 -29,113 -33,172 -24,150 -72,295 -116,439 -12,68 1,136 1,204 2,102 8,205 8,308 -13,1 -26,2 -38,4 91,54 186,103 278,157 15,10 23,27 32,42 9,0 27,0 36,0 0,7 0,13 -1,20 -25,-4 -53,2 -76,-11 -226,-127 -452,-252 -677,-379 -46,-28 -96,-49 -139,-80 -3,-15 -25,-44 -2,-51 31,9 57,31 86,46 3,-5 7,-9 10,-14 -17,-10 -41,-14 -53,-32 2,-2 5,-4 6,-5 31,21 71,32 95,62 -9,-5 -28,-16 -37,-22 2,6 6,17 8,23 30,24 67,37 96,61 -2,-8 -4,-16 -6,-24 -16,-9 -37,-15 -48,-31 2,0 8,-1 11,-2 40,22 79,45 120,66 2,8 4,16 6,25 -20,-16 -40,-30 -60,-45 -5,2 -17,5 -22,6 70,43 146,77 213,125 6,-2 17,-6 22,-8 -23,-13 -47,-26 -71,-39 3,-3 9,-7 12,-10 42,28 85,56 133,73 3,22 -34,1 -47,4 26,17 53,33 79,52 -2,-11 -35,-51 -10,-38 18,27 31,-10 25,-26 0,-110 -2,-220 -9,-329 -1,-53 -10,-107 9,-158 43,-130 80,-263 108,-397 26,-86 26,-176 47,-263 5,-61 15,-122 17,-183 4,-166 -37,-334 -127,-473 6,1 18,4 23,6 95,153 134,339 113,518 -4,33 -9,69 -2,102 18,-28 13,-63 16,-95 20,-162 -12,-329 -82,-475 -20,-47 -59,-86 -72,-135 4,-362 8,-723 14,-1084zm26 10c-1,17 7,33 11,49 -35,81 -11,172 40,239 -13,35 -40,63 -48,100 -8,38 -7,77 0,115 20,85 93,150 178,168 12,-30 45,-57 33,-93 -4,-26 -30,-38 -51,-48 9,23 30,43 24,69 -16,24 -50,30 -73,14 -30,-25 -51,-62 -53,-101 20,28 40,58 70,77 -7,-39 -33,-72 -41,-111 -11,-45 -5,-93 13,-135 38,16 75,35 113,52 -2,-8 -3,-17 -5,-26 -41,-3 -74,-28 -109,-46 -37,41 -66,91 -64,147 -1,42 19,80 27,120 -64,-67 -77,-180 -23,-257 8,-14 20,-28 23,-45 -22,-42 -54,-83 -57,-133 -6,-42 11,-83 17,-125 28,-15 51,-36 73,-58 3,-12 9,-21 18,-29 -2,10 -5,21 -7,32 10,-6 29,-18 38,-24 3,-2 9,-6 12,-9 -19,-31 -66,-25 -99,-20 -16,30 -56,42 -60,78zm21 801c17,3 31,13 45,23 -61,69 -42,169 -12,247 11,20 19,54 47,52 40,-6 72,-43 74,-83 1,-30 -26,-49 -40,-72 58,4 79,82 54,127 -14,34 -47,53 -75,74 33,58 66,119 81,185 5,-9 9,-18 13,-27 -28,-50 -47,-103 -75,-153 35,-29 74,-61 79,-108 3,-43 -14,-98 -61,-107 -34,-5 -60,22 -66,53 21,-5 48,-31 66,-5 32,42 -13,106 -62,103 -38,-67 -66,-150 -41,-227 6,-30 32,-54 62,-61 32,-5 70,42 39,66 -20,24 -46,-5 -66,-15 1,40 38,58 74,52 3,-15 9,-35 29,-26 10,-13 15,-27 14,-42 -11,-3 -19,3 -22,17l-9 -3c4,-5 11,-15 15,-21 -17,-12 -32,-26 -50,-37 -22,-5 -45,2 -67,1 27,-20 73,-33 96,2 -1,2 28,36 25,12 -13,-48 -72,-44 -110,-51 31,-17 66,-9 99,-10 -23,-20 -53,-38 -85,-28 -33,6 -53,36 -71,62zm71 982c5,0 5,0 0,0zm-298 1174c5,3 15,10 21,13 12,-4 12,-12 0,-23 -15,-6 -22,-2 -21,10zm-1776 -904c-2,-9 -4,-19 -6,-28 72,48 150,87 225,128 17,9 27,25 34,42 -83,-50 -168,-96 -253,-142zm2244 -2185c38,-29 79,-56 121,-78 38,18 67,55 101,81 -74,5 -148,3 -222,-3zm513 -474c15,-2 20,5 15,21 -5,-2 -14,-8 -19,-11l4 -10zm16 -16c12,-35 25,23 0,0zm-724 774c-1,-14 -2,-28 -3,-42 37,-11 71,15 87,47 -8,4 -16,7 -24,9 -10,-20 -13,-48 -41,-52 2,15 6,29 9,43 -7,-1 -21,-3 -28,-5zm-1871 1891c2,-2 6,-7 8,-9 17,12 38,20 53,35 -2,2 -6,7 -9,9 -17,-12 -38,-20 -52,-35zm1918 -1840c-2,-15 25,-23 28,-6 2,16 -25,23 -28,6zm-1835 1890c-8,-7 -9,-13 -2,-18 18,11 39,20 54,35 -2,2 -7,6 -9,8 -15,-8 -29,-16 -43,-25zm1655 -1624c5,5 15,15 19,21 -2,142 -3,284 -5,426 0,58 -4,116 2,174 4,8 12,24 16,32 -10,-2 -20,-4 -30,-6 -10,-36 -9,-73 -8,-109 7,-129 1,-259 6,-389 0,-50 6,-99 0,-149zm591 -478c1,-25 -3,-51 6,-76 50,-7 103,-4 154,3 -49,10 -98,34 -128,73 -31,47 18,128 75,95 -18,45 -60,78 -65,128 -9,29 21,56 49,49 -9,-14 -18,-29 -27,-44 25,12 50,24 75,35 -38,36 -86,65 -140,66 1,-110 -1,-219 1,-329zm-2245 2197c19,-7 50,14 58,33 -19,6 -51,-14 -58,-33zm73 56c0,-9 0,-19 0,-28 135,83 277,153 413,237 -30,5 -53,-15 -78,-26 -81,-48 -166,-91 -247,-139 -29,-16 -56,-35 -88,-44zm2246 -2197c-7,-24 14,-49 39,-39 31,13 79,75 20,85 -26,10 -9,-27 2,-32 -21,-1 -48,9 -61,-14zm-369 422c4,28 -58,37 -56,8 19,-1 37,-6 56,-8zm382 -302c15,-17 31,-33 47,-49 -4,19 -9,38 -13,56 -11,-2 -23,-4 -34,-7zm58 -51c4,-16 30,-6 31,8 -4,18 -30,6 -31,-8zm-45 92c7,-15 15,-15 23,-1 -7,16 -15,16 -23,1zm47 -54c10,-17 20,-17 30,0 -10,17 -20,17 -30,0zm-10 35c16,-5 21,1 14,17 -16,5 -21,-1 -14,-17zm-139 218c15,-36 26,28 0,0zm-1703 2093c-27,-14 -53,-29 -78,-47 31,-2 69,13 85,40 -2,2 -5,6 -7,7zm1978 -1533c6,-167 -5,-334 15,-500 7,56 0,112 1,168 -4,154 5,309 -9,462 -16,-42 -6,-87 -7,-130zm-221 -68c9,1 9,1 0,0zm66 -84c6,-1 18,-4 24,-5 8,17 21,21 39,12 4,14 8,27 12,40 0,5 -1,16 -2,22 -19,-28 -38,-59 -73,-69zm-96 265c-7,-41 5,-92 51,-103 -21,32 -36,75 -18,112 15,28 45,42 75,45 50,-71 78,-163 54,-249 8,2 16,3 25,5 3,47 8,96 -5,141 -15,64 -53,118 -80,176 -55,115 -98,236 -121,362 -8,30 7,60 7,90 -30,-29 -39,-67 -33,-107 -7,-137 57,-263 122,-378 -32,-25 -74,-49 -77,-94zm-1257 1683c-2,-9 -4,-18 -5,-27 106,67 218,126 329,187 -2,3 -7,10 -9,13 -107,-54 -209,-118 -315,-173zm831 -609c8,-17 18,-33 27,-49 4,54 -15,106 -34,156 -18,46 -49,87 -60,136 -8,1 -15,2 -23,3 22,-85 89,-156 90,-246zm-83 262c23,45 39,96 81,127 27,29 73,34 95,68 -1,23 -22,25 -39,17 -81,-36 -151,-120 -137,-212zm83 -41c7,-34 64,-87 92,-48 -24,25 -70,12 -92,48zm-8 11c10,0 10,0 0,0zm-460 472c3,-2 9,-6 12,-8 21,15 43,33 70,35 -8,4 -16,8 -24,12 -17,-15 -38,-27 -58,-39zm-28 96c0,-9 0,-18 0,-27 101,67 214,115 315,183 -1,101 10,201 10,301 0,146 8,292 13,438 2,77 -2,154 3,232 1,22 4,44 -7,65 -14,-60 2,-122 -11,-183 -8,-128 -4,-258 -12,-387 -8,-153 -3,-306 -11,-459 -100,-55 -197,-115 -300,-163zm1018 -576c-38,-83 -87,-169 -80,-264 9,16 18,33 27,49 -7,56 28,106 48,156 40,73 40,171 -13,237 -34,44 -84,76 -139,84 1,-9 3,-29 5,-38 44,-26 96,-45 126,-90 32,-36 44,-88 26,-133l0 -1zm-146 -40c-10,-34 26,-22 44,-13 19,13 31,33 46,49 -29,-15 -59,-29 -90,-36zm-410 600c-34,-36 -31,-89 -19,-133 9,39 17,79 35,116 25,14 52,31 83,26 25,-9 10,23 11,34 -40,1 -84,-10 -110,-43zm487 -555c11,0 11,0 0,0zm-619 789c4,-16 -17,-51 12,-50 78,41 158,83 233,131 5,36 -1,73 -6,108 -7,-23 -16,-45 -37,-59 -3,17 -5,34 -6,52 -12,9 -24,18 -36,27 -11,-4 -22,-9 -33,-14 19,-2 38,-1 56,-9 9,-30 -17,-47 -41,-56 5,-19 9,-39 12,-58 -52,44 -59,114 -65,177 -32,-55 -12,-115 -7,-173 -14,18 -27,35 -40,52 -25,-37 -46,-78 -40,-123l-2 -5zm334 -317c36,-8 74,-5 111,0 4,25 0,52 8,76 20,16 83,1 58,42l-23 22c2,-13 6,-25 11,-38 -20,-2 -45,4 -59,-14 -8,-24 -4,-50 -5,-75 -30,-2 -60,-3 -90,-5 -4,26 2,56 -14,79 -22,9 -48,9 -68,22 66,12 134,7 201,7 0,5 0,11 -1,17 -60,-11 -122,-3 -183,-9 -7,-3 -20,-11 -27,-14 18,-21 45,-28 71,-34 10,-24 5,-51 10,-76zm204 3c-13,-64 -8,-130 -5,-195 28,-18 60,-27 89,-44 14,31 25,77 6,108 -13,4 -27,-2 -41,-3 26,24 45,53 57,87 -10,-4 -28,-10 -38,-13 45,52 -23,99 -57,132 -25,12 -25,-34 -4,-39 43,-26 67,-88 29,-129 -3,36 -4,74 -36,96zm273 -376c-11,-13 -13,-25 -7,-38 5,7 14,19 19,26 -3,3 -9,9 -12,12zm-552 548c0,-33 37,-25 57,-16 -7,54 -3,110 -6,165 -1,25 -35,22 -50,11 -4,-53 -3,-107 -1,-160zm553 -537c7,2 14,5 21,7 1,41 0,82 -7,123 -3,-8 -8,-24 -10,-32 5,-32 7,-66 -4,-98zm-802 1090c3,-92 -7,-185 2,-277 7,13 21,38 29,51 3,-15 7,-29 10,-44 10,20 -5,37 -13,54 2,12 4,36 6,48 5,-8 15,-22 20,-30 13,44 34,94 80,110 -21,-51 -48,-102 -34,-159 11,20 12,62 45,57 29,2 47,-25 66,-43 -3,25 -17,46 -38,60 4,3 12,7 16,10 14,-19 27,-39 40,-59 5,12 11,24 16,36 2,-48 -1,-97 6,-146 82,-1 165,0 247,4 -2,45 8,93 -5,137 -22,2 -44,1 -67,3 23,17 51,10 77,7 4,-11 8,-22 11,-33 20,32 48,56 79,75 -40,50 -100,92 -167,86 -62,-5 -128,11 -187,-17 -34,-14 -59,-42 -86,-68 6,-14 12,-28 17,-42 -10,6 -29,17 -39,22 34,70 109,119 187,117 36,-1 71,0 107,1 79,5 158,-45 190,-117 -39,-8 -75,-25 -84,-67 26,22 56,49 93,40 5,-16 15,-46 19,-62 24,64 -26,114 -30,173 31,-22 44,-66 83,-77 -14,22 -29,43 -38,68 16,26 43,48 41,82 6,53 -47,107 -101,94 -27,-8 -43,-34 -56,-58 27,23 58,33 92,33 15,-13 37,-24 38,-46 8,-36 -25,-65 -56,-75 -50,10 -93,41 -141,56 -33,10 -67,2 -100,-1 -30,2 -60,9 -90,2 -52,-10 -96,-45 -147,-58 -43,-10 -90,44 -65,84 23,41 84,31 116,5 -9,27 -30,50 -60,50 -52,9 -93,-45 -92,-93 2,-34 30,-57 47,-83 -7,-21 -18,-39 -26,-59 -9,-2 -17,-4 -25,-6 13,19 25,39 37,58 -26,34 -57,76 -40,121 5,33 36,50 53,75 -19,13 -49,10 -71,7 -12,-33 -7,-71 -12,-106zm320 -447c-8,-42 0,-86 2,-128 37,-4 73,-2 110,0 7,46 9,93 0,139 -36,-5 -82,9 -112,-11zm330 -328c24,44 21,99 -13,136 -29,33 -81,52 -121,27 3,-4 8,-13 11,-17 33,-1 66,-7 93,-26 23,-36 28,-78 30,-120zm-200 213c-3,-29 34,-27 51,-18 11,13 3,30 3,45 -8,50 4,102 -8,152 -15,2 -29,3 -43,1 -8,-59 -7,-120 -3,-180zm-98 154c-13,16 -41,-14 -16,-18 4,4 12,13 16,18zm168 -11c-7,-56 -7,-113 3,-168 33,-4 67,-3 98,-19 4,44 2,88 4,132 -34,21 -70,38 -105,55zm-123 15c-11,-6 -11,-12 -2,-19 14,-5 26,-2 34,9 -8,10 -18,14 -32,10zm-303 443c-30,-27 -12,-75 26,-80 43,-1 77,30 115,44 60,32 128,7 192,18 74,9 132,-61 205,-54 -3,6 -8,17 -11,23 4,-6 13,-16 17,-21 23,23 29,54 6,80 -13,-23 -33,-36 -59,-31 5,8 16,24 21,32 -36,8 -34,-33 -39,-57 -14,16 -36,32 -31,57 10,39 52,55 87,62 42,-14 88,-45 88,-94 7,-39 -14,-74 -38,-103 25,-36 40,-78 45,-122 1,-21 13,-40 27,-56 8,58 5,118 -6,175 7,1 14,2 20,3 -2,-115 14,-229 14,-343 -4,-35 31,-50 54,-68 5,2 15,6 21,8 -20,11 -39,22 -59,33 -17,275 -30,550 -48,825 -2,29 -4,58 -1,87 -7,1 -13,2 -20,3 16,-57 8,-117 16,-175 -4,-5 -10,-17 -14,-22 0,104 -11,208 -18,312 6,-1 13,-1 19,-2 -3,-30 -1,-60 0,-90 4,-5 14,-16 19,-21 -12,62 -10,126 -16,189 -8,188 -21,376 -31,564 -2,47 -13,94 -3,140 -5,-5 -14,-15 -19,-20 15,-94 7,-190 20,-284 5,-119 14,-238 18,-357 1,-32 5,-63 13,-94 -7,-1 -14,-1 -21,-2 -17,338 -34,675 -56,1013 -2,50 -2,100 -9,150 -16,1 -33,30 -1,29 -3,59 -2,118 -11,176 -12,286 -33,572 -46,859 -12,97 -1,197 -23,293 6,0 13,0 19,0 2,-40 7,-79 6,-120 3,5 9,16 12,21 -25,409 -45,818 -71,1227 -9,3 -19,5 -28,8 23,-42 24,-92 26,-139 1,-103 12,-207 16,-310 -3,-6 -10,-17 -13,-23 0,31 -2,61 -4,92 -36,-6 -71,6 -105,14 -17,-26 -44,-38 -75,-35 -8,23 -14,47 -21,71 -29,-14 -15,-53 -39,-69 -29,-9 -52,12 -70,31 -36,-16 -78,-15 -112,-33 -2,105 1,210 5,315 -4,5 -13,16 -18,21 4,-113 -6,-227 -9,-340 7,0 19,1 25,2 -5,-2 -17,-7 -23,-9 -2,-78 1,-157 -10,-235 13,-23 23,13 34,21 -10,-91 6,-187 -18,-273 -7,18 -5,37 -3,55 8,56 3,113 8,169 -6,0 -17,1 -22,2 6,-46 -2,-91 0,-136 7,-71 -11,-141 2,-210 8,27 6,57 18,83 1,-2 5,-5 7,-7 -10,-193 -9,-387 -15,-579 -7,-1 -13,-2 -19,-3 12,134 12,268 11,402 0,37 11,74 1,111 -21,-40 -6,-85 -13,-128 -6,-115 -7,-231 -9,-346 -9,-130 -8,-260 -11,-390 -5,-132 -11,-264 -12,-395 -1,-122 -11,-243 -10,-364 -1,-176 -14,-352 -15,-528 0,-46 -5,-92 3,-137 22,76 14,157 17,235 3,108 0,216 11,324 4,126 4,253 7,379 15,181 1,364 18,545 -2,90 6,180 2,269 6,0 13,-1 19,-2 -5,-28 -6,-57 -5,-85 1,-157 -12,-314 -13,-471 0,-209 -19,-418 -16,-628 3,-80 -12,-160 -10,-240 3,-187 -13,-374 -14,-560 5,-147 -15,-292 -11,-439 3,-53 -7,-110 1,-162 13,-13 33,-10 46,3 5,-4 15,-13 21,-17 14,15 52,27 55,-3 30,-11 69,-30 66,-68 2,-20 -14,-34 -31,-41 1,25 -1,58 -36,52 4,-10 12,-29 16,-38 -23,0 -41,15 -54,32zm-60 110c29,39 66,70 109,91 -19,58 10,120 56,157 4,-2 12,-6 17,-8 -53,-29 -79,-96 -58,-152 -6,-7 -18,-22 -25,-29 46,1 94,4 136,-17 41,-16 70,-50 99,-82 27,30 53,63 90,81 41,23 87,29 132,32 -13,12 -17,26 -13,42 12,51 -19,115 -72,125 32,-31 65,-78 49,-126 -14,-34 -56,-25 -85,-23 -35,-20 -67,-47 -102,-65 -36,18 -69,43 -106,60 -27,2 -70,-14 -82,21 -20,41 6,83 27,117 8,-6 15,-13 23,-19 -50,-4 -64,-113 -2,-110 42,-5 70,54 32,80 -20,-13 -24,-39 -35,-59 -28,30 -10,90 36,80 9,4 25,10 33,13 -24,20 -53,6 -80,11l40 21c-31,-33 -42,38 -10,18 38,3 64,-26 76,-59 -16,-2 -32,-4 -48,-6 53,-10 43,-72 25,-108 24,-15 46,-32 72,-45 24,14 47,32 70,48 -20,25 -19,55 -15,85 3,18 -15,36 -3,53 19,34 67,44 101,26 58,-28 84,-98 69,-159 43,-19 84,-46 110,-86 -36,-1 -58,34 -93,41 -93,32 -187,-37 -238,-110 -51,70 -134,125 -223,108 -44,0 -70,-47 -112,-47zm6 471c3,75 81,138 155,123 72,-10 128,-62 169,-119 36,71 110,131 194,122 76,1 135,-79 123,-151 -15,-51 -52,-95 -55,-150 -5,3 -16,7 -21,10 -19,-20 -45,-17 -69,-10 23,14 46,27 67,44 -14,4 -27,8 -41,12 18,13 36,26 54,40 5,-12 10,-24 16,-37 -2,16 -5,32 -7,48 23,41 15,98 -26,125 -38,34 -97,15 -126,-21 -14,-43 43,-88 82,-64 -7,-6 -21,-19 -28,-26 -38,14 -82,50 -65,96 31,45 102,60 147,26 43,-29 44,-86 43,-132 21,38 23,86 -2,122 -33,57 -108,66 -165,45 -62,-21 -93,-80 -125,-132 -32,69 -92,132 -171,139 -78,14 -152,-71 -129,-146 18,40 26,99 76,111 36,15 76,-1 107,-20 34,-21 19,-74 -11,-93 -26,-22 -61,-8 -92,-10 25,-18 59,-36 89,-19 36,10 46,50 63,78 31,-32 49,-73 72,-110 17,40 36,80 65,113 17,-25 27,-56 53,-73 36,-17 78,-5 106,20l-28 -8c7,30 15,60 5,90 18,-12 36,-29 34,-53 5,-51 -56,-82 -100,-67 -36,5 -55,38 -75,65 -33,-41 -42,-92 -62,-139 -18,47 -30,98 -66,135 -15,-25 -31,-53 -61,-62 -44,-21 -106,4 -114,55 -8,27 19,45 33,62 -1,-20 -4,-39 -6,-59 34,-43 108,-9 102,45 -25,51 -108,56 -144,13 -25,-25 -21,-63 -29,-95 25,-22 48,-47 79,-62 0,-4 -1,-11 -1,-14 -8,0 -25,1 -34,2 19,-21 45,-33 69,-47 -37,-23 -86,2 -100,40 -17,46 -56,86 -50,138zm694 -513c-2,18 2,38 -12,52 7,1 14,2 22,3 2,-71 4,-141 13,-212 -3,-7 -9,-23 -12,-31 -10,62 -9,126 -11,188zm-13 153c6,0 12,0 18,-1 -3,-20 -1,-42 3,-62 -4,-7 -10,-22 -13,-29 -3,31 -4,62 -8,92zm-588 2781c1,58 33,110 41,167 -20,52 -46,105 -42,162 4,49 -5,109 42,141 6,-9 18,-26 24,-35 10,60 -34,110 -41,168 -12,45 6,90 17,133 4,-15 8,-30 2,-44 7,1 15,2 23,2 0,-7 1,-21 1,-28 50,19 104,-30 99,-81 2,-35 -28,-56 -49,-79 60,-142 -6,-290 -27,-433 34,10 75,-1 78,-41 12,-49 -37,-74 -72,-93 22,-33 54,-69 98,-65 46,-2 82,33 96,74 -38,11 -83,39 -73,85 3,37 40,56 74,44 -14,117 -71,229 -54,348 1,32 19,62 11,93 8,-2 15,-3 23,-4 -25,-67 -26,-140 -17,-209 20,-96 53,-191 57,-290 -8,8 -23,22 -30,30 -1,-20 -2,-39 -3,-59 11,5 23,9 35,13 -17,-33 -9,-77 -39,-104 -54,-63 -170,-34 -186,48 -42,158 56,310 39,468 -5,40 -23,78 -22,119 -34,27 -52,74 -52,116 -7,1 -14,2 -20,3 1,-36 7,-72 22,-104 30,-70 38,-147 28,-222 -7,8 -19,23 -25,31 -9,-10 -18,-20 -27,-30 16,-7 33,-13 50,-17 -6,-33 -10,-67 -24,-98 -18,-40 -15,-85 -29,-127 -25,-70 -25,-156 27,-214 43,-49 116,-83 181,-60 64,17 118,68 133,133 28,86 -38,164 -41,249 -16,44 -25,91 -38,137 12,-2 24,-5 35,-8 6,3 17,10 22,13 -15,19 -37,19 -58,18 -1,11 -2,32 -2,43 17,1 34,1 51,4 2,10 -4,19 -6,29 -16,-6 -31,-11 -46,-16 1,52 15,101 34,149 18,45 26,98 -3,141l-2 5c-3,12 0,17 11,15 18,-23 19,-53 23,-80 2,-70 -47,-129 -43,-199 8,9 23,25 31,33 17,-20 33,-42 35,-69 6,-64 8,-131 -18,-191 -5,-13 -14,-26 -14,-41 15,-79 68,-156 41,-239 -21,-83 -103,-141 -187,-146 -108,1 -208,102 -194,212zm404 535c4,-8 13,-24 17,-32 5,-130 11,-259 21,-389 -3,-7 -9,-23 -12,-31 -9,151 -18,301 -26,452zm-451 71c2,50 8,101 8,151 3,9 10,26 13,35 1,-62 -5,-123 -4,-184 -6,-1 -12,-2 -17,-2zm248 -13c2,51 53,92 103,77 -4,10 -12,29 -17,39 10,-3 20,-6 30,-9 0,-59 -6,-119 -41,-169 1,15 2,44 3,59l-21 -27c-2,9 -5,18 -7,27 0,12 -1,24 -2,36 -6,-13 -10,-28 -14,-42 13,-14 27,-28 40,-42 -12,-9 -23,-18 -35,-27 -15,24 -43,46 -39,78zm-156 144c16,17 22,39 35,57 30,-3 72,14 90,-18 17,-19 -1,-55 -25,-52 -24,-1 -30,23 -42,39 -8,-15 -15,-31 -22,-46 -9,-3 -17,-5 -26,-7 -3,9 -6,18 -10,27zm159 52c27,12 57,6 86,5 11,-17 16,-38 26,-56 -22,-36 -45,2 -55,24 -12,-16 -22,-38 -45,-39 -29,9 -39,48 -12,66zm196 -247c6,65 -2,131 -10,196 6,0 11,-1 18,-1 3,-66 4,-132 11,-198 -6,1 -13,1 -19,3zm-21 -3891c-3,-22 21,-30 36,-39 70,-36 140,-74 211,-109 1,31 2,62 1,93 0,36 -32,60 -46,91 -13,-19 -25,-39 -39,-57 5,58 24,120 -12,173 -5,-35 -1,-73 -15,-108 -8,-22 -25,-42 -23,-67 -9,4 -18,7 -27,11 8,16 15,32 23,48 -21,3 -38,12 -52,28 4,15 7,30 10,45 -22,-20 -21,-49 -27,-76 -21,15 -30,38 -38,61 -3,-31 -4,-63 -2,-94zm337 -175c2,-8 3,-16 6,-25 50,-25 102,-49 149,-80 7,6 15,11 23,17 -64,17 -122,54 -178,88zm-249 281c13,-36 28,28 0,0zm100 -43c10,0 10,0 0,0zm-15 83c5,0 5,0 0,0zm-693 774c1,-21 3,-42 6,-62 6,25 11,51 10,77 -9,64 12,127 1,191 -7,37 12,76 -6,112 -16,-105 -5,-212 -11,-318zm261 -222l0 -3c1,1 2,2 3,3l-3 0zm1183 -1191c24,-31 67,-38 96,-64 -2,9 -5,18 -8,27 -28,12 -55,28 -82,42 -1,-1 -4,-4 -6,-5zm-990 1095c5,-8 15,-24 20,-31 7,-4 19,-12 25,-15 16,3 32,7 49,10 13,39 0,84 -36,105 -14,9 0,25 1,37 -9,-2 -27,-7 -36,-10 -7,-16 -34,-29 -28,-46 22,5 49,15 65,-6 22,-18 11,-47 3,-69 -11,20 -22,40 -35,60 -10,-12 -19,-24 -28,-35zm1196 -1203c30,-35 81,-42 116,-72 6,1 19,4 26,5 -45,25 -90,49 -135,73 -2,-2 -5,-4 -7,-6zm385 -303c-4,-19 37,-20 50,-33 1,2 4,5 6,6 -13,15 -35,35 -56,27zm243 -113c-20,-39 41,-29 56,-52 -3,9 -6,17 -9,25 -12,7 -35,20 -47,27zm183 -98c-2,-2 -7,-8 -9,-11 13,-11 28,-20 44,-27 2,3 7,9 9,12 -13,11 -28,20 -44,26zm76 -43c0,18 -34,10 -26,-6 5,0 16,-2 21,-2l5 8zm291 -159c-6,-20 37,-20 50,-33 1,2 4,5 6,6 -15,13 -35,35 -56,27zm169 14c52,-47 125,-64 182,-106 6,2 19,4 25,5 -66,37 -135,69 -200,107 -2,-2 -5,-4 -7,-6zm405 -427c51,-5 103,-4 155,0 14,10 10,26 6,40 -14,18 -32,1 -48,-3 -23,-14 -45,11 -68,4 -17,-12 -32,-25 -45,-41zm-199 332c2,-8 3,-16 5,-25 28,-12 57,-24 81,-44 8,5 17,9 26,14 -42,5 -77,33 -112,55zm194 -180c14,-37 46,-63 74,-91 12,-14 31,-22 48,-10 9,35 -28,55 -47,77 -18,24 -49,22 -75,24zm104 54c32,-39 65,-81 106,-111 6,3 17,9 23,11 -2,30 -26,50 -44,71 -22,23 -43,48 -72,63 -15,-8 -19,-20 -13,-34zm-2822 3190c6,1 13,2 19,3 -18,121 -11,244 -24,366 -2,74 -9,148 -9,222 -4,-5 -11,-15 -14,-20 4,-112 16,-223 18,-335 4,-78 15,-157 10,-236zm-32 596c6,0 12,0 19,0 -15,54 -6,111 -14,166 -7,25 9,57 -15,74 5,-80 5,-160 10,-240zm-16 249c6,-1 12,-1 19,-2 -17,202 -26,406 -35,608 -3,-5 -10,-16 -13,-22 3,-106 16,-211 17,-318 8,-88 16,-177 12,-266zm-400 833c0,-11 23,-25 20,-6 -7,15 1,39 -14,50 -15,-9 -9,-31 -6,-44zm367 -222c6,0 12,-1 18,-1 -10,59 -12,120 -9,180 -6,1 -12,1 -18,2 6,-60 9,-121 9,-181zm-211 265c15,-6 21,-1 18,16 -16,6 -22,1 -18,-16zm-203 386c-5,-13 -9,-25 -14,-38 14,5 29,10 43,16 -10,7 -19,15 -29,22zm295 -158c26,-29 13,36 0,0zm-249 311c-10,-14 10,-36 25,-26 10,14 -11,36 -25,26zm-100 602c-10,-107 -16,-216 -10,-324 12,49 45,4 72,13 -30,30 -67,77 -26,115 7,-25 7,-58 35,-67 39,-21 81,-2 117,15 37,-12 77,-34 116,-15 34,9 34,48 44,76 5,-19 20,-38 14,-59 -5,-24 -27,-38 -41,-57 17,-10 35,1 51,7 4,-6 12,-20 16,-26 13,29 4,61 3,92 -7,80 -1,160 -18,238 -8,42 -49,59 -84,72 -77,-13 -156,3 -231,-15 -27,-12 -51,-36 -58,-65zm71 -214c-9,32 -41,51 -52,82 -5,36 31,56 61,65 -9,25 -26,56 -7,82 21,31 71,17 83,-16 13,-20 0,-43 -2,-65 22,-8 47,-3 69,-1 -3,17 -8,34 -10,51 5,35 49,69 81,41 34,-20 11,-63 1,-91 32,-4 65,-24 65,-60 -10,-32 -44,-52 -52,-86 -10,-34 -60,-40 -78,-8 -24,21 -11,53 -5,80 -23,0 -52,9 -70,-9 7,-25 16,-55 -7,-75 -18,-30 -68,-24 -77,10zm-7 -69c6,-6 17,-19 22,-25 38,-2 74,11 111,15 41,-3 98,-36 125,15 -44,-6 -88,-4 -128,15 -41,-18 -85,-22 -130,-20zm10 94c10,3 20,6 31,9l-16 -27c15,-1 30,0 45,1 8,20 -10,39 -15,58 43,36 110,30 151,-5 -16,-14 -30,-30 -28,-52 14,-2 29,-3 43,-4 0,4 -1,13 -1,17 -7,16 -11,33 -9,51 -14,12 -28,25 -42,38 17,16 35,33 43,56 -15,-9 -30,-20 -44,-32 -37,-4 -78,-10 -111,12 4,22 13,43 12,65 -15,2 -30,2 -46,2 9,-21 17,-43 16,-66 14,-14 28,-27 42,-40 -12,-10 -24,-20 -35,-30 -3,-23 -18,-40 -36,-53zm-21 62c-5,-18 2,-26 22,-24 4,18 -3,26 -22,24zm-90 101c7,-1 14,-2 21,-3 -1,44 23,86 63,104 67,22 138,11 207,16 47,4 94,-14 122,-52 3,4 8,11 10,15 -22,18 -46,35 -67,55 -46,-10 -93,-2 -140,-6 -51,-5 -107,11 -153,-19 -41,-22 -55,-68 -63,-110zm276 24c3,-14 5,-28 13,-40 21,3 36,26 30,46 -15,-1 -29,-4 -43,-6z"/>
  </g>
 </g>
</svg>
