<?xml version="1.0" encoding="UTF-8"?>
<!DOCTYPE svg PUBLIC "-//W3C//DTD SVG 1.1//EN" "http://www.w3.org/Graphics/SVG/1.1/DTD/svg11.dtd">
<!-- Creator: CorelDRAW X7 -->
<svg xmlns="http://www.w3.org/2000/svg" xml:space="preserve" width="100mm" height="100mm" version="1.1" style="shape-rendering:geometricPrecision; text-rendering:geometricPrecision; image-rendering:optimizeQuality; fill-rule:evenodd; clip-rule:evenodd"
viewBox="0 0 10000 10000"
 xmlns:xlink="http://www.w3.org/1999/xlink">
 <defs>
  <style type="text/css">
   <![CDATA[
    .str1 {stroke:#DE5E60;stroke-width:75}
    .str0 {stroke:#DE5E60;stroke-width:7.62}
    .fil2 {fill:#03410C}
    .fil1 {fill:#2B2A29}
    .fil0 {fill:#DE5E60}
   ]]>
  </style>
 </defs>
 <g id="Слой_x0020_1">
  <metadata id="CorelCorpID_0Corel-Layer"/>
  <path class="fil0 str0" d="M681 255c24,-7 49,-4 74,-4 2855,0 5709,0 8564,0l0 3866c-9,176 -17,350 -38,524 -21,192 -57,383 -93,573 -52,254 -134,500 -229,741 -53,138 -113,276 -177,410 -36,75 -76,147 -112,222 -88,154 -178,307 -277,455 -28,-6 -56,-11 -85,-17 274,-407 497,-849 653,-1315 191,-570 279,-1173 273,-1774 0,-851 0,-1700 0,-2550 0,-351 2,-702 -1,-1052 -2825,0 -5649,0 -8474,0 -1,24 -1,47 -1,70 0,1222 -1,2444 1,3665 6,604 112,1207 319,1773 92,252 203,497 331,732 86,157 181,309 279,458 -27,5 -55,10 -82,16 -271,-406 -491,-845 -648,-1308 -91,-275 -159,-558 -206,-845 -43,-259 -64,-522 -71,-785l0 -3855zm815 501c6,-56 33,-119 92,-135 56,20 81,80 88,135 8,-4 16,-9 24,-13 47,30 50,92 48,143 10,-9 19,-17 29,-26 21,62 11,129 1,192 58,-31 126,-50 191,-32 -8,14 -15,28 -22,42 60,-21 130,-22 187,9 -10,57 -30,118 -81,150 5,1 16,2 21,3 -33,70 -101,117 -176,134 7,5 14,9 20,14 -42,43 -102,67 -162,68 13,32 52,42 67,72 -30,20 -65,34 -102,30 -38,-2 -72,-21 -105,-38 3,66 23,130 24,197 -36,1 -72,0 -108,0 0,-66 20,-130 24,-197 -39,20 -80,42 -126,39 -30,-2 -58,-14 -83,-31 17,-30 53,-41 69,-72 -60,-1 -117,-24 -161,-64 -2,-11 14,-12 20,-18 -51,-12 -101,-34 -137,-73 -17,-18 -29,-40 -42,-61 6,-1 17,-3 23,-3 -53,-31 -75,-94 -81,-153 59,-25 126,-29 186,-5 -7,-15 -15,-29 -24,-43 66,-18 135,1 194,33 -13,-63 -19,-129 -2,-191 11,7 21,16 31,25 -3,-51 1,-110 46,-144 9,4 18,9 27,13zm38 -70c-20,39 -22,84 -25,127 -10,-18 -20,-36 -35,-51 -48,45 -34,115 -26,173 -16,-14 -31,-28 -46,-42 -10,66 2,132 20,196 -59,-34 -122,-67 -192,-58 8,20 15,41 18,62 -59,-31 -129,-39 -191,-13 7,34 16,71 39,98 21,25 52,38 76,59 -15,1 -31,2 -46,2 42,74 129,102 208,114 -16,9 -33,15 -50,22 40,37 97,49 150,47 3,40 -35,63 -62,85 22,12 48,20 75,18 47,-3 89,-29 126,-57 4,73 -18,144 -23,216 24,0 48,0 72,0 -6,-73 -26,-143 -24,-216 30,22 62,44 100,53 33,10 68,3 99,-12 -23,-27 -64,-45 -61,-87 53,2 110,-10 150,-47 -16,-6 -32,-13 -47,-22 78,-13 164,-40 205,-113 -15,-1 -31,-2 -47,-2 23,-20 51,-33 72,-54 27,-28 38,-68 44,-105 -62,-24 -132,-17 -190,14 3,-21 9,-42 18,-61 -70,-10 -135,22 -192,58 17,-64 29,-129 19,-195 -16,11 -29,27 -45,39 8,-57 20,-126 -25,-172 -16,14 -25,33 -35,51 -4,-64 -11,-143 -76,-175 -22,11 -41,27 -53,48zm-31 6446c1113,-231 2250,-332 3385,-340 761,-5 1521,33 2277,121 457,54 911,125 1361,219 -61,212 -123,422 -184,633 -627,-133 -1261,-233 -1901,-287 -390,-33 -781,-51 -1174,-56 -470,-6 -942,4 -1411,36 -484,32 -965,89 -1443,169 -243,40 -485,88 -726,138 -61,-211 -124,-421 -184,-633zm3084 -233c-36,8 -70,34 -82,70 -14,43 -11,89 -11,134 1,50 0,101 14,151 12,43 54,73 98,77 46,6 99,0 133,-35 27,-27 33,-67 35,-105 2,-54 1,-109 -4,-162 -3,-37 -11,-77 -39,-103 -38,-36 -96,-37 -144,-27zm464 1c-31,140 -62,279 -93,420 33,0 66,0 98,0 5,-27 9,-54 13,-80 26,0 51,0 77,0 4,27 8,53 12,80 33,0 65,0 98,1 -30,-141 -58,-281 -90,-421 -38,1 -77,0 -115,0zm253 2c-4,139 -7,279 -9,419 32,1 64,2 96,3 1,-56 3,-112 4,-169 22,0 54,-2 61,25 10,49 -5,98 7,145 38,1 76,2 114,3 -34,-51 -7,-116 -29,-172 -6,-17 -20,-29 -34,-39 51,-29 62,-97 45,-149 -11,-33 -41,-55 -76,-59 -59,-8 -120,-4 -179,-7zm-978 10c4,139 9,279 14,419 32,-1 65,-2 98,-3 -5,-141 -9,-280 -15,-420 -33,2 -65,3 -97,4zm1283 -3c-1,27 -2,54 -3,81 26,1 52,2 78,3 -3,112 -7,226 -11,338 33,1 65,3 98,3 3,-112 8,-225 11,-337 28,0 55,1 83,2 1,-27 2,-54 2,-81 -86,-3 -172,-6 -258,-9zm-1584 14c0,27 1,55 3,82 26,-2 52,-3 78,-3 4,112 9,225 13,338 33,-1 65,-3 98,-4 -4,-113 -9,-226 -13,-338 27,-4 56,1 82,-6 0,-26 -2,-53 -3,-79 -86,4 -172,7 -258,10zm1890 -3c-7,140 -14,279 -22,420 76,4 152,8 228,12 1,-29 3,-57 4,-85 -43,-3 -87,-5 -130,-7 2,-31 3,-62 5,-93 40,2 80,5 120,7 1,-28 3,-56 4,-84 -39,-2 -79,-5 -119,-6 0,-26 2,-51 3,-77 44,1 87,4 131,6 1,-27 2,-54 4,-81 -76,-3 -152,-8 -228,-12zm-2095 15c-24,141 -45,284 -68,425 33,-2 66,-4 99,-6 2,-27 5,-53 7,-80 26,-3 52,-4 78,-5 5,27 11,53 16,79 33,-2 65,-3 98,-6 -38,-138 -77,-275 -115,-413 -38,1 -77,5 -115,6zm-346 24c2,27 4,54 6,81 26,-2 52,-4 78,-6 8,113 16,226 24,338 33,-2 65,-5 98,-7 -8,-112 -17,-225 -24,-338 27,-2 55,-3 82,-6 -2,-26 -4,-53 -6,-80 -86,6 -172,12 -258,18zm2738 -23c-10,139 -20,279 -30,418 30,2 61,5 92,7 5,-106 8,-213 15,-319 14,107 29,215 42,323 25,2 50,4 75,5 28,-104 60,-208 86,-313 -3,106 -21,212 -27,318 30,1 61,4 92,6 10,-139 20,-279 30,-418 -45,-4 -91,-7 -136,-10 -26,90 -53,179 -72,271 -3,-94 -19,-186 -31,-279 -46,-3 -91,-6 -136,-9zm-2883 36c13,139 24,279 36,418 32,-3 65,-6 97,-9 -11,-139 -23,-279 -35,-418 -33,3 -65,5 -98,9zm-325 102c-9,49 -2,99 2,149 6,46 9,93 29,136 19,39 64,61 106,60 46,0 97,-10 125,-49 28,-40 25,-91 19,-136 -32,3 -64,6 -95,9 1,24 5,49 0,73 -7,30 -55,33 -66,5 -13,-36 -15,-75 -20,-114 -3,-41 -9,-82 -3,-123 5,-28 48,-35 63,-12 11,18 12,40 16,60 32,-3 63,-6 95,-9 -5,-43 -16,-90 -51,-118 -37,-31 -90,-30 -135,-18 -42,10 -78,44 -85,87zm3811 -91c-13,139 -27,279 -40,418 32,3 65,6 97,9 6,-53 11,-106 16,-159 44,5 93,11 131,-17 45,-33 53,-96 46,-147 -5,-39 -34,-72 -72,-81 -58,-15 -119,-15 -178,-23zm215 443c33,4 65,8 98,12 7,-26 14,-52 21,-78 26,2 51,5 77,9 1,26 2,53 2,79 32,6 65,8 97,13 -12,-142 -27,-285 -40,-427 -38,-5 -77,-9 -115,-14 -47,135 -94,271 -140,406zm-4369 -385c16,139 33,279 49,417 32,-3 64,-7 96,-11 -6,-56 -13,-111 -19,-167 21,-2 53,-8 63,17 17,45 9,95 26,140 38,-1 76,-8 113,-11 -29,-34 -28,-81 -36,-123 -6,-32 -24,-64 -55,-77 46,-36 48,-103 26,-151 -14,-31 -47,-51 -80,-51 -62,0 -122,12 -183,17zm-295 40c19,139 38,277 57,416 76,-10 151,-21 226,-31 -3,-28 -7,-56 -11,-84 -43,5 -86,12 -129,17 -4,-30 -9,-60 -13,-90 40,-6 80,-10 120,-18 -5,-27 -8,-55 -13,-82 -39,6 -79,11 -118,16 -4,-26 -7,-52 -10,-77 42,-5 85,-12 128,-17 -3,-27 -7,-54 -11,-81 -75,10 -151,21 -226,31zm4998 385c32,4 64,9 96,13 8,-55 15,-111 23,-166 21,3 52,4 58,29 7,49 -18,97 -9,147 38,5 75,10 112,16 -28,-54 5,-114 -8,-170 -4,-19 -17,-34 -31,-47 54,-22 73,-89 63,-142 -7,-33 -33,-59 -66,-67 -58,-16 -120,-19 -180,-29 -21,138 -38,278 -58,416zm-5143 -363c-6,42 -11,85 -20,128 -18,-40 -37,-78 -56,-117 -33,5 -65,10 -98,14 3,9 6,17 10,25 35,59 68,117 102,175 -19,72 -39,145 -58,217 34,-5 69,-10 104,-16 7,-41 15,-83 23,-124 20,37 38,75 57,112 35,-5 69,-10 104,-16 -39,-63 -78,-127 -118,-190 18,-74 36,-149 53,-224 -34,5 -68,10 -103,16zm5438 403c32,5 65,11 98,15 7,-26 16,-51 24,-77 25,4 51,8 76,12 0,27 -1,54 0,82 32,4 64,10 96,15 -8,-143 -16,-286 -24,-429 -38,-6 -76,-12 -114,-18 -53,134 -104,267 -156,400zm-5884 -330c23,139 48,276 71,414 75,-12 149,-26 223,-38 -2,-29 -8,-57 -13,-85 -43,8 -85,15 -128,23 -6,-30 -11,-61 -16,-91 40,-7 79,-13 118,-20 -4,-28 -9,-55 -14,-82 -39,5 -79,13 -119,19 -4,-25 -8,-50 -12,-76 43,-7 86,-13 128,-22 -5,-28 -9,-54 -14,-80 -75,12 -149,26 -224,38zm6227 42c25,5 51,10 77,14 -18,111 -39,222 -57,333 32,5 64,11 96,17 20,-111 39,-222 57,-333 28,4 55,9 82,13 5,-26 10,-53 13,-81 -84,-13 -168,-29 -253,-42 -9,25 -9,52 -15,79zm-3393 -239c17,-12 48,-9 55,13 11,34 8,69 10,104 0,44 5,89 -3,134 -6,33 -64,33 -69,-1 -12,-59 -7,-119 -10,-178 3,-24 -3,-54 17,-72zm789 -2c23,-3 57,-1 65,26 5,21 5,46 -9,63 -15,15 -38,13 -58,13 1,-34 2,-68 2,-102zm-290 6c11,60 18,120 28,181 -19,-1 -38,-1 -57,-1 10,-60 20,-120 29,-180zm-1244 213c7,-58 8,-118 18,-176 14,57 26,115 38,173 -19,1 -37,2 -56,3zm3033 -22c0,-36 5,-72 10,-107 21,4 52,5 60,30 6,22 2,47 -12,65 -15,16 -38,12 -58,12zm-4131 -73c20,-1 46,-7 62,11 13,18 15,43 8,64 -9,24 -37,25 -59,28 -3,-35 -8,-69 -11,-103zm4402 184c18,-58 31,-119 50,-176 2,61 4,122 6,183 -19,-2 -37,-4 -56,-7zm325 -47c5,-36 8,-71 16,-105 20,6 50,7 59,30 5,22 1,48 -12,66 -16,17 -42,11 -63,9zm310 133c19,-58 36,-116 56,-174 0,61 -1,121 0,182 -19,-2 -38,-5 -56,-8zm-39 344c30,5 60,11 90,16 -37,50 -83,93 -124,139 -27,31 -61,58 -84,93 -27,20 -48,47 -73,70 -385,383 -811,721 -1265,1017 -413,269 -848,506 -1302,694 -2,2 -6,5 -8,6l-4 0c-2,-2 -5,-5 -7,-6 -432,-178 -845,-401 -1239,-653 -497,-318 -962,-686 -1377,-1107 -18,-18 -33,-38 -54,-52 -19,-29 -46,-52 -69,-78 -35,-38 -72,-77 -106,-117 30,-5 59,-11 89,-16 410,454 882,851 1389,1193 423,284 871,535 1340,734 16,6 33,18 51,9 78,-32 155,-66 232,-102 438,-204 857,-449 1252,-726 422,-294 816,-629 1170,-1002 33,-37 70,-71 99,-112z"/>
  <path class="fil1 str0" d="M758 404c0,-23 0,-46 1,-70 2825,0 5649,0 8474,0 3,350 1,701 1,1052 0,850 0,1699 0,2550 6,601 -82,1204 -273,1774 -156,466 -379,908 -653,1315 -238,-45 -478,-85 -718,-119 134,-180 260,-366 367,-563 56,-102 106,-209 146,-318 32,64 57,132 83,200 146,-238 243,-508 256,-787 1,-144 -25,-290 -83,-422 -52,-119 -131,-227 -230,-313 -63,-57 -138,-100 -211,-143 55,111 109,224 143,344 61,200 75,419 19,622 -39,-79 -77,-159 -117,-238 -12,82 -24,164 -52,242 -74,212 -181,411 -297,602 -109,176 -228,345 -363,501 -70,-248 -161,-492 -280,-720 -65,-124 -138,-245 -227,-354 -67,-84 -146,-159 -238,-217 79,-65 174,-105 271,-133 -35,-28 -70,-60 -114,-73 -86,-27 -179,-15 -266,-2 -168,30 -332,78 -498,113 -277,60 -566,94 -848,48 -260,-41 -506,-156 -712,-319 -126,-97 -234,-215 -337,-335 3,32 7,64 10,96 9,76 32,149 56,222 -202,-126 -367,-315 -452,-539 -80,-204 -90,-432 -46,-646 -231,61 -448,166 -652,288 -422,255 -794,591 -1090,985 -77,104 -151,212 -216,324 12,16 27,29 41,43 64,-38 128,-75 193,-110 -73,136 -139,276 -195,419 -34,89 -67,180 -87,273 -9,36 -10,74 -10,111 597,-271 1254,-393 1907,-410 587,-14 1177,54 1743,212 285,80 566,184 829,323 -60,20 -119,43 -177,67 230,120 436,284 601,484 -942,-70 -1890,-71 -2832,-3 -650,47 -1298,128 -1937,252 -98,-149 -193,-301 -279,-458 -128,-235 -239,-480 -331,-732 -207,-566 -313,-1169 -319,-1773 -2,-1221 -1,-2443 -1,-3665zm5480 243c170,253 290,536 387,823 128,55 249,124 364,201 82,56 162,116 234,184 -160,-101 -332,-183 -513,-240 -360,-114 -742,-138 -1115,-107 -67,4 -135,16 -202,19 -131,-47 -266,-85 -404,-109 -8,19 -15,37 -22,56 291,202 568,424 837,653 390,330 769,677 1204,945 85,53 173,100 260,148 -189,-61 -369,-147 -542,-244 -206,-116 -402,-249 -592,-389 -439,-322 -851,-680 -1290,-1000 -219,-158 -446,-308 -687,-428 -223,-112 -462,-197 -713,-222 -187,-13 -375,-15 -562,4 -147,15 -293,41 -437,75 -1,19 -1,39 -1,59 500,140 968,380 1388,684 -160,-2 -320,8 -479,31 -214,32 -429,80 -629,165 122,22 242,54 357,100 217,84 424,201 597,358 -112,97 -224,198 -328,304 -357,365 -658,789 -857,1260 17,11 34,23 51,33 466,-494 1045,-879 1669,-1145 -38,54 -72,110 -99,170 -108,236 -127,505 -79,756 54,281 191,545 390,749 186,191 424,327 679,399 301,86 622,88 930,39 0,-20 0,-40 -1,-61 -285,-36 -574,-115 -815,-277 -188,-126 -340,-309 -413,-524 -104,-296 -63,-632 86,-906 104,-191 263,-356 463,-444 155,-69 331,-84 494,-44 -20,12 -44,16 -66,24 -207,70 -412,155 -587,286 9,19 17,37 26,55 144,-29 292,-36 438,-28 -85,150 -104,332 -60,498 62,243 251,454 493,527 144,44 302,35 443,-17 130,-48 251,-126 341,-232 9,27 16,56 22,85 155,-88 277,-229 346,-393 72,-15 144,-26 217,-32 17,-2 34,-6 51,0 86,27 170,58 251,95 176,81 345,188 472,337 -216,-63 -437,-110 -662,-116 -101,-3 -204,6 -299,37 127,38 257,80 361,167 -268,32 -531,93 -782,189 -205,80 -406,178 -582,312 -21,27 -50,46 -75,70 58,-3 115,-12 173,-8 105,7 209,41 304,87 114,55 219,129 315,212 144,125 269,271 369,435 63,105 116,219 138,340 5,31 29,55 58,65 48,16 104,3 138,-34 30,-33 56,-70 78,-109 84,-151 99,-331 77,-502 -25,-199 -95,-390 -179,-572 115,11 232,-2 343,-30 109,-27 213,-68 320,-100 45,-12 93,-27 140,-14 35,10 51,47 60,80 17,72 14,147 10,220 -6,105 -22,208 -36,311 46,-55 93,-109 133,-168 71,-102 127,-214 158,-335 36,-135 37,-279 3,-416 -33,-135 -96,-260 -176,-373 -99,-138 -221,-258 -354,-362 56,-58 85,-137 97,-217 18,-121 0,-246 -36,-364 -39,-121 -98,-236 -172,-340 -20,-1 -38,14 -57,20 6,37 10,75 12,112 -50,-117 -109,-231 -178,-339 -47,-73 -95,-144 -143,-216 -250,-361 -568,-672 -910,-947 -191,-152 -392,-294 -602,-419 -14,14 -27,29 -41,44zm-4742 109c-9,-4 -18,-9 -27,-13 -45,34 -49,93 -46,144 -10,-9 -20,-18 -31,-25 -17,62 -11,128 2,191 -59,-32 -128,-51 -194,-33 9,14 17,28 24,43 -60,-24 -127,-20 -186,5 6,59 28,122 81,153 -6,0 -17,2 -23,3 13,21 25,43 42,61 36,39 86,61 137,73 -6,6 -22,7 -20,18 44,40 101,63 161,64 -16,31 -52,42 -69,72 25,17 53,29 83,31 46,3 87,-19 126,-39 -4,67 -24,131 -24,197 36,0 72,1 108,0 -1,-67 -21,-131 -24,-197 33,17 67,36 105,38 37,4 72,-10 102,-30 -15,-30 -54,-40 -67,-72 60,-1 120,-25 162,-68 -6,-5 -13,-9 -20,-14 75,-17 143,-64 176,-134 -5,-1 -16,-2 -21,-3 51,-32 71,-93 81,-150 -57,-31 -127,-30 -187,-9 7,-14 14,-28 22,-42 -65,-18 -133,1 -191,32 10,-63 20,-130 -1,-192 -10,9 -19,17 -29,26 2,-51 -1,-113 -48,-143 -8,4 -16,9 -24,13 -7,-55 -32,-115 -88,-135 -59,16 -86,79 -92,135zm3111 6730c755,-16 1513,10 2264,97 12,38 18,78 26,117 34,-34 66,-69 101,-102 256,34 511,72 766,117 -29,41 -66,75 -99,112 -354,373 -748,708 -1170,1002 -395,277 -814,522 -1252,726 -77,36 -154,70 -232,102 -18,9 -35,-3 -51,-9 -469,-199 -917,-450 -1340,-734 -507,-342 -979,-739 -1389,-1193 784,-142 1579,-219 2376,-235zm190 142c1,248 0,497 0,747 -479,1 -958,0 -1438,-1 -220,-190 -438,-381 -659,-569 -11,-10 -26,-16 -41,-12 -43,6 -85,13 -128,19 17,20 35,38 53,57 222,222 459,431 710,620 82,4 165,1 249,2 417,-1 835,0 1253,-1 3,300 -1,600 2,901 38,14 76,31 114,46 1,-604 0,-1207 0,-1812 -38,1 -77,0 -115,3zm281 -2c0,274 0,548 0,823 -3,19 16,31 29,41 468,1 936,0 1403,1 -84,63 -170,124 -255,187 -196,126 -397,243 -596,362 -38,24 -79,40 -119,59 -154,72 -308,144 -461,217 -1,28 -3,56 -5,84 13,9 25,18 37,27 289,-125 571,-268 841,-428 214,-126 417,-269 619,-414 105,-76 211,-149 311,-231 209,-169 399,-359 588,-549 -388,-56 -777,-104 -1169,-130 -407,-28 -816,-41 -1223,-49zm115 116c221,5 442,8 662,20 340,17 680,48 1018,83 121,12 242,22 363,41 -182,172 -373,334 -575,485 -34,7 -71,3 -106,5 -200,1 -398,1 -596,-1 -255,0 -511,1 -766,1 0,-212 0,-423 0,-634z"/>
  <path class="fil0 str1" d="M6238 647c14,-15 27,-30 41,-44 210,125 411,267 602,419 342,275 660,586 910,947 48,72 96,143 143,216 69,108 128,222 178,339 -2,-37 -6,-75 -12,-112 19,-6 37,-21 57,-20 74,104 133,219 172,340 36,118 54,243 36,364 -12,80 -41,159 -97,217 133,104 255,224 354,362 80,113 143,238 176,373 34,137 33,281 -3,416 -31,121 -87,233 -158,335 -40,59 -87,113 -133,168 14,-103 30,-206 36,-311 4,-73 7,-148 -10,-220 -9,-33 -25,-70 -60,-80 -47,-13 -95,2 -140,14 -107,32 -211,73 -320,100 -111,28 -228,41 -343,30 84,182 154,373 179,572 22,171 7,351 -77,502 -22,39 -48,76 -78,109 -34,37 -90,50 -138,34 -29,-10 -53,-34 -58,-65 -22,-121 -75,-235 -138,-340 -100,-164 -225,-310 -369,-435 -96,-83 -201,-157 -315,-212 -95,-46 -199,-80 -304,-87 -58,-4 -115,5 -173,8 25,-24 54,-43 75,-70 176,-134 377,-232 582,-312 251,-96 514,-157 782,-189 -104,-87 -234,-129 -361,-167 95,-31 198,-40 299,-37 225,6 446,53 662,116 -127,-149 -296,-256 -472,-337 -81,-37 -165,-68 -251,-95 -17,-6 -34,-2 -51,0 -73,6 -145,17 -217,32 -69,164 -191,305 -346,393 -6,-29 -13,-58 -22,-85 -90,106 -211,184 -341,232 -141,52 -299,61 -443,17 -242,-73 -431,-284 -493,-527 -44,-166 -25,-348 60,-498 -146,-8 -294,-1 -438,28 -9,-18 -17,-36 -26,-55 175,-131 380,-216 587,-286 22,-8 46,-12 66,-24 -163,-40 -339,-25 -494,44 -200,88 -359,253 -463,444 -149,274 -190,610 -86,906 73,215 225,398 413,524 241,162 530,241 815,277 1,21 1,41 1,61 -308,49 -629,47 -930,-39 -255,-72 -493,-208 -679,-399 -199,-204 -336,-468 -390,-749 -48,-251 -29,-520 79,-756 27,-60 61,-116 99,-170 -624,266 -1203,651 -1669,1145 -17,-10 -34,-22 -51,-33 199,-471 500,-895 857,-1260 104,-106 216,-207 328,-304 -173,-157 -380,-274 -597,-358 -115,-46 -235,-78 -357,-100 200,-85 415,-133 629,-165 159,-23 319,-33 479,-31 -420,-304 -888,-544 -1388,-684 0,-20 0,-40 1,-59 144,-34 290,-60 437,-75 187,-19 375,-17 562,-4 251,25 490,110 713,222 241,120 468,270 687,428 439,320 851,678 1290,1000 190,140 386,273 592,389 173,97 353,183 542,244 -87,-48 -175,-95 -260,-148 -435,-268 -814,-615 -1204,-945 -269,-229 -546,-451 -837,-653 7,-19 14,-37 22,-56 138,24 273,62 404,109 67,-3 135,-15 202,-19 373,-31 755,-7 1115,107 181,57 353,139 513,240 -72,-68 -152,-128 -234,-184 -115,-77 -236,-146 -364,-201 -97,-287 -217,-570 -387,-823zm26 -18c167,252 289,533 385,818 101,44 198,97 291,155 187,119 361,262 500,435 8,9 15,20 20,31 -11,-2 -19,-9 -26,-16 -259,-225 -576,-379 -909,-456 -357,-83 -727,-86 -1090,-41 -18,1 -38,9 -56,0 -127,-48 -260,-82 -394,-107 70,53 143,102 214,155 221,164 434,339 644,516 364,310 720,633 1124,891 194,123 398,231 613,314 -319,-46 -618,-178 -895,-337 -211,-120 -409,-257 -603,-400 -421,-312 -820,-656 -1243,-965 -218,-159 -445,-309 -686,-431 -224,-113 -464,-200 -715,-223 -168,-12 -336,-15 -504,-1 -153,13 -305,39 -455,72 -8,2 -15,4 -24,7 535,151 1034,414 1475,747 -340,-17 -685,26 -1011,124 -29,9 -58,16 -85,29 131,30 259,76 381,131 185,86 363,196 510,338 -326,270 -615,583 -853,933 -135,201 -257,414 -348,639 498,-526 1120,-930 1792,-1197 -71,74 -129,160 -173,253 -111,241 -127,518 -71,774 58,271 196,525 393,720 178,175 401,301 640,370 298,88 617,88 922,42 -41,-9 -84,-12 -126,-21 -273,-47 -545,-140 -765,-310 -177,-136 -314,-325 -376,-540 -91,-306 -36,-646 125,-918 112,-191 280,-354 487,-435 163,-64 345,-72 513,-25 23,7 48,12 69,25 -156,45 -311,97 -459,166 -98,47 -194,99 -280,165 163,-31 331,-38 497,-24 -102,150 -130,344 -84,517 64,247 265,460 516,517 159,38 328,6 473,-68 105,-53 199,-129 267,-225 15,31 25,65 34,98 137,-87 244,-219 303,-370 81,-19 164,-30 247,-38 16,-1 33,-4 48,2 114,34 224,77 329,131 182,93 356,215 470,388 -167,-53 -338,-97 -511,-122 -136,-19 -276,-30 -413,-11 112,44 230,93 310,188 -396,40 -787,145 -1139,330 -99,52 -195,109 -282,179 187,-13 369,58 525,155 203,129 377,301 515,497 93,135 175,283 204,445 7,42 59,55 94,45 49,-9 74,-55 101,-92 106,-159 122,-361 94,-546 -31,-206 -107,-403 -197,-589 185,32 373,-10 548,-71 79,-25 158,-58 241,-70 44,-6 96,2 124,40 38,50 42,116 45,176 3,107 -9,214 -23,320 25,-21 41,-51 61,-77 51,-74 95,-153 126,-237 59,-155 71,-328 30,-490 -33,-137 -100,-265 -183,-378 -103,-139 -229,-258 -366,-362 69,-51 102,-136 115,-219 22,-148 -9,-300 -65,-437 -36,-88 -81,-173 -138,-249 12,92 20,186 4,278 -48,-169 -128,-327 -221,-476 -45,-71 -93,-141 -139,-211 -250,-364 -568,-677 -912,-954 -191,-151 -390,-293 -599,-417zm-4730 57c12,-21 31,-37 53,-48 65,32 72,111 76,175 10,-18 19,-37 35,-51 45,46 33,115 25,172 16,-12 29,-28 45,-39 10,66 -2,131 -19,195 57,-36 122,-68 192,-58 -9,19 -15,40 -18,61 58,-31 128,-38 190,-14 -6,37 -17,77 -44,105 -21,21 -49,34 -72,54 16,0 32,1 47,2 -41,73 -127,100 -205,113 15,9 31,16 47,22 -40,37 -97,49 -150,47 -3,42 38,60 61,87 -31,15 -66,22 -99,12 -38,-9 -70,-31 -100,-53 -2,73 18,143 24,216 -24,0 -48,0 -72,0 5,-72 27,-143 23,-216 -37,28 -79,54 -126,57 -27,2 -53,-6 -75,-18 27,-22 65,-45 62,-85 -53,2 -110,-10 -150,-47 17,-7 34,-13 50,-22 -79,-12 -166,-40 -208,-114 15,0 31,-1 46,-2 -24,-21 -55,-34 -76,-59 -23,-27 -32,-64 -39,-98 62,-26 132,-18 191,13 -3,-21 -10,-42 -18,-62 70,-9 133,24 192,58 -18,-64 -30,-130 -20,-196 15,14 30,28 46,42 -8,-58 -22,-128 26,-173 15,15 25,33 35,51 3,-43 5,-88 25,-127zm4316 2365c159,24 312,80 453,159 5,72 -56,141 -129,143 -57,4 -110,-35 -132,-87 -19,60 -15,126 -1,186 28,116 113,217 224,260 109,45 238,31 339,-31 56,-34 101,-83 137,-138 4,24 14,52 1,75 -53,93 -132,172 -228,220 -177,92 -410,73 -564,-56 -111,-92 -178,-231 -188,-373 -11,-125 23,-251 88,-358zm-2932 1011c204,-122 421,-227 652,-288 -44,214 -34,442 46,646 85,224 250,413 452,539 -24,-73 -47,-146 -56,-222 -3,-32 -7,-64 -10,-96 103,120 211,238 337,335 206,163 452,278 712,319 282,46 571,12 848,-48 166,-35 330,-83 498,-113 87,-13 180,-25 266,2 44,13 79,45 114,73 -97,28 -192,68 -271,133 92,58 171,133 238,217 89,109 162,230 227,354 119,228 210,472 280,720 135,-156 254,-325 363,-501 116,-191 223,-390 297,-602 28,-78 40,-160 52,-242 40,79 78,159 117,238 56,-203 42,-422 -19,-622 -34,-120 -88,-233 -143,-344 73,43 148,86 211,143 99,86 178,194 230,313 58,132 84,278 83,422 -13,279 -110,549 -256,787 -26,-68 -51,-136 -83,-200 -40,109 -90,216 -146,318 -107,197 -233,383 -367,563 240,34 480,74 718,119 29,6 57,11 85,17 71,13 141,28 213,43 -74,252 -148,503 -221,754 -9,-4 -18,-7 -27,-10 -168,-30 -336,-68 -504,-98 -30,-5 -60,-11 -90,-16 -255,-45 -510,-83 -766,-117 -35,33 -67,68 -101,102 -8,-39 -14,-79 -26,-117 -751,-87 -1509,-113 -2264,-97 -797,16 -1592,93 -2376,235 -30,5 -59,11 -89,16 -153,30 -306,58 -458,93 -13,2 -27,5 -40,8 -74,-251 -147,-501 -221,-753 62,-13 122,-26 183,-37 27,-6 55,-11 82,-16 639,-124 1287,-205 1937,-252 942,-68 1890,-67 2832,3 -165,-200 -371,-364 -601,-484 58,-24 117,-47 177,-67 -263,-139 -544,-243 -829,-323 -566,-158 -1156,-226 -1743,-212 -653,17 -1310,139 -1907,410 0,-37 1,-75 10,-111 20,-93 53,-184 87,-273 56,-143 122,-283 195,-419 -65,35 -129,72 -193,110 -14,-14 -29,-27 -41,-43 65,-112 139,-220 216,-324 296,-394 668,-730 1090,-985zm324 -137c-227,104 -440,236 -639,388 -386,292 -718,657 -965,1074 94,-55 189,-109 285,-161 -91,163 -174,331 -242,505 -40,107 -83,215 -96,329 420,-185 870,-298 1325,-353 658,-79 1328,-46 1975,91 429,94 852,233 1237,448 -68,6 -131,33 -194,57 84,50 168,102 245,163 120,93 230,202 326,321 354,27 706,66 1058,113 77,-106 154,-213 225,-323 125,-198 243,-404 313,-628 42,62 67,135 97,204 114,-196 190,-415 214,-640 12,-99 3,-200 -16,-298 -47,-235 -191,-453 -399,-574 79,163 136,339 151,521 12,148 -5,298 -53,438 -10,3 -11,-10 -15,-16 -32,-64 -61,-130 -96,-192 -20,116 -64,226 -112,333 -61,136 -133,268 -210,396 -124,203 -261,399 -420,574 -65,-244 -151,-483 -263,-710 -71,-144 -152,-283 -253,-408 -73,-89 -157,-172 -261,-225 -1,-2 -1,-5 -1,-7 72,-69 161,-116 254,-147 -52,-44 -123,-49 -187,-47 -124,6 -244,39 -364,66 -158,38 -316,77 -476,101 -270,42 -548,44 -811,-31 -263,-73 -501,-222 -696,-411 -47,-44 -89,-93 -135,-139 14,101 47,197 84,291 -180,-96 -338,-237 -447,-411 -148,-235 -198,-528 -148,-801 -100,28 -196,66 -290,109zm-1739 3207c60,212 123,422 184,633 241,-50 483,-98 726,-138 478,-80 959,-137 1443,-169 469,-32 941,-42 1411,-36 393,5 784,23 1174,56 640,54 1274,154 1901,287 61,-211 123,-421 184,-633 -450,-94 -904,-165 -1361,-219 -756,-88 -1516,-126 -2277,-121 -1135,8 -2272,109 -3385,340zm5402 455c4,17 7,33 11,50 14,-14 28,-28 41,-43 -17,-2 -35,-5 -52,-7zm349 -2835c103,-15 209,-9 308,28 36,93 67,188 89,286 16,77 28,158 18,237 -4,22 -7,44 -19,63 -56,-244 -214,-450 -396,-614zm-2457 2876c38,-3 77,-2 115,-3 0,605 1,1208 0,1812 -38,-15 -76,-32 -114,-46 -3,-301 1,-601 -2,-901 -418,1 -836,0 -1253,1 -84,-1 -167,2 -249,-2 -251,-189 -488,-398 -710,-620 -18,-19 -36,-37 -53,-57 43,-6 85,-13 128,-19 15,-4 30,2 41,12 221,188 439,379 659,569 480,1 959,2 1438,1 0,-250 1,-499 0,-747zm281 -2c407,8 816,21 1223,49 392,26 781,74 1169,130 -189,190 -379,380 -588,549 -100,82 -206,155 -311,231 -202,145 -405,288 -619,414 -270,160 -552,303 -841,428 -12,-9 -24,-18 -37,-27 2,-28 4,-56 5,-84 153,-73 307,-145 461,-217 40,-19 81,-35 119,-59 199,-119 400,-236 596,-362 85,-63 171,-124 255,-187 -467,-1 -935,0 -1403,-1 -13,-10 -32,-22 -29,-41 0,-275 0,-549 0,-823zm115 116c0,211 0,422 0,634 255,0 511,-1 766,-1 198,2 396,2 596,1 35,-2 72,2 106,-5 202,-151 393,-313 575,-485 -121,-19 -242,-29 -363,-41 -338,-35 -678,-66 -1018,-83 -220,-12 -441,-15 -662,-20z"/>
  <path class="fil1 str0" d="M6264 629c209,124 408,266 599,417 344,277 662,590 912,954 46,70 94,140 139,211 93,149 173,307 221,476 16,-92 8,-186 -4,-278 57,76 102,161 138,249 56,137 87,289 65,437 -13,83 -46,168 -115,219 137,104 263,223 366,362 83,113 150,241 183,378 41,162 29,335 -30,490 -31,84 -75,163 -126,237 -20,26 -36,56 -61,77 14,-106 26,-213 23,-320 -3,-60 -7,-126 -45,-176 -28,-38 -80,-46 -124,-40 -83,12 -162,45 -241,70 -175,61 -363,103 -548,71 90,186 166,383 197,589 28,185 12,387 -94,546 -27,37 -52,83 -101,92 -35,10 -87,-3 -94,-45 -29,-162 -111,-310 -204,-445 -138,-196 -312,-368 -515,-497 -156,-97 -338,-168 -525,-155 87,-70 183,-127 282,-179 352,-185 743,-290 1139,-330 -80,-95 -198,-144 -310,-188 137,-19 277,-8 413,11 173,25 344,69 511,122 -114,-173 -288,-295 -470,-388 -105,-54 -215,-97 -329,-131 -15,-6 -32,-3 -48,-2 -83,8 -166,19 -247,38 -59,151 -166,283 -303,370 -9,-33 -19,-67 -34,-98 -68,96 -162,172 -267,225 -145,74 -314,106 -473,68 -251,-57 -452,-270 -516,-517 -46,-173 -18,-367 84,-517 -166,-14 -334,-7 -497,24 86,-66 182,-118 280,-165 148,-69 303,-121 459,-166 -21,-13 -46,-18 -69,-25 -168,-47 -350,-39 -513,25 -207,81 -375,244 -487,435 -161,272 -216,612 -125,918 62,215 199,404 376,540 220,170 492,263 765,310 42,9 85,12 126,21 -305,46 -624,46 -922,-42 -239,-69 -462,-195 -640,-370 -197,-195 -335,-449 -393,-720 -56,-256 -40,-533 71,-774 44,-93 102,-179 173,-253 -672,267 -1294,671 -1792,1197 91,-225 213,-438 348,-639 238,-350 527,-663 853,-933 -147,-142 -325,-252 -510,-338 -122,-55 -250,-101 -381,-131 27,-13 56,-20 85,-29 326,-98 671,-141 1011,-124 -441,-333 -940,-596 -1475,-747 9,-3 16,-5 24,-7 150,-33 302,-59 455,-72 168,-14 336,-11 504,1 251,23 491,110 715,223 241,122 468,272 686,431 423,309 822,653 1243,965 194,143 392,280 603,400 277,159 576,291 895,337 -215,-83 -419,-191 -613,-314 -404,-258 -760,-581 -1124,-891 -210,-177 -423,-352 -644,-516 -71,-53 -144,-102 -214,-155 134,25 267,59 394,107 18,9 38,1 56,0 363,-45 733,-42 1090,41 333,77 650,231 909,456 7,7 15,14 26,16 -5,-11 -12,-22 -20,-31 -139,-173 -313,-316 -500,-435 -93,-58 -190,-111 -291,-155 -96,-285 -218,-566 -385,-818zm-414 2422c-65,107 -99,233 -88,358 10,142 77,281 188,373 154,129 387,148 564,56 96,-48 175,-127 228,-220 13,-23 3,-51 -1,-75 -36,55 -81,104 -137,138 -101,62 -230,76 -339,31 -111,-43 -196,-144 -224,-260 -14,-60 -18,-126 1,-186 22,52 75,91 132,87 73,-2 134,-71 129,-143 -141,-79 -294,-135 -453,-159zm1404 1701c182,164 340,370 396,614 12,-19 15,-41 19,-63 10,-79 -2,-160 -18,-237 -22,-98 -53,-193 -89,-286 -99,-37 -205,-43 -308,-28zm-4012 -827c94,-43 190,-81 290,-109 -50,273 0,566 148,801 109,174 267,315 447,411 -37,-94 -70,-190 -84,-291 46,46 88,95 135,139 195,189 433,338 696,411 263,75 541,73 811,31 160,-24 318,-63 476,-101 120,-27 240,-60 364,-66 64,-2 135,3 187,47 -93,31 -182,78 -254,147 0,2 0,5 1,7 104,53 188,136 261,225 101,125 182,264 253,408 112,227 198,466 263,710 159,-175 296,-371 420,-574 77,-128 149,-260 210,-396 48,-107 92,-217 112,-333 35,62 64,128 96,192 4,6 5,19 15,16 48,-140 65,-290 53,-438 -15,-182 -72,-358 -151,-521 208,121 352,339 399,574 19,98 28,199 16,298 -24,225 -100,444 -214,640 -30,-69 -55,-142 -97,-204 -70,224 -188,430 -313,628 -71,110 -148,217 -225,323 -352,-47 -704,-86 -1058,-113 -96,-119 -206,-228 -326,-321 -77,-61 -161,-113 -245,-163 63,-24 126,-51 194,-57 -385,-215 -808,-354 -1237,-448 -647,-137 -1317,-170 -1975,-91 -455,55 -905,168 -1325,353 13,-114 56,-222 96,-329 68,-174 151,-342 242,-505 -96,52 -191,106 -285,161 247,-417 579,-782 965,-1074 199,-152 412,-284 639,-388zm3663 3662c17,2 35,5 52,7 -13,15 -27,29 -41,43 -4,-17 -7,-33 -11,-50z"/>
  <path class="fil1 str0" d="M4587 6899c48,-10 106,-9 144,27 28,26 36,66 39,103 5,53 6,108 4,162 -2,38 -8,78 -35,105 -34,35 -87,41 -133,35 -44,-4 -86,-34 -98,-77 -14,-50 -13,-101 -14,-151 0,-45 -3,-91 11,-134 12,-36 46,-62 82,-70zm22 80c-20,18 -14,48 -17,72 3,59 -2,119 10,178 5,34 63,34 69,1 8,-45 3,-90 3,-134 -2,-35 1,-70 -10,-104 -7,-22 -38,-25 -55,-13zm442 -79c38,0 77,1 115,0 32,140 60,280 90,421 -33,-1 -65,-1 -98,-1 -4,-27 -8,-53 -12,-80 -26,0 -51,0 -77,0 -4,26 -8,53 -13,80 -32,0 -65,0 -98,0 31,-141 62,-280 93,-420zm57 83c-9,60 -19,120 -29,180 19,0 38,0 57,1 -10,-61 -17,-121 -28,-181zm196 -81c59,3 120,-1 179,7 35,4 65,26 76,59 17,52 6,120 -45,149 14,10 28,22 34,39 22,56 -5,121 29,172 -38,-1 -76,-2 -114,-3 -12,-47 3,-96 -7,-145 -7,-27 -39,-25 -61,-25 -1,57 -3,113 -4,169 -32,-1 -64,-2 -96,-3 2,-140 5,-280 9,-419zm94 75c0,34 -1,68 -2,102 20,0 43,2 58,-13 14,-17 14,-42 9,-63 -8,-27 -42,-29 -65,-26zm-1072 -65c32,-1 64,-2 97,-4 6,140 10,279 15,420 -33,1 -66,2 -98,3 -5,-140 -10,-280 -14,-419zm1283 -3c86,3 172,6 258,9 0,27 -1,54 -2,81 -28,-1 -55,-2 -83,-2 -3,112 -8,225 -11,337 -33,0 -65,-2 -98,-3 4,-112 8,-226 11,-338 -26,-1 -52,-2 -78,-3 1,-27 2,-54 3,-81zm-1584 14c86,-3 172,-6 258,-10 1,26 3,53 3,79 -26,7 -55,2 -82,6 4,112 9,225 13,338 -33,1 -65,3 -98,4 -4,-113 -9,-226 -13,-338 -26,0 -52,1 -78,3 -2,-27 -3,-55 -3,-82zm1890 -3c76,4 152,9 228,12 -2,27 -3,54 -4,81 -44,-2 -87,-5 -131,-6 -1,26 -3,51 -3,77 40,1 80,4 119,6 -1,28 -3,56 -4,84 -40,-2 -80,-5 -120,-7 -2,31 -3,62 -5,93 43,2 87,4 130,7 -1,28 -3,56 -4,85 -76,-4 -152,-8 -228,-12 8,-141 15,-280 22,-420zm-2095 15c38,-1 77,-5 115,-6 38,138 77,275 115,413 -33,3 -65,4 -98,6 -5,-26 -11,-52 -16,-79 -26,1 -52,2 -78,5 -2,27 -5,53 -7,80 -33,2 -66,4 -99,6 23,-141 44,-284 68,-425zm44 261c19,-1 37,-2 56,-3 -12,-58 -24,-116 -38,-173 -10,58 -11,118 -18,176zm-390 -237c86,-6 172,-12 258,-18 2,27 4,54 6,80 -27,3 -55,4 -82,6 7,113 16,226 24,338 -33,2 -65,5 -98,7 -8,-112 -16,-225 -24,-338 -26,2 -52,4 -78,6 -2,-27 -4,-54 -6,-81zm2738 -23c45,3 90,6 136,9 12,93 28,185 31,279 19,-92 46,-181 72,-271 45,3 91,6 136,10 -10,139 -20,279 -30,418 -31,-2 -62,-5 -92,-6 6,-106 24,-212 27,-318 -26,105 -58,209 -86,313 -25,-1 -50,-3 -75,-5 -13,-108 -28,-216 -42,-323 -7,106 -10,213 -15,319 -31,-2 -62,-5 -92,-7 10,-139 20,-279 30,-418zm-2883 36c33,-4 65,-6 98,-9 12,139 24,279 35,418 -32,3 -65,6 -97,9 -12,-139 -23,-279 -36,-418zm-325 102c7,-43 43,-77 85,-87 45,-12 98,-13 135,18 35,28 46,75 51,118 -32,3 -63,6 -95,9 -4,-20 -5,-42 -16,-60 -15,-23 -58,-16 -63,12 -6,41 0,82 3,123 5,39 7,78 20,114 11,28 59,25 66,-5 5,-24 1,-49 0,-73 31,-3 63,-6 95,-9 6,45 9,96 -19,136 -28,39 -79,49 -125,49 -42,1 -87,-21 -106,-60 -20,-43 -23,-90 -29,-136 -4,-50 -11,-100 -2,-149zm3811 -91c59,8 120,8 178,23 38,9 67,42 72,81 7,51 -1,114 -46,147 -38,28 -87,22 -131,17 -5,53 -10,106 -16,159 -32,-3 -65,-6 -97,-9 13,-139 27,-279 40,-418zm82 191c20,0 43,4 58,-12 14,-18 18,-43 12,-65 -8,-25 -39,-26 -60,-30 -5,35 -10,71 -10,107zm133 252c46,-135 93,-271 140,-406 38,5 77,9 115,14 13,142 28,285 40,427 -32,-5 -65,-7 -97,-13 0,-26 -1,-53 -2,-79 -26,-4 -51,-7 -77,-9 -7,26 -14,52 -21,78 -33,-4 -65,-8 -98,-12zm138 -141c19,3 37,5 56,7 -2,-61 -4,-122 -6,-183 -19,57 -32,118 -50,176zm-4507 -244c61,-5 121,-17 183,-17 33,0 66,20 80,51 22,48 20,115 -26,151 31,13 49,45 55,77 8,42 7,89 36,123 -37,3 -75,10 -113,11 -17,-45 -9,-95 -26,-140 -10,-25 -42,-19 -63,-17 6,56 13,111 19,167 -32,4 -64,8 -96,11 -16,-138 -33,-278 -49,-417zm105 60c3,34 8,68 11,103 22,-3 50,-4 59,-28 7,-21 5,-46 -8,-64 -16,-18 -42,-12 -62,-11zm-400 -20c75,-10 151,-21 226,-31 4,27 8,54 11,81 -43,5 -86,12 -128,17 3,25 6,51 10,77 39,-5 79,-10 118,-16 5,27 8,55 13,82 -40,8 -80,12 -120,18 4,30 9,60 13,90 43,-5 86,-12 129,-17 4,28 8,56 11,84 -75,10 -150,21 -226,31 -19,-139 -38,-277 -57,-416zm4998 385c20,-138 37,-278 58,-416 60,10 122,13 180,29 33,8 59,34 66,67 10,53 -9,120 -63,142 14,13 27,28 31,47 13,56 -20,116 8,170 -37,-6 -74,-11 -112,-16 -9,-50 16,-98 9,-147 -6,-25 -37,-26 -58,-29 -8,55 -15,111 -23,166 -32,-4 -64,-9 -96,-13zm129 -228c21,2 47,8 63,-9 13,-18 17,-44 12,-66 -9,-23 -39,-24 -59,-30 -8,34 -11,69 -16,105zm-5272 -135c35,-6 69,-11 103,-16 -17,75 -35,150 -53,224 40,63 79,127 118,190 -35,6 -69,11 -104,16 -19,-37 -37,-75 -57,-112 -8,41 -16,83 -23,124 -35,6 -70,11 -104,16 19,-72 39,-145 58,-217 -34,-58 -67,-116 -102,-175 -4,-8 -7,-16 -10,-25 33,-4 65,-9 98,-14 19,39 38,77 56,117 9,-43 14,-86 20,-128zm5438 403c52,-133 103,-266 156,-400 38,6 76,12 114,18 8,143 16,286 24,429 -32,-5 -64,-11 -96,-15 -1,-28 0,-55 0,-82 -25,-4 -51,-8 -76,-12 -8,26 -17,51 -24,77 -33,-4 -66,-10 -98,-15zm144 -135c18,3 37,6 56,8 -1,-61 0,-121 0,-182 -20,58 -37,116 -56,174zm-6028 -195c75,-12 149,-26 224,-38 5,26 9,52 14,80 -42,9 -85,15 -128,22 4,26 8,51 12,76 40,-6 80,-14 119,-19 5,27 10,54 14,82 -39,7 -78,13 -118,20 5,30 10,61 16,91 43,-8 85,-15 128,-23 5,28 11,56 13,85 -74,12 -148,26 -223,38 -23,-138 -48,-275 -71,-414zm6227 42c6,-27 6,-54 15,-79 85,13 169,29 253,42 -3,28 -8,55 -13,81 -27,-4 -54,-9 -82,-13 -18,111 -37,222 -57,333 -32,-6 -64,-12 -96,-17 18,-111 39,-222 57,-333 -26,-4 -52,-9 -77,-14z"/>
  <path class="fil2 str0" d="M7854 7731c168,30 336,68 504,98 -93,-10 -187,-17 -280,-3 -151,18 -295,72 -432,137 23,-35 57,-62 84,-93 41,-46 87,-89 124,-139zm-6170 99c152,-35 305,-63 458,-93 34,40 71,79 106,117 23,26 50,49 69,78 -197,-87 -417,-139 -633,-102z"/>
 </g>
</svg>
