<?xml version="1.0" encoding="UTF-8"?>
<!DOCTYPE svg PUBLIC "-//W3C//DTD SVG 1.1//EN" "http://www.w3.org/Graphics/SVG/1.1/DTD/svg11.dtd">
<!-- Creator: CorelDRAW X7 -->
<svg xmlns="http://www.w3.org/2000/svg" xml:space="preserve" width="50mm" height="50mm" version="1.1" style="shape-rendering:geometricPrecision; text-rendering:geometricPrecision; image-rendering:optimizeQuality; fill-rule:evenodd; clip-rule:evenodd"
viewBox="0 0 5000 5000"
 xmlns:xlink="http://www.w3.org/1999/xlink">
 <defs>
  <style type="text/css">
   <![CDATA[
    .fil0 {fill:#DDAD00}
    .fil1 {fill:#DDAD00}
   ]]>
  </style>
 </defs>
 <g id="Слой_x0020_1">
  <metadata id="CorelCorpID_0Corel-Layer"/>
  <path class="fil0" d="M1811 2633l0 -131c0,-40 -32,-72 -71,-72 -40,0 -72,32 -72,72l0 131c0,40 32,71 72,71 39,0 71,-31 71,-71zm0 0z"/>
  <path class="fil0" d="M1137 2502c0,-40 -32,-72 -71,-72 -39,0 -71,32 -71,72l0 131c0,40 32,72 71,72 39,0 71,-32 71,-72l0 -131zm0 0z"/>
  <path class="fil0" d="M2119 3210c-22,32 -15,77 18,100 12,8 26,13 41,13 22,0 44,-11 58,-31 85,-120 142,-256 168,-399 171,-24 302,-159 302,-322 0,-157 -123,-289 -285,-319l0 -320c105,-82 185,-184 237,-305 181,-419 -29,-911 -38,-932 -9,-22 -29,-38 -53,-41 -24,-4 -49,4 -65,22 -208,230 -564,194 -940,155 -93,-9 -189,-19 -283,-25 -278,-17 -531,133 -649,379 -102,-15 -205,11 -290,72 -103,75 -164,190 -166,317 -5,269 107,547 173,687 -143,42 -247,165 -247,310 0,163 131,298 302,322 37,201 133,386 281,533 100,101 218,178 346,228l0 174 -367 0c-264,0 -479,215 -479,479l0 523c0,39 32,71 72,71l2295 0c40,0 71,-32 71,-71l0 -523c0,-264 -214,-479 -478,-479l-368 0 0 -174c101,-39 195,-94 278,-164 31,-25 35,-70 10,-100 -26,-31 -71,-35 -101,-10 -156,130 -355,202 -559,202 -234,0 -454,-91 -619,-256 -166,-166 -257,-386 -257,-620l0 -324c129,-22 238,-102 319,-237 31,-51 52,-101 67,-142 190,88 692,273 1226,81 50,-18 96,-38 140,-61l0 683c0,182 -55,356 -160,504l0 0zm-396 761l87 0 -90 315 -201 -201 204 -114zm340 0l20 499 -207 52c-25,7 -45,26 -52,50 -7,25 0,52 18,70l117 117 -225 0 224 -788 105 0zm-1082 601c-7,-24 -27,-44 -52,-50l-207 -52 20 -499 105 0 224 788 -226 0 117 -117c18,-18 25,-45 19,-70zm421 -402l109 109 -114 140 -107 -136 112 -113zm273 273l-66 233 -116 -148 119 -148 63 63zm-487 -59l122 156 -113 140 -67 -237 58 -59zm218 264l87 111 -176 0 89 -111zm-321 -362l-90 -315 87 0 204 114 -201 201zm-759 21c0,-164 118,-301 273,-330l-22 546c-1,34 22,64 54,72l141 35 -128 129 -318 0 0 -452zm2153 0l0 452 -318 0 -129 -129 141 -35c33,-8 56,-38 54,-72l-21 -546c155,29 273,166 273,330l0 0zm-846 -609l0 160 -231 129 -230 -129 0 -159c75,17 152,26 231,26 78,0 155,-9 230,-27l0 0zm-1390 -1127c0,-79 59,-147 141,-173l0 308c0,13 1,26 1,38 -83,-25 -142,-93 -142,-173zm1848 -621c-602,216 -1181,-108 -1186,-111 -20,-11 -44,-13 -65,-3 -21,9 -36,28 -41,50 0,3 -70,322 -302,356 -52,-104 -186,-397 -181,-665 2,-82 41,-156 107,-204 45,-33 97,-49 151,-49 25,0 52,4 77,12 36,11 75,-8 88,-44 82,-220 296,-358 532,-344 91,6 185,15 276,25 355,36 720,74 977,-124 48,154 116,461 3,722 -76,174 -222,302 -436,379zm472 621c0,80 -60,148 -143,173 1,-12 1,-25 1,-38l0 -308c83,26 142,94 142,173zm0 0z"/>
  <path class="fil0" d="M1403 3208c102,0 205,-39 283,-117 27,-28 27,-73 0,-101 -28,-28 -73,-28 -101,0 -101,100 -264,100 -364,0 -28,-28 -73,-28 -101,0 -28,28 -28,73 0,101 78,78 180,117 283,117l0 0zm0 0z"/>
  <path class="fil0" d="M3855 99c-577,0 -1046,430 -1046,958 0,529 469,959 1046,959 102,0 203,-14 300,-41 38,-10 61,-49 50,-87 -10,-38 -50,-61 -88,-50 -84,23 -173,35 -262,35 -498,0 -903,-366 -903,-816 0,-450 405,-816 903,-816 497,0 902,366 902,816 0,276 -152,531 -408,683 -34,20 -45,63 -25,97 20,34 64,45 98,25 299,-177 478,-478 478,-805 0,-528 -469,-958 -1045,-958l0 0zm0 0z"/>
  <path class="fil0" d="M2894 1812c-131,0 -237,107 -237,238 0,131 106,237 237,237 132,0 238,-106 238,-237 0,-131 -106,-238 -238,-238zm0 333c-52,0 -95,-43 -95,-95 0,-53 43,-95 95,-95 53,0 96,42 96,95 0,52 -43,95 -96,95zm0 0z"/>
  <g id="_833537232">
   <g>
    <path class="fil1" d="M4415 1254c-21,-51 -63,-84 -117,-90 -87,-11 -183,48 -264,161 -181,253 -353,271 -402,270 -42,-1 -69,-14 -78,-27 -22,-33 24,-93 53,-124 21,16 46,24 73,24 32,0 63,-13 86,-36l270 -269c7,1 14,1 21,1 52,0 102,-20 139,-57 37,-37 57,-87 57,-139 0,-52 -20,-102 -57,-139 -77,-76 -201,-76 -278,0 -37,37 -57,87 -57,139 0,7 0,14 1,21l-269 270c-23,23 -36,54 -36,86 0,27 8,52 23,73 -10,11 -25,28 -39,47 -42,63 -33,102 -18,124 17,27 58,43 108,44 2,0 3,0 5,0 43,0 110,-11 194,-60 84,-49 163,-125 235,-226 71,-100 157,-154 229,-146 39,5 70,30 85,67 27,66 0,157 -71,243 -22,27 -43,54 -61,79 -7,9 -5,21 4,27 8,6 20,4 26,-5 18,-24 38,-50 60,-77 80,-97 109,-202 78,-281zm-795 151c-16,-16 -25,-37 -25,-60 0,-16 4,-31 13,-45l117 117c-14,9 -29,13 -45,13 -23,0 -44,-9 -60,-25zm325 -325c-30,-30 -46,-70 -46,-112 0,-9 1,-17 2,-25l181 181c-8,1 -16,2 -25,2 -42,0 -82,-16 -112,-46zm0 -224c31,-31 72,-46 112,-46 41,0 81,15 112,46 30,30 46,70 46,112 0,42 -16,82 -46,112 -14,13 -29,24 -45,31l-210 -210c7,-16 18,-32 31,-45zm-27 251c22,21 47,36 74,46l-239 239 -120 -120 239 -239c10,27 25,52 46,74z"/>
    <path class="fil1" d="M3583 906c9,0 19,-2 29,-6 20,-8 36,-23 45,-43 9,-20 10,-42 2,-63l-69 -183 153 -58 45 118c-14,-3 -30,-2 -46,4 -42,16 -63,63 -47,106 12,33 44,53 77,53 9,0 19,-2 29,-6 20,-7 37,-23 46,-43 9,-20 9,-42 1,-63l-76 -201c-2,-4 -5,-8 -10,-10 -5,-2 -10,-2 -14,-1l-190 72c-9,4 -14,15 -11,25l52 136c-15,-3 -31,-2 -46,4 -42,16 -64,63 -47,106 12,32 43,53 77,53zm229 -136c-5,10 -14,19 -25,23 -22,9 -48,-3 -57,-26 -8,-23 3,-48 26,-57 5,-2 10,-3 16,-3 17,0 34,11 41,29 4,11 4,23 -1,34zm-245 12c5,-2 10,-3 15,-3 18,0 35,11 42,29 4,11 4,23 -1,34 -5,10 -14,19 -25,23 -23,8 -48,-3 -57,-26 -9,-23 3,-48 26,-57z"/>
   </g>
   <g>
   </g>
   <g>
   </g>
   <g>
   </g>
   <g>
   </g>
   <g>
   </g>
   <g>
   </g>
   <g>
   </g>
   <g>
   </g>
   <g>
   </g>
   <g>
   </g>
   <g>
   </g>
   <g>
   </g>
   <g>
   </g>
   <g>
   </g>
   <g>
   </g>
  </g>
 </g>
</svg>
