<?xml version="1.0" encoding="UTF-8"?>
<!DOCTYPE svg PUBLIC "-//W3C//DTD SVG 1.1//EN" "http://www.w3.org/Graphics/SVG/1.1/DTD/svg11.dtd">
<!-- Creator: CorelDRAW X7 -->
<svg xmlns="http://www.w3.org/2000/svg" xml:space="preserve" width="50mm" height="50mm" version="1.1" style="shape-rendering:geometricPrecision; text-rendering:geometricPrecision; image-rendering:optimizeQuality; fill-rule:evenodd; clip-rule:evenodd"
viewBox="0 0 5000 5000"
 xmlns:xlink="http://www.w3.org/1999/xlink">
 <defs>
  <style type="text/css">
   <![CDATA[
    .fil0 {fill:#DDAD10}
   ]]>
  </style>
 </defs>
 <g id="Слой_x0020_1">
  <metadata id="CorelCorpID_0Corel-Layer"/>
  <g id="_812319568">
   <g>
    <path class="fil0" d="M2500 100c-1325,0 -2400,1075 -2400,2400 0,1326 1075,2400 2400,2400 1326,0 2400,-1074 2400,-2400 0,-1325 -1074,-2400 -2400,-2400zm0 4425c-1118,0 -2025,-907 -2025,-2025 0,-1118 907,-2025 2025,-2025 1118,0 2025,907 2025,2025 0,1118 -907,2025 -2025,2025z"/>
    <path class="fil0" d="M3070 2133l-418 0 0 -305c0,-94 97,-115 142,-115 45,0 270,0 270,0l0 -411 -310 -2c-421,0 -518,307 -518,503l0 330 -306 0 0 423 306 0c0,544 0,1144 0,1144l416 0c0,0 0,-606 0,-1144l353 0 65 -423z"/>
   </g>
   <g>
   </g>
   <g>
   </g>
   <g>
   </g>
   <g>
   </g>
   <g>
   </g>
   <g>
   </g>
   <g>
   </g>
   <g>
   </g>
   <g>
   </g>
   <g>
   </g>
   <g>
   </g>
   <g>
   </g>
   <g>
   </g>
   <g>
   </g>
   <g>
   </g>
  </g>
 </g>
</svg>
