<?xml version="1.0" encoding="UTF-8"?>
<!DOCTYPE svg PUBLIC "-//W3C//DTD SVG 1.1//EN" "http://www.w3.org/Graphics/SVG/1.1/DTD/svg11.dtd">
<!-- Creator: CorelDRAW X7 -->
<svg xmlns="http://www.w3.org/2000/svg" xml:space="preserve" width="50mm" height="50mm" version="1.1" style="shape-rendering:geometricPrecision; text-rendering:geometricPrecision; image-rendering:optimizeQuality; fill-rule:evenodd; clip-rule:evenodd"
viewBox="0 0 5000 5000"
 xmlns:xlink="http://www.w3.org/1999/xlink">
 <defs>
  <style type="text/css">
   <![CDATA[
    .fil0 {fill:#DDAD10}
    .fil1 {fill:#DDAD10}
   ]]>
  </style>
 </defs>
 <g id="Слой_x0020_1">
  <metadata id="CorelCorpID_0Corel-Layer"/>
  <path class="fil0" d="M2500 100c-1325,0 -2400,1075 -2400,2400 0,1326 1075,2400 2400,2400 1326,0 2400,-1074 2400,-2400 0,-1325 -1074,-2400 -2400,-2400zm0 4425c-1118,0 -2025,-907 -2025,-2025 0,-1118 907,-2025 2025,-2025 1118,0 2025,907 2025,2025 0,1118 -907,2025 -2025,2025z"/>
  <g id="_810256832">
  </g>
  <g id="_810260736">
  </g>
  <g id="_810259264">
  </g>
  <g id="_810257344">
  </g>
  <g id="_810260608">
  </g>
  <g id="_810257888">
  </g>
  <g id="_810254432">
  </g>
  <g id="_810256896">
  </g>
  <g id="_810258848">
  </g>
  <g id="_810260384">
  </g>
  <g id="_810255808">
  </g>
  <g id="_810255744">
  </g>
  <g id="_810259840">
  </g>
  <g id="_810259872">
  </g>
  <g id="_810257632">
  </g>
  <g id="_811472608">
   <g>
    <path class="fil1" d="M2030 2708l492 0c-86,245 -320,420 -595,418 -333,-2 -608,-269 -621,-601 -14,-357 272,-651 626,-651 162,0 309,61 420,162 27,24 67,24 93,0l181 -170c28,-27 28,-72 0,-99 -177,-167 -413,-271 -674,-276 -556,-11 -1025,445 -1029,1002 -4,560 449,1016 1009,1016 538,0 978,-421 1007,-952 1,-7 2,-232 2,-232l-911 0c-38,0 -68,30 -68,68l0 248c0,37 30,67 68,67z"/>
    <path class="fil1" d="M3776 2348l0 -242c0,-33 -27,-60 -59,-60l-204 0c-33,0 -59,27 -59,60l0 242 -243 0c-32,0 -59,26 -59,59l0 204c0,32 27,59 59,59l243 0 0 242c0,33 26,59 59,59l204 0c32,0 59,-26 59,-59l0 -242 242 0c33,0 59,-27 59,-59l0 -204c0,-33 -26,-59 -59,-59l-242 0 0 0z"/>
   </g>
   <g>
   </g>
   <g>
   </g>
   <g>
   </g>
   <g>
   </g>
   <g>
   </g>
   <g>
   </g>
   <g>
   </g>
   <g>
   </g>
   <g>
   </g>
   <g>
   </g>
   <g>
   </g>
   <g>
   </g>
   <g>
   </g>
   <g>
   </g>
   <g>
   </g>
  </g>
 </g>
</svg>
