<?xml version="1.0" encoding="UTF-8"?>
<!DOCTYPE svg PUBLIC "-//W3C//DTD SVG 1.1//EN" "http://www.w3.org/Graphics/SVG/1.1/DTD/svg11.dtd">
<!-- Creator: CorelDRAW X7 -->
<svg xmlns="http://www.w3.org/2000/svg" xml:space="preserve" width="50mm" height="50mm" version="1.1" style="shape-rendering:geometricPrecision; text-rendering:geometricPrecision; image-rendering:optimizeQuality; fill-rule:evenodd; clip-rule:evenodd"
viewBox="0 0 5000 5000"
 xmlns:xlink="http://www.w3.org/1999/xlink">
 <defs>
  <style type="text/css">
   <![CDATA[
    .fil0 {fill:#DDAD10}
    .fil1 {fill:#DDAD10}
   ]]>
  </style>
 </defs>
 <g id="Слой_x0020_1">
  <metadata id="CorelCorpID_0Corel-Layer"/>
  <path class="fil0" d="M2500 100c-1325,0 -2400,1075 -2400,2400 0,1326 1075,2400 2400,2400 1326,0 2400,-1074 2400,-2400 0,-1325 -1074,-2400 -2400,-2400zm0 4425c-1118,0 -2025,-907 -2025,-2025 0,-1118 907,-2025 2025,-2025 1118,0 2025,907 2025,2025 0,1118 -907,2025 -2025,2025z"/>
  <g id="_813478848">
  </g>
  <g id="_813479104">
  </g>
  <g id="_813476768">
  </g>
  <g id="_813477280">
  </g>
  <g id="_813730784">
  </g>
  <g id="_813731456">
  </g>
  <g id="_813733984">
  </g>
  <g id="_813732480">
  </g>
  <g id="_813732320">
  </g>
  <g id="_813734144">
  </g>
  <g id="_813732448">
  </g>
  <g id="_813730400">
  </g>
  <g id="_813730656">
  </g>
  <g id="_813732864">
  </g>
  <g id="_813732992">
  </g>
  <g id="_621894160">
   <g>
    <g>
     <path class="fil1" d="M3829 1676c-97,43 -202,72 -313,86 113,-68 199,-175 240,-302 -106,63 -222,108 -347,132 -99,-106 -241,-172 -398,-172 -301,0 -545,244 -545,545 0,43 5,85 14,125 -453,-23 -855,-240 -1124,-570 -47,80 -74,174 -74,274 0,189 96,356 243,454 -90,-3 -174,-28 -247,-69l0 7c0,264 188,485 437,535 -46,12 -94,19 -144,19 -35,0 -69,-3 -102,-10 69,217 270,375 509,379 -187,146 -422,233 -677,233 -44,0 -88,-3 -130,-8 241,155 528,246 836,246 1003,0 1551,-831 1551,-1552l-1 -71c107,-76 199,-172 272,-281z"/>
    </g>
   </g>
   <g>
   </g>
   <g>
   </g>
   <g>
   </g>
   <g>
   </g>
   <g>
   </g>
   <g>
   </g>
   <g>
   </g>
   <g>
   </g>
   <g>
   </g>
   <g>
   </g>
   <g>
   </g>
   <g>
   </g>
   <g>
   </g>
   <g>
   </g>
   <g>
   </g>
  </g>
 </g>
</svg>
