<?xml version="1.0" encoding="UTF-8"?>
<!DOCTYPE svg PUBLIC "-//W3C//DTD SVG 1.1//EN" "http://www.w3.org/Graphics/SVG/1.1/DTD/svg11.dtd">
<!-- Creator: CorelDRAW X7 -->
<svg xmlns="http://www.w3.org/2000/svg" xml:space="preserve" width="100mm" height="100mm" version="1.1" style="shape-rendering:geometricPrecision; text-rendering:geometricPrecision; image-rendering:optimizeQuality; fill-rule:evenodd; clip-rule:evenodd"
viewBox="0 0 10000 10000"
 xmlns:xlink="http://www.w3.org/1999/xlink">
 <defs>
  <style type="text/css">
   <![CDATA[
    .str3 {stroke:#DE5E60;stroke-width:100}
    .str2 {stroke:#DE5E60;stroke-width:75}
    .str1 {stroke:#DE5E60;stroke-width:50}
    .str0 {stroke:#DE5E60;stroke-width:7.62}
    .fil6 {fill:none;fill-rule:nonzero}
    .fil4 {fill:#26292E}
    .fil5 {fill:#2B2A29}
    .fil3 {fill:#DE5E60}
    .fil1 {fill:#F38181;fill-rule:nonzero}
    .fil0 {fill:#FBCC8F;fill-rule:nonzero}
    .fil2 {fill:#FDE6C8;fill-rule:nonzero}
   ]]>
  </style>
 </defs>
 <g id="Слой_x0020_1">
  <metadata id="CorelCorpID_0Corel-Layer"/>
  <g id="_985926864">
   <g>
    <path class="fil0 str0" d="M4848 8320c0,0 116,603 -246,599 0,0 56,219 289,150 0,0 6,167 149,318 146,-151 152,-318 152,-318 232,69 288,-150 288,-150 -362,4 -245,-599 -245,-599l185 -1640c0,0 -91,-340 -379,-340 -288,0 -378,319 -378,319l185 1661z"/>
    <path id="_1" class="fil1 str0" d="M4604 8896l-3 46 1 -48 33 -2 30 -4 27 -8 25 -11 22 -13 20 -16 18 -18 16 -20 14 -21 12 -23 10 -25 9 -25 7 -26 6 -27 5 -26 3 -25 2 -25 1 -23 1 -21 0 -21 -1 -21 -1 -22 -1 -20 -2 -20 -2 -19 -2 -17 -2 -16 -2 -13 -1 -10 -1 -8 -1 -5 -1 -1 3 -43 1 2 1 5 1 9 2 11 2 14 2 17 2 20 2 21 2 24 2 27 1 28 1 31 0 33 -1 33 -1 33 -3 32 -4 30 -5 30 -7 28 -7 28 -9 26 -11 25 -12 24 -14 22 -16 20 -18 18 -21 16 -22 13 -25 11 -27 8 -30 4 -33 2 2 -48zm-3 46l-12 -48 13 0 -1 48zm292 120l-5 15 3 17 -21 6 -21 4 -19 3 -18 1 -18 -1 -16 -1 -16 -3 -14 -3 -14 -5 -13 -5 -12 -6 -12 -7 -10 -8 -10 -7 -9 -9 -9 -8 -8 -9 -7 -9 -6 -9 -6 -9 -5 -9 -5 -8 -4 -8 -4 -8 -3 -7 -3 -6 -2 -6 -2 -5 -1 -4 -1 -3 0 -2 -1 -1 3 -46 0 0 0 2 1 2 1 4 2 5 2 5 2 7 3 7 4 7 4 8 5 8 5 9 6 9 6 9 7 8 8 9 8 9 9 8 10 8 11 7 11 7 12 6 13 5 14 5 14 4 16 2 16 1 18 1 18 -1 19 -3 21 -4 21 -6 2 18zm-2 -18l2 0 0 18 -2 -18zm149 318l1 50 -1 0 -13 -14 -12 -15 -12 -14 -11 -14 -10 -15 -9 -14 -9 -14 -8 -14 -8 -14 -7 -13 -6 -13 -6 -14 -5 -12 -5 -13 -4 -12 -4 -12 -4 -11 -3 -11 -3 -10 -2 -10 -2 -10 -2 -9 -1 -8 -2 -8 -1 -7 -1 -7 0 -6 -1 -5 0 -5 0 -4 -1 -3 0 -4 5 -15 0 -3 0 0 0 0 0 2 1 3 0 3 1 5 1 5 1 7 1 7 2 8 1 9 3 9 2 10 3 10 4 11 3 11 5 12 4 12 6 13 5 13 7 13 6 14 8 13 8 14 9 14 9 14 10 14 11 14 11 15 13 14 13 14 -1 0zm1 50l-1 0 0 0 1 0zm151 -368l0 50 2 -17 0 4 0 3 0 4 -1 5 0 5 -1 6 -1 7 -1 7 -1 8 -2 8 -2 9 -2 10 -2 10 -3 10 -3 11 -4 11 -3 12 -5 12 -5 12 -5 13 -6 13 -6 14 -7 13 -8 14 -8 14 -9 14 -10 14 -10 15 -11 14 -12 14 -12 14 -13 15 -1 -50 13 -14 13 -14 11 -15 11 -14 10 -14 10 -14 9 -14 8 -14 7 -14 7 -13 7 -13 6 -13 5 -13 5 -12 4 -12 4 -11 3 -11 3 -11 3 -9 2 -10 2 -8 2 -8 1 -7 1 -7 1 -5 0 -5 1 -4 0 -2 0 -2 0 0 0 0 0 3 3 -18zm-3 18l1 -18 2 0 -3 18zm291 -118l0 -50 1 48 0 1 -1 2 -1 3 -1 4 -2 5 -2 6 -3 6 -3 7 -3 8 -4 8 -5 8 -5 9 -6 9 -7 9 -7 9 -8 9 -8 8 -9 9 -10 7 -11 8 -11 7 -12 6 -13 5 -14 5 -15 3 -15 3 -17 1 -17 1 -19 -1 -19 -3 -20 -4 -21 -6 0 -50 21 6 20 4 19 3 19 1 17 -1 17 -1 15 -2 15 -4 13 -5 13 -5 12 -6 12 -7 10 -7 10 -8 9 -8 9 -9 7 -9 7 -8 7 -9 6 -9 5 -9 4 -8 4 -8 4 -7 3 -7 3 -7 2 -5 1 -5 2 -4 0 -2 1 -2 0 0 1 48zm0 -50l13 0 -12 48 -1 -48zm-247 -592l4 36 -1 4 0 1 -1 5 -1 8 -2 10 -2 13 -2 16 -2 17 -2 19 -1 20 -2 20 -1 22 0 21 0 21 0 21 2 23 2 25 3 25 4 26 6 27 7 26 9 25 11 25 12 23 14 21 15 20 18 18 20 16 23 13 25 11 27 8 30 4 32 2 0 50 -33 -2 -29 -4 -28 -8 -24 -11 -23 -13 -20 -16 -18 -18 -16 -20 -14 -22 -13 -24 -10 -25 -9 -26 -8 -28 -6 -28 -5 -30 -4 -30 -3 -32 -2 -33 -1 -33 0 -33 1 -31 1 -28 2 -27 2 -24 2 -21 2 -20 3 -17 2 -14 2 -11 1 -9 1 -5 0 -2 0 3zm4 36l-1 2 0 2 1 -4zm185 -1640l-185 1640 -4 -36 185 -1640 3 -5 1 41zm-1 -41l4 15 -3 26 -1 -41zm-380 -292l0 -50 0 0 26 1 26 3 24 5 23 6 22 8 21 9 20 10 19 11 18 13 17 13 16 14 15 15 14 15 13 16 13 16 11 16 11 16 9 15 10 16 8 15 7 15 7 14 6 14 5 12 5 12 4 10 3 9 3 8 2 6 1 5 1 3 0 1 -2 47 0 -1 -1 -3 -1 -4 -2 -7 -3 -7 -3 -9 -4 -10 -4 -12 -5 -12 -6 -13 -7 -14 -7 -15 -9 -15 -9 -15 -9 -16 -11 -16 -11 -16 -13 -16 -13 -15 -14 -15 -15 -15 -16 -14 -17 -13 -18 -13 -18 -11 -20 -10 -21 -9 -22 -8 -23 -6 -24 -5 -26 -3 -26 -1 0 0zm-376 276l-4 36 1 -41 0 -2 1 -2 1 -5 2 -6 3 -7 3 -9 4 -9 5 -11 5 -12 6 -12 7 -14 7 -13 8 -15 9 -14 10 -15 10 -15 12 -15 12 -15 13 -15 14 -14 15 -14 16 -13 17 -12 18 -12 19 -11 20 -9 21 -9 22 -7 23 -6 24 -4 26 -3 26 -1 0 50 -26 1 -26 3 -24 4 -23 6 -22 7 -21 9 -20 9 -18 11 -18 12 -17 12 -16 13 -15 14 -14 14 -13 15 -12 14 -12 15 -10 15 -10 15 -9 14 -8 15 -7 13 -7 13 -6 13 -5 11 -4 11 -4 10 -3 8 -3 7 -2 6 -1 4 -1 2 0 1 1 -41zm-4 36l-3 -28 4 -13 -1 41zm185 1661l-185 -1661 4 -36 185 1662 -4 39 0 -4zm0 4l0 -2 0 -2 0 4z"/>
   </g>
   <g>
    <path class="fil2 str0" d="M5040 9320c119,-132 117,-324 117,-324 159,95 241,-39 241,-39 -185,-12 -185,-142 -185,-142 0,0 -26,31 -95,26 0,0 -21,204 -76,336 -56,-132 -78,-336 -78,-336 -69,5 -95,-26 -95,-26 0,0 0,130 -185,142 0,0 82,134 241,39 0,0 -1,192 115,324z"/>
    <path id="_1_0" class="fil1 str0" d="M5157 8971l0 50 3 -27 0 4 0 4 0 5 0 5 -1 7 0 8 -1 8 0 9 -1 9 -1 10 -1 10 -2 11 -2 11 -2 12 -2 12 -3 12 -3 13 -3 13 -4 13 -4 13 -4 14 -5 14 -6 13 -6 14 -6 14 -7 14 -8 13 -8 14 -9 13 -10 14 -10 12 -11 13 0 -50 11 -12 10 -13 9 -13 9 -13 8 -14 7 -13 7 -14 7 -13 6 -14 5 -13 5 -14 4 -13 4 -13 4 -13 3 -12 3 -12 2 -11 2 -11 2 -10 2 -10 1 -9 1 -8 1 -8 0 -6 1 -6 0 -4 0 -3 0 -3 0 -2 0 0 0 1 0 2 3 -27zm-3 27l0 -29 3 2 -3 27zm244 -16l0 -50 1 50 -1 0 0 2 -1 1 -2 3 -2 3 -3 3 -3 4 -4 4 -4 4 -4 4 -5 5 -6 5 -6 4 -6 5 -7 4 -7 4 -8 4 -9 4 -8 3 -9 3 -10 2 -10 1 -11 1 -11 0 -11 -1 -12 -1 -13 -3 -13 -3 -13 -5 -14 -6 -14 -7 -15 -8 0 -50 15 8 14 7 14 6 13 5 13 3 13 3 12 1 11 1 11 0 11 -1 10 -1 9 -2 10 -3 8 -3 9 -4 7 -4 8 -4 6 -4 7 -5 6 -4 5 -5 5 -4 5 -5 4 -4 3 -4 3 -4 3 -3 2 -3 2 -2 1 -2 1 -1 0 0 0 49zm0 -50l30 3 -29 47 -1 -50zm-185 -92l0 -49 3 24 0 -7 0 -1 0 -3 -1 0 1 1 0 2 0 2 1 4 1 4 2 5 1 5 3 6 2 6 3 6 4 6 4 6 4 6 5 7 6 6 7 6 7 6 8 6 8 5 9 6 11 5 11 5 11 4 13 4 14 3 15 3 15 2 17 1 0 50 -17 -1 -15 -2 -15 -3 -14 -3 -13 -4 -12 -4 -11 -5 -10 -5 -9 -6 -9 -5 -8 -6 -7 -6 -6 -7 -6 -6 -5 -6 -5 -7 -4 -6 -4 -6 -3 -7 -3 -6 -2 -6 -2 -6 -2 -5 -1 -6 -1 -5 -1 -5 -1 -5 0 -5 -1 -5 0 -6 0 -4 -1 -8 3 25zm0 -49l3 -4 0 28 -3 -24zm-93 68l-4 -35 2 -8 7 1 6 0 6 0 5 -1 6 0 5 -1 5 0 4 -1 5 -1 4 -1 4 -1 4 -1 3 -1 3 -1 4 -2 2 -1 3 -1 3 -2 2 -1 2 -1 2 -1 2 -2 1 -1 2 -1 1 -1 1 -1 1 -1 1 0 0 -1 1 0 0 0 0 0 0 49 0 0 0 1 0 0 -1 1 -1 0 0 1 -1 1 -2 1 -1 1 -2 1 -2 1 -1 2 -3 1 -2 1 -3 2 -2 1 -3 1 -3 1 -4 2 -3 1 -4 1 -4 1 -4 1 -5 1 -4 1 -5 0 -5 1 -6 0 -5 1 -6 0 -6 0 -7 -1 2 -7zm-4 -35l1 -8 1 0 -2 8zm-75 377l2 -49 -2 1 5 -13 5 -13 5 -13 4 -13 4 -14 4 -14 4 -13 4 -14 3 -14 4 -14 3 -14 3 -14 3 -13 2 -13 3 -13 2 -13 2 -12 2 -12 2 -11 2 -11 2 -10 1 -9 1 -9 1 -8 1 -8 1 -6 1 -6 1 -4 0 -4 0 -3 0 -1 0 0 4 35 0 1 0 2 0 3 -1 4 0 5 -1 6 -1 7 -1 8 -1 8 -2 10 -1 10 -2 10 -2 11 -2 12 -2 12 -2 13 -2 13 -3 13 -3 14 -3 14 -3 14 -3 14 -3 14 -4 15 -4 14 -4 14 -4 14 -4 14 -5 14 -4 13 -5 13 -5 13 -2 0zm2 0l-1 2 -1 -2 2 0zm-79 -335l0 -50 2 8 0 0 0 1 0 3 1 4 1 4 0 6 1 6 1 7 1 9 2 8 1 10 2 10 1 11 2 11 2 12 3 12 2 13 2 13 3 13 3 13 3 14 3 14 4 14 3 14 4 14 4 13 4 14 5 14 4 13 5 13 5 13 5 12 -2 49 -5 -13 -5 -13 -5 -13 -4 -14 -5 -14 -4 -14 -4 -14 -4 -14 -3 -14 -4 -15 -3 -14 -3 -14 -3 -14 -3 -13 -3 -14 -2 -13 -3 -13 -2 -12 -2 -11 -2 -12 -1 -10 -2 -10 -1 -10 -1 -8 -1 -8 -1 -7 -1 -6 -1 -5 0 -4 -1 -3 0 -2 0 -1 2 7zm0 -50l1 0 1 8 -2 -8zm-92 -1l-5 0 3 -24 0 0 0 0 0 0 1 1 1 0 0 1 1 1 2 1 1 1 2 1 1 2 2 1 2 1 3 1 2 2 3 1 3 1 3 2 3 1 4 1 4 1 4 1 4 1 4 1 5 1 5 0 5 1 5 0 6 1 6 0 6 0 6 -1 0 50 -6 1 -6 0 -6 0 -6 -1 -5 0 -5 -1 -5 0 -5 -1 -4 -1 -5 -1 -4 -1 -3 -1 -4 -1 -3 -2 -3 -1 -3 -1 -3 -1 -3 -2 -2 -1 -2 -1 -2 -2 -2 -1 -1 -1 -2 -1 -1 -1 -1 -1 -1 -1 -1 0 0 -1 -1 0 0 -1 0 0 3 -25zm-5 0l0 -28 3 4 -3 24zm-182 118l-1 49 0 -50 17 -1 16 -2 15 -3 13 -3 13 -4 12 -4 11 -5 10 -5 9 -6 9 -5 8 -6 7 -6 6 -6 6 -6 5 -7 5 -6 4 -6 3 -6 3 -6 3 -6 2 -6 2 -5 1 -5 1 -4 1 -4 1 -2 0 -2 0 -1 0 0 0 3 0 1 0 7 5 0 0 8 0 4 -1 6 0 5 -1 5 0 5 -1 5 -1 5 -2 6 -1 5 -2 6 -3 6 -2 6 -4 7 -3 6 -4 6 -5 7 -5 6 -6 6 -7 7 -7 6 -8 6 -8 5 -10 6 -10 5 -11 5 -12 4 -13 4 -13 3 -15 3 -16 2 -17 1 1 -49zm-1 49l-29 -47 29 -3 0 50zm244 16l-5 -3 2 26 -14 8 -15 7 -13 6 -14 5 -13 3 -12 3 -12 1 -12 1 -11 0 -10 -1 -10 -1 -10 -2 -9 -3 -9 -3 -8 -4 -8 -4 -7 -4 -7 -4 -7 -5 -6 -4 -5 -5 -5 -5 -5 -4 -4 -4 -3 -4 -4 -4 -2 -3 -2 -3 -2 -3 -1 -1 -1 -2 0 0 1 -49 0 0 1 1 1 2 1 2 3 3 2 3 3 4 4 4 4 4 4 5 5 4 6 5 6 4 6 5 7 4 7 4 8 4 8 4 9 3 9 3 10 2 10 1 10 1 11 0 12 -1 12 -1 12 -3 13 -3 13 -5 14 -6 14 -7 15 -8 3 27zm-3 -27l3 -2 0 29 -3 -27zm115 324l0 50 0 0 -11 -13 -10 -12 -9 -14 -9 -13 -8 -13 -7 -14 -7 -14 -7 -14 -5 -14 -6 -13 -5 -14 -4 -14 -4 -13 -4 -13 -3 -13 -3 -13 -3 -12 -2 -12 -2 -12 -2 -11 -1 -11 -1 -10 -1 -10 -1 -9 -1 -9 -1 -8 0 -8 0 -7 0 -5 0 -5 0 -4 0 -3 5 3 0 -2 0 -1 0 0 0 2 0 3 0 3 1 5 0 5 1 6 0 8 1 8 2 9 1 10 2 10 2 11 2 11 3 12 3 13 4 12 4 13 4 13 5 14 5 13 6 14 6 13 7 14 7 13 8 14 9 13 9 13 10 13 10 12 0 0zm0 50l0 0 0 0 0 0z"/>
   </g>
   <polygon class="fil3 str1" points="250,6621 3333,5866 4088,5866 4088,6621 3333,9704 6667,9704 5912,6621 5912,5866 6667,5866 9750,6621 9750,3287 6667,4042 5912,4042 5912,3287 6667,204 3333,204 4088,3287 4088,4042 3333,4042 250,3287 "/>
   <polygon class="fil4 str1" points="9606,3455 6617,4186 5768,4186 5768,3337 6500,348 3500,348 4231,3337 4231,4186 3383,4186 394,3455 394,6454 3383,5723 4231,5723 4231,6571 3500,9560 6500,9560 5768,6571 5768,5723 6617,5723 9606,6454 "/>
   <g>
    <path class="fil5 str0" d="M8324 8060c-27,109 147,140 409,-67 98,-100 93,-250 38,-397 -73,-159 -185,-261 -361,-375 -603,-404 -1875,-1223 -2468,-1617 -86,138 -312,104 -398,242 472,304 1780,1199 2251,1506 187,109 383,223 563,336 48,40 77,69 77,153 -5,108 -132,158 -111,219z"/>
    <path id="_1_1" class="fil1 str0" d="M8747 8008l-2 2 -24 19 -24 17 -24 17 -23 15 -23 13 -22 13 -21 11 -21 10 -20 9 -19 8 -19 6 -18 6 -18 5 -16 3 -16 2 -16 2 -14 0 -14 0 -13 -2 -13 -2 -12 -4 -10 -5 -10 -6 -9 -7 -8 -8 -7 -9 -5 -10 -3 -11 -2 -11 -1 -12 1 -12 3 -12 40 10 -1 8 -1 7 0 6 1 6 2 5 2 4 3 5 3 3 5 4 5 3 7 3 8 2 8 2 10 1 11 1 12 -1 13 -1 13 -2 15 -3 16 -4 16 -5 17 -6 18 -7 19 -9 19 -9 20 -11 21 -12 22 -13 22 -14 23 -16 23 -17 24 -18 -2 2 29 29zm0 0l-1 1 -1 1 2 -2zm43 -421l1 2 5 14 5 14 4 14 4 15 4 14 4 14 3 14 2 14 3 14 2 14 2 14 1 14 0 14 1 14 0 14 -1 13 -1 14 -2 13 -2 13 -2 14 -3 13 -4 12 -4 13 -5 12 -5 13 -6 12 -7 11 -7 12 -8 11 -8 11 -9 11 -10 10 -29 -29 8 -9 8 -9 7 -9 6 -10 6 -10 6 -10 5 -10 5 -10 4 -11 3 -11 3 -11 3 -11 2 -12 2 -11 2 -12 1 -12 0 -12 0 -13 0 -12 -1 -13 -1 -12 -1 -13 -2 -13 -2 -13 -3 -13 -3 -13 -3 -14 -4 -13 -4 -13 -4 -14 -5 -13 -4 -14 0 2 38 -18zm0 0l0 1 1 1 -1 -2zm-368 -383l0 0 16 11 16 10 16 11 15 11 15 10 15 11 14 10 14 11 14 11 13 10 13 11 13 11 12 11 12 11 12 12 12 11 11 11 11 12 10 12 11 12 10 12 10 13 9 12 9 13 9 14 9 13 9 14 8 14 8 14 7 14 8 15 7 15 -38 18 -7 -14 -7 -15 -7 -13 -7 -14 -8 -13 -8 -13 -8 -12 -9 -13 -8 -12 -9 -12 -10 -12 -9 -11 -10 -11 -10 -12 -10 -11 -11 -11 -11 -11 -11 -10 -12 -11 -12 -10 -12 -11 -12 -10 -13 -11 -14 -10 -13 -10 -14 -11 -14 -10 -15 -10 -15 -11 -15 -10 -16 -11 -16 -10 0 0 23 -35zm-23 35l0 0 -1 -1 1 1zm-2474 -1646l29 -7 57 39 62 40 64 43 68 45 71 46 74 48 76 50 78 52 81 52 82 54 84 54 85 56 86 56 87 56 87 57 88 57 87 58 88 56 87 57 86 56 85 56 84 55 83 54 81 53 79 52 77 50 74 49 72 47 69 46 65 43 62 42 59 39 -23 35 -59 -40 -62 -41 -65 -43 -69 -46 -72 -47 -74 -49 -77 -50 -79 -52 -81 -53 -82 -54 -85 -55 -85 -56 -86 -56 -87 -57 -87 -57 -88 -57 -88 -57 -87 -57 -87 -56 -86 -56 -85 -56 -84 -54 -82 -54 -80 -53 -79 -51 -76 -50 -74 -48 -71 -47 -68 -44 -64 -43 -62 -41 -57 -38 29 -6 -35 -22zm0 0l11 -18 18 11 -29 7zm-392 271l-7 -29 10 -14 10 -12 11 -12 12 -11 12 -10 13 -9 13 -8 14 -8 14 -7 14 -7 14 -6 15 -5 15 -6 14 -5 15 -5 15 -5 14 -5 15 -4 14 -5 14 -6 14 -5 13 -6 13 -5 12 -7 12 -6 11 -8 11 -7 10 -8 10 -9 9 -10 8 -10 8 -11 35 22 -9 14 -11 12 -11 12 -11 11 -13 10 -12 9 -14 8 -13 8 -14 7 -14 7 -15 6 -14 5 -15 6 -15 5 -14 5 -15 5 -15 5 -14 5 -14 5 -14 5 -14 5 -13 6 -13 6 -13 6 -12 7 -11 7 -11 7 -10 9 -9 8 -9 10 -9 10 -7 11 -7 -28 -22 35zm0 0l-17 -11 10 -18 7 29zm2252 1506l-1 0 -47 -31 -51 -34 -55 -36 -60 -40 -63 -42 -67 -45 -69 -46 -72 -49 -75 -50 -77 -52 -79 -53 -80 -54 -82 -55 -82 -56 -83 -56 -84 -56 -83 -56 -83 -56 -83 -56 -81 -54 -80 -55 -79 -52 -77 -52 -75 -50 -72 -49 -70 -46 -66 -44 -64 -42 -59 -39 -55 -37 -52 -33 -46 -30 22 -35 47 30 51 33 56 37 59 39 64 42 66 44 70 47 72 48 75 50 77 52 79 53 80 54 82 55 82 55 83 56 84 57 83 56 83 56 83 56 81 55 80 54 79 53 77 51 75 51 72 48 70 47 66 44 63 42 60 40 55 37 51 33 47 31 -1 -1 -21 36zm0 0l-1 0 0 0 1 0zm560 334l2 2 -17 -11 -17 -10 -17 -11 -17 -10 -17 -11 -18 -11 -17 -10 -17 -11 -18 -10 -17 -11 -18 -10 -17 -11 -18 -11 -18 -10 -18 -11 -17 -10 -18 -11 -18 -10 -18 -11 -17 -10 -18 -11 -18 -10 -18 -11 -18 -10 -18 -11 -17 -10 -18 -10 -18 -11 -17 -10 -18 -10 -18 -11 -17 -10 21 -36 17 10 18 11 18 10 17 10 18 11 18 10 17 10 18 11 18 10 18 11 18 10 18 11 17 10 18 11 18 10 18 11 18 11 17 10 18 11 18 10 18 11 17 10 18 11 17 11 18 10 17 11 17 10 18 11 17 11 17 10 17 11 17 11 2 1 -26 32zm24 -33l1 0 1 1 -2 -1zm45 169l0 1 0 -7 0 -7 -1 -6 0 -7 -1 -6 -1 -5 0 -6 -2 -5 -1 -5 -1 -4 -2 -5 -1 -4 -2 -4 -2 -4 -1 -4 -2 -4 -3 -3 -2 -4 -2 -3 -3 -3 -3 -4 -2 -3 -3 -3 -4 -3 -3 -4 -3 -3 -4 -3 -4 -4 -4 -3 -4 -4 -4 -3 -4 -4 26 -32 5 4 4 4 4 3 5 4 4 4 4 4 4 3 4 4 4 4 4 4 3 5 4 4 3 4 3 5 4 5 3 5 2 5 3 5 2 5 3 6 2 6 2 5 2 7 1 6 1 6 2 7 1 7 0 7 1 8 0 7 1 8 0 8 0 1 -42 -2zm42 1l0 1 0 0 0 -1zm-152 214l0 12 -2 -9 -1 -8 0 -8 1 -8 2 -8 3 -8 3 -7 4 -6 4 -7 5 -6 5 -7 5 -6 5 -6 5 -6 6 -6 5 -7 6 -6 5 -6 6 -7 5 -6 5 -7 5 -7 4 -6 5 -7 4 -7 3 -8 3 -7 3 -7 2 -8 2 -8 1 -8 1 -9 42 2 -1 12 -2 11 -2 10 -3 11 -4 9 -4 10 -4 9 -5 9 -6 8 -5 8 -6 8 -5 8 -6 7 -6 7 -6 6 -5 7 -6 6 -5 6 -5 6 -5 6 -5 5 -4 5 -3 5 -3 5 -3 4 -2 5 -1 3 -1 4 0 3 -1 3 1 2 1 3 0 12 -40 -10zm40 -2l2 6 -2 6 0 -12z"/>
   </g>
   <line class="fil6 str2" x1="7258" y1="6726" x2="5673" y2= "5630" />
   <g>
    <path class="fil5 str0" d="M7796 6215c17,56 35,138 18,262 -40,170 -117,300 -203,428 -89,118 -167,227 -271,345 -61,69 -128,124 -183,222 -22,60 -34,160 73,246 162,138 310,218 482,297 175,82 272,119 416,114 126,1 181,-81 220,-129 -60,132 153,121 359,9 -66,81 -133,137 -256,194 -164,61 -273,64 -428,54 -196,-23 -374,-126 -568,-231 -229,-136 -267,-176 -363,-272 -79,-78 -104,-147 -120,-234 -8,-78 7,-154 68,-241 67,-100 156,-234 200,-340 28,-123 -2,-160 -27,-246 95,2 184,-21 267,-75 88,-61 173,-156 190,-209 26,-38 14,-117 2,-169 -1,-6 -1,-6 6,-8 19,-4 89,-21 110,-23 7,-1 6,-1 8,6z"/>
    <path id="_1_2" class="fil1 str0" d="M7794 6472l0 2 1 -11 1 -11 1 -11 1 -10 1 -10 0 -10 1 -10 0 -10 0 -9 0 -9 0 -9 -1 -9 0 -8 -1 -8 0 -8 -1 -8 -1 -8 -1 -7 -1 -8 -1 -7 -1 -7 -1 -6 -2 -7 -1 -6 -2 -7 -1 -6 -1 -6 -2 -5 -1 -6 -2 -6 -2 -5 -1 -5 40 -12 1 5 2 6 2 6 1 6 2 6 1 7 2 6 2 7 1 7 1 7 2 7 1 8 1 7 1 8 1 8 1 8 1 9 1 8 1 9 0 9 0 10 1 9 0 10 0 10 -1 10 0 10 -1 11 0 11 -1 11 -1 11 -2 12 -1 12 0 2 -41 -10zm41 8l0 1 0 1 0 -2zm-241 413l0 1 8 -12 8 -12 8 -12 7 -12 8 -12 8 -13 7 -12 8 -12 7 -12 7 -12 7 -13 7 -12 7 -13 7 -12 7 -13 6 -13 7 -13 6 -13 6 -13 6 -13 6 -14 5 -13 6 -14 5 -14 5 -14 5 -14 5 -15 5 -14 4 -15 4 -15 4 -15 4 -16 41 10 -4 16 -5 16 -4 15 -5 16 -4 15 -5 15 -6 15 -5 15 -5 14 -6 15 -6 14 -6 14 -6 13 -6 14 -7 14 -6 13 -7 13 -7 13 -7 13 -7 13 -7 13 -8 13 -7 12 -8 13 -7 12 -8 13 -8 12 -8 12 -8 12 -8 13 -8 12 -8 12 0 1 -34 -25zm34 24l0 0 0 1 0 -1zm-303 319l0 0 9 -11 10 -11 9 -11 9 -10 9 -11 9 -11 9 -10 9 -11 8 -11 9 -10 8 -11 9 -11 8 -10 8 -11 9 -10 8 -11 8 -11 8 -10 8 -11 8 -10 8 -11 8 -11 8 -10 8 -11 8 -11 8 -11 8 -10 8 -11 9 -11 8 -11 8 -11 8 -11 34 25 -9 11 -8 11 -8 11 -8 11 -8 10 -8 11 -8 11 -8 11 -8 11 -8 10 -9 11 -8 11 -8 10 -8 11 -8 11 -8 10 -8 11 -9 11 -8 11 -8 10 -9 11 -9 11 -8 10 -9 11 -9 11 -9 11 -9 11 -9 11 -9 11 -10 11 -9 11 -10 11 0 0 -31 -28zm-188 229l1 -3 6 -9 5 -10 6 -8 5 -9 6 -9 6 -8 5 -8 6 -8 6 -8 6 -7 6 -7 6 -8 6 -7 6 -7 6 -6 6 -7 6 -7 6 -6 6 -6 6 -7 6 -6 6 -6 6 -6 5 -7 6 -6 6 -6 6 -6 6 -6 6 -6 5 -6 6 -7 6 -6 31 28 -6 6 -6 7 -6 6 -6 6 -6 7 -6 6 -6 6 -5 6 -6 6 -6 7 -6 6 -6 6 -6 6 -6 6 -6 7 -5 6 -6 6 -6 7 -6 6 -5 7 -6 7 -5 7 -6 7 -5 7 -6 7 -5 8 -6 8 -5 8 -5 8 -5 8 -5 9 -5 8 1 -3 -39 -14zm0 0l1 -1 0 -2 -1 3zm80 269l0 1 -10 -9 -10 -9 -9 -9 -8 -9 -8 -9 -7 -9 -6 -9 -6 -9 -6 -9 -4 -10 -5 -9 -3 -9 -3 -9 -3 -10 -2 -9 -2 -9 -2 -9 -1 -9 0 -8 -1 -9 0 -8 1 -9 0 -8 1 -8 1 -7 2 -8 1 -7 2 -8 2 -6 2 -7 2 -7 2 -6 39 14 -2 5 -1 6 -2 6 -2 6 -1 6 -1 6 -1 6 -1 7 -1 6 -1 7 0 7 0 7 0 7 1 7 1 7 1 7 1 7 2 7 2 8 3 7 3 8 3 7 4 8 4 7 5 8 6 7 6 8 6 8 7 7 8 8 8 8 9 7 1 1 -27 31zm26 -32l1 0 0 1 -1 -1zm460 332l0 0 -16 -8 -16 -7 -16 -8 -16 -7 -15 -8 -16 -7 -15 -8 -16 -8 -15 -8 -15 -8 -16 -8 -15 -8 -15 -8 -15 -9 -15 -9 -15 -8 -15 -10 -14 -9 -15 -9 -15 -10 -15 -10 -15 -10 -15 -10 -15 -10 -14 -11 -15 -11 -15 -12 -15 -11 -16 -12 -15 -12 -15 -13 -15 -13 27 -31 15 12 15 12 15 12 14 12 15 11 15 11 14 11 15 11 14 10 15 10 14 10 15 9 14 10 15 9 14 9 15 9 14 8 15 9 15 8 14 8 15 8 15 8 15 8 15 8 15 8 16 7 15 8 15 7 16 8 16 7 16 8 16 7 0 0 -18 38zm18 -38l0 0 0 0 0 0zm407 154l0 0 -13 1 -14 0 -13 -1 -13 0 -13 -1 -13 -1 -13 -1 -12 -1 -13 -2 -12 -2 -12 -2 -12 -3 -13 -3 -12 -3 -12 -3 -13 -3 -12 -4 -12 -4 -13 -5 -13 -4 -13 -5 -13 -5 -13 -5 -14 -6 -13 -6 -14 -6 -15 -6 -14 -6 -15 -7 -16 -7 -16 -8 -16 -7 18 -38 16 8 16 7 15 7 15 7 14 6 14 6 14 6 13 6 14 5 12 5 13 5 13 5 12 4 12 4 12 4 11 4 12 3 11 3 12 3 11 3 12 2 11 2 12 2 11 1 12 2 12 1 11 1 13 0 12 1 12 0 13 0 13 0 1 0 0 41zm-1 -41l0 0 1 0 -1 0zm202 -117l35 21 -3 5 -4 5 -4 5 -4 5 -5 5 -4 5 -5 6 -4 6 -6 5 -5 6 -5 6 -6 5 -6 6 -6 6 -7 5 -7 5 -7 6 -7 5 -8 5 -8 4 -9 5 -8 4 -10 4 -9 4 -10 3 -10 3 -11 2 -11 2 -11 2 -12 1 -12 1 -12 0 0 -41 11 -1 10 0 10 -1 9 -2 10 -1 8 -3 9 -2 8 -3 8 -3 7 -3 8 -3 7 -4 6 -4 7 -4 6 -4 6 -5 6 -4 5 -5 6 -5 5 -5 5 -5 5 -5 5 -5 4 -5 5 -5 4 -5 4 -5 4 -5 4 -5 4 -5 4 -5 4 -5 35 22 -38 -17zm3 -5l102 -124 -67 146 -35 -22zm359 9l26 32 -19 10 -20 10 -20 9 -20 8 -19 8 -19 8 -19 6 -19 6 -18 6 -18 4 -18 4 -17 4 -17 2 -16 2 -15 1 -15 1 -14 -1 -14 -1 -13 -2 -12 -3 -11 -4 -11 -5 -10 -6 -8 -8 -7 -9 -6 -11 -3 -11 -2 -12 1 -13 2 -13 4 -13 5 -13 38 17 -4 10 -3 9 -1 8 0 6 0 5 2 5 2 3 2 4 4 3 5 3 6 3 7 2 9 2 9 2 11 1 12 0 13 0 13 -1 15 -2 15 -2 15 -3 17 -4 17 -4 17 -6 17 -5 18 -6 19 -7 18 -8 19 -8 19 -9 19 -9 19 -10 26 31 -33 -26zm7 -5l92 -50 -66 81 -26 -31zm-254 192l-2 1 12 -5 10 -6 11 -5 10 -5 10 -5 10 -5 9 -6 9 -5 9 -5 9 -6 8 -5 8 -5 8 -6 8 -5 8 -6 7 -5 7 -6 7 -6 7 -6 7 -5 7 -6 6 -6 7 -7 6 -6 6 -6 7 -7 6 -7 6 -6 6 -7 6 -7 6 -8 6 -7 33 26 -7 8 -6 8 -7 7 -6 7 -7 8 -6 7 -7 7 -7 6 -6 7 -7 7 -7 6 -8 7 -7 6 -7 6 -8 7 -8 6 -8 6 -8 6 -8 6 -9 5 -8 6 -9 6 -9 5 -10 6 -9 6 -10 5 -10 6 -11 5 -10 5 -11 6 -12 5 -11 6 -2 0 -14 -39zm16 39l-1 0 -1 0 2 0zm-435 14l-1 0 14 1 14 1 14 1 14 0 13 1 13 0 13 1 13 0 13 0 12 0 13 -1 12 0 12 -1 13 -1 12 -1 12 -1 12 -1 13 -2 12 -2 13 -2 12 -2 13 -3 13 -3 13 -3 13 -3 13 -4 14 -4 14 -4 14 -4 14 -5 15 -5 15 -6 14 39 -15 6 -15 5 -15 5 -15 5 -14 4 -15 4 -14 4 -13 4 -14 3 -14 3 -13 3 -13 2 -13 2 -14 2 -13 2 -12 1 -13 2 -13 1 -13 1 -13 0 -13 1 -13 0 -13 0 -13 0 -14 0 -13 0 -13 0 -14 -1 -14 -1 -14 0 -14 -1 -15 -1 -1 0 5 -42zm-4 42l0 0 -1 0 1 0zm-555 -270l-1 0 18 10 18 10 18 9 18 10 18 10 17 9 18 10 18 9 17 9 18 9 17 9 17 9 18 8 17 9 17 8 18 8 17 7 17 8 17 7 17 6 18 7 17 6 17 6 18 5 17 5 17 5 18 5 17 4 18 3 17 3 18 3 18 2 -5 42 -19 -3 -18 -3 -19 -3 -19 -4 -18 -4 -18 -4 -18 -5 -19 -6 -18 -6 -18 -6 -18 -6 -17 -7 -18 -7 -18 -7 -18 -8 -18 -7 -17 -8 -18 -9 -17 -8 -18 -9 -18 -9 -17 -9 -18 -9 -18 -9 -18 -9 -17 -10 -18 -10 -18 -9 -18 -10 -18 -10 -18 -10 -18 -9 -1 -1 22 -36zm-21 37l0 -1 -1 0 1 1zm-338 -306l0 0 9 9 8 9 9 8 8 8 7 8 8 7 8 8 7 7 8 7 8 7 7 7 8 7 8 7 9 7 8 7 9 7 10 7 9 7 11 8 11 8 11 8 12 8 13 9 13 9 15 9 15 9 16 10 16 11 18 11 19 11 20 12 21 12 -22 36 -21 -12 -20 -12 -19 -12 -17 -11 -18 -10 -16 -10 -15 -10 -14 -10 -14 -9 -13 -8 -13 -9 -11 -8 -12 -8 -10 -8 -11 -8 -9 -7 -10 -8 -9 -7 -9 -7 -8 -8 -8 -7 -8 -7 -8 -8 -8 -7 -8 -7 -8 -8 -8 -8 -8 -8 -8 -8 -8 -8 -9 -9 -9 -9 1 1 29 -30zm0 0l0 0 0 0 0 0zm-115 -221l0 -2 2 8 1 8 2 8 1 7 2 8 2 7 2 7 2 8 2 7 2 7 3 7 2 6 3 7 3 7 3 7 3 6 3 7 4 7 3 6 4 7 4 6 5 7 4 7 5 6 5 7 5 7 6 6 6 7 6 7 6 7 7 7 7 7 -29 30 -8 -8 -7 -7 -7 -8 -7 -7 -6 -8 -6 -7 -6 -8 -6 -7 -5 -8 -5 -7 -5 -7 -4 -8 -5 -7 -4 -8 -4 -7 -4 -8 -3 -7 -3 -8 -4 -7 -3 -8 -2 -7 -3 -8 -3 -8 -2 -8 -2 -7 -2 -8 -2 -8 -2 -8 -2 -8 -2 -8 -1 -9 -2 -8 0 -2 41 -4zm-41 6l0 -1 0 -1 0 2zm106 -233l0 0 -5 8 -5 8 -5 7 -5 8 -4 7 -4 8 -4 7 -4 8 -3 7 -3 7 -3 7 -3 7 -3 7 -2 7 -2 7 -2 7 -2 7 -1 7 -2 7 -1 7 -1 7 -1 6 0 7 -1 7 0 7 0 7 -1 7 1 6 0 7 0 7 1 7 0 7 -41 4 -1 -8 0 -7 -1 -8 0 -8 0 -7 0 -8 0 -8 1 -8 0 -7 1 -8 1 -8 1 -8 1 -8 2 -7 2 -8 2 -8 2 -8 2 -8 3 -8 3 -8 3 -8 3 -8 4 -8 4 -9 4 -8 4 -8 4 -8 5 -8 5 -9 6 -8 5 -9 6 -8 0 0 34 24zm0 0l0 0 0 0 0 0zm203 -348l-1 4 -4 10 -5 11 -5 10 -5 11 -5 11 -6 10 -5 11 -6 11 -6 12 -6 11 -7 11 -6 11 -7 11 -6 12 -7 11 -7 11 -7 11 -7 11 -6 11 -7 12 -7 11 -7 10 -7 11 -7 11 -7 11 -7 10 -7 10 -7 11 -6 10 -7 9 -6 10 -7 10 -34 -24 6 -9 7 -10 6 -9 7 -10 6 -11 7 -10 7 -10 7 -11 7 -10 7 -11 6 -11 7 -11 7 -11 7 -11 7 -11 7 -11 6 -11 7 -11 6 -11 7 -11 6 -11 6 -11 6 -10 6 -11 6 -11 5 -11 6 -10 5 -10 5 -11 4 -10 5 -10 4 -9 -1 3 40 9zm0 0l0 2 -1 2 1 -4zm-48 -229l21 -27 2 8 2 7 3 8 2 7 2 6 3 7 2 7 2 7 2 6 3 7 2 6 2 7 2 7 1 7 2 7 2 7 1 7 1 7 1 8 1 8 1 8 0 8 0 8 0 9 -1 9 0 10 -1 9 -1 10 -2 11 -2 11 -2 11 -3 11 -40 -9 2 -11 2 -10 2 -10 1 -9 1 -9 1 -9 1 -8 0 -8 0 -8 0 -7 0 -7 0 -7 -1 -6 -1 -7 -1 -6 -1 -6 -1 -6 -2 -6 -2 -6 -1 -6 -2 -6 -2 -6 -2 -7 -2 -6 -2 -7 -3 -6 -2 -7 -2 -7 -3 -7 -2 -8 -3 -8 -2 -8 20 -27 -1 42zm-19 -15l-8 -27 28 0 -20 27zm299 -64l0 1 -8 5 -9 5 -8 4 -8 5 -9 4 -8 5 -8 4 -9 4 -8 3 -9 4 -8 3 -9 4 -8 3 -9 2 -9 3 -8 3 -9 2 -9 2 -9 2 -9 2 -8 1 -9 2 -9 1 -9 1 -9 1 -9 1 -10 1 -9 0 -9 1 -9 0 -9 0 -10 0 1 -42 9 0 8 0 9 0 8 0 9 -1 8 0 8 -1 9 -1 8 -1 8 -1 8 -2 8 -1 9 -2 8 -2 8 -1 8 -3 7 -2 8 -2 8 -3 8 -3 8 -3 8 -3 7 -3 8 -3 8 -4 8 -4 7 -3 8 -5 7 -4 8 -4 8 -5 7 -5 0 1 23 34zm0 0l0 0 0 1 0 -1zm195 -214l3 -6 -2 6 -3 7 -3 6 -3 6 -4 7 -4 6 -4 7 -4 7 -5 7 -5 7 -6 7 -5 7 -6 7 -6 8 -6 7 -7 7 -7 8 -7 7 -7 7 -7 8 -7 7 -8 7 -8 8 -7 7 -8 7 -9 7 -8 6 -8 7 -8 7 -9 6 -8 6 -9 6 -23 -34 8 -6 7 -6 8 -5 8 -7 8 -6 8 -6 7 -7 8 -6 7 -7 8 -7 7 -7 7 -7 7 -7 6 -7 7 -7 6 -6 6 -7 6 -7 6 -7 5 -7 5 -6 5 -7 5 -6 4 -6 4 -6 4 -6 3 -6 3 -5 3 -5 2 -5 2 -5 1 -4 3 -5 34 24zm-37 -19l1 -3 2 -2 -3 5zm43 -167l0 0 1 6 1 5 1 5 1 6 1 5 1 6 1 6 1 6 1 6 1 6 1 6 0 6 1 6 0 7 1 6 0 6 0 6 0 6 0 7 0 6 0 6 -1 6 -1 6 -1 5 -1 6 -1 6 -2 5 -1 6 -3 5 -2 6 -3 5 -3 5 -34 -24 1 -2 2 -3 1 -3 1 -3 2 -4 1 -3 1 -4 0 -5 1 -4 1 -5 0 -4 0 -5 1 -5 0 -6 0 -5 -1 -5 0 -6 0 -5 -1 -6 0 -5 -1 -6 0 -6 -1 -5 -1 -6 -1 -5 -1 -6 -1 -5 -1 -5 -1 -6 -1 -5 -1 -5 -1 -5 0 0 41 -9zm-11 18l0 0 0 0 -1 0 0 0 0 0 -1 0 0 0 0 0 0 0 0 0 1 0 1 -1 1 0 1 -1 2 -1 1 -1 2 -2 1 -2 1 -2 1 -2 0 -2 0 -1 1 -1 0 -1 0 -1 0 -1 0 0 0 0 0 0 0 0 0 0 0 1 0 0 -41 9 0 0 0 -1 0 -1 0 -1 -1 0 0 -1 0 -1 0 -1 0 -2 0 -1 0 -2 0 -2 1 -2 1 -3 1 -2 2 -2 2 -3 1 -1 2 -1 2 -2 1 0 2 -1 1 0 1 -1 1 0 0 0 1 0 1 0 1 -1 0 0 0 0 1 0 0 0 9 41zm108 -24l0 0 -1 1 -2 0 -3 0 -2 1 -3 0 -4 1 -3 1 -3 0 -4 1 -4 1 -4 1 -4 1 -4 0 -4 1 -4 1 -4 1 -5 1 -4 1 -4 1 -4 1 -4 1 -4 1 -4 1 -3 0 -4 1 -3 1 -3 1 -3 0 -3 1 -2 1 -3 0 -2 1 -9 -41 2 0 2 -1 3 0 2 -1 3 -1 4 -1 3 0 3 -1 4 -1 4 -1 4 -1 4 -1 4 -1 4 -1 4 -1 5 0 4 -1 4 -1 4 -1 4 -1 5 -1 4 -1 4 -1 3 -1 4 0 4 -1 3 -1 3 0 3 -1 3 0 3 -1 2 0 0 0 5 41zm-14 -8l0 0 0 -1 -1 -1 0 0 0 0 0 -1 0 -1 0 1 0 0 0 -1 0 1 0 1 1 0 0 1 1 2 1 1 1 1 2 2 2 1 2 1 1 0 2 1 1 0 1 0 1 0 0 0 1 0 0 0 0 0 0 0 -1 0 0 0 -1 0 -5 -41 1 0 1 0 1 0 0 0 1 0 2 0 0 0 1 0 2 0 2 0 2 0 2 1 1 1 3 1 2 1 2 2 2 2 1 1 1 2 1 2 1 1 0 1 0 1 1 1 0 0 0 1 0 1 0 0 0 1 1 0 0 1 0 0 0 0 -40 12z"/>
   </g>
   <g>
    <path class="fil5 str0" d="M4195 4060c-343,-193 -1461,-1233 -1693,-1490 -206,-237 -387,-445 -557,-693 -136,-189 -254,-371 -366,-570 -13,-22 -22,-33 -22,-33 0,0 -4,11 -7,36 -12,99 -9,201 6,299 42,234 73,391 198,631 153,244 305,493 505,716 251,294 1229,1239 1631,1503 80,-152 225,-246 305,-399z"/>
    <path id="_1_3" class="fil1 str0" d="M2517 2556l0 0 24 26 29 30 34 35 38 38 42 42 45 44 49 48 52 50 55 52 57 54 60 56 61 57 63 58 64 59 65 59 66 59 66 60 66 58 65 58 65 57 64 55 63 54 62 51 60 50 57 47 55 44 52 40 50 37 46 34 42 29 38 25 33 20 -20 36 -35 -21 -40 -25 -43 -30 -46 -34 -50 -38 -53 -41 -55 -44 -58 -47 -60 -50 -61 -51 -64 -54 -64 -56 -65 -57 -66 -58 -66 -58 -66 -60 -66 -59 -65 -59 -64 -59 -63 -58 -62 -57 -59 -56 -57 -55 -55 -52 -53 -50 -49 -48 -46 -45 -42 -42 -38 -38 -34 -35 -29 -31 -25 -26 0 -1 31 -27zm-31 28l0 -1 0 1 0 0zm-524 -719l0 0 16 23 16 23 16 23 16 22 16 22 16 22 17 22 16 22 17 22 16 21 17 22 17 21 17 21 17 21 17 21 17 22 17 21 18 21 17 21 18 21 18 21 17 21 18 21 19 21 18 21 18 22 19 21 18 22 19 21 19 22 19 22 19 22 -31 27 -19 -22 -19 -22 -19 -22 -19 -21 -19 -22 -18 -21 -19 -22 -18 -21 -18 -21 -18 -21 -18 -21 -18 -22 -18 -21 -17 -21 -18 -21 -17 -21 -18 -21 -17 -21 -17 -22 -17 -21 -17 -22 -17 -21 -16 -22 -17 -22 -17 -22 -16 -22 -17 -22 -16 -23 -16 -22 -16 -23 -16 -23 -17 -23 1 0 34 -24zm0 0l0 0 0 0 0 0zm-365 -568l0 0 11 19 10 18 11 18 10 19 11 18 11 18 11 18 10 18 11 18 11 17 11 18 11 18 11 18 11 17 12 18 11 17 11 18 12 17 11 18 12 17 11 18 12 17 12 18 12 17 11 18 13 17 12 18 12 17 12 18 13 17 12 18 13 18 -34 24 -13 -18 -12 -18 -13 -17 -12 -18 -13 -17 -12 -18 -12 -18 -12 -17 -12 -18 -12 -17 -11 -18 -12 -18 -12 -17 -11 -18 -12 -17 -11 -18 -12 -18 -11 -17 -11 -18 -11 -18 -11 -18 -11 -18 -11 -18 -11 -18 -11 -18 -11 -18 -11 -18 -11 -18 -10 -19 -11 -18 -11 -19 -10 -18 0 0 36 -21zm0 0l0 0 0 0 0 0zm-54 -38l1 -1 27 1 2 1 0 1 1 1 0 0 1 0 0 1 1 1 0 0 1 1 0 1 1 1 0 0 1 1 1 1 0 1 1 2 1 1 1 1 1 1 1 2 1 1 1 2 1 1 1 2 1 2 1 2 1 2 1 2 1 2 2 2 1 2 -36 21 -1 -2 -1 -2 -2 -2 -1 -2 -1 -2 -1 -1 -1 -2 -1 -1 -1 -2 -1 -1 0 -2 -1 -1 -1 -1 -1 -1 0 -1 -1 -1 -1 -1 0 -1 -1 -1 0 -1 -1 0 0 -1 -1 0 0 -1 0 0 0 0 0 0 -1 -1 1 1 0 0 1 1 27 1 2 -1 -29 -30zm0 0l1 -1 0 0 -1 1zm-14 49l0 0 1 -3 0 -2 0 -2 1 -3 0 -2 0 -2 1 -2 0 -2 0 -1 1 -2 0 -2 0 -2 1 -1 0 -1 0 -2 1 -1 0 -1 0 -2 0 -1 1 -1 0 -1 0 -1 1 0 0 -1 0 -1 0 0 0 -1 1 0 0 -1 0 0 0 -1 5 -7 29 30 4 -7 1 -1 0 0 0 1 0 0 0 0 0 0 -1 0 0 1 0 0 0 1 0 0 0 1 -1 1 0 1 0 1 0 1 0 1 -1 1 0 1 0 1 0 2 -1 1 0 2 0 1 -1 2 0 2 0 1 0 2 -1 2 0 2 0 3 0 0 -42 -5zm42 5l0 0 0 2 0 -2zm-36 300l0 -1 -1 -9 -2 -9 -1 -10 -1 -9 -1 -10 -1 -9 -1 -10 -1 -9 0 -10 -1 -9 -1 -10 0 -9 -1 -10 0 -9 -1 -10 0 -10 0 -9 0 -10 0 -9 0 -10 0 -9 0 -10 1 -9 0 -10 1 -10 0 -9 1 -10 1 -9 0 -10 1 -9 1 -10 1 -9 42 5 -1 9 -1 9 -1 9 -1 9 -1 9 0 10 -1 9 0 9 -1 9 0 9 0 10 0 9 0 9 0 9 0 9 0 10 0 9 0 9 1 9 0 9 1 10 0 9 1 9 1 9 1 9 0 10 1 9 1 9 2 9 1 9 1 9 1 10 0 -1 -41 7zm0 0l0 0 0 -1 0 1zm202 638l-1 -1 -12 -22 -11 -23 -10 -21 -10 -21 -10 -21 -9 -21 -9 -20 -8 -20 -8 -20 -7 -19 -7 -19 -7 -19 -6 -19 -7 -19 -5 -19 -6 -19 -5 -18 -5 -19 -5 -19 -5 -19 -5 -18 -4 -19 -4 -20 -4 -19 -4 -19 -4 -20 -4 -20 -4 -20 -4 -21 -4 -21 -4 -21 -4 -22 41 -7 4 21 4 22 4 20 4 21 4 20 3 20 4 19 4 20 5 19 4 18 4 19 4 18 5 19 5 18 5 18 5 19 5 18 6 18 6 18 6 19 7 18 7 19 7 19 8 19 8 20 8 20 9 20 10 20 9 21 11 21 11 22 11 22 -1 -2 -35 22zm0 0l-1 0 0 -1 1 1zm506 719l1 0 -19 -21 -19 -21 -18 -22 -18 -21 -17 -22 -18 -22 -17 -22 -17 -22 -17 -22 -17 -22 -16 -23 -16 -22 -16 -23 -16 -22 -16 -23 -15 -22 -16 -23 -15 -23 -15 -23 -15 -23 -15 -22 -15 -23 -14 -23 -15 -23 -15 -23 -14 -23 -15 -23 -14 -23 -14 -23 -15 -23 -14 -23 -14 -23 35 -22 14 23 15 23 14 23 14 23 15 23 14 23 15 23 14 22 15 23 14 23 15 23 15 23 15 22 15 23 15 23 15 22 16 23 15 22 16 22 16 23 16 22 16 22 16 22 17 22 17 21 17 22 17 22 17 21 18 21 18 21 18 21 19 21 0 1 -32 27zm32 -28l0 1 0 0 0 -1zm1634 1527l-30 7 -40 -27 -43 -30 -46 -34 -48 -38 -51 -40 -52 -43 -55 -46 -57 -48 -57 -50 -60 -52 -60 -53 -60 -54 -62 -56 -61 -56 -62 -57 -61 -58 -61 -57 -61 -58 -59 -56 -58 -57 -57 -55 -55 -54 -53 -53 -51 -51 -49 -50 -46 -47 -44 -45 -40 -42 -37 -40 -34 -36 -30 -34 -26 -29 32 -27 26 29 29 33 33 36 37 39 40 42 43 45 47 47 48 49 51 51 53 53 55 54 57 55 58 57 59 56 60 58 61 57 61 57 62 57 61 56 61 56 61 54 60 53 59 52 57 50 57 47 54 46 53 42 50 40 48 37 45 34 42 30 39 27 -30 7 37 20zm0 0l-11 20 -19 -13 30 -7zm296 -427l9 28 -8 15 -9 14 -8 14 -9 14 -10 13 -9 13 -10 13 -10 12 -10 13 -10 12 -10 12 -11 12 -10 12 -11 11 -10 12 -11 12 -10 11 -11 12 -10 11 -11 12 -10 11 -10 12 -10 12 -9 12 -10 12 -9 12 -9 12 -9 13 -8 13 -8 13 -8 13 -7 14 -37 -20 8 -14 8 -15 9 -14 9 -13 9 -14 10 -13 9 -13 10 -12 10 -13 11 -12 10 -12 10 -12 11 -12 10 -11 11 -12 10 -11 11 -12 10 -11 11 -12 10 -12 10 -11 10 -12 10 -12 10 -12 9 -12 9 -12 9 -12 9 -13 8 -12 9 -14 7 -13 8 -13 8 27 20 -36zm0 0l18 10 -9 18 -9 -28z"/>
   </g>
   <g>
    <path class="fil5 str0" d="M1767 7971c27,109 -147,140 -409,-67 -98,-101 -93,-250 -38,-397 73,-160 185,-261 361,-375 602,-404 1875,-1223 2467,-1617 87,138 312,103 399,242 -472,304 -1781,1199 -2251,1506 -187,109 -383,223 -563,336 -48,39 -77,69 -77,153 5,108 132,158 111,219z"/>
    <path id="_1_4" class="fil1 str0" d="M1343 7919l30 -29 -2 -2 24 18 23 17 23 16 22 14 22 13 20 12 21 11 19 9 19 8 18 8 17 6 16 5 16 4 15 3 13 2 13 1 12 0 11 0 10 -1 8 -2 8 -2 6 -3 6 -3 4 -4 4 -4 3 -4 2 -4 2 -5 1 -6 0 -6 -1 -7 -1 -8 40 -10 3 12 1 12 -1 12 -2 11 -3 11 -5 10 -7 9 -8 8 -9 7 -10 6 -11 5 -11 3 -13 3 -13 2 -14 0 -14 0 -16 -2 -16 -2 -17 -4 -17 -4 -18 -6 -19 -6 -19 -8 -21 -9 -20 -10 -22 -11 -22 -13 -22 -14 -23 -15 -24 -16 -24 -17 -25 -19 -2 -2zm2 2l-1 -1 -1 -1 2 2zm-44 -423l38 18 0 -2 -5 14 -4 13 -4 13 -4 14 -4 13 -3 13 -3 13 -3 14 -2 13 -2 13 -1 12 -1 13 -1 13 0 12 0 12 0 13 1 12 2 11 1 12 3 12 2 11 4 11 3 11 4 10 5 11 5 10 5 10 7 10 6 9 7 10 8 9 8 9 -30 29 -9 -11 -9 -10 -9 -11 -7 -11 -7 -12 -7 -12 -6 -12 -5 -12 -5 -12 -4 -13 -4 -13 -3 -13 -3 -13 -2 -13 -1 -13 -1 -14 -1 -13 0 -14 0 -14 1 -14 1 -14 2 -14 2 -14 2 -14 3 -14 3 -14 4 -14 4 -15 4 -14 4 -14 5 -14 5 -14 1 -2zm-1 2l1 -1 0 -1 -1 2zm369 -385l23 34 0 0 -16 11 -16 11 -15 10 -15 10 -15 11 -14 10 -14 10 -14 11 -13 10 -13 11 -12 10 -13 10 -11 11 -12 11 -11 10 -11 11 -11 11 -10 11 -10 11 -10 12 -10 11 -9 12 -9 12 -8 12 -9 12 -8 13 -8 13 -8 13 -7 14 -7 13 -7 14 -7 15 -38 -18 7 -15 8 -15 7 -14 8 -15 8 -14 9 -13 8 -14 9 -13 10 -13 9 -12 10 -13 10 -12 10 -12 11 -12 11 -12 11 -11 12 -12 12 -11 12 -11 12 -11 13 -11 13 -11 13 -10 14 -11 14 -11 14 -10 15 -11 15 -11 15 -10 16 -11 16 -11 16 -10 0 0zm23 34l0 0 1 0 -1 0zm2474 -1645l-35 22 29 6 -58 38 -61 41 -65 42 -67 45 -71 47 -74 48 -76 50 -79 51 -80 53 -83 54 -83 54 -85 56 -86 56 -87 56 -87 57 -88 57 -88 57 -87 57 -87 57 -86 56 -86 56 -84 55 -82 54 -81 53 -79 51 -77 51 -74 49 -72 47 -69 45 -65 44 -62 41 -59 39 -23 -34 59 -39 62 -42 65 -43 69 -46 72 -47 74 -49 77 -50 79 -52 81 -53 83 -54 84 -55 85 -56 86 -56 87 -57 88 -57 87 -57 88 -57 87 -57 87 -56 86 -56 85 -56 84 -54 82 -54 80 -53 79 -51 76 -50 74 -48 71 -47 68 -44 64 -43 61 -41 58 -38 29 7zm-29 -7l18 -12 11 19 -29 -7zm421 278l-23 -35 -6 28 -8 -11 -8 -10 -9 -10 -9 -9 -10 -8 -11 -8 -12 -7 -12 -6 -12 -7 -13 -6 -13 -5 -14 -6 -14 -5 -14 -5 -14 -5 -15 -4 -15 -5 -14 -5 -15 -5 -15 -6 -14 -6 -15 -6 -14 -6 -14 -7 -14 -8 -13 -8 -13 -9 -12 -10 -12 -11 -11 -12 -10 -13 -9 -13 35 -22 8 11 8 10 9 9 9 9 11 9 10 7 12 7 12 7 12 6 13 6 13 6 14 5 14 5 14 5 15 5 14 5 15 5 15 5 14 5 15 6 14 5 15 6 14 7 14 7 14 8 13 8 13 9 12 10 12 11 11 11 10 13 9 14 -6 29zm6 -29l11 18 -17 11 6 -29zm-2258 1535l-21 -36 -1 1 47 -31 51 -34 55 -36 60 -40 63 -42 66 -44 70 -47 72 -49 75 -50 77 -52 79 -53 80 -54 81 -55 83 -55 83 -56 83 -57 84 -56 83 -56 82 -55 82 -55 80 -54 79 -53 77 -52 75 -50 72 -48 70 -47 66 -44 63 -42 60 -39 56 -37 51 -33 46 -30 23 35 -47 30 -51 33 -55 37 -60 39 -63 42 -66 44 -70 46 -72 49 -75 50 -77 51 -79 53 -80 54 -82 55 -82 56 -83 56 -83 56 -84 56 -83 56 -82 56 -82 55 -80 54 -79 53 -77 52 -75 50 -72 49 -70 46 -66 45 -63 42 -60 39 -55 37 -51 34 -47 30 -1 1zm1 -1l0 1 -1 0 1 -1zm-561 335l-26 -32 2 -2 17 -10 17 -11 17 -10 17 -11 17 -11 18 -10 17 -11 18 -11 17 -10 18 -11 17 -10 18 -11 18 -11 17 -10 18 -11 18 -10 18 -11 18 -10 17 -11 18 -10 18 -11 18 -10 18 -11 18 -10 17 -11 18 -10 18 -10 18 -11 17 -10 18 -10 18 -11 17 -10 21 36 -17 10 -18 10 -18 11 -17 10 -18 10 -18 11 -18 10 -17 11 -18 10 -18 11 -18 10 -18 11 -17 10 -18 11 -18 10 -18 11 -18 10 -17 11 -18 10 -18 11 -17 10 -18 11 -17 10 -18 11 -17 11 -18 10 -17 11 -17 10 -17 11 -17 10 -17 11 -17 11 2 -2zm-26 -32l1 -1 1 -1 -2 2zm-43 168l-42 2 0 -1 0 -8 0 -8 1 -8 0 -7 1 -7 1 -7 1 -7 2 -6 1 -7 2 -6 2 -6 2 -5 2 -6 3 -5 2 -6 3 -5 3 -5 3 -4 4 -5 3 -4 4 -5 3 -4 4 -4 4 -4 4 -4 4 -4 4 -3 4 -4 4 -4 5 -4 4 -3 5 -4 26 32 -4 4 -4 3 -4 4 -4 3 -4 3 -4 4 -3 3 -4 3 -3 4 -3 3 -3 3 -2 3 -3 4 -2 3 -3 4 -2 3 -2 4 -2 4 -1 4 -2 4 -2 4 -1 4 -1 5 -2 5 -1 5 -1 5 0 6 -1 6 -1 6 0 7 0 7 0 7 0 -1zm-42 2l0 0 0 -1 0 1zm152 213l-40 10 0 -12 1 -3 0 -3 0 -2 0 -3 -1 -4 -1 -4 -2 -4 -3 -4 -3 -5 -3 -5 -4 -5 -5 -5 -5 -6 -5 -6 -5 -6 -6 -6 -5 -7 -6 -6 -6 -7 -6 -8 -6 -7 -5 -8 -6 -8 -5 -8 -5 -9 -4 -9 -4 -10 -4 -10 -3 -10 -2 -11 -2 -11 -1 -11 42 -2 0 9 2 8 1 8 3 7 2 8 4 7 3 7 4 7 4 7 5 7 5 7 5 7 5 6 6 7 5 6 6 6 5 6 6 7 5 6 5 6 5 6 5 6 5 7 4 6 4 7 3 7 3 8 2 7 1 8 0 9 -1 8 -2 9 0 -12zm-40 10l-2 -6 2 -6 0 12z"/>
   </g>
   <line class="fil6 str2" x1="2832" y1="6637" x2="4418" y2= "5541" />
   <g>
    <path class="fil5 str0" d="M2295 6126c-17,56 -35,138 -18,262 40,170 116,299 203,428 88,118 167,227 271,345 61,69 128,123 183,222 22,60 34,160 -74,246 -161,138 -309,218 -481,297 -175,81 -272,119 -416,114 -126,0 -181,-81 -220,-129 60,132 -153,121 -360,9 67,81 134,137 257,193 164,62 273,65 428,55 196,-23 374,-126 568,-231 229,-136 267,-176 363,-272 79,-79 104,-147 120,-234 8,-78 -7,-154 -68,-241 -67,-100 -156,-234 -200,-340 -28,-123 2,-161 27,-246 -96,2 -184,-21 -268,-75 -87,-61 -172,-156 -189,-209 -26,-38 -14,-117 -3,-169 2,-7 1,-6 -5,-8 -19,-4 -89,-21 -110,-23 -7,-1 -6,-1 -8,6z"/>
    <path id="_1_5" class="fil1 str0" d="M2297 6383l-41 9 0 -2 -2 -11 -1 -12 -1 -11 -1 -11 -1 -11 0 -11 -1 -10 0 -10 0 -10 0 -10 0 -9 1 -10 0 -9 1 -9 1 -8 0 -9 1 -8 1 -8 2 -8 1 -8 1 -7 1 -7 2 -7 1 -7 2 -7 1 -7 2 -6 2 -6 1 -6 2 -6 1 -6 2 -5 40 12 -2 5 -1 5 -2 6 -1 5 -2 6 -1 6 -2 6 -1 6 -1 7 -2 6 -1 7 -1 7 -1 7 -1 7 -1 8 -1 8 -1 7 -1 8 0 9 -1 8 0 9 0 9 0 9 0 9 0 10 0 9 1 10 1 11 1 10 1 11 1 11 1 11 0 -2zm-41 9l0 -1 0 -1 0 2zm241 412l-34 25 0 -1 -8 -12 -9 -13 -8 -12 -7 -12 -8 -12 -8 -13 -8 -12 -7 -12 -8 -13 -7 -13 -8 -12 -7 -13 -7 -13 -7 -13 -7 -13 -7 -13 -6 -14 -7 -13 -6 -14 -6 -14 -6 -14 -6 -14 -6 -14 -5 -14 -6 -15 -5 -15 -5 -15 -5 -15 -4 -16 -5 -16 -4 -15 -4 -17 41 -9 4 15 4 16 4 15 4 15 5 14 5 15 5 14 5 14 5 14 5 14 6 13 6 14 6 13 6 13 6 13 7 13 6 13 7 13 6 12 7 13 7 12 8 12 7 13 7 12 8 12 7 12 8 12 8 12 7 12 8 12 8 13 8 12 0 -1zm-34 25l0 -1 0 0 0 1zm303 318l-31 27 0 0 -10 -11 -9 -11 -10 -11 -9 -11 -9 -11 -9 -10 -9 -11 -9 -11 -9 -11 -9 -11 -8 -10 -9 -11 -8 -11 -9 -10 -8 -11 -8 -11 -8 -10 -8 -11 -8 -11 -9 -10 -8 -11 -8 -11 -8 -11 -8 -10 -8 -11 -8 -11 -8 -11 -8 -11 -8 -10 -8 -11 -8 -11 -9 -11 34 -25 8 11 8 11 8 11 8 11 8 10 9 11 8 11 8 11 8 10 8 11 8 11 8 10 8 11 8 11 8 10 8 11 8 10 8 11 9 11 8 10 8 11 9 10 8 11 9 11 9 10 9 11 9 11 9 10 9 11 9 11 10 11 9 11 0 0zm188 229l-39 14 1 3 -5 -9 -5 -8 -5 -9 -5 -8 -6 -8 -5 -7 -5 -8 -6 -7 -5 -7 -6 -7 -5 -7 -6 -7 -6 -7 -5 -6 -6 -7 -6 -6 -6 -7 -5 -6 -6 -6 -6 -6 -6 -6 -6 -7 -6 -6 -6 -6 -6 -6 -6 -6 -5 -6 -6 -7 -6 -6 -6 -6 -6 -7 -6 -7 31 -27 6 6 5 6 6 7 6 6 6 6 6 6 5 6 6 6 6 6 6 7 6 6 6 6 6 6 6 7 6 6 6 7 6 6 6 7 6 7 6 7 6 7 6 8 6 7 6 8 5 8 6 8 6 8 5 9 6 8 6 9 5 9 5 10 2 3zm-2 -3l1 1 1 2 -2 -3zm-78 272l-27 -32 0 0 9 -8 9 -7 8 -8 7 -8 6 -7 6 -8 6 -7 4 -8 5 -8 4 -7 3 -8 3 -7 3 -7 2 -8 2 -7 1 -7 1 -8 1 -7 1 -7 0 -7 0 -7 -1 -6 0 -7 -1 -7 -1 -6 -1 -6 -1 -7 -2 -6 -1 -5 -2 -6 -2 -6 -1 -5 39 -14 2 6 2 7 2 6 2 7 2 7 1 8 1 7 1 8 1 8 1 8 0 8 0 9 0 8 0 9 -1 9 -2 9 -2 9 -2 9 -3 9 -3 10 -4 9 -4 9 -5 9 -5 10 -6 9 -6 9 -7 9 -8 9 -9 9 -9 9 -9 9 -11 8 1 0zm-27 -32l0 0 0 0 0 0zm-459 332l-18 -38 0 0 16 -8 16 -7 16 -7 15 -8 16 -7 15 -8 16 -7 15 -8 15 -8 15 -8 15 -8 14 -8 15 -8 15 -8 14 -9 15 -8 15 -9 14 -9 15 -9 14 -10 15 -9 14 -10 15 -10 14 -10 15 -11 14 -11 15 -11 15 -11 14 -12 15 -12 15 -12 15 -13 27 32 -15 13 -16 12 -15 13 -15 12 -15 11 -15 12 -15 11 -15 10 -14 11 -15 10 -15 10 -15 10 -15 10 -15 9 -15 9 -15 9 -14 9 -15 9 -15 8 -16 9 -15 8 -15 8 -15 8 -15 8 -16 8 -15 7 -16 8 -16 8 -15 7 -16 8 -16 7 -16 8 0 0zm-18 -38l0 0 -1 0 1 0zm-407 154l0 -42 1 0 13 1 13 0 12 0 12 -1 12 0 12 -1 12 -1 12 -2 11 -1 12 -2 11 -2 11 -3 12 -2 11 -3 12 -3 12 -3 11 -4 12 -4 12 -4 12 -4 13 -5 12 -5 13 -5 13 -5 14 -6 14 -6 14 -6 14 -7 15 -6 15 -7 16 -8 16 -7 18 38 -17 7 -15 7 -16 8 -15 6 -14 7 -15 6 -14 6 -14 6 -13 6 -13 5 -14 5 -12 5 -13 4 -13 5 -12 4 -13 3 -12 4 -12 3 -12 3 -13 3 -12 3 -12 2 -13 2 -12 2 -13 1 -12 1 -13 1 -13 1 -13 0 -13 0 -14 0 -14 0 1 0zm0 -42l0 0 1 0 -1 0zm-201 -117l-38 18 35 -22 4 5 4 4 3 5 4 5 5 5 4 6 4 5 5 5 4 5 5 5 5 5 5 5 5 5 5 5 6 5 6 4 6 5 6 4 7 4 6 4 7 4 7 3 8 3 8 3 8 3 8 2 9 2 9 2 10 2 10 1 10 0 11 0 0 42 -12 0 -12 -1 -12 -1 -12 -2 -10 -2 -11 -2 -10 -3 -10 -4 -10 -3 -9 -4 -9 -4 -8 -5 -8 -4 -8 -5 -7 -5 -7 -6 -7 -5 -7 -6 -6 -5 -6 -6 -6 -6 -5 -5 -6 -6 -5 -6 -5 -5 -4 -6 -5 -5 -4 -5 -4 -6 -4 -5 -4 -4 -3 -5 35 -22zm-38 18l-67 -147 102 125 -35 22zm-324 -13l-33 26 26 -31 19 10 19 9 19 9 19 8 18 7 18 7 18 7 18 5 17 5 17 5 16 3 16 3 15 3 15 1 13 2 13 0 12 0 11 -1 9 -2 9 -2 7 -2 6 -3 5 -3 4 -4 2 -3 2 -4 1 -4 1 -5 0 -6 -1 -8 -3 -9 -4 -10 38 -18 5 14 4 13 2 13 1 13 -2 12 -3 11 -6 11 -7 9 -9 8 -9 6 -11 5 -12 4 -12 3 -13 2 -13 1 -14 1 -15 -1 -16 -1 -16 -2 -16 -3 -17 -3 -18 -4 -18 -5 -18 -5 -19 -6 -19 -6 -19 -8 -20 -8 -19 -8 -20 -9 -20 -10 -20 -11 27 -31zm-33 26l-66 -81 92 50 -26 31zm280 161l-15 39 -1 -1 -11 -5 -12 -5 -11 -6 -10 -5 -11 -6 -10 -5 -10 -6 -9 -5 -10 -6 -9 -5 -9 -6 -9 -6 -8 -6 -8 -6 -9 -5 -7 -7 -8 -6 -8 -6 -7 -6 -8 -6 -7 -7 -7 -6 -7 -7 -7 -7 -6 -7 -7 -7 -7 -7 -6 -7 -7 -7 -6 -7 -6 -8 -7 -8 33 -26 6 7 6 7 6 8 6 6 6 7 6 7 6 6 7 7 6 6 7 6 6 6 7 6 7 6 7 6 7 6 7 5 7 6 8 6 8 5 8 6 8 5 8 5 9 6 9 5 9 5 9 5 10 6 10 5 10 5 10 5 11 5 11 6 -1 -1zm-15 39l0 0 -1 -1 1 1zm434 14l5 42 -1 0 -15 1 -14 0 -14 1 -14 1 -14 0 -13 1 -14 0 -13 0 -13 0 -13 0 -13 0 -13 -1 -13 0 -13 -1 -13 -1 -13 -2 -13 -1 -13 -2 -13 -2 -13 -2 -13 -3 -14 -2 -13 -3 -14 -3 -14 -4 -14 -4 -14 -4 -14 -4 -15 -5 -15 -5 -15 -5 -16 -6 15 -39 15 5 15 6 14 4 14 5 14 4 14 4 13 4 13 3 13 3 13 3 13 3 12 2 13 2 12 2 12 1 13 2 12 1 12 1 13 1 12 1 12 0 13 0 12 1 13 0 13 -1 13 0 13 0 13 -1 14 0 14 -1 14 -1 14 -1 -1 0zm5 42l-1 0 0 0 1 0zm554 -270l22 36 -1 0 -18 10 -18 10 -18 10 -18 10 -18 9 -18 10 -18 9 -17 10 -18 9 -18 9 -17 9 -18 9 -18 9 -17 8 -18 8 -18 8 -17 8 -18 8 -18 7 -18 7 -18 7 -17 6 -18 6 -19 6 -18 5 -18 5 -18 5 -19 4 -18 4 -19 3 -19 3 -18 3 -5 -42 18 -2 17 -3 18 -3 18 -4 17 -4 18 -4 17 -5 17 -5 18 -5 17 -6 17 -6 17 -7 18 -7 17 -7 17 -7 17 -8 18 -7 17 -8 17 -9 17 -8 18 -9 17 -9 18 -9 17 -9 18 -9 17 -10 18 -9 18 -10 18 -10 18 -10 18 -9 18 -10 -1 0zm22 36l-1 0 0 0 1 0zm337 -305l29 29 0 0 -8 9 -9 9 -8 8 -8 8 -8 8 -8 8 -8 7 -8 8 -8 7 -8 8 -8 7 -8 7 -9 7 -8 8 -9 7 -10 8 -10 7 -10 8 -11 8 -11 8 -12 8 -12 8 -13 9 -14 9 -14 10 -16 9 -16 11 -17 10 -18 11 -19 12 -19 12 -21 12 -22 -36 21 -12 20 -12 19 -11 17 -11 17 -11 16 -10 15 -9 14 -10 14 -9 13 -8 12 -8 11 -8 11 -8 10 -8 10 -7 10 -7 9 -7 8 -7 9 -7 8 -7 8 -7 7 -7 8 -7 8 -7 7 -8 8 -7 7 -8 8 -7 8 -8 9 -9 8 -8 9 -9 0 0zm0 0l0 0 0 0 0 0zm115 -221l41 4 0 2 -2 8 -1 8 -2 8 -2 9 -2 8 -2 7 -2 8 -2 8 -3 8 -2 8 -3 7 -3 8 -3 8 -3 7 -3 8 -4 7 -3 8 -4 7 -4 8 -5 7 -4 7 -5 8 -5 7 -5 8 -6 7 -6 7 -6 8 -6 7 -7 8 -7 7 -7 8 -8 7 -29 -29 7 -7 7 -7 6 -7 6 -7 6 -7 6 -7 5 -6 5 -7 5 -7 4 -6 5 -7 4 -6 3 -7 4 -7 4 -6 3 -7 3 -7 3 -6 3 -7 2 -7 3 -7 2 -7 3 -7 2 -7 2 -7 2 -7 2 -7 1 -8 2 -7 2 -8 1 -8 2 -8 0 2zm41 4l0 1 0 1 0 -2zm-107 -232l35 -23 0 0 6 8 5 9 6 8 5 8 4 9 5 8 4 8 4 8 4 8 4 9 3 8 3 8 3 8 3 8 2 8 2 8 2 7 2 8 1 8 2 8 1 8 1 8 1 7 0 8 1 8 0 8 0 7 0 8 0 8 -1 8 0 7 -1 8 -41 -4 0 -7 1 -7 0 -7 0 -7 0 -7 0 -6 0 -7 0 -7 -1 -7 -1 -7 0 -7 -1 -6 -2 -7 -1 -7 -1 -7 -2 -7 -2 -7 -2 -7 -3 -7 -2 -7 -3 -7 -3 -7 -3 -7 -3 -8 -4 -7 -4 -7 -4 -8 -4 -7 -5 -8 -5 -8 -5 -7 -5 -8 -1 -1zm1 1l-1 -1 1 1 0 0zm-204 -348l41 -9 -1 -3 4 9 5 10 4 10 5 10 5 11 6 10 5 11 6 11 6 10 6 11 6 11 6 11 6 11 7 11 7 11 6 11 7 11 7 11 7 11 6 11 7 11 7 11 7 10 7 11 7 11 7 10 6 10 7 10 7 10 6 10 7 10 6 9 -35 23 -6 -9 -6 -10 -7 -10 -7 -10 -6 -10 -7 -10 -7 -11 -7 -10 -7 -11 -7 -11 -7 -11 -7 -11 -7 -11 -7 -11 -7 -11 -6 -11 -7 -11 -7 -12 -6 -11 -7 -11 -6 -11 -7 -12 -6 -11 -6 -11 -6 -11 -5 -11 -6 -11 -5 -10 -5 -11 -5 -11 -5 -10 -4 -10 -2 -4zm2 4l-1 -2 -1 -2 2 4zm46 -233l0 -42 20 27 -2 8 -3 8 -2 7 -3 8 -2 7 -2 7 -3 6 -2 7 -2 6 -2 6 -2 7 -2 6 -2 6 -1 6 -2 6 -1 6 -1 6 -1 6 -1 7 -1 6 0 7 0 7 -1 7 1 8 0 8 1 8 0 8 2 9 1 10 2 10 2 10 2 11 -41 9 -2 -11 -2 -12 -2 -11 -2 -10 -1 -10 -1 -10 -1 -9 0 -9 0 -9 0 -8 0 -8 1 -8 1 -8 1 -8 1 -7 1 -7 2 -7 1 -7 2 -7 2 -7 2 -7 2 -6 2 -7 3 -7 2 -6 2 -7 2 -7 3 -7 2 -7 2 -7 3 -7 2 -8 20 27zm0 -42l28 0 -8 27 -20 -27zm-279 -37l23 -34 0 -1 7 5 8 5 7 4 8 4 8 4 7 4 8 4 8 4 7 3 8 3 8 3 8 3 8 3 7 2 8 3 8 2 8 2 8 2 8 2 8 2 9 1 8 2 8 1 8 1 8 1 9 1 8 0 9 1 8 0 9 0 8 0 9 0 0 42 -9 0 -9 0 -9 0 -9 -1 -10 0 -9 -1 -9 -1 -9 -1 -9 -1 -9 -1 -9 -2 -9 -1 -8 -2 -9 -2 -9 -2 -9 -3 -8 -2 -9 -3 -9 -3 -8 -3 -9 -3 -8 -3 -9 -4 -8 -4 -9 -3 -8 -4 -9 -5 -8 -4 -8 -5 -8 -5 -9 -5 -8 -5 0 0zm0 0l0 0 0 0 0 0zm-195 -215l34 -23 3 5 1 4 2 5 2 4 3 5 3 6 3 5 4 6 4 6 4 7 5 6 4 6 6 7 5 7 6 7 6 6 6 7 6 7 7 7 6 7 7 7 7 7 7 7 8 7 7 6 8 7 7 7 8 6 8 6 8 6 7 6 8 6 8 6 -23 34 -9 -6 -8 -6 -9 -7 -8 -6 -8 -7 -9 -7 -8 -7 -8 -7 -8 -7 -7 -7 -8 -7 -7 -7 -8 -8 -7 -7 -7 -7 -6 -8 -7 -7 -6 -8 -6 -7 -6 -7 -6 -7 -5 -7 -5 -7 -5 -7 -4 -7 -5 -7 -3 -6 -4 -7 -3 -6 -3 -7 -3 -6 -2 -6 3 5zm34 -23l2 2 1 3 -3 -5zm-40 -162l41 9 0 0 -1 5 -1 5 -1 5 -1 5 -1 6 -1 5 -1 5 -1 6 -1 6 -1 5 0 6 -1 5 -1 6 0 5 0 6 -1 5 0 6 0 5 0 5 0 5 1 5 0 5 1 5 0 4 1 4 1 4 1 4 1 4 2 3 1 3 1 2 2 3 -34 23 -3 -5 -3 -5 -3 -5 -2 -5 -2 -6 -1 -5 -1 -6 -2 -6 0 -6 -1 -6 -1 -6 0 -6 0 -6 0 -6 0 -6 0 -6 0 -6 1 -7 0 -6 1 -6 0 -6 1 -6 1 -6 1 -6 1 -6 1 -6 1 -6 1 -5 1 -6 1 -5 1 -6 1 -5 0 0zm10 17l10 -40 0 0 0 0 1 0 0 0 1 0 1 1 0 0 1 0 1 0 1 0 1 1 2 1 1 0 2 1 2 2 1 1 2 2 2 3 1 2 1 3 0 2 1 1 0 2 0 2 0 1 0 2 0 1 -1 0 0 1 0 1 0 1 0 1 0 0 -41 -9 0 0 0 -1 0 0 0 0 0 0 0 0 0 0 0 1 0 0 0 2 0 1 1 1 0 2 1 2 1 2 1 2 2 2 1 1 1 1 2 1 1 0 0 1 1 0 1 0 0 0 0 0 -1 0 0 0 0 0 0 0 -1 0 -1 -1 0 0zm-108 -23l6 -41 0 0 2 0 3 1 3 0 3 1 3 0 3 1 4 1 3 0 4 1 4 1 4 1 4 1 5 1 4 0 4 1 4 1 4 1 5 1 4 1 4 1 4 1 4 1 4 1 3 1 4 0 3 1 3 1 3 1 3 0 3 1 2 0 2 1 -10 40 -2 0 -2 -1 -2 0 -3 -1 -3 0 -3 -1 -4 -1 -3 -1 -4 -1 -3 0 -4 -1 -4 -1 -4 -1 -4 -1 -5 -1 -4 -1 -4 -1 -4 -1 -4 -1 -4 -1 -4 -1 -4 0 -4 -1 -4 -1 -3 -1 -4 0 -3 -1 -3 0 -2 -1 -3 0 -2 -1 -2 0 0 0zm15 -8l-40 -12 0 0 0 -1 0 0 0 -1 1 0 0 -1 0 0 0 -1 0 -1 0 0 1 -1 0 -1 1 -2 1 -1 1 -2 1 -2 2 -1 2 -2 2 -1 2 -1 2 -1 3 -1 1 0 2 0 1 -1 1 0 2 0 0 0 1 1 1 0 1 0 1 0 1 0 -6 41 0 0 0 0 -1 0 0 0 0 0 0 0 0 0 1 0 1 0 1 0 1 0 1 -1 2 -1 2 0 2 -2 1 -1 2 -1 1 -2 1 -1 0 -1 0 -1 1 0 0 -1 0 0 0 0 0 0 0 1 0 0 -1 1 0 0 0 1 0 1 0 0z"/>
   </g>
   <g>
    <polygon class="fil5 str0" points="1542,7516 1760,7576 1712,7610 "/>
    <path id="_1_6" class="fil1 str0" d="M1754 7596l-218 -60 12 -40 217 60 7 37 -18 3zm11 -40l42 12 -35 25 -7 -37zm-65 37l48 -34 24 34 -48 34 -22 1 -2 -35zm24 34l-10 7 -12 -6 22 -1zm-172 -130l170 94 -20 37 -170 -94 16 -38 4 1zm-20 37l-155 -86 171 48 -16 38z"/>
   </g>
   <g>
    <polygon class="fil5 str0" points="1717,7394 1954,7460 1899,7494 "/>
    <path id="_1_7" class="fil1 str0" d="M1948 7480l-236 -66 11 -40 236 66 6 37 -17 3zm11 -40l46 12 -40 25 -6 -37zm-71 36l55 -34 22 35 -55 34 -21 1 -1 -36zm22 35l-10 7 -11 -6 21 -1zm-183 -135l182 99 -20 37 -182 -100 16 -38 4 2zm-20 36l-159 -86 175 48 -16 38z"/>
   </g>
   <g>
    <polygon class="fil5 str0" points="1874,7281 2143,7349 2083,7386 "/>
    <path id="_1_8" class="fil1 str0" d="M2138 7369l-269 -68 10 -40 269 68 6 38 -16 2zm10 -40l47 12 -41 26 -6 -38zm-76 39l60 -37 22 36 -60 37 -21 1 -1 -37zm22 36l-10 6 -11 -5 21 -1zm-210 -142l208 106 -19 37 -208 -106 14 -38 5 1zm-19 37l-169 -85 183 47 -14 38z"/>
   </g>
   <g>
    <polygon class="fil5 str0" points="2038,7181 2306,7249 2246,7286 "/>
    <path id="_1_9" class="fil1 str0" d="M2301 7269l-268 -68 10 -40 268 68 6 37 -16 3zm10 -40l48 12 -42 25 -6 -37zm-76 39l60 -37 22 35 -60 38 -20 1 -2 -37zm22 36l-10 6 -10 -5 20 -1zm-210 -142l209 105 -19 38 -209 -106 15 -38 4 1zm-19 37l-168 -85 183 47 -15 38z"/>
   </g>
   <g>
    <polygon class="fil5 str0" points="2195,7081 2464,7149 2403,7186 "/>
    <path id="_1_10" class="fil1 str0" d="M2458 7169l-268 -68 10 -40 269 68 5 37 -16 3zm11 -40l47 12 -42 25 -5 -37zm-77 39l61 -37 21 35 -60 38 -20 1 -2 -37zm22 36l-10 6 -10 -5 20 -1zm-210 -142l209 105 -19 38 -208 -106 14 -38 4 1zm-18 37l-169 -85 183 47 -14 38z"/>
   </g>
   <g>
    <polygon class="fil5 str0" points="2360,6965 2628,7033 2568,7071 "/>
    <path id="_1_11" class="fil1 str0" d="M2623 7053l-268 -68 10 -40 269 68 5 38 -16 2zm11 -40l47 12 -42 26 -5 -38zm-77 40l60 -37 22 35 -60 37 -20 1 -2 -36zm22 35l-10 6 -10 -5 20 -1zm-210 -141l209 105 -19 37 -209 -105 15 -39 4 2zm-19 37l-168 -85 183 46 -15 39z"/>
   </g>
   <g>
    <path class="fil1 str0" d="M2398 2749l-1 0 25 27 28 31 33 36 37 40 41 43 44 47 47 49 50 52 52 55 55 56 57 58 59 59 60 61 61 61 63 61 63 62 64 61 63 61 64 60 63 59 63 57 61 55 61 53 59 51 57 48 55 45 53 41 50 37 48 34 44 29 41 24 36 19 -18 38 -39 -21 -42 -25 -46 -30 -48 -34 -51 -38 -54 -42 -56 -45 -57 -48 -60 -51 -60 -54 -62 -55 -63 -58 -64 -59 -63 -60 -64 -61 -64 -61 -63 -62 -63 -61 -61 -62 -61 -60 -59 -60 -57 -58 -55 -56 -52 -55 -50 -52 -48 -50 -44 -46 -40 -44 -37 -39 -33 -36 -29 -32 -25 -28 0 0 32 -27zm-32 27l0 0 0 0 0 0zm-391 -587l12 19 12 18 12 18 12 18 12 18 12 18 12 18 13 17 12 17 13 18 12 17 13 17 13 17 12 17 13 17 13 17 14 17 13 17 13 17 14 17 13 17 14 17 14 17 14 18 14 17 14 18 14 17 15 18 14 18 15 18 15 18 15 18 -32 27 -15 -19 -15 -18 -15 -18 -15 -18 -14 -18 -14 -17 -15 -18 -14 -17 -14 -18 -14 -17 -13 -17 -14 -17 -14 -17 -13 -17 -13 -17 -14 -18 -13 -17 -13 -17 -13 -17 -13 -17 -12 -18 -13 -17 -13 -17 -12 -18 -13 -18 -12 -17 -12 -18 -13 -18 -12 -19 -12 -18 -12 -19 -12 -19 35 -22z"/>
   </g>
   <g>
    <polygon class="fil5 str0" points="8549,7605 8331,7665 8379,7699 "/>
    <path id="_1_12" class="fil1 str0" d="M8337 7685l-18 -3 7 -37 217 -60 11 40 -217 60zm-18 -3l-36 -25 43 -12 -7 37zm72 0l-2 35 -22 -1 -48 -34 24 -34 48 34zm-2 35l-12 6 -10 -7 22 1zm150 -130l4 -2 16 38 -170 94 -20 -36 170 -94zm4 -2l171 -47 -155 85 -16 -38z"/>
   </g>
   <g>
    <polygon class="fil5 str0" points="8374,7483 8137,7549 8192,7583 "/>
    <path id="_1_13" class="fil1 str0" d="M8143 7569l-17 -2 5 -38 237 -66 11 40 -236 66zm-17 -2l-40 -25 45 -13 -5 38zm77 -2l-1 36 -21 -1 -55 -33 22 -36 55 34zm-1 36l-11 6 -10 -7 21 1zm162 -136l4 -2 16 39 -182 99 -20 -37 182 -99zm4 -2l174 -48 -158 87 -16 -39z"/>
   </g>
   <g>
    <polygon class="fil5 str0" points="8217,7370 7948,7438 8008,7475 "/>
    <path id="_1_14" class="fil1 str0" d="M7953 7458l-16 -2 6 -38 269 -68 10 40 -269 68zm-16 -2l-42 -26 48 -12 -6 38zm82 2l-1 36 -21 -1 -60 -37 22 -36 60 38zm-1 36l-11 5 -10 -6 21 1zm189 -143l5 -1 14 39 -208 105 -19 -37 208 -106zm5 -1l183 -46 -169 85 -14 -39z"/>
   </g>
   <g>
    <polygon class="fil5 str0" points="8053,7270 7785,7338 7845,7375 "/>
    <path id="_1_15" class="fil1 str0" d="M7790 7358l-16 -2 5 -38 269 -68 10 40 -268 68zm-16 -2l-42 -26 47 -12 -5 38zm82 2l-2 36 -20 -1 -60 -37 22 -36 60 38zm-2 36l-10 5 -10 -6 20 1zm190 -143l4 -1 15 38 -209 106 -19 -37 209 -106zm4 -1l183 -47 -168 85 -15 -38z"/>
   </g>
   <g>
    <polygon class="fil5 str0" points="7896,7170 7627,7238 7687,7275 "/>
    <path id="_1_16" class="fil1 str0" d="M7632 7258l-16 -2 6 -38 269 -68 10 40 -269 68zm-16 -2l-41 -26 47 -12 -6 38zm82 2l-1 36 -21 -1 -60 -37 22 -36 60 38zm-1 36l-11 5 -10 -6 21 1zm189 -143l5 -1 14 39 -208 105 -19 -37 208 -106zm5 -1l183 -47 -169 86 -14 -39z"/>
   </g>
   <g>
    <path class="fil5 str0" d="M5789 4062c343,-193 1461,-1233 1693,-1490 206,-237 387,-444 557,-693 135,-189 253,-371 366,-569 13,-23 21,-34 22,-34 0,0 4,11 7,36 12,100 9,201 -6,300 -42,233 -73,390 -199,631 -152,243 -304,492 -504,715 -251,294 -1229,1240 -1632,1503 -80,-152 -224,-246 -304,-399z"/>
    <path id="_1_17" class="fil1 str0" d="M7466 2558l32 27 0 1 -25 26 -29 31 -34 35 -38 39 -43 41 -45 45 -50 48 -52 50 -55 53 -57 54 -60 56 -61 57 -63 58 -64 59 -65 59 -66 60 -66 59 -66 58 -66 58 -65 57 -65 56 -63 54 -61 52 -60 49 -58 47 -55 44 -53 41 -50 38 -47 34 -43 30 -39 25 -35 22 -20 -37 33 -20 38 -25 42 -29 46 -33 49 -38 53 -40 55 -44 57 -47 60 -49 61 -52 63 -54 65 -55 65 -57 65 -58 66 -58 66 -59 66 -60 65 -59 64 -59 63 -58 61 -57 59 -56 58 -54 54 -52 53 -50 49 -47 45 -45 42 -42 38 -38 34 -35 29 -30 24 -26 -1 0zm32 27l0 1 0 0 0 -1zm524 -718l34 24 0 0 -16 23 -16 23 -16 23 -16 23 -17 22 -16 22 -16 22 -17 22 -17 22 -16 22 -17 21 -17 22 -17 21 -17 22 -17 21 -18 21 -17 21 -18 21 -17 21 -18 22 -18 21 -18 21 -18 21 -18 21 -18 22 -19 21 -18 21 -19 22 -19 22 -19 21 -19 22 -19 22 -32 -27 20 -22 19 -22 19 -22 18 -21 19 -22 19 -21 18 -22 18 -21 18 -21 18 -21 18 -21 18 -21 18 -21 17 -21 18 -21 17 -21 17 -21 17 -22 17 -21 17 -21 17 -21 17 -22 16 -21 17 -22 16 -22 17 -22 16 -22 16 -22 16 -22 16 -23 16 -23 16 -23 0 0zm0 0l0 0 0 0 0 0zm365 -568l36 21 0 0 -11 18 -10 19 -11 18 -11 19 -10 18 -11 18 -11 18 -11 18 -11 18 -11 18 -11 18 -11 18 -11 18 -11 18 -12 17 -11 18 -11 18 -12 17 -11 18 -12 18 -12 17 -11 18 -12 17 -12 18 -12 17 -12 18 -13 18 -12 17 -12 18 -13 18 -12 17 -13 18 -34 -24 13 -18 12 -17 13 -18 12 -18 12 -17 12 -18 12 -17 12 -18 12 -17 12 -17 12 -18 11 -17 12 -18 11 -17 12 -18 11 -18 11 -17 12 -18 11 -17 11 -18 11 -18 11 -18 11 -17 11 -18 10 -18 11 -18 11 -18 11 -18 10 -19 11 -18 10 -18 11 -19 0 0zm0 0l0 0 0 1 0 -1zm54 -38l-29 30 2 1 27 -1 1 -1 0 0 0 0 0 0 0 0 0 0 0 0 -1 1 0 0 0 1 -1 1 0 0 -1 1 0 1 -1 1 -1 1 0 1 -1 1 -1 1 -1 1 -1 2 -1 1 0 2 -1 1 -1 2 -1 1 -1 2 -2 2 -1 2 -1 2 -1 2 -36 -21 1 -2 1 -2 2 -2 1 -2 1 -2 1 -2 1 -2 1 -1 1 -2 1 -2 1 -1 1 -1 1 -2 1 -1 1 -1 0 -1 1 -2 1 -1 1 0 0 -1 1 -1 0 -1 1 -1 0 0 1 -1 0 -1 1 0 0 0 0 -1 1 -1 1 -1 27 -1 2 1zm-2 -1l1 0 1 1 -2 -1zm15 50l-41 5 0 0 0 -2 0 -3 -1 -2 0 -1 0 -2 -1 -2 0 -2 0 -1 0 -2 -1 -1 0 -2 0 -1 0 -1 -1 -1 0 -1 0 -1 0 -1 -1 -1 0 -1 0 0 0 -1 0 -1 0 0 -1 -1 0 0 0 0 0 0 0 0 0 -1 0 0 0 1 5 7 29 -30 5 7 0 1 0 1 0 0 1 0 0 1 0 0 0 1 0 1 1 1 0 1 0 0 0 1 1 1 0 2 0 1 1 1 0 2 0 1 1 2 0 1 0 2 1 2 0 1 0 2 1 2 0 2 0 3 1 2 0 2 0 2 0 3 0 0zm-41 5l0 0 0 2 0 -2zm36 300l-41 -7 0 1 1 -10 1 -9 1 -9 1 -9 1 -9 1 -9 1 -9 1 -10 1 -9 1 -9 0 -9 1 -9 0 -10 0 -9 1 -9 0 -9 0 -10 0 -9 0 -9 0 -9 0 -9 0 -10 0 -9 -1 -9 0 -9 -1 -9 -1 -10 0 -9 -1 -9 -1 -9 -1 -9 -1 -9 41 -5 2 9 1 10 0 9 1 10 1 9 1 10 0 10 1 9 0 10 0 9 1 10 0 9 0 10 0 9 0 10 0 10 -1 9 0 10 0 9 -1 10 0 9 -1 10 -1 9 0 10 -1 9 -1 10 -1 9 -1 10 -1 9 -1 10 -2 9 -1 10 0 0zm0 0l0 0 0 0 0 0zm-202 639l-35 -23 -1 2 11 -22 11 -22 11 -21 9 -21 10 -20 9 -20 8 -20 8 -20 8 -19 7 -19 7 -18 7 -19 6 -18 6 -19 5 -18 6 -18 5 -19 5 -18 5 -18 4 -18 5 -19 4 -19 4 -18 4 -19 4 -20 4 -19 4 -20 4 -20 4 -20 4 -21 4 -21 4 -22 41 7 -4 22 -4 21 -4 21 -4 21 -4 20 -4 20 -4 20 -4 19 -4 20 -4 19 -5 19 -4 19 -5 18 -5 19 -5 19 -5 18 -6 19 -6 19 -6 19 -6 19 -7 19 -7 19 -7 19 -8 20 -9 20 -8 20 -9 21 -10 21 -10 21 -10 22 -12 22 -11 22 -1 2zm1 -2l-1 1 0 1 1 -2zm-508 720l-31 -27 0 -1 19 -20 18 -21 18 -22 17 -21 18 -21 17 -22 17 -21 17 -22 17 -22 16 -22 16 -22 16 -22 16 -23 16 -22 15 -22 16 -23 15 -22 15 -23 15 -23 15 -22 15 -23 15 -23 14 -23 15 -22 14 -23 15 -23 14 -23 15 -23 14 -23 14 -23 14 -23 15 -23 35 23 -14 22 -15 23 -14 23 -14 23 -15 23 -14 23 -14 23 -15 23 -15 23 -14 23 -15 23 -15 23 -15 22 -15 23 -15 23 -16 23 -15 22 -16 23 -16 23 -16 22 -16 22 -17 23 -16 22 -17 22 -17 22 -17 22 -18 22 -17 22 -18 21 -19 22 -18 21 -19 21 0 0zm-31 -27l0 0 0 -1 0 1zm-1634 1526l37 -20 -30 -7 39 -27 42 -30 45 -34 48 -36 50 -41 53 -42 54 -46 56 -47 58 -50 59 -52 60 -53 60 -54 62 -56 61 -56 61 -57 62 -57 60 -57 61 -58 59 -56 58 -56 57 -56 55 -54 53 -52 51 -52 48 -49 46 -47 44 -45 40 -42 37 -39 33 -36 29 -33 26 -29 31 27 -25 30 -30 33 -34 36 -37 40 -40 42 -44 45 -46 47 -49 50 -51 51 -53 53 -55 54 -57 55 -58 57 -60 57 -60 57 -61 57 -61 58 -62 57 -61 56 -62 56 -60 54 -61 54 -59 51 -58 50 -56 48 -55 46 -53 43 -50 40 -49 38 -45 34 -43 30 -40 27 -30 -7zm30 7l-19 13 -11 -20 30 7zm-326 -434l20 37 8 -28 8 13 7 14 8 13 9 12 8 13 9 12 10 13 9 12 10 11 10 12 10 12 10 12 10 11 11 12 10 11 11 12 10 11 11 12 10 12 11 11 10 12 10 12 11 13 10 12 10 13 9 12 10 13 9 14 9 13 9 14 8 15 8 14 -37 20 -7 -14 -8 -13 -8 -13 -9 -13 -8 -13 -9 -12 -9 -12 -10 -12 -10 -12 -9 -12 -10 -11 -11 -12 -10 -12 -10 -11 -11 -12 -10 -11 -11 -12 -10 -11 -11 -12 -10 -12 -11 -12 -10 -12 -10 -12 -10 -12 -10 -13 -10 -13 -9 -13 -10 -13 -9 -14 -8 -14 -9 -14 -8 -15 9 -28zm-9 28l-9 -18 18 -10 -9 28z"/>
   </g>
   <g>
    <path class="fil1 str0" d="M7586 2752l32 26 0 1 -25 27 -29 32 -33 36 -37 39 -41 44 -44 47 -47 49 -50 52 -53 55 -55 56 -57 58 -58 60 -61 60 -61 62 -63 61 -63 62 -64 62 -64 60 -64 61 -63 58 -63 58 -62 55 -61 54 -59 51 -58 48 -55 45 -54 42 -51 38 -48 34 -46 30 -42 25 -40 21 -17 -38 36 -19 41 -24 44 -29 48 -34 50 -37 53 -41 55 -45 57 -48 59 -51 61 -53 61 -55 63 -57 63 -59 64 -60 63 -61 64 -61 63 -61 62 -62 62 -61 60 -60 59 -60 57 -58 55 -56 52 -55 50 -52 47 -49 44 -47 41 -43 37 -40 33 -35 28 -32 25 -27 -1 1zm32 26l0 0 0 1 0 -1zm391 -587l35 22 -12 19 -12 19 -12 18 -13 19 -12 18 -12 18 -12 18 -13 17 -12 18 -13 17 -13 18 -12 17 -13 17 -13 17 -13 17 -14 18 -13 17 -13 17 -14 17 -13 17 -14 17 -13 17 -14 18 -14 17 -14 17 -15 18 -14 18 -15 17 -14 18 -15 18 -15 18 -15 19 -32 -26 15 -19 15 -18 15 -18 14 -18 15 -18 14 -17 14 -18 14 -17 14 -18 14 -17 14 -17 13 -17 14 -17 13 -17 13 -17 14 -17 13 -17 12 -17 13 -17 13 -17 13 -17 12 -17 13 -18 12 -17 12 -17 13 -18 12 -18 12 -18 12 -18 12 -18 12 -18 12 -19z"/>
   </g>
   <g>
    <polygon class="fil5 str0" points="7731,7054 7462,7123 7523,7160 "/>
    <path id="_1_18" class="fil1 str0" d="M7468 7143l-17 -3 6 -38 269 -68 10 41 -268 68zm-17 -3l-41 -26 47 -12 -6 38zm82 2l-1 36 -20 -1 -61 -37 22 -35 60 37zm-1 36l-11 6 -9 -7 20 1zm190 -142l4 -2 14 39 -208 105 -19 -37 209 -105zm4 -2l183 -46 -169 85 -14 -39z"/>
   </g>
   <path class="fil5 str3" d="M8461 4970l0 -219c-41,-50 -92,-213 -210,-227 -59,-7 -76,9 -119,25 -3,-105 13,-198 -93,-218 -38,-8 -104,3 -137,16 -32,12 -37,59 -76,75 -215,88 -730,94 -995,92 -63,0 -103,6 -127,-24 -13,-16 -25,-30 -36,-41 -35,-35 -127,-51 -184,-32 -103,35 -82,92 -114,194l-312 3c-18,-67 -61,-123 -90,-178 -31,-59 -53,-121 -85,-179 -30,-54 -74,-111 -117,-147 -92,-76 -128,-20 -204,-11 -45,-78 -63,-165 -141,-248 -29,-31 -73,-58 -132,-63 -72,-6 -104,18 -156,39 -12,-58 -60,-127 -107,-157 -16,-10 -40,-19 -55,-29l-181 0c-16,19 -37,30 -52,49 -33,37 -56,77 -80,121 -11,20 -20,47 -33,64 -34,-45 -80,-85 -156,-97 -79,-11 -152,10 -203,46 -54,37 -77,71 -102,145 -21,60 -46,125 -61,189 -16,63 -31,136 -60,189 -39,70 -71,77 -125,124 -37,32 -87,87 -146,102 -52,13 -49,-15 -98,-19 -39,-3 -78,-2 -117,-5 -22,-24 -68,-120 -85,-153 -31,9 -48,33 -71,51 -24,18 -64,6 -100,1 -239,-36 -493,-101 -681,-246 -118,-91 -147,-129 -207,-256 -24,-49 -43,-168 -54,-177 -30,-17 -220,-9 -261,-1 -26,65 -10,131 -84,297 -53,118 -41,93 -116,166 -90,87 -161,143 -285,189 -84,30 -212,68 -313,67 -9,-25 -30,-67 -62,-69 -36,-2 -46,36 -60,65 -12,22 -32,65 -37,90 -6,28 -4,92 -14,112 -27,16 -78,21 -110,31 -77,24 -233,86 -281,140 11,25 53,36 75,48 97,49 199,80 302,117 34,12 24,48 43,133 11,48 43,128 78,161 123,-44 185,-69 339,-35 66,14 211,89 263,131 172,142 243,315 250,540 39,10 226,2 282,3 13,-119 82,-239 139,-323 120,-177 375,-290 590,-337 63,-13 135,-19 201,-28 133,-17 89,4 166,52 32,-26 92,-109 125,-121 7,42 20,95 29,139 24,130 54,274 138,370l325 356c-31,62 -38,-12 -46,141 18,17 33,34 50,53 16,19 18,77 12,89 -22,22 -51,24 -60,59 -10,35 0,69 18,91 72,86 58,49 58,186l-27 12c-11,5 -17,9 -24,16 -17,16 -21,28 -19,60 4,41 -2,39 20,60 11,12 32,27 34,42 1,13 -40,234 -46,260 -21,87 -35,173 -56,257 -40,161 -82,329 -136,484 -24,71 -17,47 -67,89 -26,22 -48,49 -65,86 -90,196 59,550 171,714 127,186 286,328 446,480 26,25 61,50 84,73 83,84 329,279 419,352 31,25 57,47 86,71 38,32 40,62 93,58 31,-40 38,-55 78,-87l476 -413c60,-56 149,-142 199,-201l74 -87c80,-85 332,-481 386,-580 37,-66 77,-153 80,-247 3,-108 -44,-166 -86,-237 -42,-70 -79,-141 -114,-208 -39,-73 -71,-147 -93,-229 -48,-175 -83,-366 -81,-566 1,-52 28,-86 46,-118 52,-92 9,-113 -46,-157 -19,-16 -15,-28 -16,-62 -1,-41 0,-110 11,-149 29,-20 45,-27 70,-51 10,-78 -41,-116 -83,-140 -2,-91 138,-126 104,-211 -9,-24 -45,-34 -53,-55 -14,-36 36,-346 54,-368 18,-16 59,-11 82,-21 3,-99 -67,-101 -65,-161 4,-93 7,-257 31,-339l297 2c25,106 16,164 126,192 48,12 100,3 138,-16 49,-25 48,-50 76,-80 37,-40 509,-32 592,-28 129,7 434,61 519,116 66,43 100,113 215,87 92,-20 95,-124 95,-219 33,6 91,40 113,41 17,0 76,-44 89,-58 70,-71 66,-137 121,-175z"/>
  </g>
 </g>
</svg>
