<?xml version="1.0" encoding="UTF-8"?>
<!DOCTYPE svg PUBLIC "-//W3C//DTD SVG 1.1//EN" "http://www.w3.org/Graphics/SVG/1.1/DTD/svg11.dtd">
<!-- Creator: CorelDRAW X7 -->
<svg xmlns="http://www.w3.org/2000/svg" xml:space="preserve" width="50mm" height="50mm" version="1.1" style="shape-rendering:geometricPrecision; text-rendering:geometricPrecision; image-rendering:optimizeQuality; fill-rule:evenodd; clip-rule:evenodd"
viewBox="0 0 5000 5000"
 xmlns:xlink="http://www.w3.org/1999/xlink">
 <defs>
  <style type="text/css">
   <![CDATA[
    .str6 {stroke:#2B2A29;stroke-width:100}
    .str0 {stroke:#2B2A29;stroke-width:50}
    .str4 {stroke:#727271;stroke-width:25}
    .str1 {stroke:#2B2A29;stroke-width:25}
    .str3 {stroke:#2B2A29;stroke-width:20}
    .str5 {stroke:#2B2A29;stroke-width:7.62}
    .str2 {stroke:#2B2A29;stroke-width:7.62}
    .fil2 {fill:none;fill-rule:nonzero}
    .fil0 {fill:#2B2A29}
    .fil3 {fill:#DE5E60}
    .fil1 {fill:#2B2A29;fill-rule:nonzero}
   ]]>
  </style>
 </defs>
 <g id="Слой_x0020_1">
  <metadata id="CorelCorpID_0Corel-Layer"/>
  <polygon class="fil0 str0" points="1256,1288 1256,1288 1262,1482 3263,3483 3451,3296 1450,1294 "/>
  <path class="fil1" d="M2106 2668c0,55 -5,63 -76,63l0 30 235 0 0 -30c-66,0 -71,-8 -71,-63l0 -454 -11 -6c-44,26 -87,45 -155,68l6 30c22,-8 38,-14 52,-14 15,0 20,14 20,47l0 329z"/>
  <path id="1" class="fil1" d="M2685 2456c62,-23 111,-62 111,-122 0,-82 -72,-129 -181,-129 -114,0 -180,55 -180,134 0,42 18,101 102,144l0 2c-85,37 -120,87 -120,137 0,95 81,150 196,150 146,0 201,-80 201,-160 0,-69 -63,-126 -129,-155l0 -1zm-71 -217c95,0 98,80 98,92 0,63 -41,88 -78,106 -62,-23 -116,-58 -116,-114 0,-41 27,-84 96,-84zm-1 498c-63,0 -110,-40 -110,-114 0,-76 57,-104 82,-116 37,14 135,51 135,127 0,68 -49,103 -107,103z"/>
  <path id="2" class="fil1" d="M3113 2668c0,53 -3,63 -66,63l0 30 213 0 0 -30c-54,0 -58,-9 -58,-63l0 -56 63 0 5 -40 -68 0 0 -364 -74 0 -239 376 0 28 224 0 0 56zm1 -371c-1,23 -1,49 -1,70l0 205 -170 0 127 -205c19,-29 31,-55 41,-70l3 0z"/>
  <path id="3" class="fil2 str1" d="M2106 2668c0,55 -5,63 -76,63l0 30 235 0 0 -30c-66,0 -71,-8 -71,-63l0 -454 -11 -6c-44,26 -87,45 -155,68l6 30c22,-8 38,-14 52,-14 15,0 20,14 20,47l0 329z"/>
  <path id="4" class="fil2 str1" d="M2685 2456c62,-23 111,-62 111,-122 0,-82 -72,-129 -181,-129 -114,0 -180,55 -180,134 0,42 18,101 102,144l0 2c-85,37 -120,87 -120,137 0,95 81,150 196,150 146,0 201,-80 201,-160 0,-69 -63,-126 -129,-155l0 -1zm-71 -217c95,0 98,80 98,92 0,63 -41,88 -78,106 -62,-23 -116,-58 -116,-114 0,-41 27,-84 96,-84zm-1 498c-63,0 -110,-40 -110,-114 0,-76 57,-104 82,-116 37,14 135,51 135,127 0,68 -49,103 -107,103z"/>
  <path id="5" class="fil2 str1" d="M3113 2668c0,53 -3,63 -66,63l0 30 213 0 0 -30c-54,0 -58,-9 -58,-63l0 -56 63 0 5 -40 -68 0 0 -364 -74 0 -239 376 0 28 224 0 0 56zm1 -371c-1,23 -1,49 -1,70l0 205 -170 0 127 -205c19,-29 31,-55 41,-70l3 0z"/>
  <polygon class="fil0 str0" points="3710,1273 3710,1273 3517,1279 1515,3281 1703,3469 3704,1467 "/>
  <polygon class="fil0 str1" points="1262,1482 1262,1482 1256,1288 3357,3389 3263,3483 "/>
  <polygon class="fil0 str2" points="1256,1288 1256,1288 1450,1294 3451,3296 3357,3389 "/>
  <path class="fil0 str3" d="M1499 1531l0 0c7,-6 17,-7 24,0l1833 1833c6,6 6,17 -1,23l0 0c-7,7 -18,8 -24,1l-1833 -1833c-6,-6 -6,-17 1,-24z"/>
  <polygon class="fil0 str2" points="3513,3078 3332,3349 3060,3530 3151,3620 3603,3168 "/>
  <polygon class="fil0 str1" points="3513,3107 3346,3364 3089,3530 3151,3592 3574,3168 "/>
  <polygon class="fil0 str1" points="3574,3168 3362,3380 3151,3592 3151,3620 3603,3168 "/>
  <polygon class="fil0 str1" points="3585,3734 3702,3618 3435,3336 3304,3467 "/>
  <polygon class="fil0 str1" points="3585,3734 3702,3618 3640,3553 3570,3719 "/>
  <polygon class="fil0 str1" points="3502,3655 3575,3484 3640,3553 3570,3719 "/>
  <polygon class="fil0 str1" points="3432,3588 3507,3413 3575,3484 3502,3655 "/>
  <polygon class="fil0 str1" points="3360,3521 3435,3336 3507,3413 3432,3588 "/>
  <path class="fil0 str1" d="M3514 3758c54,38 143,38 196,-15 54,-54 54,-143 15,-197 -14,-20 -12,-16 -19,6 -34,104 -100,162 -188,188 -22,6 -23,4 -4,18z"/>
  <path class="fil0" d="M3723 3573c34,47 27,117 -20,163 -46,46 -116,53 -163,20 -17,-13 -14,-11 5,-17 90,-29 140,-86 163,-163 5,-19 4,-19 15,-3z"/>
  <polygon class="fil0 str2" points="3517,1279 3517,1279 3710,1273 1609,3375 1515,3281 "/>
  <polygon class="fil0 str1" points="3710,1273 3710,1273 3704,1467 1703,3469 1609,3375 "/>
  <path class="fil0 str3" d="M3467 1516l0 0c7,7 7,18 1,24l-1833 1833c-6,7 -17,6 -24,0l0 0c-7,-7 -7,-18 -1,-24l1833 -1833c7,-7 17,-6 24,0z"/>
  <polygon class="fil0 str1" points="1920,3530 1649,3349 1468,3078 1378,3168 1830,3620 "/>
  <polygon class="fil0 str1" points="1892,3530 1635,3364 1468,3107 1407,3168 1830,3592 "/>
  <polygon class="fil0" points="1830,3592 1618,3380 1407,3168 1378,3168 1830,3620 "/>
  <polygon class="fil0 str1" points="1264,3603 1381,3719 1662,3452 1531,3322 "/>
  <polygon class="fil0 str4" points="1264,3603 1381,3719 1445,3658 1279,3587 "/>
  <polygon class="fil0 str1" points="1344,3519 1515,3592 1445,3658 1279,3587 "/>
  <polygon class="fil0 str1" points="1410,3449 1585,3525 1515,3592 1344,3519 "/>
  <polygon class="fil0 str1" points="1478,3378 1662,3452 1585,3525 1410,3449 "/>
  <path class="fil0 str1" d="M1241 3532c-39,54 -39,142 15,196 53,53 142,53 196,15 21,-15 16,-13 -6,-20 -103,-33 -162,-99 -187,-188 -6,-21 -5,-22 -18,-3z"/>
  <path class="fil0" d="M1426 3741c-47,33 -117,26 -163,-20 -47,-46 -54,-116 -20,-163 12,-18 10,-14 16,5 29,90 86,140 163,162 19,6 20,4 4,16z"/>
  <polygon class="fil0 str5" points="500,3272 1798,2954 2116,2954 2116,3272 1798,4570 3202,4570 2884,3272 2884,2954 3202,2954 4500,3272 4500,1868 3202,2186 2884,2186 2884,1868 3202,570 1798,570 2116,1868 2116,2186 1798,2186 500,1868 "/>
  <polygon class="fil0 str5" points="4439,1938 3181,2246 2824,2246 2824,1889 3131,630 1869,630 2176,1889 2176,2246 1819,2246 561,1938 561,3201 1819,2893 2176,2893 2176,3250 1869,4509 3131,4509 2824,3250 2824,2893 3181,2893 4439,3201 "/>
  <path class="fil0 str1" d="M2650 2843c-11,-91 -21,-62 -114,-79 -13,-111 -43,-240 88,-244 83,-2 80,50 80,51 -30,50 -43,33 -95,48 -13,62 -27,69 23,113 80,19 138,-35 128,-120 -12,-105 -114,-115 -137,-128 161,-72 183,-184 230,-232 -32,12 -64,16 -94,26 -83,30 -71,19 -91,2 324,-107 217,-158 322,-255 2,-53 93,-245 114,-337l-116 22c80,-24 118,-38 136,-78 11,-24 34,-134 41,-165 67,-293 189,-839 -91,-995 -282,-157 -471,168 -331,344 52,65 211,128 261,9 73,-170 -121,-175 -172,-225 -43,-235 465,-125 315,252 -38,94 -111,186 -164,263 -397,572 -442,921 -507,1650l-175 5c-61,87 -32,42 -19,176 -43,30 -81,47 -114,77 -90,85 -203,223 -180,367 118,67 811,53 945,-3 38,-184 -185,-397 -302,-435l19 -109z"/>
  <path class="fil0 str1" d="M3478 3649c-112,0 -316,20 -407,-12 76,-1 150,-1 226,-3 58,-1 165,18 198,-26 -33,-19 -80,-13 -120,-12l-1608 8c-123,1 -292,-23 -354,51 -61,73 -88,200 -58,313 34,129 84,166 231,165l1914 -13 -49 -201c-92,-34 -389,11 -508,-22 83,-1 464,4 502,-23 14,-16 8,-3 13,-34l4 -112 -1842 -7 1782 -35c64,-2 67,12 76,-37z"/>
  <path class="fil0 str1" d="M3586 3461c-71,-16 -1867,-1 -2079,6 -376,10 -381,797 13,806 406,9 960,-8 1388,-9 127,0 587,14 681,-9l-20 -92c-103,-21 -1674,1 -1919,3 -134,1 -185,18 -260,-64 -52,-56 -77,-144 -76,-235 2,-320 206,-294 349,-295 616,-4 1299,5 1904,-10l19 -101z"/>
  <path class="fil0 str1" d="M2401 1792c-36,-33 -6,-19 -52,-42 -10,69 27,95 57,149 -38,-22 -41,-33 -68,-66 -31,37 -51,193 -49,234 4,88 -15,39 30,63 -8,25 -50,25 4,117 25,41 55,60 70,103 -32,-26 -54,-65 -91,-89 13,108 58,159 83,238 -49,-8 -82,-7 -112,32 -27,37 -41,92 -4,134 62,70 165,-17 84,-69 -49,-32 -26,17 -55,-38 56,-106 122,8 165,25 5,-95 13,-185 27,-278 44,-298 53,-397 193,-724 125,-290 428,-669 443,-771 -96,153 -48,77 -141,178 -113,123 -300,161 -507,505 -119,198 -129,209 -77,299z"/>
  <circle class="fil3 str6" cx="2496" cy="2541" r="705"/>
  <path class="fil1" d="M2038 2774l0 -361 -76 26 -33 -76 123 -53 106 0 0 464 -120 0zm338 -186c-26,0 -39,14 -39,40l0 27c0,10 3,18 8,24 6,6 15,9 25,9l99 0c10,0 18,-3 24,-9 6,-6 9,-14 9,-24l0 -27c0,-26 -13,-40 -40,-40l-86 0zm14 -192c-27,0 -40,13 -40,40l0 20c0,26 13,40 40,40l59 0c27,0 40,-14 40,-40l0 -20c0,-27 -13,-40 -40,-40l-59 0zm231 259c0,43 -10,75 -30,95 -20,20 -52,30 -95,30l-153 0c-43,0 -75,-10 -95,-30 -21,-20 -31,-52 -31,-95l0 -7c0,-34 9,-61 25,-84 14,-17 32,-29 55,-35 -20,-7 -36,-19 -48,-35 -12,-17 -18,-38 -18,-65l0 -6c0,-41 10,-70 30,-90 20,-20 52,-30 95,-30l126 0c44,0 75,10 96,30 20,20 30,49 30,90l0 6c0,27 -6,48 -18,65 -12,16 -28,28 -48,35 36,9 60,33 73,71 4,14 6,30 6,48l0 7zm279 26l-245 0 0 -93 159 -278 132 0 -159 278 113 0 0 -99 119 0 0 99 46 0 0 93 -46 0 0 93 -119 0 0 -93z"/>
 </g>
</svg>
