<?xml version="1.0" encoding="UTF-8"?>
<!DOCTYPE svg PUBLIC "-//W3C//DTD SVG 1.1//EN" "http://www.w3.org/Graphics/SVG/1.1/DTD/svg11.dtd">
<!-- Creator: CorelDRAW X7 -->
<svg xmlns="http://www.w3.org/2000/svg" xml:space="preserve" width="50mm" height="50mm" version="1.1" style="shape-rendering:geometricPrecision; text-rendering:geometricPrecision; image-rendering:optimizeQuality; fill-rule:evenodd; clip-rule:evenodd"
viewBox="0 0 5000 5000"
 xmlns:xlink="http://www.w3.org/1999/xlink">
 <defs>
  <style type="text/css">
   <![CDATA[
    .str3 {stroke:#2B2A29;stroke-width:100}
    .str2 {stroke:#2B2A29;stroke-width:50}
    .str0 {stroke:#2B2A29;stroke-width:25}
    .str1 {stroke:#2B2A29;stroke-width:7.62}
    .fil1 {fill:none;fill-rule:nonzero}
    .fil2 {fill:#2B2A29}
    .fil3 {fill:#DE5E60}
    .fil0 {fill:#2B2A29;fill-rule:nonzero}
   ]]>
  </style>
 </defs>
 <g id="Слой_x0020_1">
  <metadata id="CorelCorpID_0Corel-Layer"/>
  <path class="fil0" d="M2106 2598c0,55 -5,63 -76,63l0 30 235 0 0 -30c-66,0 -71,-8 -71,-63l0 -453 -11 -6c-44,25 -87,44 -155,67l6 30c22,-7 38,-14 52,-14 15,0 20,14 20,47l0 329z"/>
  <path id="1" class="fil0" d="M2685 2386c62,-22 111,-61 111,-122 0,-82 -72,-129 -181,-129 -114,0 -180,55 -180,134 0,43 18,101 102,144l0 2c-85,37 -120,87 -120,137 0,96 81,150 196,150 146,0 201,-79 201,-159 0,-69 -63,-126 -129,-155l0 -2zm-71 -216c95,0 98,79 98,92 0,63 -41,87 -78,105 -62,-22 -116,-57 -116,-114 0,-41 27,-83 96,-83zm-1 498c-63,0 -110,-41 -110,-114 0,-77 57,-105 82,-116 37,13 135,51 135,126 0,69 -49,104 -107,104z"/>
  <path id="2" class="fil0" d="M3113 2598c0,53 -3,63 -66,63l0 30 213 0 0 -30c-54,0 -58,-9 -58,-63l0 -55 63 0 5 -41 -68 0 0 -364 -74 0 -239 376 0 29 224 0 0 55zm1 -371c-1,23 -1,50 -1,70l0 205 -170 0 127 -204c19,-30 31,-56 41,-71l3 0z"/>
  <path id="3" class="fil1 str0" d="M2106 2598c0,55 -5,63 -76,63l0 30 235 0 0 -30c-66,0 -71,-8 -71,-63l0 -453 -11 -6c-44,25 -87,44 -155,67l6 30c22,-7 38,-14 52,-14 15,0 20,14 20,47l0 329z"/>
  <path id="4" class="fil1 str0" d="M2685 2386c62,-22 111,-61 111,-122 0,-82 -72,-129 -181,-129 -114,0 -180,55 -180,134 0,43 18,101 102,144l0 2c-85,37 -120,87 -120,137 0,96 81,150 196,150 146,0 201,-79 201,-159 0,-69 -63,-126 -129,-155l0 -2zm-71 -216c95,0 98,79 98,92 0,63 -41,87 -78,105 -62,-22 -116,-57 -116,-114 0,-41 27,-83 96,-83zm-1 498c-63,0 -110,-41 -110,-114 0,-77 57,-105 82,-116 37,13 135,51 135,126 0,69 -49,104 -107,104z"/>
  <path id="5" class="fil1 str0" d="M3113 2598c0,53 -3,63 -66,63l0 30 213 0 0 -30c-54,0 -58,-9 -58,-63l0 -55 63 0 5 -41 -68 0 0 -364 -74 0 -239 376 0 29 224 0 0 55zm1 -371c-1,23 -1,50 -1,70l0 205 -170 0 127 -204c19,-30 31,-56 41,-71l3 0z"/>
  <polygon class="fil2 str1" points="500,3202 1798,2884 2116,2884 2116,3202 1798,4500 3202,4500 2884,3202 2884,2884 3202,2884 4500,3202 4500,1798 3202,2116 2884,2116 2884,1798 3202,500 1798,500 2116,1798 2116,2116 1798,2116 500,1798 "/>
  <polygon class="fil2 str1" points="4439,1869 3181,2176 2824,2176 2824,1819 3131,561 1869,561 2176,1819 2176,2176 1819,2176 561,1869 561,3131 1819,2824 2176,2824 2176,3181 1869,4439 3131,4439 2824,3181 2824,2824 3181,2824 4439,3131 "/>
  <path class="fil2 str2" d="M1110 1399l0 90c124,0 183,-18 223,64 17,34 27,86 27,138 -1,162 -8,501 16,642 17,97 41,172 75,254 28,64 81,147 130,199 123,129 484,212 670,233 23,2 52,9 75,10l0 387c0,88 -26,171 -70,217 -72,72 -188,65 -297,65l0 74 1105 0 0 -74c-98,0 -223,9 -294,-63 -47,-47 -73,-127 -73,-219l0 -387c58,-2 221,-35 282,-48 91,-18 177,-45 255,-74 144,-53 205,-102 280,-214 135,-201 149,-433 149,-673 0,-110 1,-219 0,-329 0,-91 21,-202 128,-202l122 0 0 -90c-150,0 -417,-34 -519,123 -118,181 -101,501 -107,705 -1,29 -6,40 -6,74 1,162 -7,341 -117,461 -1,2 -4,5 -5,6l-6 5c-53,52 -107,80 -182,105 -67,23 -187,50 -274,50l0 -1200c0,-84 23,-159 75,-191 59,-37 172,-42 260,-42 0,-66 9,-101 -16,-101l-1009 0c-25,0 -16,35 -16,101 226,0 335,21 335,244l0 1189c-86,0 -205,-26 -270,-49 -252,-84 -293,-231 -314,-488 -2,-23 0,-55 0,-79 0,-35 -5,-50 -6,-79 -5,-184 7,-258 -24,-454 -7,-48 -16,-94 -29,-135 -25,-78 -56,-152 -130,-194 -138,-76 -301,-51 -443,-51z"/>
  <circle class="fil3 str3" cx="2496" cy="2471" r="705"/>
  <path class="fil0" d="M2038 2704l0 -361 -76 27 -33 -77 123 -53 106 0 0 464 -120 0zm338 -185c-26,0 -39,13 -39,39l0 27c0,10 3,18 8,24 6,6 15,9 25,9l99 0c10,0 18,-3 24,-9 6,-6 9,-14 9,-24l0 -27c0,-26 -13,-39 -40,-39l-86 0zm14 -192c-27,0 -40,13 -40,39l0 20c0,27 13,40 40,40l59 0c27,0 40,-13 40,-40l0 -20c0,-26 -13,-39 -40,-39l-59 0zm231 258c0,43 -10,75 -30,95 -20,21 -52,31 -95,31l-153 0c-43,0 -75,-10 -95,-31 -21,-20 -31,-52 -31,-95l0 -7c0,-33 9,-61 25,-83 14,-18 32,-30 55,-36 -20,-7 -36,-18 -48,-35 -12,-16 -18,-38 -18,-64l0 -7c0,-40 10,-70 30,-90 20,-19 52,-29 95,-29l126 0c44,0 75,10 96,29 20,20 30,50 30,90l0 7c0,26 -6,48 -18,64 -12,17 -28,28 -48,35 36,10 60,34 73,72 4,13 6,29 6,47l0 7zm279 26l-245 0 0 -92 159 -279 132 0 -159 279 113 0 0 -100 119 0 0 100 46 0 0 92 -46 0 0 93 -119 0 0 -93z"/>
 </g>
</svg>
