<?xml version="1.0" encoding="UTF-8"?>
<!DOCTYPE svg PUBLIC "-//W3C//DTD SVG 1.1//EN" "http://www.w3.org/Graphics/SVG/1.1/DTD/svg11.dtd">
<!-- Creator: CorelDRAW 2017 -->
<svg xmlns="http://www.w3.org/2000/svg" xml:space="preserve" width="12mm" height="12mm" version="1.1" style="shape-rendering:geometricPrecision; text-rendering:geometricPrecision; image-rendering:optimizeQuality; fill-rule:evenodd; clip-rule:evenodd"
viewBox="0 0 1200 1200"
 xmlns:xlink="http://www.w3.org/1999/xlink">
 <defs>
  <style type="text/css">
   <![CDATA[
    .fil0 {fill:#FEFEFE}
   ]]>
  </style>
 </defs>
 <g id="Слой_x0020_1">
  <metadata id="CorelCorpID_0Corel-Layer"/>
  <g id="XMLID_7_">
   <path id="XMLID_8_" class="fil0" d="M968.41 538.29c1.15,-154.8 -130.66,-296.57 -293.89,-316.11 -3.06,-0.38 -6.51,-1.15 -10.34,-1.53 -8.05,-1.53 -16.48,-2.68 -24.91,-2.68 -33.33,0 -42.53,23.37 -44.83,37.55 -2.3,13.41 0,24.9 6.52,33.72 11.11,15.32 30.65,18 46.36,19.92 4.6,0.77 8.81,1.15 12.26,2.3 146.75,32.57 196.18,84.3 220.32,229.52 0.77,3.44 0.77,8.04 1.15,12.64 1.15,17.24 3.45,53.64 42.15,53.64l0 0c3.06,0 6.9,-0.38 10.34,-0.76 36.4,-5.75 35.26,-38.7 34.49,-54.41 0,-4.6 -0.38,-8.82 0,-11.88 0.38,-0.38 0.38,-1.15 0.38,-1.92z"/>
   <path id="XMLID_9_" class="fil0" d="M629.69 165.47c4.22,0.39 8.43,0.39 11.88,1.15 241.01,36.79 351.75,150.97 382.4,393.9 0.38,3.83 0.77,9.19 0.77,14.56 0.38,18.77 0.76,58.24 43.3,59l1.14 0c13.42,0 23.76,-3.83 31.42,-11.87 13.41,-13.8 12.27,-34.11 11.5,-50.58 0,-4.22 -0.38,-8.05 -0.38,-11.5 3.06,-248.29 -211.51,-473.21 -459.8,-481.64 -0.77,0 -1.92,0 -3.07,0 -0.38,0.39 -1.15,0.39 -2.68,0.39 -2.68,0 -5.75,-0.39 -8.81,-0.39 -3.83,-0.38 -8.43,-0.76 -13.03,-0.76 -39.47,0 -46.75,28.35 -47.9,44.83 -2.3,38.7 35.26,41.38 53.26,42.91z"/>
   <path id="XMLID_10_" class="fil0" d="M1012.48 874.33c-5.37,-4.22 -10.73,-8.05 -15.71,-12.26 -26.06,-21.08 -54.03,-40.62 -81.23,-59.39 -5.37,-3.83 -11.12,-7.67 -16.86,-11.88 -34.49,-24.14 -65.53,-36.02 -95.03,-36.02 -39.85,0 -74.33,21.84 -103.07,65.14 -12.64,19.16 -27.97,28.35 -46.75,28.35 -11.11,0 -23.75,-3.06 -37.55,-9.58 -111.88,-50.57 -191.96,-128.36 -237.56,-231.04 -22.22,-49.82 -14.94,-82 23.76,-108.44 22.22,-14.94 63.22,-42.91 60.54,-96.17 -3.45,-60.93 -137.18,-243.31 -193.5,-264.01 -24.14,-8.81 -49.05,-8.81 -74.72,0 -64.75,21.46 -111.5,59.78 -134.49,110.36 -22.61,49.04 -21.46,106.52 2.68,166.29 70.5,172.42 169.36,323.01 293.89,447.15 122.23,121.47 272.05,221.09 446,296.19 15.71,6.51 32.19,10.35 44.07,13.03 4.21,0.76 7.66,1.53 10.34,2.3 1.15,0.38 2.69,0.76 4.22,0.76l1.15 0c0,0 0,0 0,0 82,0 180.09,-74.71 210.36,-159.78 26.43,-74.71 -21.84,-111.5 -60.54,-141z"/>
   <path id="XMLID_11_" class="fil0" d="M665.71 362.42c-13.79,0.38 -42.91,1.15 -53.26,31.04 -4.6,13.79 -4.21,25.67 1.92,35.63 8.43,14.56 25.29,18.78 40.23,21.46 54.79,8.81 83.15,39.08 88.51,95.41 2.68,26.05 20.31,44.44 43.3,44.44l0 0c1.53,0 3.06,0 4.98,-0.38 27.2,-3.07 40.62,-23.37 39.47,-59.39 0.38,-37.93 -19.55,-80.85 -53.26,-115.33 -33.72,-34.1 -74.72,-53.65 -111.89,-52.88z"/>
  </g>
  <g id="_837239472">
  </g>
  <g id="_837233232">
  </g>
  <g id="_837239600">
  </g>
  <g id="_837238640">
  </g>
  <g id="_837236368">
  </g>
  <g id="_837226960">
  </g>
  <g id="_837225520">
  </g>
  <g id="_837233648">
  </g>
  <g id="_837227280">
  </g>
  <g id="_837223888">
  </g>
  <g id="_837236048">
  </g>
  <g id="_837223760">
  </g>
  <g id="_837236304">
  </g>
  <g id="_837227120">
  </g>
  <g id="_837224304">
  </g>
  <g id="_837237392">
  </g>
  <g id="_837238192">
  </g>
  <g id="_837236208">
  </g>
  <g id="_837237360">
  </g>
  <g id="_837224016">
  </g>
  <g id="_837232464">
  </g>
  <g id="_837236272">
  </g>
  <g id="_837233488">
  </g>
  <g id="_837235376">
  </g>
  <g id="_837234352">
  </g>
  <g id="_837228912">
  </g>
  <g id="_837233712">
  </g>
  <g id="_837233328">
  </g>
  <g id="_837224464">
  </g>
  <g id="_837224080">
  </g>
 </g>
</svg>
