<?xml version="1.0" encoding="UTF-8"?>
<!DOCTYPE svg PUBLIC "-//W3C//DTD SVG 1.1//EN" "http://www.w3.org/Graphics/SVG/1.1/DTD/svg11.dtd">
<!-- Creator: CorelDRAW X7 -->
<svg xmlns="http://www.w3.org/2000/svg" xml:space="preserve" width="50mm" height="50mm" version="1.1" style="shape-rendering:geometricPrecision; text-rendering:geometricPrecision; image-rendering:optimizeQuality; fill-rule:evenodd; clip-rule:evenodd"
viewBox="0 0 5000 5000"
 xmlns:xlink="http://www.w3.org/1999/xlink">
 <defs>
  <style type="text/css">
   <![CDATA[
    .fil0 {fill:#DDAD10}
    .fil1 {fill:#DDAD10}
   ]]>
  </style>
 </defs>
 <g id="Слой_x0020_1">
  <metadata id="CorelCorpID_0Corel-Layer"/>
  <path class="fil0" d="M2500 100c-1325,0 -2400,1075 -2400,2400 0,1326 1075,2400 2400,2400 1326,0 2400,-1074 2400,-2400 0,-1325 -1074,-2400 -2400,-2400zm0 4425c-1118,0 -2025,-907 -2025,-2025 0,-1118 907,-2025 2025,-2025 1118,0 2025,907 2025,2025 0,1118 -907,2025 -2025,2025z"/>
  <g id="_621759152">
  </g>
  <g id="_621758576">
  </g>
  <g id="_621760304">
  </g>
  <g id="_621759504">
  </g>
  <g id="_621771120">
  </g>
  <g id="_621771216">
  </g>
  <g id="_621799840">
  </g>
  <g id="_621800224">
  </g>
  <g id="_621799264">
  </g>
  <g id="_621800064">
  </g>
  <g id="_813478656">
  </g>
  <g id="_813479040">
  </g>
  <g id="_813476768">
  </g>
  <g id="_813478144">
  </g>
  <g id="_813476576">
  </g>
  <g id="_810363888">
   <g>
    <path class="fil1" d="M3743 2711l0 817c0,51 -11,98 -32,140 -22,43 -51,81 -89,113 -37,33 -80,58 -129,77 -49,18 -102,27 -159,27l-1670 0c-55,0 -108,-9 -157,-27 -49,-19 -92,-44 -129,-77 -37,-32 -67,-70 -89,-113 -21,-42 -32,-89 -32,-140l0 -817c0,-48 11,-94 32,-138 22,-44 52,-82 89,-114 37,-31 80,-57 129,-76 49,-19 102,-29 157,-29l1670 0c56,0 108,10 158,29 50,19 93,45 130,76 38,32 67,70 89,114 21,44 32,90 32,138zm-1967 908l0 -861 205 0 0 -131 -553 0 0 127 177 0 0 865 171 0zm84 -2004l-229 -500 199 0 114 374 113 -374 199 0 -214 500 0 583 -182 0 0 -583zm538 1269l-171 0 0 460c0,33 0,59 1,77 2,18 -1,30 -7,35 -5,19 -20,34 -44,43 -24,9 -42,-3 -55,-40 -3,-5 -3,-17 -2,-36 2,-19 2,-44 2,-75l-3 -464 -172 0 4 456c0,36 -1,66 -2,90 -1,25 -1,43 2,55 3,20 5,42 8,65 2,22 14,41 35,54 20,13 43,19 69,19 28,0 54,-4 79,-13 26,-9 49,-21 71,-36 21,-15 37,-32 47,-50l-4 91 142 4 0 -735zm-157 -1193c0,-68 7,-124 19,-169 15,-46 39,-79 73,-99 33,-24 76,-37 128,-37 46,0 84,8 116,22 30,13 56,35 76,66 15,22 26,47 33,76 7,31 11,73 11,125l0 195c0,71 -4,122 -11,153 -3,28 -15,60 -37,95 -22,31 -46,51 -72,61 -32,15 -67,22 -107,22 -40,0 -78,-6 -111,-18 -31,-10 -54,-28 -69,-54 -15,-20 -27,-48 -38,-84 -7,-34 -11,-84 -11,-153l0 -201zm153 304c0,20 7,37 22,53 15,15 33,23 54,23 20,0 38,-7 53,-22 16,-15 23,-33 23,-54l0 -404c0,-22 -7,-41 -23,-57 -15,-15 -33,-23 -53,-23 -20,0 -37,8 -53,23 -15,16 -23,35 -23,57l0 404zm556 1414l0 -381c0,-74 -26,-126 -77,-157 -18,-10 -38,-15 -60,-15 -41,0 -88,20 -142,58l0 -287 -171 0 0 985 142 -4 11 -61c46,39 87,62 124,71 36,8 67,5 93,-11 25,-15 45,-40 59,-76 14,-35 21,-76 21,-122zm-206 -458c20,0 37,6 53,18 15,12 23,25 23,40l0 432c0,15 -8,27 -23,39 -16,11 -33,17 -53,17 -20,0 -38,-6 -53,-17 -16,-11 -23,-24 -23,-39l0 -432c0,-15 8,-28 23,-40 15,-12 33,-18 53,-18zm80 -830c-5,-10 -8,-20 -9,-30 -2,-11 -3,-21 -6,-31 -3,-13 -4,-29 -4,-51l0 -81 0 -512 160 0 0 592c0,15 6,28 17,39 11,11 26,17 45,17 17,0 32,-6 44,-17 13,-11 19,-24 19,-39l0 -592 149 0 0 760 -190 0 4 -62c-18,25 -34,44 -50,58 -20,12 -42,18 -66,18 -28,0 -52,-6 -70,-18 -17,-11 -31,-28 -43,-51zm666 1240l-128 0 0 18 0 65c0,20 -7,36 -22,47 -14,11 -31,16 -51,16l-26 0c-20,0 -36,-5 -49,-16 -13,-11 -20,-27 -20,-47l0 -7 0 -73 0 -96 296 0 0 -103c0,-38 -1,-75 -2,-110 -1,-36 -4,-63 -9,-83 -5,-34 -20,-61 -46,-81 -25,-21 -55,-35 -89,-42 -34,-8 -69,-9 -104,-4 -36,5 -66,17 -93,36 -33,22 -57,52 -72,91 -15,38 -22,92 -22,160l0 229c0,97 25,166 76,206 47,39 97,58 149,58 5,0 10,0 15,0 59,-3 110,-28 155,-74 33,-34 50,-78 50,-132 -2,-18 -4,-37 -8,-58zm-132 -218l-164 0 4 -91c0,-20 7,-36 22,-50 15,-13 33,-19 54,-19l8 0c22,0 41,6 56,18 16,13 24,30 24,51l-4 91z"/>
    <g>
    </g>
    <g>
    </g>
    <g>
    </g>
    <g>
    </g>
    <g>
    </g>
    <g>
    </g>
    <g>
    </g>
    <g>
    </g>
    <g>
    </g>
    <g>
    </g>
    <g>
    </g>
    <g>
    </g>
    <g>
    </g>
    <g>
    </g>
    <g>
    </g>
   </g>
   <g>
   </g>
   <g>
   </g>
   <g>
   </g>
   <g>
   </g>
   <g>
   </g>
   <g>
   </g>
   <g>
   </g>
   <g>
   </g>
   <g>
   </g>
   <g>
   </g>
   <g>
   </g>
   <g>
   </g>
   <g>
   </g>
   <g>
   </g>
   <g>
   </g>
  </g>
 </g>
</svg>
