<?xml version="1.0" encoding="UTF-8"?>
<!DOCTYPE svg PUBLIC "-//W3C//DTD SVG 1.1//EN" "http://www.w3.org/Graphics/SVG/1.1/DTD/svg11.dtd">
<!-- Creator: CorelDRAW X7 -->
<svg xmlns="http://www.w3.org/2000/svg" xml:space="preserve" width="50mm" height="50mm" version="1.1" style="shape-rendering:geometricPrecision; text-rendering:geometricPrecision; image-rendering:optimizeQuality; fill-rule:evenodd; clip-rule:evenodd"
viewBox="0 0 5000 5000"
 xmlns:xlink="http://www.w3.org/1999/xlink">
 <defs>
  <style type="text/css">
   <![CDATA[
    .str2 {stroke:#2B2A29;stroke-width:100}
    .str0 {stroke:#2B2A29;stroke-width:25}
    .str1 {stroke:#2B2A29;stroke-width:7.62}
    .fil1 {fill:none;fill-rule:nonzero}
    .fil2 {fill:#2B2A29}
    .fil3 {fill:#DE5E60}
    .fil0 {fill:#2B2A29;fill-rule:nonzero}
   ]]>
  </style>
 </defs>
 <g id="Слой_x0020_1">
  <metadata id="CorelCorpID_0Corel-Layer"/>
  <path class="fil0" d="M2106 2598c0,55 -5,63 -76,63l0 30 235 0 0 -30c-66,0 -71,-8 -71,-63l0 -453 -11 -6c-44,25 -87,44 -155,67l6 30c22,-7 38,-14 52,-14 15,0 20,14 20,47l0 329z"/>
  <path id="1" class="fil0" d="M2685 2386c62,-22 111,-61 111,-122 0,-82 -72,-129 -181,-129 -114,0 -180,55 -180,134 0,43 18,101 102,144l0 2c-85,37 -120,87 -120,137 0,96 81,150 196,150 146,0 201,-79 201,-159 0,-69 -63,-126 -129,-155l0 -2zm-71 -216c95,0 98,79 98,92 0,63 -41,87 -78,105 -62,-22 -116,-57 -116,-114 0,-41 27,-83 96,-83zm-1 498c-63,0 -110,-41 -110,-114 0,-77 57,-105 82,-116 37,13 135,51 135,126 0,69 -49,104 -107,104z"/>
  <path id="2" class="fil0" d="M3113 2598c0,53 -3,63 -66,63l0 30 213 0 0 -30c-54,0 -58,-9 -58,-63l0 -55 63 0 5 -41 -68 0 0 -364 -74 0 -239 376 0 29 224 0 0 55zm1 -371c-1,23 -1,50 -1,70l0 205 -170 0 127 -204c19,-30 31,-56 41,-71l3 0z"/>
  <path id="3" class="fil1 str0" d="M2106 2598c0,55 -5,63 -76,63l0 30 235 0 0 -30c-66,0 -71,-8 -71,-63l0 -453 -11 -6c-44,25 -87,44 -155,67l6 30c22,-7 38,-14 52,-14 15,0 20,14 20,47l0 329z"/>
  <path id="4" class="fil1 str0" d="M2685 2386c62,-22 111,-61 111,-122 0,-82 -72,-129 -181,-129 -114,0 -180,55 -180,134 0,43 18,101 102,144l0 2c-85,37 -120,87 -120,137 0,96 81,150 196,150 146,0 201,-79 201,-159 0,-69 -63,-126 -129,-155l0 -2zm-71 -216c95,0 98,79 98,92 0,63 -41,87 -78,105 -62,-22 -116,-57 -116,-114 0,-41 27,-83 96,-83zm-1 498c-63,0 -110,-41 -110,-114 0,-77 57,-105 82,-116 37,13 135,51 135,126 0,69 -49,104 -107,104z"/>
  <path id="5" class="fil1 str0" d="M3113 2598c0,53 -3,63 -66,63l0 30 213 0 0 -30c-54,0 -58,-9 -58,-63l0 -55 63 0 5 -41 -68 0 0 -364 -74 0 -239 376 0 29 224 0 0 55zm1 -371c-1,23 -1,50 -1,70l0 205 -170 0 127 -204c19,-30 31,-56 41,-71l3 0z"/>
  <polygon class="fil2 str1" points="500,3202 1798,2884 2116,2884 2116,3202 1798,4500 3202,4500 2884,3202 2884,2884 3202,2884 4500,3202 4500,1798 3202,2116 2884,2116 2884,1798 3202,500 1798,500 2116,1798 2116,2116 1798,2116 500,1798 "/>
  <polygon class="fil2 str1" points="4439,1869 3181,2176 2824,2176 2824,1819 3131,561 1869,561 2176,1819 2176,2176 1819,2176 561,1869 561,3131 1819,2824 2176,2824 2176,3181 1869,4439 3131,4439 2824,3181 2824,2824 3181,2824 4439,3131 "/>
  <path class="fil2 str0" d="M2347 2636l76 102c-12,31 -95,98 -131,120 -26,16 -49,17 -68,-5 -16,-18 -41,-53 -56,-75l31 -25c17,20 37,39 58,45 15,5 50,10 58,-13 -13,-5 -58,15 -90,-53l122 -96zm1205 -1163c-17,31 -71,61 -104,85 -37,28 -75,58 -113,84 -33,-35 -24,-8 -49,-6l245 -188 21 25zm62 77c10,-7 41,-52 70,-66 13,-6 17,-1 10,9l-325 243c-5,-14 -5,-4 4,-14l8 -9c17,-19 174,-137 203,-156 29,-19 6,3 30,-7zm129 -93c-11,-14 -8,-13 7,-24l154 -114c21,-17 20,-12 25,-9 1,10 2,4 -5,12l-181 135zm235 -175c-11,-14 -12,-7 -1,-18 2,-2 15,-10 18,-13l4 7 4 5 -25 19zm-48 -172c9,11 12,13 16,27l-34 25c-15,-17 -21,-25 -4,-38l3 -2 19 -12zm96 119c13,-12 13,-16 27,-9l-18 18 -9 -9zm213 -237l33 41 -20 15 -34 -41 21 -15zm-1734 1051c0,12 11,18 19,21 22,15 22,-1 33,18 -11,15 -608,456 -682,512 -41,32 -61,58 -64,95 -6,79 -58,54 -16,99 -5,11 -6,25 -11,36l-74 95c-75,81 -115,124 -212,157 -33,12 -49,27 -77,48l-322 241c-187,139 -187,120 -134,196l158 237c13,20 42,68 62,77 21,9 54,-22 75,-39 37,-30 76,-91 103,-128l378 -520c80,-110 116,-183 224,-253 29,23 2,34 36,44 20,6 33,12 42,39 13,40 25,79 39,119 13,39 24,78 37,119 28,82 41,71 86,56 72,-23 161,-45 97,-112 -17,-17 -20,-37 -28,-58l-77 -235c17,-17 20,-12 25,-30 43,31 85,-12 128,-48 19,-16 40,-33 59,-50 26,-25 24,-30 23,-57l32 -27c9,8 12,15 17,26 14,34 10,21 16,23 2,-21 -17,-38 -18,-59 -1,-14 8,-10 -1,-28 -5,-10 -13,-17 -18,-30 14,8 28,18 42,27 18,11 35,15 45,22 28,20 56,48 86,70 56,41 115,77 173,111 54,32 120,68 175,92 33,13 21,6 45,23 25,20 29,8 46,14 13,4 32,14 45,19 43,18 18,11 36,23 24,-18 41,-96 53,-131 25,-74 4,-44 23,-92 13,-36 5,-41 8,-60 3,-17 5,-3 1,-17 -14,-4 -5,1 -20,-1l-127 -44c-48,-19 -97,-42 -144,-69 -56,-32 -201,-135 -243,-185 -12,-15 -9,-20 -28,-30 -3,-1 0,4 -9,-6 -6,-6 -3,-4 -5,-9l48 -38 107 -82c21,-12 28,29 75,-35 87,-119 78,-112 200,-210 56,-45 112,-90 168,-135 15,-12 75,-57 83,-69 10,-14 -4,-4 10,-16 6,-5 13,-8 20,-15 16,-16 0,-28 9,-37l322 -241c8,-3 13,4 23,6 45,-33 19,-15 28,-44l188 -140c8,6 10,9 19,10 28,-20 23,-15 26,-34 1,-8 -2,-3 2,-12l76 -51c6,-11 11,3 -2,-17 73,-50 159,-118 234,-173 14,-10 26,-16 28,-30 5,-26 -8,-6 18,-31 -19,-82 -62,-48 -62,-48 -23,5 -13,-17 -57,17l-167 124c-38,28 -58,35 -63,62l-124 -148c-55,25 -51,51 -29,97 17,38 37,76 56,114 -46,61 -126,108 -192,159 -35,26 -23,2 -50,21 -83,56 -67,-13 -132,-35 -36,18 -225,166 -284,210 -29,22 -22,3 -43,9 -15,4 -12,8 -19,15 -8,6 -9,4 -21,11l-326 246c-11,11 -22,17 -37,30 -31,-5 -28,-24 -53,10 -13,17 -37,7 -53,22 -5,6 -5,9 -12,16 -30,32 -61,50 -96,77 -38,29 -25,16 -41,20 -18,5 -15,15 -34,24z"/>
  <path class="fil2 str0" d="M2772 2606l-76 103c12,30 96,98 132,120 25,15 48,17 67,-5 16,-18 41,-54 56,-76l-31 -24c-17,20 -37,38 -58,45 -15,5 -50,9 -58,-13 13,-6 58,15 90,-54l-122 -96zm-1205 -1162c18,30 72,61 104,85 37,28 75,57 113,84 33,-35 24,-9 49,-7l-244 -187 -22 25zm-62 77c-9,-8 -40,-52 -70,-66 -13,-7 -17,-2 -10,8l325 244c6,-15 5,-4 -3,-14l-9 -9c-17,-20 -174,-137 -203,-157 -29,-19 -6,3 -30,-6zm-129 -93c11,-15 8,-13 -7,-25l-154 -114c-21,-16 -19,-11 -25,-8 -1,9 -2,4 5,12l181 135zm-234 -175c10,-14 11,-8 1,-18 -2,-2 -15,-11 -18,-13l-5 6 -4 6 26 19zm47 -172c-9,10 -12,13 -15,27l33 25c15,-17 22,-25 4,-38l-2 -3 -20 -11zm-96 118c-13,-12 -13,-16 -27,-8l19 18 8 -10zm-212 -237l-33 42 19 15 35 -41 -21 -16zm1733 1052c0,12 -11,18 -19,21 -21,15 -21,-1 -33,18 11,15 609,455 682,512 41,32 61,58 64,95 6,79 59,54 16,98 5,12 6,26 11,36l74 95c76,81 116,124 212,158 33,11 49,27 78,48l322 241c186,139 186,120 133,195l-158 238c-13,20 -42,67 -62,76 -21,10 -54,-22 -75,-39 -37,-29 -75,-90 -102,-128l-378 -519c-81,-110 -116,-183 -224,-253 -30,23 -3,34 -37,44 -20,5 -33,12 -42,38 -13,40 -25,80 -38,119 -14,40 -25,79 -38,119 -27,82 -41,71 -85,57 -73,-23 -161,-45 -97,-112 16,-18 19,-37 27,-58l77 -236c-16,-16 -20,-12 -25,-29 -43,31 -85,-13 -128,-48 -19,-16 -40,-33 -59,-51 -26,-24 -24,-29 -23,-57l-31 -26c-10,8 -13,14 -18,26 -14,33 -10,21 -16,22 -2,-20 17,-37 18,-58 1,-14 -8,-10 1,-28 5,-10 13,-17 18,-30 -14,7 -28,18 -42,27 -18,11 -35,15 -45,22 -28,19 -56,48 -85,70 -56,41 -116,76 -173,110 -55,32 -121,69 -176,92 -32,14 -21,7 -44,24 -26,20 -29,8 -46,13 -14,4 -33,14 -46,20 -42,18 -17,10 -36,23 -24,-18 -40,-96 -52,-131 -25,-74 -5,-44 -23,-93 -14,-36 -6,-40 -9,-59 -3,-17 -5,-3 -1,-18 14,-4 6,2 20,-1l128 -43c47,-19 96,-42 143,-69 56,-32 201,-135 243,-186 12,-15 10,-20 28,-29 3,-1 1,4 10,-7 5,-6 2,-3 4,-8l-48 -38 -107 -83c-21,-12 -28,30 -75,-35 -87,-119 -78,-112 -200,-210 -56,-45 -111,-89 -168,-134 -15,-13 -75,-58 -83,-69 -10,-14 4,-5 -10,-17 -5,-5 -13,-8 -20,-14 -15,-17 0,-28 -9,-38l-322 -240c-7,-3 -13,4 -23,5 -44,-32 -19,-14 -28,-43l-188 -140c-8,6 -10,8 -19,10 -28,-21 -23,-15 -25,-34 -1,-9 1,-3 -2,-12l-76 -51c-6,-11 -12,2 1,-17 -73,-50 -159,-118 -234,-173 -14,-10 -26,-16 -28,-31 -5,-25 8,-6 -17,-30 18,-82 61,-49 62,-49 22,6 12,-16 56,17l167 125c38,28 59,35 63,62l125 -148c54,24 50,50 29,96 -18,38 -38,77 -57,115 47,61 126,108 192,158 36,27 23,3 50,21 83,57 67,-12 132,-34 36,18 225,166 284,210 29,21 22,2 44,9 14,4 11,8 18,14 8,7 10,5 21,12l326 246c12,11 23,16 37,29 31,-4 28,-23 54,10 12,17 37,7 52,23 6,6 6,8 12,16 30,32 62,50 96,77 38,28 25,16 41,20 18,5 15,15 34,24z"/>
  <circle class="fil3 str2" cx="2529" cy="2515" r="705"/>
  <path class="fil0" d="M2071 2747l0 -361 -77 26 -33 -76 123 -53 106 0 0 464 -119 0zm338 -186c-27,0 -40,13 -40,40l0 26c0,11 3,19 9,25 6,6 14,9 24,9l99 0c10,0 19,-3 24,-9 6,-6 9,-14 9,-25l0 -26c0,-27 -13,-40 -39,-40l-86 0zm13 -192c-27,0 -40,13 -40,40l0 20c0,26 13,39 40,39l59 0c27,0 40,-13 40,-39l0 -20c0,-27 -13,-40 -40,-40l-59 0zm232 258c0,44 -10,76 -31,96 -20,20 -52,30 -95,30l-153 0c-43,0 -75,-10 -95,-30 -20,-20 -30,-52 -30,-96l0 -6c0,-34 8,-62 25,-84 13,-17 31,-29 54,-35 -20,-7 -36,-19 -48,-35 -12,-17 -18,-38 -18,-65l0 -6c0,-41 10,-71 30,-90 21,-20 52,-30 96,-30l126 0c43,0 75,10 95,30 20,19 30,49 30,90l0 6c0,27 -6,48 -18,65 -12,16 -28,28 -48,35 36,9 60,33 73,71 4,14 7,30 7,48l0 6zm278 27l-245 0 0 -93 159 -278 132 0 -159 278 113 0 0 -99 119 0 0 99 47 0 0 93 -47 0 0 93 -119 0 0 -93z"/>
 </g>
</svg>
