<?xml version="1.0" encoding="UTF-8"?>
<!DOCTYPE svg PUBLIC "-//W3C//DTD SVG 1.1//EN" "http://www.w3.org/Graphics/SVG/1.1/DTD/svg11.dtd">
<!-- Creator: CorelDRAW X7 -->
<svg xmlns="http://www.w3.org/2000/svg" xml:space="preserve" width="50mm" height="50mm" version="1.1" style="shape-rendering:geometricPrecision; text-rendering:geometricPrecision; image-rendering:optimizeQuality; fill-rule:evenodd; clip-rule:evenodd"
viewBox="0 0 5000 5000"
 xmlns:xlink="http://www.w3.org/1999/xlink">
 <defs>
  <style type="text/css">
   <![CDATA[
    .str4 {stroke:#2B2A29;stroke-width:100}
    .str2 {stroke:#FFED00;stroke-width:100}
    .str0 {stroke:#2B2A29;stroke-width:25}
    .str3 {stroke:black;stroke-width:10}
    .str1 {stroke:#2B2A29;stroke-width:7.62}
    .fil2 {fill:none;fill-rule:nonzero}
    .fil0 {fill:#2B2A29}
    .fil3 {fill:#DE5E60}
    .fil1 {fill:#2B2A29;fill-rule:nonzero}
   ]]>
  </style>
 </defs>
 <g id="Слой_x0020_1">
  <metadata id="CorelCorpID_0Corel-Layer"/>
  <g id="_985921648">
   <path class="fil0 str0" d="M2418 846l198 0c8,2 17,4 25,6 10,65 22,130 31,195 2,7 2,15 6,22 12,3 25,3 37,5 82,11 163,31 242,56 5,2 10,3 15,4 5,-5 8,-10 12,-15 38,-55 77,-109 115,-164 77,28 151,65 222,105 -17,72 -42,141 -62,213 85,53 165,115 236,186 26,-12 51,-28 77,-42 35,-19 70,-40 106,-59 6,-2 13,-8 17,-1 54,58 104,120 149,185 -38,45 -79,87 -119,131 -10,11 -22,20 -29,34 16,30 35,58 51,89 23,44 44,89 63,135 6,14 10,30 17,43 8,3 16,1 23,1 67,-5 133,-8 199,-13 19,60 35,121 45,183 2,14 5,28 11,41l0 15c-69,28 -138,55 -207,83 11,99 11,200 0,299 69,28 138,55 207,83l0 15c-7,17 -9,36 -13,53 -10,58 -25,115 -43,171 -74,-4 -148,-10 -223,-14 -27,80 -64,155 -105,228 -8,14 -18,27 -24,41 6,11 15,19 23,28 36,39 72,79 108,118 6,5 11,11 15,17 -2,9 -9,16 -14,24 -43,59 -88,117 -140,169 -58,-33 -116,-65 -174,-98 -6,-3 -13,-7 -20,-8 -12,9 -21,20 -32,29 -63,58 -131,110 -203,156 15,53 32,105 47,158 5,17 12,34 15,52 -23,18 -50,29 -76,42 -42,22 -86,41 -130,59 -5,3 -11,4 -16,5 -11,-11 -19,-26 -29,-38 -33,-47 -65,-94 -99,-141 -82,28 -166,48 -252,61 -14,2 -29,2 -42,6 -9,34 -12,68 -18,101 -6,39 -13,77 -18,115 -9,2 -17,4 -26,6l-202 0c-7,-2 -14,-4 -22,-6 -11,-72 -22,-144 -35,-216 -100,-13 -199,-35 -295,-67 -40,57 -80,113 -119,170 -4,4 -7,12 -14,8 -63,-24 -124,-53 -183,-84 -12,-7 -24,-12 -33,-20 0,-5 1,-10 3,-15 19,-65 39,-131 58,-196 -81,-52 -157,-111 -226,-178 -4,-3 -9,-10 -14,-6 -25,11 -47,26 -71,39 -40,21 -79,46 -120,65 -49,-53 -96,-109 -138,-168 -4,-8 -15,-17 -12,-26 47,-54 98,-106 146,-160 -54,-85 -98,-175 -131,-270 -75,5 -149,10 -223,14 -23,-72 -40,-146 -53,-221 3,-4 2,-8 -2,-11l0 -7c68,-28 138,-55 206,-83 -11,-99 -11,-200 0,-299 -68,-28 -137,-55 -206,-83l0 -15c7,-19 10,-40 13,-60 11,-55 25,-110 42,-164 66,5 133,8 199,13 7,0 16,1 23,0 8,-14 12,-30 18,-44 27,-68 59,-133 96,-196 6,-9 13,-18 17,-28 -7,-13 -18,-22 -27,-32 -40,-45 -82,-88 -121,-133 46,-67 98,-131 154,-191 37,21 74,42 112,63 28,15 54,32 83,45 71,-71 151,-133 236,-186 -20,-71 -43,-141 -62,-212 70,-42 145,-77 222,-106 36,51 72,102 108,154 6,8 11,19 20,25 13,-2 24,-7 36,-11 71,-22 144,-38 217,-49 13,-1 27,-2 40,-5 4,-8 5,-16 6,-24 10,-65 22,-128 31,-193 8,-1 17,-4 25,-6zm2 394c-166,13 -330,61 -477,140 -229,121 -417,319 -526,554 -63,134 -99,281 -108,429 -2,62 -3,125 4,187 14,146 56,290 123,421 115,228 306,417 535,531 288,146 635,169 940,64 117,-40 228,-98 327,-171 162,-119 293,-278 378,-459 64,-135 100,-283 109,-432 3,-69 3,-138 -6,-206 -24,-218 -111,-428 -247,-600 -155,-198 -373,-344 -614,-414 -142,-41 -291,-55 -438,-44z"/>
   <path class="fil0 str0" d="M930 2201c69,28 138,55 206,83 -11,99 -11,200 0,299 -68,28 -138,55 -206,83l0 -465zm2968 83c69,-28 138,-55 207,-83l0 465c-69,-28 -138,-55 -207,-83 11,-99 11,-200 0,-299zm-2968 389c4,3 5,7 2,11l-2 -1 0 -10z"/>
  </g>
  <path class="fil1" d="M2106 2627c0,56 -5,63 -76,63l0 30 235 0 0 -30c-66,0 -71,-7 -71,-63l0 -453 -11 -6c-44,25 -87,44 -155,67l6 30c22,-7 38,-14 52,-14 15,0 20,14 20,47l0 329z"/>
  <path id="1" class="fil1" d="M2685 2415c62,-22 111,-61 111,-122 0,-82 -72,-129 -181,-129 -114,0 -180,56 -180,134 0,43 18,101 102,144l0 2c-85,37 -120,87 -120,137 0,96 81,150 196,150 146,0 201,-79 201,-159 0,-69 -63,-126 -129,-155l0 -2zm-71 -216c95,0 98,79 98,92 0,63 -41,87 -78,105 -62,-22 -116,-57 -116,-113 0,-42 27,-84 96,-84zm-1 498c-63,0 -110,-41 -110,-114 0,-76 57,-105 82,-116 37,13 135,51 135,126 0,69 -49,104 -107,104z"/>
  <path id="2" class="fil1" d="M3113 2627c0,53 -3,63 -66,63l0 30 213 0 0 -30c-54,0 -58,-9 -58,-63l0 -55 63 0 5 -41 -68 0 0 -364 -74 0 -239 376 0 29 224 0 0 55zm1 -371c-1,24 -1,50 -1,70l0 205 -170 0 127 -204c19,-29 31,-56 41,-71l3 0z"/>
  <path id="3" class="fil2 str0" d="M2106 2627c0,56 -5,63 -76,63l0 30 235 0 0 -30c-66,0 -71,-7 -71,-63l0 -453 -11 -6c-44,25 -87,44 -155,67l6 30c22,-7 38,-14 52,-14 15,0 20,14 20,47l0 329z"/>
  <path id="4" class="fil2 str0" d="M2685 2415c62,-22 111,-61 111,-122 0,-82 -72,-129 -181,-129 -114,0 -180,56 -180,134 0,43 18,101 102,144l0 2c-85,37 -120,87 -120,137 0,96 81,150 196,150 146,0 201,-79 201,-159 0,-69 -63,-126 -129,-155l0 -2zm-71 -216c95,0 98,79 98,92 0,63 -41,87 -78,105 -62,-22 -116,-57 -116,-113 0,-42 27,-84 96,-84zm-1 498c-63,0 -110,-41 -110,-114 0,-76 57,-105 82,-116 37,13 135,51 135,126 0,69 -49,104 -107,104z"/>
  <path id="5" class="fil2 str0" d="M3113 2627c0,53 -3,63 -66,63l0 30 213 0 0 -30c-54,0 -58,-9 -58,-63l0 -55 63 0 5 -41 -68 0 0 -364 -74 0 -239 376 0 29 224 0 0 55zm1 -371c-1,24 -1,50 -1,70l0 205 -170 0 127 -204c19,-29 31,-56 41,-71l3 0z"/>
  <polygon class="fil0 str1" points="500,3231 1798,2913 2116,2913 2116,3231 1798,4529 3202,4529 2884,3231 2884,2913 3202,2913 4500,3231 4500,1827 3202,2145 2884,2145 2884,1827 3202,529 1798,529 2116,1827 2116,2145 1798,2145 500,1827 "/>
  <polygon class="fil0 str1" points="4439,1898 3181,2206 2824,2206 2824,1848 3131,590 1869,590 2176,1848 2176,2206 1819,2206 561,1898 561,3160 1819,2853 2176,2853 2176,3210 1869,4469 3131,4469 2824,3210 2824,2853 3181,2853 4439,3160 "/>
  <circle class="fil0 str2" cx="2496" cy="2500" r="705"/>
  <polygon class="fil1" points="2038,2733 2038,2372 1962,2399 1929,2323 2052,2270 2158,2270 2158,2733 "/>
  <path id="1" class="fil1" d="M2376 2548c-26,0 -39,13 -39,40l0 26c0,10 2,18 8,24 6,6 14,9 25,9l99 0c10,0 18,-3 24,-9 6,-6 9,-14 9,-24l0 -26c0,-27 -13,-40 -40,-40l-86 0zm14 -192c-27,0 -40,13 -40,39l0 20c0,27 13,40 40,40l59 0c27,0 40,-13 40,-40l0 -20c0,-26 -13,-39 -40,-39l-59 0zm231 258c0,43 -10,75 -30,95 -20,21 -52,31 -95,31l-153 0c-43,0 -75,-10 -95,-31 -21,-20 -31,-52 -31,-95l0 -7c0,-33 9,-61 25,-83 14,-18 32,-30 55,-36 -20,-6 -36,-18 -48,-35 -12,-16 -18,-38 -18,-64l0 -7c0,-40 10,-70 30,-90 20,-19 52,-29 95,-29l126 0c44,0 75,10 96,29 20,20 30,50 30,90l0 7c0,26 -6,48 -18,64 -12,17 -28,29 -48,35 36,10 60,34 73,72 4,13 6,29 6,47l0 7z"/>
  <polygon id="2" class="fil1" points="2900,2641 2655,2641 2655,2548 2814,2270 2946,2270 2787,2548 2900,2548 2900,2448 3019,2448 3019,2548 3065,2548 3065,2641 3019,2641 3019,2733 2900,2733 "/>
  <path class="fil1" d="M2106 2627c0,56 -5,63 -76,63l0 30 235 0 0 -30c-66,0 -71,-7 -71,-63l0 -453 -11 -6c-44,25 -87,44 -155,67l6 30c22,-7 38,-14 52,-14 15,0 20,14 20,47l0 329z"/>
  <path id="1" class="fil1" d="M2685 2415c62,-22 111,-61 111,-122 0,-82 -72,-129 -181,-129 -114,0 -180,56 -180,134 0,43 18,101 102,144l0 2c-85,37 -120,87 -120,137 0,96 81,150 196,150 146,0 201,-79 201,-159 0,-69 -63,-126 -129,-155l0 -2zm-71 -216c95,0 98,79 98,92 0,63 -41,87 -78,105 -62,-22 -116,-57 -116,-113 0,-42 27,-84 96,-84zm-1 498c-63,0 -110,-41 -110,-114 0,-76 57,-105 82,-116 37,13 135,51 135,126 0,69 -49,104 -107,104z"/>
  <path id="2" class="fil1" d="M3113 2627c0,53 -3,63 -66,63l0 30 213 0 0 -30c-54,0 -58,-9 -58,-63l0 -55 63 0 5 -41 -68 0 0 -364 -74 0 -239 376 0 29 224 0 0 55zm1 -371c-1,24 -1,50 -1,70l0 205 -170 0 127 -204c19,-29 31,-56 41,-71l3 0z"/>
  <path id="3" class="fil2 str0" d="M2106 2627c0,56 -5,63 -76,63l0 30 235 0 0 -30c-66,0 -71,-7 -71,-63l0 -453 -11 -6c-44,25 -87,44 -155,67l6 30c22,-7 38,-14 52,-14 15,0 20,14 20,47l0 329z"/>
  <path id="4" class="fil2 str0" d="M2685 2415c62,-22 111,-61 111,-122 0,-82 -72,-129 -181,-129 -114,0 -180,56 -180,134 0,43 18,101 102,144l0 2c-85,37 -120,87 -120,137 0,96 81,150 196,150 146,0 201,-79 201,-159 0,-69 -63,-126 -129,-155l0 -2zm-71 -216c95,0 98,79 98,92 0,63 -41,87 -78,105 -62,-22 -116,-57 -116,-113 0,-42 27,-84 96,-84zm-1 498c-63,0 -110,-41 -110,-114 0,-76 57,-105 82,-116 37,13 135,51 135,126 0,69 -49,104 -107,104z"/>
  <path id="5" class="fil2 str0" d="M3113 2627c0,53 -3,63 -66,63l0 30 213 0 0 -30c-54,0 -58,-9 -58,-63l0 -55 63 0 5 -41 -68 0 0 -364 -74 0 -239 376 0 29 224 0 0 55zm1 -371c-1,24 -1,50 -1,70l0 205 -170 0 127 -204c19,-29 31,-56 41,-71l3 0z"/>
  <polygon class="fil0 str1" points="500,3231 1798,2913 2116,2913 2116,3231 1798,4529 3202,4529 2884,3231 2884,2913 3202,2913 4500,3231 4500,1827 3202,2145 2884,2145 2884,1827 3202,529 1798,529 2116,1827 2116,2145 1798,2145 500,1827 "/>
  <polygon class="fil0 str1" points="4439,1898 3181,2206 2824,2206 2824,1848 3131,590 1869,590 2176,1848 2176,2206 1819,2206 561,1898 561,3160 1819,2853 2176,2853 2176,3210 1869,4469 3131,4469 2824,3210 2824,2853 3181,2853 4439,3160 "/>
  <g id="_985926448">
   <path class="fil0 str3" d="M2457 501c5,-12 12,-25 25,-30 9,0 18,4 23,12 10,15 24,29 30,46 8,21 17,42 25,63 8,17 9,36 13,55 4,27 10,53 17,80 10,66 23,132 35,199 9,43 11,87 16,131 10,70 20,141 30,211 4,43 9,85 12,128 0,37 -2,74 -2,111 5,37 2,76 4,114 0,19 -1,38 0,57 17,55 31,111 47,167 23,85 46,170 69,255 31,-13 61,-30 93,-44 53,-26 107,-52 160,-78 24,-12 47,-23 72,-33 3,-13 6,-27 16,-38 9,-10 20,-21 35,-23 21,-3 42,5 61,15 7,-4 13,-9 20,-13 228,-109 456,-218 684,-327 8,-4 16,-6 22,-12 4,-36 14,-74 41,-100 22,-20 54,-26 82,-19 34,7 64,27 90,50 67,61 113,143 140,229 17,58 27,120 14,180 -7,33 -24,67 -55,83 -22,12 -47,9 -71,6 -9,-1 -17,-5 -24,-9 -195,102 -389,204 -584,306 -41,21 -82,44 -125,64 0,15 3,32 -8,44 -17,18 -39,33 -65,33 -16,-2 -32,-10 -48,-5 -59,31 -118,60 -177,92 36,20 74,36 110,54 61,29 121,58 182,87 27,12 53,28 82,38 8,-7 10,-22 23,-24 20,-5 41,-4 60,1 11,2 22,8 29,17 8,11 18,23 22,37 2,12 1,24 1,36 107,51 213,104 319,155 15,6 28,16 44,19 0,-17 0,-35 10,-49 15,-16 38,-20 59,-17 18,3 36,6 50,18 12,10 22,23 25,38 5,29 5,58 5,87 0,11 -3,22 -6,32 16,31 29,64 34,99 11,33 13,69 15,104 1,16 -3,34 6,49 22,-8 49,-5 70,8 38,21 52,75 31,113 -13,28 -42,46 -72,46 -24,1 -47,-9 -62,-26 -8,-8 -12,-18 -19,-26 -31,12 -58,32 -83,52 -19,18 -44,27 -68,36 -13,6 -27,9 -41,12 -21,5 -43,-5 -63,3 -6,6 -10,15 -17,21 -27,23 -67,27 -98,12 -21,-11 -41,-26 -55,-46 -12,-13 -14,-32 -13,-49 -1,-6 5,-10 8,-14 -6,-10 -18,-14 -27,-19 -95,-48 -190,-95 -284,-142 -10,-5 -18,-10 -28,-13 -13,5 -17,23 -31,26 -13,-1 -28,1 -40,-6 -19,-12 -39,-22 -55,-37 -7,-9 -13,-19 -20,-29 2,-10 3,-21 4,-31 -14,-11 -31,-16 -45,-24 -86,-43 -172,-87 -257,-130 -95,-47 -189,-97 -284,-143 0,57 1,113 0,169 132,179 264,358 396,537 5,6 4,14 4,21 3,219 5,439 8,658 2,10 -10,13 -15,6 -121,-113 -242,-226 -363,-339 -8,-8 -16,-17 -26,-24 -1,63 0,126 0,189 1,8 -3,18 -12,18 -52,-1 -104,-2 -156,-3 0,25 1,50 -1,74 -4,6 -12,5 -18,5 -18,0 -36,1 -53,0 -7,-1 -5,-9 -5,-13 0,-22 0,-44 0,-66 -60,-1 -120,-3 -180,-5 -8,0 -12,-7 -11,-13 0,-57 1,-114 1,-172 -134,112 -267,224 -400,336 -6,7 -17,3 -14,-6 -1,-212 0,-424 -1,-635 0,-6 2,-12 6,-17 131,-176 263,-352 394,-528 7,-9 16,-18 16,-30 1,-24 0,-49 1,-73 -62,30 -123,62 -185,92 -38,22 -78,40 -117,60 -39,22 -81,39 -119,62 2,7 5,13 7,20 -3,14 -10,27 -18,38 -7,12 -20,18 -30,27 -16,8 -34,12 -51,12 -13,1 -19,-14 -30,-20 -7,-8 -19,-5 -27,0 -109,59 -219,118 -328,177 -10,5 -2,17 -1,25 2,13 8,26 1,38 -4,8 -11,13 -18,20 -10,11 -27,16 -35,30 -13,-2 -19,16 -32,15 -23,2 -42,-14 -55,-31 -10,-17 -21,-32 -33,-48 -15,1 -31,-1 -46,-1 -32,4 -64,-3 -93,-14 -33,-19 -67,-38 -94,-66 -8,20 -20,39 -39,50 -29,17 -67,14 -93,-7 -37,-28 -44,-87 -13,-123 16,-21 43,-32 70,-31 6,-25 1,-52 4,-77 3,-31 12,-60 20,-90 10,-30 16,-61 30,-90 2,-10 7,-21 3,-31 -7,-23 -8,-47 -5,-70 2,-7 6,-14 8,-21 4,-14 17,-22 29,-29 25,-11 55,-22 83,-13 16,5 24,20 26,35 9,6 19,-3 28,-6 52,-23 102,-50 154,-74 47,-22 94,-44 142,-67 10,-5 21,-8 31,-15 1,-11 -1,-22 -2,-33 2,-21 15,-40 34,-49 14,-7 27,-16 42,-17 16,-2 33,-5 47,4 9,10 17,23 17,38 126,-61 253,-120 379,-181 9,-4 17,-7 24,-12 -15,-11 -33,-17 -50,-24 -52,-22 -103,-44 -155,-65 -12,7 -23,15 -36,19 -11,0 -21,-6 -31,-9 -17,-6 -23,-25 -38,-35 0,-14 -7,-28 -2,-43 -14,-10 -31,-15 -45,-23 -217,-111 -434,-221 -651,-332 -7,-3 -14,-5 -22,-8 -26,11 -57,17 -85,8 -25,-9 -43,-30 -53,-53 -14,-30 -17,-63 -18,-95 4,-107 46,-211 111,-296 33,-41 73,-79 123,-98 31,-11 69,-10 95,12 27,23 38,58 43,92 13,7 27,13 41,20 232,108 464,218 697,327 3,2 6,3 9,3 11,-8 23,-19 37,-18 12,0 25,-2 35,5 11,8 20,19 25,33 3,9 4,20 10,29 57,29 114,57 172,85 27,-103 55,-205 83,-308 3,-16 2,-33 2,-50 1,-45 1,-90 2,-135 -1,-34 4,-69 6,-103 4,-38 6,-77 9,-115 4,-48 11,-96 17,-144 8,-76 21,-150 32,-225 14,-83 30,-165 49,-246 8,-45 25,-89 37,-133 6,-23 18,-44 27,-66zm26 -16c-15,19 -20,42 -31,63 -12,32 -21,66 -31,99 45,0 90,-5 136,-4 -1,-37 -21,-69 -33,-102 -6,-21 -22,-37 -34,-54 -1,0 -5,-1 -7,-2zm-67 177c-22,94 -42,188 -58,283 -10,72 -22,144 -31,216 -5,49 -13,98 -16,148 74,-1 148,-2 222,-4 42,-1 85,1 127,-1 -9,-83 -22,-165 -33,-247 -6,-42 -7,-84 -16,-125 -10,-61 -21,-121 -32,-182 -5,-31 -14,-62 -19,-93 -48,3 -96,3 -144,5zm-107 662c-5,64 -11,127 -15,191 125,-3 249,-1 373,-2 -1,-37 2,-74 2,-111 -2,-28 -5,-56 -8,-84 -117,4 -235,3 -352,6zm1734 112c-24,5 -43,24 -53,46 -19,42 -19,90 -12,136 9,64 32,126 64,183 25,44 55,85 93,118 23,20 50,38 80,46 25,6 55,3 75,-15 27,-26 36,-65 37,-101 3,-54 -9,-108 -27,-158 -19,-55 -47,-107 -82,-153 -27,-35 -59,-68 -99,-89 -23,-12 -50,-19 -76,-13zm-2988 4c-57,12 -101,55 -136,98 -60,77 -101,171 -112,268 -2,37 -4,75 10,109 9,26 29,50 56,56 32,8 64,-5 91,-21 39,-25 72,-61 98,-99 39,-57 68,-120 85,-187 8,-36 13,-73 11,-110 -3,-31 -9,-63 -29,-88 -18,-21 -47,-30 -74,-26zm1239 90c0,26 0,53 -1,80 61,-3 122,-3 184,-6 43,0 86,-3 129,-3 22,0 43,-1 64,-2 1,-24 0,-48 0,-72 -126,1 -251,2 -376,3zm-1124 27c2,87 -23,174 -64,250 -22,41 -49,79 -82,112 -17,17 -37,30 -56,45 7,4 13,8 20,12 195,98 390,197 585,295 34,18 68,36 103,51 11,-13 24,-24 35,-38 30,-34 62,-67 87,-105 20,-31 44,-60 58,-95 7,-20 19,-38 26,-59 12,-26 24,-53 24,-82 0,-14 4,-29 -2,-43 -228,-107 -456,-213 -684,-320 -17,-7 -33,-17 -50,-23zm2512 138c-129,62 -258,124 -387,185 -17,10 -36,15 -52,26 -4,52 9,103 31,150 11,31 23,62 42,89 18,25 35,52 53,77 16,21 36,38 53,58 15,16 31,32 48,46 5,-1 10,-4 14,-6 226,-118 451,-236 676,-355 5,0 8,-7 3,-9 -27,-18 -53,-39 -74,-64 -66,-77 -109,-174 -124,-274 -2,-19 -1,-38 -3,-57 -92,48 -187,88 -280,134zm-1129 -78c-39,0 -79,3 -118,4 -47,0 -95,3 -142,4 0,69 -3,138 -2,207 -1,82 -3,164 -4,246 1,55 0,109 -1,164 -2,84 -2,168 -3,252 -1,74 -3,149 -2,223 53,1 107,1 161,2 1,-337 0,-674 0,-1011 -1,-8 6,-13 13,-13 24,-1 48,0 71,-1 3,4 6,9 5,14 0,35 1,69 0,104 -1,73 0,146 -1,218 0,68 1,135 -1,202 0,163 1,325 -1,487 51,0 102,0 152,1 -2,-147 -3,-294 -4,-441 -1,-105 -3,-210 -2,-316 -2,-116 -4,-233 -4,-349 -39,0 -78,3 -117,3zm-96 92c0,336 1,673 0,1009 19,1 38,1 57,1 -2,-28 0,-56 0,-84 2,-80 -1,-161 1,-242 0,-69 -1,-138 1,-208 0,-159 0,-317 0,-476 -20,0 -39,0 -59,0zm230 53c0,148 2,295 3,443 0,100 2,199 3,299 2,71 0,143 2,214 74,-44 149,-88 224,-131 -39,-142 -77,-283 -116,-425 -40,-143 -77,-287 -118,-430 1,10 2,20 2,30zm-411 9c-72,269 -144,537 -216,806 69,44 137,88 206,132 2,-105 1,-210 4,-316 1,-72 0,-145 2,-218 1,-84 2,-168 2,-252 1,-51 2,-101 2,-152zm-358 133c0,21 0,41 -3,61 -4,26 -17,49 -26,73 -4,12 -12,23 -16,35 -7,14 -11,29 -19,42 -22,33 -45,66 -68,99 -8,18 -26,28 -37,44 -12,17 -28,30 -40,47 -12,15 -32,27 -31,48 4,18 16,34 30,46 8,5 19,8 29,9 21,-4 38,-20 53,-35 23,-37 55,-66 78,-103 12,-17 26,-33 36,-51 11,-21 21,-42 32,-63 30,-52 48,-109 66,-165 7,-33 6,-72 -18,-98 -8,-10 -22,-7 -33,-6 -13,0 -23,10 -33,17zm1252 -4c-22,12 -38,38 -32,63 5,51 16,100 34,147 24,53 47,107 81,155 17,23 33,46 53,67 17,20 29,43 46,62 15,5 31,7 47,8 24,2 44,-14 59,-30 4,-12 4,-26 3,-39 -15,-16 -35,-28 -50,-46 -24,-29 -52,-56 -73,-87 -21,-31 -42,-63 -58,-98 -18,-47 -39,-95 -47,-146 -1,-14 1,-29 -1,-43 -15,-18 -41,-18 -62,-13zm-1150 53c-2,16 -3,32 -9,47 -15,46 -29,92 -52,135 -20,38 -37,78 -62,114 -23,31 -44,65 -71,93 -15,16 -27,36 -42,52 9,5 18,9 27,12 56,23 112,47 168,70 6,3 12,7 19,8 24,-8 46,-22 70,-32 4,-2 10,-3 12,-9 37,-135 73,-270 110,-406 -57,-28 -114,-55 -170,-84zm956 75c-57,28 -115,55 -172,83 43,156 85,312 128,467 1,7 4,16 -4,20 -57,33 -114,67 -171,100 -9,5 -18,12 -28,14 -5,2 -9,6 -14,10 9,2 14,-7 22,-11 15,-7 29,-16 44,-23 57,-28 114,-59 171,-87 23,-11 45,-24 69,-35 30,-16 61,-30 91,-47 31,-16 63,-31 94,-47 46,-25 93,-47 139,-71 -22,-37 -55,-65 -78,-101 -8,-12 -19,-21 -27,-33 -17,-23 -28,-50 -43,-75 -13,-30 -31,-59 -39,-92 -17,-46 -31,-95 -31,-144 -51,22 -100,48 -151,72zm-898 429c-11,8 -23,12 -35,18 -154,73 -307,146 -461,218 -3,35 6,70 17,103 8,26 19,52 31,77 24,55 62,102 91,154 20,36 48,67 73,99 12,15 27,26 40,40 15,1 28,-10 41,-16 110,-56 220,-111 329,-168 20,-10 41,-19 61,-31 0,-75 1,-149 1,-224 -74,-48 -147,-96 -221,-143 0,-17 7,-33 11,-49 7,-26 13,-53 22,-78zm921 131c-40,20 -80,40 -120,61 -23,13 -48,24 -72,36 -37,19 -74,38 -112,56 -1,40 1,80 0,120 135,68 269,137 404,206 61,30 121,62 182,92 7,5 16,4 22,-1 14,-12 27,-25 39,-39 13,-13 28,-24 37,-40 23,-36 45,-72 70,-106 22,-30 39,-64 52,-98 7,-13 14,-25 19,-38 6,-15 7,-31 12,-45 8,-32 16,-65 13,-98 -124,-62 -250,-121 -374,-182 -5,-2 -9,-5 -13,-4 -54,26 -106,54 -159,80zm-1477 65c-24,6 -52,14 -67,36 -11,33 0,69 9,101 9,39 21,77 34,115 19,44 43,84 64,127 21,33 46,63 69,95 7,9 14,17 21,26 16,25 38,45 55,70 11,17 26,30 41,42 33,4 66,-16 83,-44 5,-11 10,-23 5,-35 -9,-17 -26,-27 -39,-41 -25,-27 -48,-56 -70,-86 -16,-27 -33,-51 -48,-78 -27,-36 -47,-77 -67,-118 -17,-40 -30,-81 -39,-124 -5,-29 -1,-63 -23,-85 -9,-4 -19,-3 -28,-1zm2056 13c-12,0 -17,14 -20,23 -2,18 0,36 -4,54 -6,20 -7,40 -14,60 -10,50 -32,96 -58,140 -15,32 -38,59 -56,88 -12,16 -20,34 -33,48 -9,10 -16,22 -26,31 -23,28 -52,49 -76,75 -4,6 0,15 1,21 7,20 27,30 42,42 13,8 27,12 41,16 9,3 17,-3 23,-9 12,-12 26,-23 37,-36 11,-14 26,-23 37,-37 15,-22 34,-41 48,-63 13,-22 26,-43 40,-64 26,-43 51,-86 66,-135 19,-40 30,-83 36,-127 2,-26 12,-51 8,-77 -4,-21 -23,-35 -40,-46 -17,-5 -35,-6 -52,-4zm-1297 66c0,66 -1,133 -1,199 134,0 267,-2 400,-3 0,-64 0,-129 0,-193 -133,-2 -266,-2 -399,-3zm-848 26c-58,28 -116,57 -175,84 -22,8 -41,20 -62,28 -23,12 -46,22 -69,34 -13,6 -28,11 -40,20 1,27 2,56 14,82 6,20 11,40 20,60 10,19 14,41 24,60 20,43 40,86 67,124 19,25 40,48 55,76 6,11 16,18 23,27 22,25 42,49 66,71 6,-3 12,-4 17,-7 108,-57 216,-115 324,-173 4,-1 8,-5 5,-9 -21,-29 -47,-55 -67,-85 -22,-27 -43,-54 -62,-83 -26,-34 -44,-73 -63,-111 -14,-21 -22,-44 -30,-68 -9,-22 -13,-47 -22,-70 -7,-20 -11,-42 -15,-63 -4,1 -7,2 -10,3zm2244 10c-7,39 -10,78 -22,116 -5,20 -16,38 -23,58 -7,14 -12,30 -19,45 -10,15 -18,31 -27,46 -18,35 -44,65 -62,99 -13,18 -27,34 -41,51 -14,20 -35,35 -51,54 9,10 22,14 33,20 45,21 88,45 132,67 57,28 114,58 172,86 15,-5 27,-18 36,-30 11,-16 27,-29 41,-43 7,-9 13,-20 21,-29 23,-24 38,-54 57,-80 26,-36 44,-77 67,-115 11,-25 22,-49 34,-73 11,-34 17,-70 16,-105 -3,-5 -9,-6 -13,-9 -115,-53 -227,-111 -342,-164 -4,-3 -8,2 -9,6zm385 114c-4,10 -6,21 -6,32 1,15 -5,29 -5,44 0,24 -7,48 -11,72 -5,17 -12,33 -19,49 -13,24 -22,51 -37,74 -19,26 -33,56 -52,82 -20,30 -39,61 -62,89 -30,29 -53,64 -85,90 -11,11 -25,24 -20,41 5,32 32,57 61,70 17,9 37,9 56,7 11,-5 23,-9 32,-17 10,-14 21,-27 32,-41 12,-17 29,-31 42,-48 8,-12 17,-22 26,-32 21,-23 34,-53 51,-79 19,-29 33,-60 45,-92 16,-36 25,-74 38,-111 8,-33 24,-62 32,-94 5,-36 2,-72 -3,-107 -4,-15 -15,-28 -29,-34 -27,-13 -62,-15 -86,5zm-3053 0c-21,8 -45,17 -56,38 -6,28 -3,58 5,85 8,28 9,58 22,85 17,51 37,101 62,149 14,27 33,52 49,79 9,16 22,29 32,45 18,26 42,48 59,75 13,21 25,42 40,61 10,12 16,27 27,37 8,8 20,11 31,14 27,-17 55,-34 78,-57 6,-18 -3,-36 -5,-54 -19,-15 -32,-35 -49,-52 -25,-25 -47,-53 -66,-82 -15,-18 -28,-37 -41,-56 -9,-12 -14,-26 -22,-38 -10,-13 -16,-28 -23,-41 -9,-15 -12,-32 -21,-47 -9,-17 -13,-36 -21,-54 -20,-46 -30,-95 -33,-145 -2,-12 -5,-24 -12,-34 -14,-14 -38,-15 -56,-8zm1272 64c-2,67 0,135 -2,203 1,264 -1,529 -1,793 -1,49 -1,98 0,147 58,1 117,4 175,5 0,-290 0,-580 0,-871 7,-14 23,-23 35,-34 21,-12 39,7 53,21 1,39 -1,78 -1,117 -1,61 0,121 -1,181 -2,100 -3,200 -3,300 -2,95 -4,190 -3,286 50,1 101,1 152,3 -1,-97 -1,-193 -1,-289 0,-230 -2,-459 -3,-689 -2,-59 1,-117 -1,-176 -133,2 -266,1 -399,3zm1898 103c-12,26 -18,54 -25,82 -14,39 -27,79 -44,117 -17,43 -41,81 -66,119 -9,16 -19,32 -32,46 -15,13 -25,31 -38,45 -8,9 -17,18 -25,27 22,6 47,5 68,-3 27,-8 54,-18 76,-36 14,-10 29,-20 43,-31 16,-13 36,-20 53,-31 -8,-35 8,-75 39,-94 2,-14 1,-29 0,-43 -10,-48 -8,-98 -23,-145 -6,-18 -13,-36 -17,-55 -2,1 -6,1 -9,2zm-3241 20c-8,29 -14,59 -26,88 -2,21 -10,42 -10,63 -4,24 2,48 2,73 30,8 53,34 59,65 2,9 1,19 3,28 5,13 17,20 27,29 7,7 16,12 24,17 20,10 38,24 59,31 36,12 74,7 111,7 -13,-29 -34,-53 -54,-77 -11,-12 -19,-27 -31,-40 -13,-16 -22,-34 -33,-51 -35,-49 -60,-104 -82,-159 -12,-30 -20,-62 -33,-91 -8,3 -13,9 -16,17zm1760 537c0,40 -1,81 1,121 0,53 -2,105 1,158 130,120 259,242 389,363 -3,-101 -2,-202 -4,-303 -2,-98 -1,-197 -4,-295 0,-20 1,-40 -2,-60 -127,-174 -255,-347 -383,-520 2,178 0,357 2,536zm-630 -272c-63,85 -127,170 -191,255 -5,9 -15,16 -13,27 0,206 0,413 0,619 134,-111 266,-223 399,-334 1,-277 0,-553 2,-829 -67,86 -131,175 -197,262zm401 -107c-1,114 0,228 -1,342 0,202 0,403 1,604 15,0 31,0 47,0 1,-67 2,-134 3,-201 0,-111 2,-221 3,-332 0,-132 4,-264 4,-397 -1,-11 5,-26 -7,-34 -6,-4 -14,-13 -23,-8 -10,8 -20,16 -27,26zm1782 69c-27,8 -47,33 -49,62 -2,22 7,45 25,59 20,18 52,21 76,8 17,-9 30,-26 34,-44 8,-30 -5,-64 -32,-79 -16,-10 -36,-10 -54,-6zm-3393 14c-31,10 -50,43 -45,75 3,32 31,59 63,60 26,2 52,-11 64,-34 17,-29 10,-71 -18,-92 -18,-14 -43,-15 -64,-9zm1616 -2514c24,-14 56,6 62,32 1,134 2,269 3,403 1,18 -13,31 -26,40 -24,1 -55,1 -67,-24 -2,-118 -2,-237 -3,-355 0,-19 -2,-38 0,-57 7,-15 15,-31 31,-39zm-4 22c-7,10 -14,21 -13,34 3,129 0,259 3,389 8,18 31,14 48,16 6,-6 15,-12 16,-21 1,-11 0,-21 0,-32 -2,-123 -1,-246 -2,-370 1,-8 -6,-15 -12,-20 -11,-11 -32,-9 -40,4zm1623 676c23,-5 47,5 67,17 40,26 70,64 94,105 25,44 44,92 51,143 3,31 3,65 -12,93 -9,17 -27,31 -47,31 -21,1 -41,-8 -59,-19 -38,-25 -68,-61 -91,-100 -32,-54 -53,-114 -55,-177 1,-24 5,-50 19,-70 8,-12 20,-19 33,-23zm4 11c-24,6 -35,30 -39,51 -7,47 4,95 20,139 18,46 42,89 75,126 21,22 46,43 76,50 18,4 38,-2 48,-17 14,-17 16,-40 17,-62 0,-47 -14,-93 -33,-136 -22,-48 -52,-95 -94,-128 -20,-15 -45,-28 -70,-23zm-3092 -4c17,-5 37,-4 53,6 16,11 26,31 30,50 7,32 3,65 -4,97 -11,47 -31,93 -58,133 -22,33 -49,64 -83,85 -21,13 -48,23 -73,14 -24,-9 -37,-34 -42,-57 -6,-38 -1,-76 9,-113 16,-57 45,-110 84,-155 23,-26 50,-50 84,-60zm1 12c-27,8 -49,27 -68,48 -35,38 -61,84 -79,133 -15,42 -25,87 -18,131 4,21 15,43 36,50 23,6 46,-4 65,-17 29,-21 53,-49 72,-79 29,-45 50,-96 59,-149 4,-25 5,-52 -1,-77 -5,-16 -14,-33 -31,-39 -11,-5 -24,-5 -35,-1z"/>
   <path class="fil0 str3" d="M2483 485c2,1 6,2 7,2 12,17 28,33 34,54 12,33 32,65 33,102 -46,-1 -91,4 -136,4 10,-33 19,-67 31,-99 11,-21 16,-44 31,-63zm-67 177c48,-2 96,-2 144,-5 5,31 14,62 19,93 11,61 22,121 32,182 9,41 10,83 16,125 11,82 24,164 33,247 -42,2 -85,0 -127,1 -74,2 -148,3 -222,4 3,-50 11,-99 16,-148 9,-72 21,-144 31,-216 16,-95 36,-189 58,-283zm58 134c-16,8 -24,24 -31,39 -2,19 0,38 0,57 1,118 1,237 3,355 12,25 43,25 67,24 13,-9 27,-22 26,-40 -1,-134 -2,-269 -3,-403 -6,-26 -38,-46 -62,-32zm-4 22c8,-13 29,-15 40,-4 6,5 13,12 12,20 1,124 0,247 2,370 0,11 1,21 0,32 -1,9 -10,15 -16,21 -17,-2 -40,2 -48,-16 -3,-130 0,-260 -3,-389 -1,-13 6,-24 13,-34zm-161 506c117,-3 235,-2 352,-6 3,28 6,56 8,84 0,37 -3,74 -2,111 -124,1 -249,-1 -373,2 4,-64 10,-127 15,-191zm-1311 96c2,2 2,2 0,0zm3045 16c26,-6 53,1 76,13 40,21 72,54 99,89 35,46 63,98 82,153 18,50 30,104 27,158 -1,36 -10,75 -37,101 -20,18 -50,21 -75,15 -30,-8 -57,-26 -80,-46 -38,-33 -68,-74 -93,-118 -32,-57 -55,-119 -64,-183 -7,-46 -7,-94 12,-136 10,-22 29,-41 53,-46zm50 58c-13,4 -25,11 -33,23 -14,20 -18,46 -19,70 2,63 23,123 55,177 23,39 53,75 91,100 18,11 38,20 59,19 20,0 38,-14 47,-31 15,-28 15,-62 12,-93 -7,-51 -26,-99 -51,-143 -24,-41 -54,-79 -94,-105 -20,-12 -44,-22 -67,-17zm-3038 -54c27,-4 56,5 74,26 20,25 26,57 29,88 2,37 -3,74 -11,110 -17,67 -46,130 -85,187 -26,38 -59,74 -98,99 -27,16 -59,29 -91,21 -27,-6 -47,-30 -56,-56 -14,-34 -12,-72 -10,-109 11,-97 52,-191 112,-268 35,-43 79,-86 136,-98zm-50 61c-34,10 -61,34 -84,60 -39,45 -68,98 -84,155 -10,37 -15,75 -9,113 5,23 18,48 42,57 25,9 52,-1 73,-14 34,-21 61,-52 83,-85 27,-40 47,-86 58,-133 7,-32 11,-65 4,-97 -4,-19 -14,-39 -30,-50 -16,-10 -36,-11 -53,-6zm3092 4c25,-5 50,8 70,23 42,33 72,80 94,128 19,43 33,89 33,136 -1,22 -3,45 -17,62 -10,15 -30,21 -48,17 -30,-7 -55,-28 -76,-50 -33,-37 -57,-80 -75,-126 -16,-44 -27,-92 -20,-139 4,-21 15,-45 39,-51zm-3091 8c11,-4 24,-4 35,1 17,6 26,23 31,39 6,25 5,52 1,77 -9,53 -30,104 -59,149 -19,30 -43,58 -72,79 -19,13 -42,23 -65,17 -21,-7 -32,-29 -36,-50 -7,-44 3,-89 18,-131 18,-49 44,-95 79,-133 19,-21 41,-40 68,-48zm1288 17c125,-1 250,-2 376,-3 0,24 1,48 0,72 -21,1 -42,2 -64,2 -43,0 -86,3 -129,3 -62,3 -123,3 -184,6 1,-27 1,-54 1,-80zm-1124 27c17,6 33,16 50,23 228,107 456,213 684,320 6,14 2,29 2,43 0,29 -12,56 -24,82 -7,21 -19,39 -26,59 -14,35 -38,64 -58,95 -25,38 -57,71 -87,105 -11,14 -24,25 -35,38 -35,-15 -69,-33 -103,-51 -195,-98 -390,-197 -585,-295 -7,-4 -13,-8 -20,-12 19,-15 39,-28 56,-45 33,-33 60,-71 82,-112 41,-76 66,-163 64,-250zm2512 138c93,-46 188,-86 280,-134 2,19 1,38 3,57 15,100 58,197 124,274 21,25 47,46 74,64 5,2 2,9 -3,9 -225,118 -451,237 -676,355 -4,2 -9,5 -14,6 -17,-14 -33,-30 -48,-46 -17,-20 -37,-37 -53,-58 -18,-25 -35,-52 -53,-77 -19,-27 -31,-58 -42,-89 -22,-47 -35,-98 -31,-150 16,-11 35,-16 52,-26 129,-61 258,-123 387,-185zm-1129 -78c39,0 78,-3 117,-3 0,116 2,233 4,349 -1,106 1,211 2,316 1,147 2,294 4,441 -50,-1 -101,-1 -152,-1 2,-162 1,-324 1,-487 2,-67 1,-134 1,-202 1,-72 0,-145 1,-218 1,-35 0,-69 0,-104 1,-5 -2,-10 -5,-14 -23,1 -47,0 -71,1 -7,0 -14,5 -13,13 0,337 1,674 0,1011 -54,-1 -108,-1 -161,-2 -1,-74 1,-149 2,-223 1,-84 1,-168 3,-252 1,-55 2,-109 1,-164 1,-82 3,-164 4,-246 -1,-69 2,-138 2,-207 47,-1 95,-4 142,-4 39,-1 79,-4 118,-4zm-96 92c20,0 39,0 59,0 0,159 0,317 0,476 -2,70 -1,139 -1,208 -2,81 1,162 -1,242 0,28 -2,56 0,84 -19,0 -38,0 -57,-1 1,-336 0,-673 0,-1009zm230 53c0,-10 -1,-20 -2,-30 41,143 78,287 118,430 39,142 77,283 116,425 -75,43 -150,87 -224,131 -2,-71 0,-143 -2,-214 -1,-100 -3,-199 -3,-299 -1,-148 -3,-295 -3,-443zm-411 9c0,51 -1,101 -2,152 0,84 -1,168 -2,252 -2,73 -1,146 -2,218 -3,106 -2,211 -4,316 -69,-44 -137,-88 -206,-132 72,-269 144,-537 216,-806zm-358 133c10,-7 20,-17 33,-17 11,-1 25,-4 33,6 24,26 25,65 18,98 -18,56 -36,113 -66,165 -11,21 -21,42 -32,63 -10,18 -24,34 -36,51 -23,37 -55,66 -78,103 -15,15 -32,31 -53,35 -10,-1 -21,-4 -29,-9 -14,-12 -26,-28 -30,-46 -1,-21 19,-33 31,-48 12,-17 28,-30 40,-47 11,-16 29,-26 37,-44 23,-33 46,-66 68,-99 8,-13 12,-28 19,-42 4,-12 12,-23 16,-35 9,-24 22,-47 26,-73 3,-20 3,-40 3,-61zm1252 -4c21,-5 47,-5 62,13 2,14 0,29 1,43 8,51 29,99 47,146 16,35 37,67 58,98 21,31 49,58 73,87 15,18 35,30 50,46 1,13 1,27 -3,39 -15,16 -35,32 -59,30 -16,-1 -32,-3 -47,-8 -17,-19 -29,-42 -46,-62 -20,-21 -36,-44 -53,-67 -34,-48 -57,-102 -81,-155 -18,-47 -29,-96 -34,-147 -6,-25 10,-51 32,-63zm-1150 53c56,29 113,56 170,84 -37,136 -73,271 -110,406 -2,6 -8,7 -12,9 -24,10 -46,24 -70,32 -7,-1 -13,-5 -19,-8 -56,-23 -112,-47 -168,-70 -9,-3 -18,-7 -27,-12 15,-16 27,-36 42,-52 27,-28 48,-62 71,-93 25,-36 42,-76 62,-114 23,-43 37,-89 52,-135 6,-15 7,-31 9,-47zm956 75c51,-24 100,-50 151,-72 0,49 14,98 31,144 8,33 26,62 39,92 15,25 26,52 43,75 8,12 19,21 27,33 23,36 56,64 78,101 -46,24 -93,46 -139,71 -31,16 -63,31 -94,47 -30,17 -61,31 -91,47 -24,11 -46,24 -69,35 -57,28 -114,59 -171,87 -15,7 -29,16 -44,23 -8,4 -13,13 -22,11 5,-4 9,-8 14,-10 10,-2 19,-9 28,-14 57,-33 114,-67 171,-100 8,-4 5,-13 4,-20 -43,-155 -85,-311 -128,-467 57,-28 115,-55 172,-83zm-898 429c-9,25 -15,52 -22,78 -4,16 -11,32 -11,49 74,47 147,95 221,143 0,75 -1,149 -1,224 -20,12 -41,21 -61,31 -109,57 -219,112 -329,168 -13,6 -26,17 -41,16 -13,-14 -28,-25 -40,-40 -25,-32 -53,-63 -73,-99 -29,-52 -67,-99 -91,-154 -12,-25 -23,-51 -31,-77 -11,-33 -20,-68 -17,-103 154,-72 307,-145 461,-218 12,-6 24,-10 35,-18zm921 131c53,-26 105,-54 159,-80 4,-1 8,2 13,4 124,61 250,120 374,182 3,33 -5,66 -13,98 -5,14 -6,30 -12,45 -5,13 -12,25 -19,38 -13,34 -30,68 -52,98 -25,34 -47,70 -70,106 -9,16 -24,27 -37,40 -12,14 -25,27 -39,39 -6,5 -15,6 -22,1 -61,-30 -121,-62 -182,-92 -135,-69 -269,-138 -404,-206 1,-40 -1,-80 0,-120 38,-18 75,-37 112,-56 24,-12 49,-23 72,-36 40,-21 80,-41 120,-61zm-1477 65c9,-2 19,-3 28,1 22,22 18,56 23,85 9,43 22,84 39,124 20,41 40,82 67,118 15,27 32,51 48,78 22,30 45,59 70,86 13,14 30,24 39,41 5,12 0,24 -5,35 -17,28 -50,48 -83,44 -15,-12 -30,-25 -41,-42 -17,-25 -39,-45 -55,-70 -7,-9 -14,-17 -21,-26 -23,-32 -48,-62 -69,-95 -21,-43 -45,-83 -64,-127 -13,-38 -25,-76 -34,-115 -9,-32 -20,-68 -9,-101 15,-22 43,-30 67,-36zm2056 13c17,-2 35,-1 52,4 17,11 36,25 40,46 4,26 -6,51 -8,77 -6,44 -17,87 -36,127 -15,49 -40,92 -66,135 -14,21 -27,42 -40,64 -14,22 -33,41 -48,63 -11,14 -26,23 -37,37 -11,13 -25,24 -37,36 -6,6 -14,12 -23,9 -14,-4 -28,-8 -41,-16 -15,-12 -35,-22 -42,-42 -1,-6 -5,-15 -1,-21 24,-26 53,-47 76,-75 10,-9 17,-21 26,-31 13,-14 21,-32 33,-48 18,-29 41,-56 56,-88 26,-44 48,-90 58,-140 7,-20 8,-40 14,-60 4,-18 2,-36 4,-54 3,-9 8,-23 20,-23zm-1297 66c133,1 266,1 399,3 0,64 0,129 0,193 -133,1 -266,3 -400,3 0,-66 1,-133 1,-199zm-848 26c3,-1 6,-2 10,-3 4,21 8,43 15,63 9,23 13,48 22,70 8,24 16,47 30,68 19,38 37,77 63,111 19,29 40,56 62,83 20,30 46,56 67,85 3,4 -1,8 -5,9 -108,58 -216,116 -324,173 -5,3 -11,4 -17,7 -24,-22 -44,-46 -66,-71 -7,-9 -17,-16 -23,-27 -15,-28 -36,-51 -55,-76 -27,-38 -47,-81 -67,-124 -10,-19 -14,-41 -24,-60 -9,-20 -14,-40 -20,-60 -12,-26 -13,-55 -14,-82 12,-9 27,-14 40,-20 23,-12 46,-22 69,-34 21,-8 40,-20 62,-28 59,-27 117,-56 175,-84zm2244 10c1,-4 5,-9 9,-6 115,53 227,111 342,164 4,3 10,4 13,9 1,35 -5,71 -16,105 -12,24 -23,48 -34,73 -23,38 -41,79 -67,115 -19,26 -34,56 -57,80 -8,9 -14,20 -21,29 -14,14 -30,27 -41,43 -9,12 -21,25 -36,30 -58,-28 -115,-58 -172,-86 -44,-22 -87,-46 -132,-67 -11,-6 -24,-10 -33,-20 16,-19 37,-34 51,-54 14,-17 28,-33 41,-51 18,-34 44,-64 62,-99 9,-15 17,-31 27,-46 7,-15 12,-31 19,-45 7,-20 18,-38 23,-58 12,-38 15,-77 22,-116zm385 114c24,-20 59,-18 86,-5 14,6 25,19 29,34 5,35 8,71 3,107 -8,32 -24,61 -32,94 -13,37 -22,75 -38,111 -12,32 -26,63 -45,92 -17,26 -30,56 -51,79 -9,10 -18,20 -26,32 -13,17 -30,31 -42,48 -11,14 -22,27 -32,41 -9,8 -21,12 -32,17 -19,2 -39,2 -56,-7 -29,-13 -56,-38 -61,-70 -5,-17 9,-30 20,-41 32,-26 55,-61 85,-90 23,-28 42,-59 62,-89 19,-26 33,-56 52,-82 15,-23 24,-50 37,-74 7,-16 14,-32 19,-49 4,-24 11,-48 11,-72 0,-15 6,-29 5,-44 0,-11 2,-22 6,-32zm-3053 0c18,-7 42,-6 56,8 7,10 10,22 12,34 3,50 13,99 33,145 8,18 12,37 21,54 9,15 12,32 21,47 7,13 13,28 23,41 8,12 13,26 22,38 13,19 26,38 41,56 19,29 41,57 66,82 17,17 30,37 49,52 2,18 11,36 5,54 -23,23 -51,40 -78,57 -11,-3 -23,-6 -31,-14 -11,-10 -17,-25 -27,-37 -15,-19 -27,-40 -40,-61 -17,-27 -41,-49 -59,-75 -10,-16 -23,-29 -32,-45 -16,-27 -35,-52 -49,-79 -25,-48 -45,-98 -62,-149 -13,-27 -14,-57 -22,-85 -8,-27 -11,-57 -5,-85 11,-21 35,-30 56,-38zm1272 64c133,-2 266,-1 399,-3 2,59 -1,117 1,176 1,230 3,459 3,689 0,96 0,192 1,289 -51,-2 -102,-2 -152,-3 -1,-96 1,-191 3,-286 0,-100 1,-200 3,-300 1,-60 0,-120 1,-181 0,-39 2,-78 1,-117 -14,-14 -32,-33 -53,-21 -12,11 -28,20 -35,34 0,291 0,581 0,871 -58,-1 -117,-4 -175,-5 -1,-49 -1,-98 0,-147 0,-264 2,-529 1,-793 2,-68 0,-136 2,-203zm1898 103c3,-1 7,-1 9,-2 4,19 11,37 17,55 15,47 13,97 23,145 1,14 2,29 0,43 -31,19 -47,59 -39,94 -17,11 -37,18 -53,31 -14,11 -29,21 -43,31 -22,18 -49,28 -76,36 -21,8 -46,9 -68,3 8,-9 17,-18 25,-27 13,-14 23,-32 38,-45 13,-14 23,-30 32,-46 25,-38 49,-76 66,-119 17,-38 30,-78 44,-117 7,-28 13,-56 25,-82zm-3241 20c3,-8 8,-14 16,-17 13,29 21,61 33,91 22,55 47,110 82,159 11,17 20,35 33,51 12,13 20,28 31,40 20,24 41,48 54,77 -37,0 -75,5 -111,-7 -21,-7 -39,-21 -59,-31 -8,-5 -17,-10 -24,-17 -10,-9 -22,-16 -27,-29 -2,-9 -1,-19 -3,-28 -6,-31 -29,-57 -59,-65 0,-25 -6,-49 -2,-73 0,-21 8,-42 10,-63 12,-29 18,-59 26,-88zm1760 537c-2,-179 0,-358 -2,-536 128,173 256,346 383,520 3,20 2,40 2,60 3,98 2,197 4,295 2,101 1,202 4,303 -130,-121 -259,-243 -389,-363 -3,-53 -1,-105 -1,-158 -2,-40 -1,-81 -1,-121zm-630 -272c66,-87 130,-176 197,-262 -2,276 -1,552 -2,829 -133,111 -265,223 -399,334 0,-206 0,-413 0,-619 -2,-11 8,-18 13,-27 64,-85 128,-170 191,-255zm401 -107c7,-10 17,-18 27,-26 9,-5 17,4 23,8 12,8 6,23 7,34 0,133 -4,265 -4,397 -1,111 -3,221 -3,332 -1,67 -2,134 -3,201 -16,0 -32,0 -47,0 -1,-201 -1,-402 -1,-604 1,-114 0,-228 1,-342zm1782 69c18,-4 38,-4 54,6 27,15 40,49 32,79 -4,18 -17,35 -34,44 -24,13 -56,10 -76,-8 -18,-14 -27,-37 -25,-59 2,-29 22,-54 49,-62zm-3393 14c21,-6 46,-5 64,9 28,21 35,63 18,92 -12,23 -38,37 -64,34 -32,-1 -60,-28 -63,-60 -5,-32 14,-65 45,-75z"/>
  </g>
  <circle class="fil3 str4" cx="2496" cy="2500" r="705"/>
  <path class="fil1" d="M2038 2733l0 -361 -76 27 -33 -76 123 -54 106 0 0 464 -120 0zm338 -185c-26,0 -39,13 -39,40l0 26c0,10 3,18 8,24 6,6 15,9 25,9l99 0c10,0 18,-3 24,-9 6,-6 9,-14 9,-24l0 -26c0,-27 -13,-40 -40,-40l-86 0zm14 -192c-27,0 -40,13 -40,39l0 20c0,27 13,40 40,40l59 0c27,0 40,-13 40,-40l0 -20c0,-26 -13,-39 -40,-39l-59 0zm231 258c0,43 -10,75 -30,95 -20,21 -52,31 -95,31l-153 0c-43,0 -75,-10 -95,-31 -21,-20 -31,-52 -31,-95l0 -7c0,-33 9,-61 25,-83 14,-18 32,-30 55,-36 -20,-6 -36,-18 -48,-35 -12,-16 -18,-38 -18,-64l0 -7c0,-40 10,-70 30,-90 20,-19 52,-29 95,-29l126 0c44,0 75,10 96,29 20,20 30,50 30,90l0 7c0,26 -6,48 -18,64 -12,17 -28,29 -48,35 36,10 60,34 73,72 4,13 6,29 6,47l0 7zm279 27l-245 0 0 -93 159 -279 132 0 -159 279 113 0 0 -100 119 0 0 100 46 0 0 93 -46 0 0 92 -119 0 0 -92z"/>
 </g>
</svg>
