<?xml version="1.0" encoding="UTF-8" ?>
<!DOCTYPE svg PUBLIC "-//W3C//DTD SVG 1.1//EN" "http://www.w3.org/Graphics/SVG/1.1/DTD/svg11.dtd">
<svg width="1032pt" height="1016pt" viewBox="0 0 1032 1016" version="1.1" xmlns="http://www.w3.org/2000/svg">
<g id="#000000ff">
<path fill="#ffffff" opacity="1.00" d=" M 479.00 14.97 C 488.09 6.97 499.86 2.13 511.94 1.38 C 526.41 0.37 541.18 5.31 552.07 14.89 C 571.42 32.00 590.79 49.10 610.11 66.24 C 547.09 66.26 484.07 66.26 421.05 66.24 C 440.34 49.12 459.69 32.06 479.00 14.97 Z" />
<path fill="#ffffff" opacity="1.00" d=" M 184.76 132.72 C 193.14 113.13 213.60 99.52 234.94 99.51 C 421.28 99.47 607.62 99.52 793.95 99.49 C 801.86 99.38 809.81 100.82 817.09 103.95 C 836.82 112.14 850.75 132.56 850.83 153.97 C 850.84 261.65 850.83 369.33 850.84 477.01 C 850.77 497.20 850.97 517.39 850.73 537.58 C 748.88 608.04 647.19 678.77 545.40 749.32 C 527.71 760.95 503.32 760.96 485.61 749.37 C 383.79 678.83 282.13 608.04 180.22 537.62 C 179.90 472.06 180.18 406.49 180.08 340.92 C 180.08 278.95 180.08 216.98 180.08 155.01 C 180.08 147.36 181.67 139.72 184.76 132.72 M 390.02 251.19 C 364.22 265.76 340.70 285.26 324.10 310.00 C 310.20 330.69 302.13 355.15 300.68 380.02 C 299.01 404.42 302.99 429.39 313.49 451.58 C 320.81 466.96 330.89 481.03 343.09 492.91 C 356.08 506.31 371.46 517.32 388.04 525.85 C 427.04 546.12 471.55 552.73 515.05 553.58 C 557.65 554.03 600.50 549.71 641.71 538.60 C 642.35 537.19 642.29 535.67 641.74 534.26 C 638.02 522.52 634.26 510.80 630.58 499.05 C 590.82 510.33 549.37 516.22 508.01 514.43 C 483.38 513.47 458.61 509.94 435.35 501.49 C 418.17 495.25 401.88 486.02 388.67 473.28 C 374.41 459.87 363.33 442.87 357.92 423.98 C 348.48 390.30 353.72 352.01 374.55 323.53 C 389.06 303.49 409.32 287.99 431.63 277.54 C 458.24 265.26 487.86 260.53 517.02 261.00 C 549.98 261.13 583.91 267.28 612.36 284.69 C 627.80 294.10 641.64 306.85 650.16 322.98 C 658.99 339.86 661.60 359.77 658.20 378.46 C 654.91 395.53 645.98 411.47 633.22 423.26 C 625.88 430.05 615.96 434.61 605.80 433.60 C 602.43 433.38 598.80 431.64 597.67 428.25 C 596.07 423.57 597.58 418.57 599.02 414.05 C 602.23 405.11 604.83 395.97 607.76 386.94 C 612.09 374.13 615.56 360.34 612.66 346.81 C 610.03 333.57 600.61 322.66 589.42 315.62 C 572.78 304.74 552.52 301.28 532.96 300.73 C 514.13 300.43 495.10 302.97 477.36 309.46 C 457.28 316.78 438.94 328.81 424.21 344.29 C 411.76 357.37 402.59 373.94 400.01 391.95 C 398.06 404.77 398.57 418.54 404.76 430.21 C 411.62 443.81 425.07 453.02 439.32 457.52 C 454.78 462.35 471.36 462.97 487.31 460.54 C 496.14 441.12 505.14 421.77 514.08 402.39 C 513.66 401.84 512.83 400.75 512.41 400.20 C 504.19 402.16 495.28 403.69 487.07 400.97 C 481.33 399.19 478.97 392.53 479.88 387.03 C 480.75 378.72 486.89 372.10 493.73 367.87 C 501.77 362.75 511.76 361.32 521.09 362.80 C 525.72 363.64 530.64 365.54 533.18 369.77 C 536.59 375.40 536.09 382.51 534.30 388.60 C 530.60 399.81 526.78 410.99 523.13 422.21 C 520.94 429.81 518.60 438.10 521.22 445.89 C 523.63 453.07 529.86 458.14 536.38 461.52 C 550.42 468.73 566.47 470.20 581.99 470.68 C 601.00 470.65 620.24 468.08 637.96 460.97 C 652.02 455.49 664.95 447.22 675.96 436.94 C 691.42 422.81 702.52 403.76 706.23 383.08 C 709.53 364.50 708.32 345.12 702.73 327.10 C 697.48 310.29 687.94 295.00 675.94 282.18 C 663.11 268.57 647.72 257.55 631.31 248.67 C 597.30 230.37 558.42 222.91 520.07 222.19 C 475.30 220.99 429.44 229.22 390.02 251.19 Z" />
<path fill="#ffffff" opacity="1.00" d=" M 42.16 401.15 C 77.09 370.31 111.98 339.44 146.91 308.61 C 146.92 377.33 146.91 446.05 146.92 514.77 C 112.63 491.49 78.34 468.21 44.07 444.89 C 33.62 437.80 29.54 423.14 34.53 411.59 C 36.17 407.55 38.87 404.00 42.16 401.15 Z" />
<path fill="#ffffff" opacity="1.00" d=" M 884.35 308.60 C 918.36 338.59 952.31 368.65 986.31 398.66 C 989.35 401.30 992.46 403.99 994.58 407.48 C 1002.27 419.23 999.11 436.52 987.57 444.62 C 953.20 468.07 918.75 491.40 884.33 514.79 C 884.34 446.06 884.31 377.33 884.35 308.60 Z" />
<path fill="#ffffff" opacity="1.00" d=" M 0.00 511.60 C 1.16 498.73 12.19 487.75 25.07 486.70 C 33.10 485.66 40.82 489.10 47.05 493.91 C 137.72 555.52 228.43 617.09 319.10 678.70 C 228.50 766.24 137.88 853.78 47.27 941.32 C 39.19 949.55 25.88 951.60 15.61 946.44 C 7.17 942.53 1.37 934.15 0.00 925.03 L 0.00 511.60 Z" />
<path fill="#ffffff" opacity="1.00" d=" M 987.61 491.54 C 993.18 487.63 1000.21 485.85 1006.97 486.81 C 1016.40 488.00 1025.01 494.35 1028.84 503.07 C 1031.02 507.72 1031.34 512.94 1031.18 518.00 C 1031.16 652.66 1031.17 787.33 1031.17 921.99 C 1031.18 930.04 1027.33 937.97 1021.03 942.97 C 1010.65 951.68 993.92 951.32 984.27 941.66 C 893.52 854.03 802.80 766.35 712.06 678.70 C 803.90 616.30 895.77 553.94 987.61 491.54 Z" />
<path fill="#ffffff" opacity="1.00" d=" M 77.77 965.77 C 169.16 877.52 260.50 789.21 351.91 700.98 C 392.82 728.74 433.70 756.55 474.63 784.29 C 494.16 797.29 519.95 800.21 541.86 791.75 C 552.51 787.98 561.39 780.85 570.70 774.69 C 606.96 750.16 643.05 725.38 679.41 701.00 C 770.94 789.67 862.73 878.08 954.32 966.69 C 960.70 972.93 963.61 982.43 961.81 991.17 C 959.68 1003.84 947.93 1014.11 934.99 1013.98 C 656.99 1014.04 378.98 1013.97 100.98 1014.01 C 95.70 1014.13 90.23 1013.92 85.36 1011.65 C 74.78 1007.09 68.02 995.41 68.92 983.98 C 69.34 977.04 72.70 970.46 77.77 965.77 Z" />
</g>
</svg>
