<?xml version="1.0" encoding="UTF-8"?>
<!DOCTYPE svg PUBLIC "-//W3C//DTD SVG 1.1//EN" "http://www.w3.org/Graphics/SVG/1.1/DTD/svg11.dtd">
<!-- Creator: CorelDRAW 2017 -->
<svg xmlns="http://www.w3.org/2000/svg" xml:space="preserve" width="160mm" height="160mm" version="1.1" style="shape-rendering:geometricPrecision; text-rendering:geometricPrecision; image-rendering:optimizeQuality; fill-rule:evenodd; clip-rule:evenodd"
viewBox="0 0 16000 16000"
 xmlns:xlink="http://www.w3.org/1999/xlink">
 <defs>
  <style type="text/css">
   <![CDATA[
    .str0 {stroke:#DDAD10;stroke-width:7.62;stroke-miterlimit:22.9256}
    .fil0 {fill:#DDAD10}
   ]]>
  </style>
 </defs>
 <g id="Слой_x0020_1">
  <metadata id="CorelCorpID_0Corel-Layer"/>
  <path class="fil0 str0" d="M7834 633c247,7 495,15 743,22 -3,110 -8,219 -10,328 -105,0 -210,-6 -315,-7 -12,439 -26,878 -40,1317 -142,-4 -285,-8 -428,-13 16,-549 33,-1098 50,-1647zm-778 65c118,-17 236,-30 355,-44 66,545 133,1090 199,1636 -119,14 -237,29 -355,43 -30,-246 -61,-491 -89,-737 -50,253 -87,509 -132,764 -124,15 -247,30 -370,45 -66,-545 -135,-1091 -199,-1637 118,-13 236,-28 354,-42 30,243 59,487 90,731 52,-253 99,-506 147,-759zm1785 -26c123,18 245,44 368,65 -19,342 -32,685 -54,1027 90,-329 165,-661 249,-991 123,22 245,45 367,66 -90,310 -182,619 -273,929 -46,151 -86,305 -150,450 -25,60 -71,114 -134,138 -81,30 -170,19 -255,10 -105,-17 -210,-37 -314,-57 13,-69 25,-139 38,-208 43,6 86,19 130,10 33,-13 28,-54 29,-83 0,-452 1,-904 -1,-1356zm718 1818c170,-522 341,-1044 512,-1566 136,44 271,89 407,133 -61,187 -121,373 -183,559 39,15 79,27 119,40 61,-186 122,-372 182,-559 137,42 273,88 409,133 -171,521 -341,1044 -512,1566 -136,-44 -272,-89 -408,-133 70,-220 144,-439 215,-659 -40,-12 -80,-25 -119,-38 -72,219 -142,439 -216,658 -135,-45 -271,-89 -406,-134zm-3905 -1485c114,-31 256,-50 352,37 98,96 126,237 174,360 35,111 95,238 39,353 -74,130 -231,170 -363,216 72,211 148,419 218,629 -135,47 -269,94 -403,141 -183,-518 -363,-1038 -544,-1556 176,-60 349,-127 527,-180zm-30 302c47,134 92,268 141,400 35,-15 83,-26 96,-68 9,-58 -19,-113 -36,-167 -22,-55 -33,-117 -72,-163 -35,-34 -88,-10 -129,-2zm-1814 558c273,-158 547,-318 820,-476 218,375 437,750 654,1126 26,-16 51,-30 78,-43 103,182 211,361 314,543 -85,50 -170,99 -255,148 -48,-81 -95,-163 -143,-245 -199,116 -397,232 -596,347 45,83 94,163 141,246 -86,49 -170,100 -257,148 -103,-182 -210,-361 -314,-542 26,-15 51,-30 76,-45 -99,-429 -299,-827 -518,-1207zm503 86c167,282 299,584 403,894 65,-37 130,-77 196,-113 -159,-285 -327,-564 -489,-847 -37,21 -74,42 -110,66zm6331 940c273,-476 549,-951 823,-1426 103,58 205,119 310,177 -120,214 -245,424 -366,637 194,-168 382,-344 573,-516 103,59 206,119 309,178 -275,476 -549,952 -824,1428 -104,-60 -207,-120 -310,-179 121,-213 247,-424 366,-638 -190,171 -372,351 -559,526 -108,-62 -216,-123 -322,-187zm-3129 -156c1081,-93 2188,137 3140,659 776,423 1449,1034 1946,1765 423,620 719,1327 862,2064 214,1093 94,2250 -347,3274 -390,912 -1030,1715 -1831,2302 -790,582 -1737,949 -2713,1050 -715,74 -1444,12 -2135,-187 -703,-202 -1364,-545 -1935,-1002 -674,-538 -1222,-1234 -1584,-2016 -462,-991 -618,-2120 -451,-3200 149,-984 572,-1925 1206,-2692 692,-844 1636,-1479 2681,-1795 378,-115 768,-190 1161,-222zm74 323c-975,70 -1927,423 -2713,1003 -774,567 -1388,1350 -1752,2237 -424,1025 -507,2185 -241,3261 225,919 707,1771 1374,2441 579,583 1295,1029 2075,1286 653,217 1349,300 2035,252 -166,-873 -333,-1747 -434,-2630 -522,112 -1044,227 -1563,354 -219,54 -439,108 -654,176 -64,22 -131,40 -185,81 -36,-12 -45,-52 -56,-83 -34,-109 -49,-223 -66,-337 -40,-299 -63,-601 -82,-902 -14,-259 -27,-519 -24,-778 3,-70 -3,-147 44,-204 -54,-34 -116,-75 -130,-142 -22,-117 -54,-231 -62,-350 -5,-42 13,-81 27,-120 -32,3 -82,27 -96,-15 -14,-45 -7,-93 -6,-138 -74,-32 -146,-65 -219,-96 -196,-85 -404,-156 -569,-297 242,162 528,233 793,347 4,-34 8,-68 14,-101 -83,-38 -170,-64 -249,-109 83,34 167,65 251,95 12,-71 21,-144 51,-210 27,-61 80,-115 147,-126 29,1 55,16 82,22 -21,-20 -44,-39 -65,-60 -3,3 -9,10 -12,13 0,-24 8,-46 21,-66 25,30 53,57 83,82 22,-13 44,-25 67,-37 6,-5 17,-16 23,-22 20,15 42,26 66,34 -29,-26 -62,-45 -90,-71 73,2 139,32 196,75 -5,4 -17,13 -22,18 -26,-7 -51,-14 -76,-21 35,30 76,53 118,71 14,-6 28,-13 42,-20l-2 -14c28,2 56,0 83,3 44,10 79,42 112,71 11,11 22,23 32,35 14,16 27,36 51,35 -8,-10 -24,-31 -32,-42 71,9 139,32 192,81 -14,2 -41,6 -55,8 19,16 35,38 59,47 117,50 234,98 352,144 -6,3 -17,9 -23,13 -107,-44 -215,-90 -321,-137 18,36 46,66 78,90 33,27 56,65 92,89 107,44 216,84 324,127 -5,2 -14,7 -19,9 -98,-36 -195,-76 -292,-115 80,95 159,193 227,297 18,30 38,60 45,95 4,31 -26,51 -43,72 194,61 412,65 596,-29 173,-83 306,-245 353,-431 52,-196 18,-410 -84,-584l20 6c81,140 131,303 117,466 -16,203 -116,407 -290,520 -121,101 -281,140 -436,143 -109,2 -215,-27 -318,-60 -33,24 -65,48 -99,71 -17,18 -32,37 -46,57l-7 -3c-119,103 -236,209 -364,301 -29,22 -74,39 -72,82 6,213 6,426 4,640 -6,294 -4,589 -36,882 50,5 100,-7 148,-19 134,-34 265,-78 395,-122 450,-156 892,-331 1334,-506 34,41 56,93 99,125 -8,-27 -20,-53 -26,-81 0,-14 -12,-37 11,-40 -14,-510 -34,-1021 -9,-1532 14,-246 32,-495 100,-733l-15 -7c6,-3 19,-8 26,-11 60,10 99,-69 60,-113 -21,-36 -67,-33 -95,-59 27,2 54,8 80,15 77,-210 189,-413 354,-567 146,-140 335,-229 534,-261 -176,-133 -290,-347 -294,-569 -3,-144 43,-293 145,-397 90,-95 224,-146 355,-138 154,8 297,86 403,195 66,-49 164,-92 240,-39 69,53 63,152 44,228 98,-83 226,-139 357,-122 115,11 216,84 279,178 -8,-93 -21,-186 -30,-279 12,-2 36,-5 48,-6 11,94 21,189 33,283 -1,14 6,22 19,25 2,-97 7,-194 10,-290 12,0 36,1 49,1 -2,109 -12,218 -8,326 5,-3 14,-10 19,-14 19,-95 34,-191 53,-286 16,3 32,6 48,9 -20,107 -40,214 -58,321 4,1 13,3 17,4 31,-101 64,-202 96,-303 12,5 35,13 47,18 -35,105 -69,212 -102,318 6,6 18,18 24,24 40,-101 77,-203 116,-305 12,5 35,15 46,20 -42,108 -84,216 -122,325 61,-90 115,-184 171,-278 15,8 30,16 45,24 -57,94 -116,187 -172,282 6,3 18,11 24,15 63,-74 121,-152 182,-228 13,8 26,17 39,26 -58,83 -125,160 -187,241 7,5 20,15 27,20 57,-70 117,-139 176,-208 12,11 25,22 37,33 -60,68 -118,139 -178,207 8,9 17,18 25,27 58,-67 115,-134 172,-201 9,7 28,22 38,29 -56,69 -114,137 -173,204 7,8 15,16 23,25 55,-67 111,-132 167,-198 12,11 25,21 38,32 -57,67 -114,133 -171,200 6,6 17,18 23,23 54,-63 108,-127 163,-190 12,11 24,23 36,34 -57,63 -110,129 -165,193 8,8 17,16 25,24 50,-61 102,-119 152,-180 12,10 25,20 38,30 -49,62 -103,120 -153,182 4,8 10,24 13,32 57,-56 111,-115 166,-172 12,11 24,23 36,34 -55,62 -120,115 -167,183l16 9c55,-46 110,-94 163,-142 12,12 23,24 35,36 -56,48 -112,98 -168,146 4,7 13,23 18,31 50,-39 95,-83 145,-123 10,13 20,25 31,38 -49,42 -98,82 -145,126 5,7 13,22 18,29 49,-43 100,-86 149,-130 11,13 22,25 33,37 -52,45 -104,90 -156,135 2,4 5,12 6,16 55,-36 106,-76 161,-111 9,13 18,26 27,40 -46,32 -92,65 -138,97 -13,8 -22,19 -28,34 72,-21 140,-50 210,-75 4,12 12,36 16,47 -50,18 -99,36 -148,54 -17,8 -40,9 -48,28 71,-4 142,-11 213,-17 1,12 3,37 4,49 -64,7 -128,9 -192,17 -2,3 -6,9 -8,11 60,11 120,18 181,26 -2,16 -4,33 -6,49 -52,-6 -104,-14 -157,-21 3,9 7,27 9,35 36,7 72,8 108,13 -1,12 -4,36 -5,49 -33,-4 -66,-7 -99,-11 1,10 2,29 3,38 30,5 61,8 91,11 -2,16 -3,33 -5,49 -29,-3 -58,-6 -87,-9 -1,10 -2,31 -2,42 30,1 61,2 91,3 -1,17 -1,33 -1,49 -32,-1 -63,-2 -94,-2 0,8 -2,25 -2,33 31,1 63,2 95,2 0,12 1,38 1,50 -34,-1 -68,-2 -102,-3 -1,8 -3,23 -4,31 32,0 65,1 97,1 0,13 0,37 -1,50 -34,-1 -68,-1 -103,-2 -4,20 -7,40 -11,60 37,5 74,7 111,7 0,13 -1,38 -1,50 -40,-2 -79,-4 -119,-6 -4,17 -7,35 -11,52 41,4 82,9 123,13 -1,13 -3,37 -5,49 -43,-4 -86,-9 -130,-14 -36,139 -87,274 -156,400 -47,86 -125,147 -204,200 -90,59 -200,78 -306,70 5,30 8,61 22,88 18,40 58,62 85,94 61,71 101,158 127,247 13,44 4,96 34,134 51,92 92,189 133,286 632,60 1265,119 1894,212 213,-713 272,-1470 174,-2208 -93,-708 -335,-1397 -704,-2009 -446,-743 -1079,-1372 -1825,-1814 -918,-549 -2008,-801 -3074,-719zm1440 2939c-101,19 -192,80 -249,165 -78,115 -98,262 -72,397 36,196 162,378 341,469 79,39 170,63 259,51 60,-28 120,-58 185,-77 37,-9 62,-42 85,-70 88,-113 114,-266 91,-405 -31,-188 -144,-364 -308,-463 -99,-59 -218,-89 -332,-67zm1465 448c59,171 27,363 -69,514 88,117 171,237 253,359 98,151 202,301 266,471 179,-32 341,116 377,284 48,-177 75,-360 69,-543 -10,-161 -90,-308 -184,-435 -138,-184 -307,-342 -481,-492 -70,-62 -146,-117 -231,-158zm-845 501c-19,11 -19,21 -1,29 18,-11 18,-21 1,-29zm642 157c-109,85 -260,127 -394,82 -87,-26 -158,-89 -208,-163 -57,12 -121,13 -169,51 -59,42 -130,59 -199,75 -232,123 -428,321 -535,562 -70,182 -78,379 -67,571 22,203 97,399 194,578 68,108 154,204 249,288 -11,17 -23,34 -36,51 -75,-56 -136,-130 -195,-202 -78,-92 -127,-203 -173,-314 -49,-117 -82,-240 -102,-365 -41,63 -51,141 -78,211 -71,248 -150,504 -130,764 -22,4 -44,7 -66,10 -7,-82 -4,-165 7,-246 32,-241 102,-475 178,-704 -11,-8 -22,-16 -33,-24 25,7 50,1 51,-28 19,-73 66,-139 64,-217 6,-126 27,-253 67,-373 94,-235 273,-429 482,-567 -62,-9 -120,-31 -178,-55 -218,8 -432,103 -589,255 -158,150 -264,347 -337,550 21,48 -1,101 -41,130 -62,200 -83,411 -98,619 -37,569 -12,1139 3,1708 5,39 22,76 33,113 86,243 211,477 395,661 141,142 324,246 523,280 239,43 485,-9 708,-99 353,-142 681,-364 912,-670 287,-375 412,-860 379,-1328 -5,-145 -67,-292 -180,-386 -55,-53 -76,-136 -65,-210 -55,-27 -103,-69 -129,-125 -45,-96 -65,-206 -53,-312 21,3 43,6 65,10 -11,82 5,167 34,244 18,50 52,97 102,119 73,31 156,27 231,12 146,-51 248,-180 311,-315 46,-110 59,-243 -2,-349 -45,-75 -122,-141 -213,-144 -88,-4 -169,40 -237,92 -14,-16 -28,-33 -42,-49 46,-37 97,-66 151,-89 -46,-120 -115,-230 -184,-339 -97,-154 -204,-302 -308,-451 -35,27 -62,63 -98,88zm-4856 883c-75,61 -99,160 -116,250 -26,148 -53,297 -45,447 49,-2 106,-12 134,-56 53,-83 64,-183 77,-278 12,-83 8,-169 -14,-250 15,-5 30,-10 46,-15 13,22 26,44 39,67 28,-39 50,-81 80,-118 -33,-27 -64,-58 -103,-75 -35,-17 -71,9 -98,28zm-147 20c-75,29 -105,111 -120,183 -23,123 -45,248 -40,374 36,-6 79,-12 99,-48 12,-73 18,-147 31,-219 8,-59 34,-119 14,-179 42,-18 50,-66 70,-102 -17,-5 -36,-19 -54,-9zm414 38c-99,76 -126,206 -156,320 -34,144 -72,289 -70,438 48,-5 101,-4 140,-38 39,-36 59,-88 79,-137 -34,-37 -89,-80 -73,-137 29,-39 82,-48 123,-71 15,-82 18,-167 -1,-249 13,-6 27,-11 40,-15 21,18 29,47 44,70 30,-42 63,-82 109,-107 -31,-40 -68,-76 -112,-102 -41,-25 -88,5 -123,28zm284 106c-100,35 -142,144 -167,237 44,-16 88,-33 132,-50 34,-1 18,-35 17,-55 15,-5 30,-10 45,-16 5,10 15,30 20,40 40,-14 81,-27 121,-40 -22,-35 -52,-65 -84,-92 -23,-19 -53,-39 -84,-24zm-300 368c73,105 204,184 334,152 59,-25 107,-74 136,-130 14,-7 40,-21 50,1 11,17 8,39 11,59 6,106 10,214 -14,319 14,16 40,28 32,55 -14,25 -48,29 -67,50 -28,31 -49,68 -67,106 161,-100 323,-200 469,-321 -41,-79 -96,-151 -150,-221 -73,-92 -147,-182 -234,-261 -172,47 -337,118 -500,191zm416 183c18,7 36,14 54,21 0,-23 0,-45 0,-68 -19,14 -37,30 -54,47zm-833 34c-30,1 -37,-34 -50,-54 2,123 36,242 59,362 8,68 78,98 128,133 151,-66 330,-71 485,-17 66,19 61,94 67,148 27,-16 54,-31 75,-54 -24,14 -48,28 -73,39 44,-117 90,-239 179,-331 -3,-10 -8,-30 -11,-40 -76,-32 -152,-67 -229,-99 -48,40 -111,50 -171,49 -51,-22 -30,-89 -31,-132 -44,89 -152,121 -243,108 -47,-43 -21,-118 -20,-174 -43,45 -106,56 -165,62zm473 87c64,3 131,-22 156,-86 -51,-8 -95,-36 -142,-52 -14,44 -11,92 -14,138zm199 -77c65,41 141,63 210,97 2,-29 4,-57 5,-85 -28,-12 -55,-24 -83,-36 -42,16 -87,22 -132,24zm5470 1528c195,458 386,922 638,1353 343,-418 622,-889 820,-1393 -486,-16 -972,27 -1458,40zm-10274 -3967c302,-1189 920,-2298 1779,-3173 76,77 155,152 233,228 -815,838 -1407,1891 -1694,3025 -106,-27 -212,-54 -318,-80zm11583 -2743c76,-79 154,-156 232,-233 868,867 1502,1964 1818,3149 -106,28 -212,57 -318,84 -301,-1128 -904,-2176 -1732,-3000zm986 4099c209,-1 418,-3 627,-4 0,30 0,60 2,89 422,126 866,150 1304,149 1,316 4,633 6,949 -434,2 -868,6 -1302,8 0,29 0,59 -2,88 -209,0 -418,3 -627,3 -1,-98 -2,-197 -2,-295 94,-1 189,0 284,-3 -2,-230 -4,-459 -4,-689 -95,-2 -190,1 -285,0 0,-98 -1,-197 -1,-295zm632 533c1,77 1,153 2,229 326,-2 651,-4 977,-6 0,-43 0,-85 -1,-127 -328,3 -656,-31 -978,-96zm-14017 -437c550,-6 1099,-11 1649,-16 1,119 1,238 4,356 -249,6 -499,7 -748,8 249,76 500,144 749,217 1,124 2,248 4,372 -550,5 -1100,13 -1649,15 0,-119 -2,-238 -3,-357 246,-3 491,-3 737,-8 -246,-79 -493,-154 -739,-231 -2,-119 -2,-238 -4,-356zm33 1446c538,-110 1075,-221 1613,-331 30,140 58,280 87,421 -226,45 -452,92 -677,138 8,41 16,82 24,122 226,-46 452,-91 677,-138 30,139 58,280 87,420 -539,109 -1077,222 -1616,329 -26,-140 -58,-279 -84,-419 192,-38 383,-80 575,-116 -5,-42 -15,-83 -22,-124 -194,37 -387,82 -581,116 -24,-140 -57,-279 -83,-418zm13518 292c29,-140 56,-281 87,-421 537,111 1075,220 1613,328 -28,150 -60,298 -90,447 -25,111 -53,228 -130,315 -57,65 -148,87 -231,79 -125,-11 -247,-41 -369,-66 -89,-23 -193,-52 -236,-142 -61,-129 -18,-275 8,-407 -217,-45 -435,-89 -652,-133zm928 189c-7,33 -18,69 -3,102 15,31 52,41 83,51 61,14 122,26 183,38 34,5 74,13 105,-7 29,-26 35,-66 44,-101 -137,-27 -275,-56 -412,-83zm-1056 417c506,213 1013,425 1519,637 -46,110 -92,220 -138,330 -228,-95 -457,-191 -685,-287 197,170 395,339 593,508 -46,110 -92,219 -138,329 -507,-213 -1014,-425 -1520,-638 46,-109 92,-218 137,-328 232,92 461,192 691,288 -200,-166 -402,-330 -604,-495 48,-115 96,-230 145,-344zm-12210 161c161,-39 320,-84 485,-105 60,-9 125,-5 179,27 67,40 106,113 138,181 52,114 89,234 133,350 -66,25 -133,49 -200,73 -21,-46 -36,-150 -108,-119 -403,233 -804,468 -1205,704 -45,-116 -87,-233 -129,-351 306,-157 611,-315 914,-475 -327,96 -654,193 -982,289 -41,-118 -88,-234 -126,-353 301,-71 601,-148 901,-221zm-21 1475c386,-211 770,-426 1156,-638 69,125 138,250 207,375 -481,266 -962,532 -1443,798 -119,-218 -242,-433 -358,-652 97,-51 191,-106 287,-158 50,92 102,183 151,275zm11554 -241c78,-119 149,-243 228,-362 465,291 933,578 1399,868 -130,210 -261,421 -391,632 -93,-58 -187,-116 -280,-173 55,-90 110,-179 165,-268 -373,-233 -750,-461 -1121,-697zm-11420 1113c440,-329 880,-657 1320,-987 73,94 142,192 215,286 -197,151 -399,295 -593,447 242,-89 484,-178 726,-268 75,100 149,199 224,299 -440,329 -881,655 -1318,986 -76,-93 -145,-191 -217,-287 195,-148 395,-290 587,-442 -244,82 -487,171 -733,249 -69,-95 -141,-189 -211,-283zm10897 -363c76,-143 194,-255 294,-380 54,45 108,91 162,137 -27,35 -62,66 -74,110 -4,31 27,46 50,60 394,227 788,456 1183,682 -78,96 -161,188 -239,284 -288,-181 -570,-370 -859,-551 241,237 487,469 729,704 -80,94 -161,189 -241,284 -265,-274 -525,-552 -788,-827 -76,-83 -154,-164 -214,-258 -48,-74 -45,-170 -3,-245zm-640 605c107,-94 214,-189 322,-283 362,413 727,824 1089,1237 -108,94 -214,188 -321,282 -132,-146 -260,-294 -391,-442 -31,28 -62,55 -93,83 129,148 259,294 389,442 -106,96 -214,189 -321,284 -363,-413 -727,-824 -1090,-1237 108,-94 214,-190 322,-283 152,173 305,346 457,519 32,-28 63,-55 94,-84 -154,-172 -305,-345 -457,-518zm-8341 446c147,-166 292,-333 439,-499 107,94 215,189 322,284 -363,412 -726,825 -1089,1237 -133,-119 -270,-233 -399,-355 -80,-80 -164,-176 -162,-296 5,-118 92,-207 163,-293 85,-91 158,-198 266,-262 90,-51 199,-17 279,36 66,42 121,98 181,148zm-433 288c-36,43 -84,82 -96,139 -1,43 37,73 66,100 92,-105 183,-210 277,-314 -29,-28 -64,-63 -108,-54 -60,25 -96,83 -139,129zm1433 -652c86,49 171,98 256,148 -47,82 -94,163 -141,245 200,114 398,233 600,344 46,-82 94,-163 140,-244 86,49 171,98 256,147 -104,182 -209,362 -312,544 -26,-15 -52,-29 -77,-44 -191,173 -349,377 -497,587 -105,150 -200,306 -291,465 -274,-158 -547,-317 -822,-473 214,-378 433,-753 650,-1129 -26,-16 -51,-30 -76,-45 105,-181 209,-363 314,-545zm130 810c-162,279 -323,560 -485,840 38,21 73,45 113,61 161,-285 357,-548 573,-794 -65,-36 -129,-76 -195,-111l-6 4zm6316 -253c105,-67 214,-128 321,-192 279,474 562,946 838,1421 -105,58 -205,122 -309,180 -124,-212 -248,-424 -375,-634 55,252 113,504 170,756 -103,59 -203,125 -309,179 -277,-473 -558,-944 -836,-1418 104,-59 205,-121 308,-181 128,213 250,429 381,639 -64,-250 -125,-501 -189,-750zm-4796 1570c32,-104 64,-208 96,-313 1117,345 2325,391 3464,128 25,107 49,214 73,321 -1195,273 -2462,228 -3633,-136z"/>
  <path class="fil0 str0" d="M4586 4823c77,-7 127,62 139,131 48,214 -43,430 -9,646 18,138 95,263 197,355 135,124 287,227 438,327 224,146 453,283 691,405 8,-22 17,-45 25,-68 -27,-15 -55,-46 -35,-79 28,-33 79,-24 116,-13 37,11 84,40 72,86 -10,33 -49,39 -75,54 -22,10 -29,35 -42,54 58,33 114,71 180,87 12,-26 23,-53 32,-81 -17,-19 -53,-36 -39,-67 19,-45 79,-41 118,-29 39,10 86,44 70,90 -5,38 -48,38 -75,52 -15,14 -25,33 -37,50 28,23 51,52 79,74 31,22 70,12 105,12 9,-25 18,-50 26,-75 -18,-20 -53,-36 -41,-68 17,-42 73,-38 110,-29 42,9 100,44 80,95 -11,36 -58,30 -80,56 -11,13 -21,27 -30,40 19,17 41,32 53,56 -62,-17 -119,-80 -186,-53 -45,57 -62,131 -82,199 41,30 93,41 139,63 37,-62 72,-125 111,-186 4,0 14,1 18,2 251,141 526,237 766,399 103,68 194,154 258,261 -42,-38 -73,-87 -117,-124 -151,-137 -342,-215 -526,-295 -135,-59 -269,-118 -404,-177 -6,20 -13,40 -20,60 186,90 376,173 554,280 109,64 221,127 309,219 77,44 160,79 240,117 56,31 114,58 174,80 -17,-1 -34,0 -49,-7 -324,-133 -647,-269 -970,-405 -207,-89 -418,-169 -622,-266 -162,-73 -328,-148 -506,-168 -97,-12 -204,4 -277,74 -126,122 -223,282 -241,459 -13,123 24,250 102,346 -13,20 -21,42 -21,66 -4,5 -12,13 -16,18 -55,-26 -82,-82 -105,-135 37,34 56,87 105,106 0,-55 -54,-77 -84,-114 -14,-23 -14,-52 -22,-77 -20,-5 -33,16 -49,25 11,-37 47,-56 62,-90 -7,-5 -21,-15 -28,-20l-6 33c-6,-23 -15,-45 -29,-64 -10,17 -19,35 -28,53 1,-14 3,-42 4,-56 -155,-67 -321,-103 -473,-177 -68,-33 -141,-79 -160,-157 54,63 123,112 201,143 160,65 318,133 478,196l8 26c26,-40 20,-89 20,-134 -130,-38 -263,-71 -388,-125 -67,-30 -143,-69 -163,-147 -56,-2 -111,9 -160,37 -65,21 -112,76 -147,132 -73,125 -76,288 -5,414 61,111 166,190 273,255 78,46 159,87 244,118 -2,2 -6,5 -7,7 -38,-26 -86,-27 -129,-40 -183,-49 -357,-157 -458,-320 -50,-77 -56,-175 -43,-263 17,-128 84,-253 195,-322 111,-69 252,-74 374,-34 87,28 168,69 251,106 46,22 95,39 136,70 -160,-75 -331,-125 -504,-160 22,51 75,75 122,98 134,63 275,107 409,169 6,-28 11,-57 20,-85 14,-37 29,-74 42,-112 -50,-13 -98,-32 -142,-57 -21,10 -40,34 -66,28 -35,-6 -64,-28 -92,-49 38,6 78,33 116,16 25,-27 49,-74 25,-108 -26,-30 -68,-37 -104,-49 -16,14 -33,27 -48,42 15,-22 28,-57 60,-55 34,5 72,26 104,-1 -26,-14 -53,-28 -82,-14 17,-51 91,-20 112,16 -12,8 -24,17 -36,26 52,28 37,87 16,131 51,16 99,38 144,65 42,-77 95,-148 160,-208 45,-39 90,-82 149,-100 -40,-22 -81,-40 -123,-54 -180,-62 -362,-115 -545,-165 -197,-58 -406,-84 -609,-54 -88,11 -166,52 -238,102 58,-124 197,-169 321,-192 70,-2 141,-15 211,-7 175,20 341,82 505,143 168,66 334,139 497,218 81,-40 175,-29 263,-32 14,-29 29,-58 43,-87 -241,-92 -480,-187 -711,-301 -174,-86 -349,-172 -505,-287 -154,-117 -274,-292 -286,-489 -13,-162 -8,-347 105,-475 -23,174 -56,357 7,527 74,207 243,362 422,481 250,170 521,306 786,451 60,34 125,57 190,78 16,-33 33,-67 50,-101 -242,-113 -476,-246 -703,-390 -181,-119 -376,-235 -499,-419 -77,-112 -107,-246 -123,-378 -8,-144 30,-284 58,-424 12,-71 27,-147 0,-216 -16,-42 -57,-64 -90,-91zm1473 1734c5,22 20,39 36,56 -14,28 -28,56 -41,85 10,5 29,15 38,19 8,-29 7,-64 29,-88 17,-10 35,-19 53,-28 -32,-29 -71,-50 -115,-44zm247 107c8,19 21,35 35,50 -7,31 -24,58 -41,85 13,10 28,19 42,28 6,-30 8,-62 25,-88 15,-16 40,-17 56,-31 -32,-30 -73,-50 -117,-44zm-352 77c-31,67 -53,139 -80,207 49,15 99,30 148,45 47,-70 88,-143 128,-217 -42,-32 -90,-58 -143,-63 -21,-3 -46,6 -53,28zm605 25c-18,24 16,41 30,56 -14,30 -29,60 -45,90 11,3 32,9 43,12 7,-30 16,-60 29,-88 17,-6 34,-13 51,-19 -23,-37 -67,-50 -108,-51zm-348 65c-38,63 -51,136 -79,204 49,18 98,44 149,52 41,-68 79,-139 119,-208 -53,-36 -125,-81 -189,-48zm-70 9c-3,31 -40,77 -9,100 34,-13 39,-50 49,-80 -14,-7 -27,-13 -40,-20zm244 120c-3,25 -21,53 -11,77 32,9 35,-42 51,-62 -13,-5 -27,-11 -40,-15zm210 222c-1,10 -2,29 -3,39 265,130 533,254 804,374 -26,-21 -56,-35 -85,-49 -239,-120 -477,-244 -716,-364zm-2276 -2217c58,-56 122,-114 204,-129 -48,45 -108,77 -150,129 -205,244 -359,527 -485,819 -127,289 -249,581 -335,885 -36,136 -69,275 -70,416 2,54 6,116 46,157 41,38 102,18 144,-7 102,-60 182,-151 250,-247 24,-34 47,-69 78,-97 -63,119 -147,228 -245,320 -53,48 -120,91 -194,87 -54,-3 -90,-52 -103,-100 -27,-93 -21,-191 -11,-285 27,-220 87,-435 158,-645 91,-267 204,-527 338,-776 104,-189 222,-373 375,-527zm-61 316c51,-77 115,-143 168,-218 -17,74 -70,132 -103,198 -245,430 -480,871 -616,1349 -7,28 -19,54 -35,78 25,-90 47,-181 74,-270 115,-401 279,-790 512,-1137zm319 1238c65,-17 131,4 194,16 215,53 422,135 620,235 72,39 148,77 205,138 -270,-97 -511,-262 -786,-347 -76,-23 -155,-34 -233,-42zm933 598c100,-72 233,-87 348,-49 73,25 142,61 214,89 526,219 1057,426 1573,665 97,45 192,95 293,129 52,11 40,-51 35,-81 57,29 16,125 -46,99 4,13 8,25 12,37 18,3 36,6 54,8 -7,3 -20,8 -26,11 -16,-7 -32,-14 -48,-21 -9,-17 -18,-34 -27,-51 -20,-9 -41,-18 -61,-27 49,201 18,415 -63,602 -80,187 -212,354 -386,461 -159,93 -341,155 -528,149 -154,-2 -306,-44 -449,-100 14,-20 29,-39 46,-57 159,68 326,135 501,132 209,-15 397,-132 543,-277 144,-147 257,-344 246,-556 -10,-149 -42,-302 -128,-426 -55,-44 -124,-63 -190,-80 -211,-103 -428,-191 -643,-284 -29,88 -84,176 -180,199 179,75 358,149 537,224 -68,-1 -131,-33 -194,-58 -74,-29 -146,-64 -219,-94 -78,-38 -158,-69 -237,-106 27,1 55,2 82,4 -24,-16 -51,-32 -58,-62 -24,-75 7,-151 23,-223 -53,49 -53,127 -94,184 -61,119 -114,241 -173,361 -32,61 -68,122 -85,189l-6 -18c89,-248 187,-494 279,-742 -42,-27 -87,-46 -134,-62 -71,158 -140,316 -212,473 -27,56 -48,114 -85,164l4 -25c-13,0 -37,0 -50,1 -11,27 -24,55 -35,83 -4,-19 -5,-39 4,-57 58,-148 112,-299 174,-446 32,-80 66,-160 90,-243 -46,-20 -91,-40 -136,-60 -95,224 -196,446 -304,664 11,-34 23,-68 36,-102 -13,1 -40,4 -54,5 -13,27 -26,55 -39,82 13,10 26,21 40,31l-10 -1c-11,0 -32,-2 -43,-3 -5,12 -15,36 -20,48 -1,-17 -2,-35 6,-52 94,-240 187,-481 280,-722 -48,-15 -97,-26 -147,-34 -75,128 -120,270 -184,403 -38,88 -85,172 -115,263 -7,3 -21,8 -28,10 -44,-16 -87,-37 -133,-51 19,61 64,109 113,149 6,5 18,14 25,19 -6,6 -17,17 -23,22 -106,-60 -173,-175 -183,-296 -17,-186 64,-385 218,-494zm24 54c14,77 88,115 157,133 28,-71 58,-141 86,-212 -87,-5 -178,19 -243,79zm-90 122c31,82 114,127 187,166 19,-50 39,-99 57,-149 -38,-1 -78,0 -114,-15 -38,-16 -58,-55 -80,-87 -18,27 -45,51 -50,85zm491 64c-25,55 -49,112 -76,166 8,1 24,2 32,3 25,-56 52,-110 68,-169 -6,0 -18,0 -24,0zm-578 101c73,29 163,46 213,113 -71,-36 -149,-56 -220,-92 -4,25 -8,51 -13,77 74,17 140,53 206,89 -74,0 -140,-39 -206,-66 1,31 -8,68 11,96 44,33 111,32 143,81 41,-21 46,-71 61,-109 9,-22 18,-43 27,-65 16,-39 34,-77 45,-118 -76,-31 -153,-62 -230,-92 -15,28 -27,57 -37,86zm1192 -71c-17,67 -41,137 -24,207 5,26 36,32 47,54 32,8 61,-2 85,-23 -1,-5 -3,-15 -5,-20 39,-37 72,-82 88,-134 -64,-26 -127,-56 -191,-84zm-746 254c9,4 27,12 36,16 16,-37 32,-75 47,-113 -58,-7 -60,60 -83,97zm-38 78c12,2 36,7 47,9 8,-20 15,-41 23,-61 -44,-20 -56,21 -70,52zm286 26c-20,45 -40,89 -60,133 12,2 36,5 48,7 20,-48 39,-96 58,-144 -11,1 -35,3 -46,4zm1610 118c35,78 63,158 93,238 0,-69 -40,-140 1,-204 -31,-11 -63,-23 -94,-34zm-3291 -737c82,-49 182,-57 275,-51 85,5 163,44 241,73 -63,-4 -123,-31 -186,-39 -116,-21 -243,-3 -341,66 -146,102 -233,276 -251,451 -3,27 -9,54 -19,79l-5 12c-2,32 -1,63 0,95 -5,-4 -15,-11 -20,-15 4,-31 8,-62 14,-92l14 -18c6,-58 2,-116 15,-173 29,-158 125,-304 263,-388zm1344 417c49,-128 85,-266 171,-374 -7,93 -50,178 -86,263 -45,96 -88,193 -140,285 5,-62 36,-116 55,-174zm257 57c43,-115 80,-238 158,-336 -18,122 -76,234 -125,346 -36,71 -64,147 -108,214 15,-78 52,-149 75,-224zm373 259c51,10 98,35 148,51 133,54 264,116 398,167 78,29 156,75 242,67 46,-3 94,-38 94,-88 0,-51 -37,-89 -62,-129 53,27 116,76 101,144 -5,56 -54,91 -98,118 -11,100 -32,203 -85,291 -34,55 -92,97 -158,103 -92,10 -183,-22 -269,-53 5,-2 14,-7 19,-9 93,39 212,70 300,2 98,-81 124,-221 118,-342 -61,30 -57,101 -68,158 -16,82 -101,144 -185,130 -119,-17 -226,-76 -338,-117 6,-4 17,-10 23,-13 90,32 179,71 272,96 49,11 113,20 151,-23 42,-49 60,-115 56,-179 -63,-14 -126,-30 -185,-57 -176,-82 -347,-173 -525,-250 228,70 434,199 663,267 32,11 67,11 99,1 -9,-10 -21,-19 -34,-24 -158,-60 -313,-130 -467,-202 -71,-35 -145,-65 -210,-109z"/>
  <path class="fil0 str0" d="M9649 6946c17,8 17,18 -1,29 -18,-8 -18,-18 1,-29z"/>
  <path class="fil0 str0" d="M6147 7907c57,-182 117,-367 218,-530 -14,61 -20,125 -50,181 -57,116 -112,233 -168,349zm-2116 -146c-19,-47 -43,-121 1,-160 48,8 42,68 46,104 -6,30 -10,61 -14,92 -11,-48 -1,-107 -32,-147 -1,37 0,74 -1,111zm84 32c40,96 112,171 168,256 -6,-6 -19,-18 -26,-24 -21,8 -43,25 -66,12 -50,-23 -78,-74 -103,-120 40,42 74,97 137,107 -21,-63 -79,-104 -105,-165 -17,-37 -54,-3 -77,6 4,-49 52,-38 87,-34 -4,-9 -11,-28 -15,-38zm4018 154c115,33 222,90 331,140 11,-10 22,-18 34,-27 44,12 90,18 136,14 -11,74 -30,154 -86,209l0 -20c18,-55 37,-110 63,-162 -40,0 -78,-12 -114,-29 -21,46 -38,93 -56,140 28,18 55,36 81,58 15,10 19,24 13,41 -36,-44 -103,-65 -106,-130 -90,-28 -178,-62 -263,-103 -32,-17 -65,-32 -88,-60 124,40 244,94 359,156 9,-25 17,-51 24,-76 -113,-40 -228,-83 -328,-151z"/>
  <path class="fil0 str0" d="M6051 7745c11,-1 35,-3 46,-4 -19,48 -38,96 -58,144 -12,-2 -36,-5 -48,-7 20,-44 40,-88 60,-133z"/>
 </g>
</svg>
