<?xml version="1.0" encoding="UTF-8"?>
<!DOCTYPE svg PUBLIC "-//W3C//DTD SVG 1.1//EN" "http://www.w3.org/Graphics/SVG/1.1/DTD/svg11.dtd">
<!-- Creator: CorelDRAW X7 -->
<svg xmlns="http://www.w3.org/2000/svg" xml:space="preserve" width="150mm" height="150mm" version="1.1" style="shape-rendering:geometricPrecision; text-rendering:geometricPrecision; image-rendering:optimizeQuality; fill-rule:evenodd; clip-rule:evenodd"
viewBox="0 0 15000 15000"
 xmlns:xlink="http://www.w3.org/1999/xlink">
 <defs>
  <style type="text/css">
   <![CDATA[
    .fil0 {fill:#DE5E60;fill-rule:nonzero}
   ]]>
  </style>
 </defs>
 <g id="Слой_x0020_1">
  <metadata id="CorelCorpID_0Corel-Layer"/>
  <path class="fil0" d="M1431 7121l6 242 -382 9 8 335 382 -9 6 241 -938 24 -6 -242 369 -9 -9 -335 -368 9 -6 -241 938 -24zm49 -327l-33 260 -886 -471 33 -266 976 -234 -33 259 -174 39 -42 332 159 81zm-324 -162l27 -213 -326 66 299 147zm-445 -915l172 -508c28,-83 67,-138 118,-164 51,-26 115,-26 192,0 51,17 88,42 113,75 24,32 37,67 39,104 42,-63 103,-94 184,-94 29,1 61,7 96,18 83,29 137,69 163,121 26,52 25,119 -3,202l-185 546 -889 -300zm799 -353c-51,-17 -85,0 -102,51l-86 254 177 60 86 -254c18,-51 1,-85 -50,-102l-25 -9zm-369 -82c-51,-17 -85,0 -102,50l-73 216 178 60 73 -216c17,-50 0,-84 -50,-101l-26 -9zm741 -790c-41,100 -84,192 -127,276 -43,85 -93,136 -148,154 -55,18 -122,7 -200,-33l-346 -177 110 -215 346 177c18,10 36,12 52,7 16,-6 29,-18 38,-36 34,-65 69,-145 108,-239l-394 -201 110 -215 835 428 -110 215 -274 -141zm567 -348l-152 213 -559 -833 156 -219 970 254 -151 213 -172 -48 -194 274 102 146zm-209 -297l124 -174 -319 -96 195 270zm1173 -860c-124,156 -232,282 -322,377 -61,64 -120,96 -178,97 -58,2 -119,-28 -183,-88l-310 -296c-68,-65 -103,-127 -104,-187 -1,-60 30,-124 95,-192l333 -350 136 130 -296 310c-37,39 -36,77 2,114l83 79 246 -258 136 129 -246 258 92 88c15,14 31,21 48,21 17,-1 32,-8 45,-21 13,-14 27,-29 42,-45 15,-17 31,-34 47,-52 16,-18 32,-36 48,-55 16,-18 37,-42 62,-72 25,-30 56,-68 93,-112l131 125zm439 -963l41 382 -153 108 -347 -164 303 426 -197 140 -543 -765 207 -147 506 248 -69 -559 208 -148 544 765 -197 140 -303 -426zm906 -673c-22,-48 -57,-62 -106,-40l-208 94c-49,22 -62,58 -40,107l177 390c22,49 57,63 106,41l208 -94c49,-22 62,-58 40,-107l-177 -391zm397 292c38,85 47,156 26,212 -21,57 -75,104 -160,143l-306 138c-85,38 -156,47 -212,26 -56,-21 -104,-75 -142,-160l-177 -391c-39,-86 -47,-156 -26,-213 21,-56 74,-103 160,-142l305 -138c86,-38 157,-47 213,-26 56,21 103,75 142,160l177 391zm1410 -126l-235 55 -169 -732 -327 75 169 732 -235 54 -211 -914 797 -184 211 914zm91 -943l562 -42c93,-7 163,8 208,48 46,39 72,105 79,199l11 133c7,94 -9,163 -48,209 -40,46 -106,72 -199,79l-321 24 20 268 -241 18 -71 -936zm609 223c-4,-54 -33,-78 -87,-74l-267 20 22 294 268 -20c53,-4 78,-33 74,-86l-10 -134zm1100 54c6,-53 -17,-83 -70,-90l-226 -28c-53,-7 -83,16 -90,69l-54 426c-7,53 16,83 70,90l226 28c53,7 83,-16 90,-69l54 -426zm185 456c-12,93 -41,158 -89,195 -47,37 -118,49 -211,37l-332 -42c-93,-12 -158,-41 -195,-89 -37,-47 -49,-118 -37,-211l54 -425c11,-93 41,-158 89,-195 47,-37 117,-49 210,-37l333 42c93,12 158,41 195,89 36,47 49,118 37,211l-54 425zm1213 236c-26,90 -65,150 -117,179 -53,29 -124,31 -214,5l-155 -43 -26 90 -232 -66 26 -90 -155 -44c-90,-26 -150,-65 -179,-117 -29,-53 -31,-124 -6,-215l74 -257c25,-91 64,-150 117,-180 52,-29 124,-31 214,-5l155 44 25 -90 232 66 -25 90 154 44c91,25 150,64 180,117 29,52 31,124 5,214l-73 258zm-159 -324c15,-52 -4,-85 -55,-99l-116 -33 -118 412 116 33c52,15 85,-4 100,-55l73 -258zm-666 89c-15,52 3,85 55,100l116 33 117 -413 -116 -33c-51,-15 -85,4 -99,56l-73 257zm1505 956l-662 -340 428 -835 662 339 -86 167 -447 -229 -83 161 352 181 -85 167 -352 -181 -89 173 448 230 -86 167zm697 454c-173,-101 -313,-190 -420,-266 -71,-51 -112,-105 -121,-162 -10,-57 10,-122 61,-193l249 -350c54,-76 111,-120 170,-130 59,-10 127,13 204,67l393 280 -109 153 -349 -249c-44,-31 -81,-25 -113,19l-248 350c-12,16 -17,33 -14,50 3,17 12,31 27,42 16,10 33,22 51,35 19,12 38,25 58,38 20,14 41,27 61,41 21,13 48,30 81,50 33,21 74,46 124,77l-105 148zm410 368l-365 -316 123 -142 91 79 369 -425 -91 -79 123 -142 364 316 -123 142 -91 -79 -368 425 91 79 -123 142zm1012 80c41,-35 44,-73 8,-114l-149 -172c-35,-41 -73,-43 -113,-8l-324 281c-41,35 -44,73 -9,113l150 172c35,41 73,44 113,9l324 -281zm-166 463c-71,61 -136,90 -196,86 -60,-5 -121,-42 -182,-113l-220 -253c-61,-71 -90,-137 -85,-197 4,-60 42,-120 113,-182l324 -281c71,-61 136,-90 196,-85 60,4 121,42 182,113l219 253c62,71 90,136 86,196 -4,60 -42,121 -113,182l-324 281zm334 960l-130 -203 322 -206 -181 -283 -322 207 -130 -203 790 -507 130 203 -310 199 181 282 310 -199 130 204 -790 506zm139 299l-108 -238 1002 -63 110 244 -708 710 -108 -238 128 -124 -138 -305 -178 14zm361 -31l89 195 243 -227 -332 32zm204 983c-64,11 -118,2 -162,-25 -44,-28 -73,-68 -85,-120 -12,-52 -19,-102 -21,-150l177 -41 13 59c4,16 13,29 27,37 14,8 29,11 46,8l688 -118 167 725 -914 211 -54 -235 731 -169 -63 -274 -550 92zm11 1185l-61 -478 186 -24 15 120 559 -71 -15 -120 186 -24 61 479 -186 24 -16 -120 -558 71 15 120 -186 23zm957 145l-14 536c-2,88 -23,151 -64,192 -41,40 -102,59 -183,57 -54,-2 -97,-14 -130,-39 -33,-24 -56,-53 -68,-87 -22,72 -71,120 -149,144 -28,8 -60,12 -97,11 -87,-3 -151,-25 -191,-67 -40,-42 -59,-107 -57,-194l15 -577 938 24zm-658 573c53,2 81,-24 82,-78l7 -268 -188 -5 -6 268c-2,54 24,81 78,83l27 0zm376 -30c54,1 81,-25 82,-79l6 -227 -187 -5 -6 228c-2,53 25,81 78,82l27 1z"/>
  <path class="fil0" d="M1810 11737l-130 -204 323 -205 -180 -283 -322 205 -130 -204 792 -503 130 204 -312 198 180 282 311 -197 130 203 -792 504zm223 243l-170 -198 944 -340 175 203 -482 880 -170 -198 88 -155 -218 -255 -167 63zm339 -130l139 163 170 -287 -309 124zm805 3l404 352c66,57 102,115 107,172 5,57 -20,116 -73,177 -35,41 -72,66 -112,76 -39,10 -76,9 -111,-3 42,62 47,131 16,206 -11,27 -29,54 -53,81 -57,66 -115,102 -173,106 -58,4 -120,-23 -186,-81l-435 -378 616 -708zm22 873c36,-41 33,-79 -7,-114l-203 -176 -123 142 202 176c41,35 79,32 114,-8l17 -20zm216 -310c36,-40 33,-78 -7,-113l-172 -150 -124 142 172 149c41,35 79,33 114,-8l17 -20zm498 796c-95,-51 -182,-103 -262,-155 -80,-51 -126,-106 -138,-163 -12,-57 6,-122 53,-195l212 -326 203 131 -212 326c-11,18 -15,35 -12,51 4,17 14,31 32,42 61,40 137,84 226,131l241 -371 202 132 -511 787 -202 -132 168 -258zm325 544l-239 -106 707 -712 245 109 -58 1002 -239 -107 13 -177 -306 -137 -123 128zm249 -262l196 87 31 -331 -227 244zm851 503c-21,61 -55,105 -100,130 -45,26 -94,32 -146,18 -51,-15 -99,-33 -142,-54l49 -174 58 16c16,4 31,3 45,-5 14,-9 24,-21 29,-37l226 -661 717 200 -252 904 -233 -65 202 -723 -271 -75 -182 526zm992 -192l316 59c92,17 155,51 189,100 34,50 43,121 25,213l-14 79c-18,92 -51,155 -100,189 -50,34 -121,43 -213,25l-554 -103 172 -922 238 44 -59 316zm293 328c10,-53 -11,-84 -64,-94l-264 -49 -44 237 264 49c52,10 84,-12 93,-64l15 -79zm1115 399l-241 -8 12 -382 -335 -11 -12 382 -241 -8 30 -938 241 8 -11 369 335 10 11 -368 242 8 -31 938zm974 -114l-240 29 -68 -573 -251 611 -253 30 -112 -932 240 -28 69 572 251 -610 252 -31 112 932zm715 -181l-155 -556 -155 642 -245 69 -252 -904 232 -65 155 555 155 -642 245 -68 253 904 -233 65zm-502 -904c-112,31 -184,-9 -215,-121l-11 -39 168 -47 9 33c4,13 11,22 22,28 11,7 23,8 36,4l39 -10c12,-4 22,-11 28,-22 6,-11 8,-23 4,-36l-9 -33 168 -46 11 38c31,112 -9,184 -121,215l-129 36zm1265 646l-417 -840 216 -108 334 672 300 -149 -334 -672 216 -107 334 672 90 -45 161 324 -204 102 -90 -150 -606 301zm1523 -895l-604 435 -548 -761 604 -435 109 152 -408 294 106 147 321 -231 110 152 -321 231 113 158 408 -294 110 152zm708 -595l-183 157 -249 -290 -254 218 248 290 -183 157 -611 -713 184 -157 239 280 255 -218 -240 -280 184 -157 610 713zm450 -516l-158 182 -566 -493 -185 213 -142 -123 528 -607 142 123 -185 212 566 493zm-472 -913l306 -472c52,-78 106,-124 165,-137 59,-12 128,7 206,58l113 73c78,52 124,106 136,165 13,59 -6,128 -57,206l-176 270 225 146 -131 203 -787 -512zm546 -348c-45,-29 -82,-22 -111,23l-146 225 247 161 146 -225c29,-45 21,-82 -24,-111l-112 -73z"/>
 </g>
</svg>
