<?xml version="1.0" encoding="UTF-8"?>
<!DOCTYPE svg PUBLIC "-//W3C//DTD SVG 1.1//EN" "http://www.w3.org/Graphics/SVG/1.1/DTD/svg11.dtd">
<!-- Creator: CorelDRAW X7 -->
<svg xmlns="http://www.w3.org/2000/svg" xml:space="preserve" width="10.5mm" height="10.5mm" version="1.1" style="shape-rendering:geometricPrecision; text-rendering:geometricPrecision; image-rendering:optimizeQuality; fill-rule:evenodd; clip-rule:evenodd"
viewBox="0 0 1050 1050"
 xmlns:xlink="http://www.w3.org/1999/xlink">
 <defs>
  <style type="text/css">
   <![CDATA[
    .fil0 {fill:#DDAD10}
   ]]>
  </style>
 </defs>
 <g id="Слой_x0020_1">
  <metadata id="CorelCorpID_0Corel-Layer"/>
  <g id="_812634608">
   <g>
    <path class="fil0" d="M525 25c276,0 500,224 500,500 0,276 -224,500 -500,500 -276,0 -500,-224 -500,-500 0,-276 224,-500 500,-500zm-152 534c2,2 5,4 8,6l187 188c9,9 21,13 33,13 12,0 24,-4 33,-13 18,-18 18,-48 0,-66l-161 -162 160 -161c19,-18 19,-48 0,-66 -18,-18 -47,-18 -66,0l-186 187c-3,2 -6,4 -8,6 -10,10 -14,22 -14,34 0,12 4,25 14,34z"/>
   </g>
  </g>
  <g id="_812259072">
  </g>
  <g id="_812254528">
  </g>
  <g id="_812257120">
  </g>
  <g id="_812257344">
  </g>
  <g id="_812252288">
  </g>
  <g id="_812256128">
  </g>
  <g id="_812258944">
  </g>
  <g id="_812256672">
  </g>
  <g id="_812256000">
  </g>
  <g id="_812256800">
  </g>
  <g id="_812252960">
  </g>
  <g id="_812255328">
  </g>
  <g id="_812254048">
  </g>
  <g id="_812259232">
  </g>
  <g id="_812254816">
  </g>
 </g>
</svg>
