<?xml version="1.0" encoding="UTF-8"?>
<!DOCTYPE svg PUBLIC "-//W3C//DTD SVG 1.1//EN" "http://www.w3.org/Graphics/SVG/1.1/DTD/svg11.dtd">
<!-- Creator: CorelDRAW X7 -->
<svg xmlns="http://www.w3.org/2000/svg" xml:space="preserve" width="148mm" height="150mm" version="1.1" style="shape-rendering:geometricPrecision; text-rendering:geometricPrecision; image-rendering:optimizeQuality; fill-rule:evenodd; clip-rule:evenodd"
viewBox="0 0 14800 15000"
 xmlns:xlink="http://www.w3.org/1999/xlink">
 <defs>
  <style type="text/css">
   <![CDATA[
    .fil0 {fill:#7F8289}
   ]]>
  </style>
 </defs>
 <g id="Слой_x0020_1">
  <metadata id="CorelCorpID_0Corel-Layer"/>
  <path class="fil0" d="M12940 6864c316,316 316,828 0,1144l-4968 4969c-158,158 -365,237 -572,237 -207,0 -414,-79 -572,-237l-4968 -4969c-316,-316 -316,-828 0,-1144 316,-316 828,-316 1144,0l4396 4396 4396 -4396c316,-316 828,-316 1144,0l0 0zm-6112 1272c158,158 365,237 572,237 207,0 414,-79 572,-237l4968 -4968c316,-316 316,-829 0,-1145 -316,-316 -828,-316 -1144,0l-4396 4396 -4396 -4396c-316,-316 -828,-316 -1144,0 -316,316 -316,829 0,1145l4968 4968 0 0z"/>
 </g>
</svg>
