<?xml version="1.0" encoding="UTF-8"?>
<!DOCTYPE svg PUBLIC "-//W3C//DTD SVG 1.1//EN" "http://www.w3.org/Graphics/SVG/1.1/DTD/svg11.dtd">
<!-- Creator: CorelDRAW X7 -->
<svg xmlns="http://www.w3.org/2000/svg" xml:space="preserve" width="10.5mm" height="10.5mm" version="1.1" style="shape-rendering:geometricPrecision; text-rendering:geometricPrecision; image-rendering:optimizeQuality; fill-rule:evenodd; clip-rule:evenodd"
viewBox="0 0 1050 1050"
 xmlns:xlink="http://www.w3.org/1999/xlink">
 <defs>
  <style type="text/css">
   <![CDATA[
    .fil0 {fill:#DDAD10}
   ]]>
  </style>
 </defs>
 <g id="Слой_x0020_1">
  <metadata id="CorelCorpID_0Corel-Layer"/>
  <g id="_814903232">
   <g>
    <path class="fil0" d="M525 25c-276,0 -500,224 -500,500 0,276 224,500 500,500 276,0 500,-224 500,-500 0,-276 -224,-500 -500,-500zm152 534c-2,2 -5,4 -8,6l-187 188c-9,9 -21,13 -33,13 -12,0 -24,-4 -33,-13 -18,-18 -18,-48 0,-66l162 -162 -161 -161c-19,-18 -19,-48 0,-66 18,-18 47,-18 66,0l186 187c3,2 6,4 8,6 10,10 14,22 14,34 0,12 -4,25 -14,34z"/>
   </g>
  </g>
  <g id="_814903808">
  </g>
  <g id="_814901184">
  </g>
  <g id="_814901248">
  </g>
  <g id="_814903392">
  </g>
  <g id="_814901216">
  </g>
  <g id="_814900992">
  </g>
  <g id="_814904992">
  </g>
  <g id="_814904064">
  </g>
  <g id="_814903936">
  </g>
  <g id="_814902592">
  </g>
  <g id="_814904000">
  </g>
  <g id="_814908096">
  </g>
  <g id="_814905280">
  </g>
  <g id="_814908000">
  </g>
  <g id="_814903296">
  </g>
 </g>
</svg>
