<?xml version="1.0" encoding="UTF-8" ?>
<!DOCTYPE svg PUBLIC "-//W3C//DTD SVG 1.1//EN" "http://www.w3.org/Graphics/SVG/1.1/DTD/svg11.dtd">
<svg width="1048pt" height="1206pt" viewBox="0 0 1048 1206" version="1.1" xmlns="http://www.w3.org/2000/svg">
<g id="#ffffffff">
<path fill="#ffffff" opacity="1.00" d=" M 293.19 0.00 L 294.13 0.00 C 304.06 7.66 313.40 16.50 319.49 27.60 C 326.97 40.93 328.96 56.79 326.97 71.81 C 324.77 90.86 317.54 108.79 313.16 127.35 C 316.25 123.07 318.78 118.33 322.67 114.67 C 330.08 107.09 340.01 102.82 348.01 95.99 C 351.40 93.20 353.36 89.20 355.81 85.66 C 358.45 100.05 355.53 114.58 353.57 128.86 C 358.28 129.65 363.06 130.02 367.84 130.06 C 365.50 121.76 364.30 112.70 367.24 104.39 C 370.32 96.09 375.66 88.65 382.60 83.14 C 381.83 102.50 389.60 121.42 401.77 136.22 C 420.52 159.10 447.29 174.64 475.70 182.18 C 484.58 167.15 492.49 151.38 497.43 134.58 C 504.31 112.42 511.05 90.21 518.07 68.09 C 519.28 64.30 520.31 60.44 522.03 56.84 C 524.49 61.83 525.72 67.29 527.51 72.54 C 534.22 94.22 540.94 115.89 547.63 137.57 C 553.07 155.14 561.97 171.36 571.24 187.16 C 602.04 179.42 630.68 161.17 648.69 134.74 C 659.00 119.72 664.98 101.64 664.59 83.34 C 672.06 89.16 677.75 97.34 680.47 106.42 C 682.65 114.20 681.42 122.41 679.19 130.02 C 684.01 130.02 688.85 129.70 693.61 128.83 C 691.39 114.56 688.89 100.00 691.21 85.56 C 693.58 88.90 695.40 92.69 698.49 95.45 C 705.09 101.41 713.29 105.18 720.14 110.82 C 726.00 115.16 729.95 121.35 733.93 127.33 C 729.40 108.17 721.88 89.65 719.93 69.92 C 718.09 53.84 721.09 36.86 730.22 23.30 C 736.10 14.03 744.44 6.76 752.96 0.00 L 753.88 0.00 C 752.00 6.48 750.84 13.35 752.11 20.06 C 754.63 34.62 762.97 47.52 764.64 62.31 C 768.41 57.23 772.49 51.87 778.55 49.42 C 786.54 46.02 795.74 47.75 803.24 51.61 C 797.76 55.97 792.58 60.91 789.13 67.08 C 781.47 80.31 779.53 95.94 779.55 110.99 C 795.60 102.82 810.18 90.11 817.11 73.15 C 823.16 58.65 822.87 42.41 820.21 27.18 C 807.13 25.24 793.94 28.85 782.07 34.15 C 776.94 36.38 772.08 39.20 766.83 41.17 C 768.95 29.57 774.19 18.05 783.45 10.43 C 792.69 2.77 805.80 0.23 817.29 3.58 C 829.40 6.94 839.49 16.40 844.00 28.08 C 846.33 33.71 846.99 39.82 847.55 45.84 C 853.93 43.97 860.13 40.56 863.91 34.93 C 866.18 31.63 867.50 27.82 869.26 24.25 C 875.71 39.55 876.54 57.48 870.20 72.96 C 864.56 86.89 853.91 98.12 842.15 107.16 C 839.31 109.42 836.03 111.18 833.72 114.03 C 844.85 112.90 855.85 110.56 867.05 109.99 C 888.37 108.50 910.48 110.11 930.28 118.71 C 946.36 125.88 960.02 138.74 967.24 154.89 C 976.03 173.65 976.29 194.78 977.58 215.05 C 978.57 229.93 980.02 246.19 990.23 257.95 C 994.79 253.05 999.56 246.50 997.36 239.43 C 995.06 230.99 987.18 226.32 981.53 220.34 C 985.98 218.06 990.87 215.82 996.01 216.54 C 1001.04 217.04 1005.49 219.60 1009.69 222.23 C 1009.94 214.66 1011.09 206.82 1015.23 200.31 C 1019.49 193.25 1026.73 188.52 1034.37 185.79 C 1033.64 191.18 1032.62 196.59 1033.01 202.05 C 1034.01 217.27 1038.94 232.32 1036.85 247.67 C 1035.13 261.84 1027.57 274.67 1017.87 284.89 C 1011.45 292.23 1001.63 296.11 992.01 296.46 C 982.55 296.86 973.68 292.30 966.59 286.39 C 962.02 282.63 958.12 278.16 954.10 273.84 C 950.22 284.69 944.93 295.45 936.17 303.19 C 932.70 306.42 928.48 308.62 924.33 310.81 C 950.48 319.22 976.76 330.73 995.93 351.04 C 1007.26 363.01 1015.12 378.10 1018.89 394.11 C 1022.56 409.11 1023.06 424.64 1023.20 440.01 C 1023.50 453.87 1022.93 467.90 1025.73 481.57 C 1027.58 490.57 1031.29 499.52 1037.94 506.06 C 1040.86 509.03 1044.44 511.23 1047.54 514.02 C 1033.46 514.72 1018.61 511.55 1007.42 502.60 C 1002.03 498.53 997.91 493.13 993.97 487.71 C 991.35 491.76 988.72 495.86 985.30 499.29 C 976.25 508.70 963.34 512.96 953.92 521.93 C 950.19 525.34 947.59 529.74 944.25 533.51 C 939.19 524.71 938.08 513.88 941.59 504.33 C 927.55 508.91 913.45 513.35 899.71 518.78 C 887.51 523.75 874.87 528.96 865.29 538.30 C 861.38 541.95 859.13 546.98 858.37 552.22 C 863.95 555.52 870.49 557.47 877.01 556.69 C 886.83 555.81 895.33 550.31 903.25 544.87 C 906.75 552.31 908.72 561.66 904.10 569.08 C 899.77 576.45 891.40 579.60 884.01 582.96 C 890.13 587.25 897.44 590.45 905.07 589.88 C 913.39 589.49 920.82 585.14 927.38 580.35 C 925.50 565.44 921.35 550.17 911.72 538.31 C 908.40 534.02 903.88 530.95 899.70 527.58 C 909.55 525.13 920.26 524.30 929.94 527.93 C 936.66 530.37 942.41 534.77 947.65 539.53 C 956.35 525.10 970.57 513.49 987.33 510.20 C 996.48 508.34 1006.98 509.37 1014.21 515.78 C 1020.95 521.68 1022.66 531.45 1021.26 539.94 C 1019.81 547.84 1017.53 555.81 1013.00 562.53 C 1010.56 552.38 1009.26 541.14 1001.88 533.12 C 998.37 529.01 992.68 528.09 987.57 528.52 C 983.77 543.95 979.39 559.31 972.95 573.87 C 967.27 586.64 960.09 599.12 949.48 608.45 C 940.17 616.91 927.53 621.43 914.98 621.08 C 893.17 620.33 873.42 609.75 855.00 599.00 C 852.18 610.53 849.06 622.77 840.55 631.56 C 834.67 638.05 824.82 641.07 816.52 637.80 C 803.28 632.86 795.50 617.72 797.54 604.02 C 798.61 597.30 801.03 590.55 805.75 585.50 C 806.96 595.67 810.42 606.17 818.53 612.93 C 819.89 601.00 819.55 588.97 818.89 577.00 C 818.25 564.54 817.18 551.80 820.36 539.58 C 823.12 528.53 829.91 518.83 838.32 511.30 C 845.84 504.54 854.33 498.90 863.27 494.21 C 869.46 490.84 875.36 486.99 881.43 483.43 C 895.15 475.71 909.64 469.42 923.41 461.80 C 920.86 461.26 918.48 462.38 916.03 462.80 C 906.70 463.93 897.38 462.02 888.35 459.82 C 885.89 467.06 882.30 474.46 875.70 478.77 C 868.99 483.30 860.44 483.66 852.69 482.33 C 856.35 478.02 860.32 473.76 862.32 468.35 C 869.64 448.74 866.79 426.75 875.41 407.50 C 879.80 397.24 889.34 389.85 899.96 386.87 C 893.72 382.64 887.64 377.63 884.30 370.70 C 882.14 366.52 881.37 361.83 880.86 357.21 C 877.97 356.46 875.06 355.82 872.15 355.20 C 873.77 372.04 874.93 389.64 868.88 405.79 C 866.46 412.17 862.66 418.19 857.09 422.26 C 856.93 413.58 857.24 404.81 855.35 396.28 C 852.21 379.62 841.41 365.69 837.95 349.11 C 823.92 348.93 809.81 349.60 795.99 352.21 C 808.49 360.73 822.24 368.19 831.60 380.42 C 844.79 397.40 849.84 419.13 851.42 440.19 C 843.20 433.46 835.89 425.50 826.66 420.07 C 822.94 433.05 823.70 446.83 819.85 459.78 C 817.28 468.94 812.26 477.11 807.04 484.97 C 813.53 487.65 821.37 488.31 827.55 484.45 C 836.33 479.40 840.75 469.90 845.99 461.70 C 846.87 470.19 845.91 478.77 844.37 487.14 C 842.75 494.91 839.57 503.14 832.65 507.67 C 825.98 512.00 817.41 511.24 810.18 508.86 C 805.41 507.19 800.34 505.83 796.26 502.74 C 792.29 497.72 791.45 491.08 788.23 485.64 C 775.81 523.96 766.22 563.62 764.65 604.03 C 763.13 640.73 770.14 677.07 778.15 712.71 C 786.92 752.28 793.79 792.44 794.97 833.03 C 795.94 842.95 796.31 853.00 795.08 862.92 C 793.96 883.40 789.32 903.84 780.22 922.29 C 774.41 934.45 765.96 945.07 757.23 955.23 C 743.25 968.98 727.14 980.53 709.91 989.88 C 675.64 1008.52 638.45 1020.75 602.50 1035.63 C 578.40 1045.70 554.44 1056.78 533.33 1072.36 C 529.91 1074.80 526.91 1077.83 523.19 1079.85 C 493.35 1054.84 456.70 1040.24 420.85 1026.17 C 395.29 1016.12 369.50 1006.49 345.01 994.00 C 319.90 981.30 295.97 964.74 279.06 941.92 C 269.00 928.76 261.93 913.47 257.55 897.54 C 251.35 875.28 250.98 851.89 252.25 828.97 C 253.47 803.23 256.35 777.58 260.97 752.23 C 268.81 708.30 281.93 664.97 282.58 620.03 C 283.32 574.14 273.18 528.75 258.60 485.46 C 256.30 490.60 254.97 496.18 252.06 501.04 C 250.31 504.22 246.47 505.14 243.43 506.62 C 235.15 509.81 225.63 512.80 217.04 509.01 C 208.91 505.53 204.97 496.72 203.09 488.61 C 201.22 479.82 200.35 470.73 201.06 461.75 C 206.36 469.88 210.73 479.39 219.48 484.43 C 225.69 488.34 233.60 487.68 240.14 484.97 C 235.41 478.02 230.95 470.79 228.26 462.78 C 223.32 449.02 224.42 434.05 220.49 420.05 C 211.23 425.42 203.92 433.40 195.73 440.17 C 197.32 418.71 202.54 396.46 216.35 379.41 C 225.62 367.68 239.05 360.59 251.08 352.17 C 237.64 349.82 223.92 348.67 210.28 349.28 C 208.33 349.16 208.56 351.55 208.02 352.81 C 204.96 366.00 196.85 377.27 193.22 390.27 C 190.02 400.56 190.07 411.44 189.92 422.11 C 181.43 415.84 177.29 405.54 175.34 395.49 C 172.74 382.21 173.73 368.59 174.95 355.21 C 172.12 355.88 169.04 355.97 166.46 357.42 C 165.37 361.60 165.12 366.04 163.15 369.96 C 159.84 377.16 153.66 382.52 147.14 386.78 C 156.85 389.87 166.05 395.97 170.60 405.36 C 180.60 424.92 177.11 448.00 184.77 468.27 C 186.72 473.72 190.65 478.04 194.46 482.27 C 186.46 483.77 177.51 483.22 170.72 478.29 C 164.49 473.91 161.17 466.73 158.72 459.76 C 147.62 463.04 135.90 463.85 124.46 462.08 C 135.42 468.55 147.21 473.48 158.40 479.53 C 166.08 483.33 173.14 488.20 180.59 492.40 C 191.25 497.92 201.50 504.48 210.29 512.72 C 216.56 518.73 221.91 525.89 224.97 534.08 C 227.82 541.69 228.92 549.87 228.87 557.97 C 228.84 576.28 226.22 594.65 228.63 612.91 C 232.31 609.40 235.63 605.38 237.63 600.66 C 239.82 595.89 240.30 590.61 241.30 585.52 C 251.80 597.13 252.80 616.52 242.78 628.76 C 237.84 635.00 230.14 639.57 221.99 639.07 C 214.33 638.69 207.59 633.77 203.30 627.66 C 197.17 619.25 194.51 608.99 192.19 599.01 C 176.65 607.89 160.60 616.75 142.77 619.95 C 130.27 622.39 116.70 620.96 105.68 614.30 C 94.96 607.89 86.96 597.83 80.83 587.11 C 70.50 568.91 64.57 548.67 59.52 528.49 C 54.62 528.14 49.17 528.85 45.64 532.63 C 38.01 540.63 36.50 552.05 34.17 562.38 C 30.29 557.28 28.55 550.95 26.87 544.87 C 24.54 536.13 24.62 525.85 30.41 518.43 C 36.63 510.62 47.49 508.37 56.97 509.74 C 74.85 512.23 90.32 524.31 99.43 539.58 C 106.37 533.12 114.66 527.58 124.19 526.07 C 131.88 524.82 139.72 525.84 147.27 527.44 C 143.27 531.05 138.62 533.99 135.32 538.33 C 126.03 549.84 121.86 564.54 119.87 578.97 C 119.34 580.47 121.14 581.19 122.02 582.01 C 128.18 586.33 135.31 589.81 142.97 589.95 C 150.35 590.22 157.37 587.06 163.25 582.82 C 155.47 579.68 146.86 576.15 142.63 568.38 C 138.47 561.04 140.52 552.12 143.86 544.89 C 151.98 550.53 160.82 556.10 170.95 556.80 C 177.17 557.46 183.19 555.24 188.64 552.46 C 187.99 542.08 179.28 534.94 171.02 529.99 C 150.60 518.11 127.66 511.79 105.45 504.26 C 108.92 513.76 108.07 524.66 102.81 533.34 C 99.66 530.06 97.45 526.00 94.14 522.86 C 85.02 513.54 72.11 509.29 62.76 500.25 C 58.88 496.61 56.08 492.06 53.07 487.72 C 48.26 494.89 42.30 501.40 34.86 505.91 C 24.54 512.46 12.03 514.33 0.00 514.08 L 0.00 513.38 C 3.32 510.94 6.79 508.65 9.65 505.65 C 16.20 498.91 19.82 489.85 21.57 480.73 C 24.26 466.66 23.64 452.27 23.93 438.02 C 24.15 420.46 25.05 402.60 30.62 385.81 C 36.59 366.98 49.10 350.60 64.83 338.82 C 80.65 326.90 98.96 318.75 117.69 312.58 C 119.99 311.87 122.19 310.88 124.27 309.66 C 120.28 309.65 116.77 307.65 113.65 305.36 C 103.23 297.77 97.33 285.73 93.14 273.87 C 85.98 281.22 79.02 289.31 69.37 293.46 C 58.37 298.82 45.01 296.54 35.00 290.07 C 30.87 287.23 27.77 283.23 24.57 279.44 C 15.65 268.72 9.87 255.09 9.80 241.03 C 9.41 227.19 13.77 213.78 14.17 199.99 C 14.32 195.24 13.38 190.56 12.80 185.87 C 20.40 188.54 27.57 193.27 31.84 200.26 C 36.03 206.81 37.13 214.73 37.42 222.36 C 41.37 219.97 45.35 217.28 50.02 216.64 C 55.54 215.73 60.98 217.86 65.68 220.58 C 59.41 226.24 51.63 231.57 49.50 240.26 C 47.92 247.15 52.50 253.38 57.05 258.03 C 61.73 252.11 65.06 245.15 66.65 237.78 C 70.38 221.11 69.55 203.91 71.56 187.03 C 73.31 170.52 78.19 153.82 88.58 140.60 C 99.34 126.58 115.57 117.53 132.56 113.37 C 159.72 106.69 188.05 109.79 215.22 114.73 C 200.30 104.25 185.36 92.16 177.80 75.07 C 170.44 59.17 171.26 40.32 177.70 24.26 C 180.11 28.79 181.76 33.85 185.38 37.62 C 189.07 41.84 194.31 44.17 199.55 45.83 C 200.09 38.82 201.13 31.68 204.31 25.32 C 209.42 14.40 219.58 5.95 231.34 3.18 C 242.88 0.31 255.77 3.36 264.66 11.30 C 273.25 18.97 278.48 29.96 280.09 41.27 C 275.01 38.26 270.40 34.48 265.01 31.99 C 253.39 26.08 239.84 24.77 227.10 27.07 C 223.59 44.17 224.16 62.89 232.53 78.55 C 240.17 92.94 253.35 103.62 267.57 111.12 C 267.61 95.08 265.37 78.27 256.41 64.59 C 253.19 59.31 248.24 55.53 243.88 51.27 C 251.34 48.22 259.92 45.98 267.74 49.10 C 274.20 51.38 278.45 57.03 282.53 62.21 C 284.17 46.95 293.10 33.71 295.21 18.57 C 296.20 12.32 294.97 5.99 293.19 0.00 M 251.20 154.21 C 247.99 164.02 240.04 171.90 230.31 175.25 C 235.17 184.67 237.01 196.07 233.19 206.19 C 228.13 221.06 217.14 233.04 212.09 247.92 C 209.31 255.36 208.69 263.36 208.76 271.24 C 203.13 266.97 200.51 259.78 199.65 252.99 C 197.68 237.14 204.72 221.79 203.11 205.96 C 202.49 197.11 194.18 190.11 185.53 189.81 C 175.56 189.57 165.06 187.37 157.31 180.73 C 151.72 176.13 148.51 169.47 146.19 162.77 C 145.71 170.12 146.38 177.51 147.53 184.77 C 149.05 193.09 153.23 201.89 161.40 205.43 C 171.86 210.29 183.65 207.85 194.59 206.44 C 193.28 217.96 190.34 230.31 181.53 238.51 C 176.05 243.75 168.07 244.89 160.79 244.38 C 176.32 255.91 191.11 269.23 200.37 286.49 C 207.91 285.58 215.46 284.85 222.99 283.94 C 219.90 267.75 218.96 249.95 226.92 234.94 C 233.49 221.97 246.90 213.86 260.71 210.60 C 281.69 205.66 303.37 209.28 324.10 213.70 C 320.56 211.20 316.56 209.48 312.90 207.18 C 305.77 202.85 299.28 197.51 293.46 191.54 C 292.27 190.43 291.23 189.05 289.65 188.48 C 277.85 184.38 267.10 177.48 254.75 174.95 C 258.58 168.42 265.34 164.43 271.93 161.15 C 264.75 159.72 257.72 157.57 251.20 154.21 M 774.99 161.20 C 781.72 164.25 788.60 168.32 792.25 175.01 C 780.35 177.25 770.12 184.12 758.73 187.86 C 755.88 188.64 754.07 191.08 752.07 193.06 C 744.64 200.56 735.96 206.86 726.39 211.34 C 726.35 211.73 726.28 212.51 726.24 212.90 C 729.41 212.83 732.44 211.83 735.54 211.26 C 751.87 207.99 768.91 206.91 785.30 210.41 C 800.30 213.41 814.72 222.69 821.22 236.90 C 828.03 251.58 827.04 268.40 824.09 283.92 C 831.55 284.99 839.10 285.42 846.56 286.53 C 856.02 269.38 870.65 255.88 886.27 244.40 C 878.98 244.88 870.97 243.78 865.50 238.48 C 856.67 230.25 853.81 217.84 852.48 206.29 C 861.68 207.65 871.20 209.55 880.42 207.24 C 887.11 205.77 893.16 201.42 896.10 195.15 C 900.89 185.23 901.14 173.81 900.94 163.00 C 898.71 168.68 896.25 174.48 891.88 178.87 C 885.59 185.26 876.73 188.44 867.97 189.39 C 864.18 189.90 860.26 189.49 856.61 190.74 C 850.36 192.82 845.06 198.27 844.11 204.92 C 842.16 221.19 849.49 236.98 847.45 253.24 C 846.48 259.90 844.04 266.95 838.42 271.09 C 838.31 263.52 837.82 255.83 835.25 248.65 C 829.96 232.35 817.32 219.50 812.88 202.85 C 810.31 193.58 812.57 183.71 816.74 175.27 C 807.03 171.85 798.96 164.00 795.91 154.09 C 789.43 157.76 782.21 159.67 774.99 161.20 M 341.78 180.16 C 344.52 184.34 348.02 187.98 351.87 191.16 C 363.45 201.01 379.23 204.15 394.07 203.31 C 392.94 199.76 389.80 197.31 387.36 194.64 C 375.36 183.08 357.93 179.60 341.78 180.16 M 683.03 182.24 C 670.85 185.19 659.42 192.47 652.65 203.15 C 659.43 203.67 666.30 203.31 672.96 201.88 C 685.93 199.08 697.98 191.33 705.25 180.15 C 697.80 179.98 690.30 180.51 683.03 182.24 M 282.44 243.78 C 277.41 244.80 272.44 246.49 268.10 249.26 C 268.07 249.63 268.03 250.38 268.01 250.76 C 279.79 256.57 294.07 252.64 303.91 244.78 C 303.84 244.52 303.71 243.99 303.65 243.73 C 296.64 242.62 289.43 242.42 282.44 243.78 M 742.68 244.07 C 749.03 249.76 757.46 253.20 765.99 253.47 C 770.70 253.45 775.86 252.96 779.70 249.97 C 769.08 242.58 755.08 241.62 742.68 244.07 M 683.53 268.71 C 697.62 270.46 711.55 266.83 725.53 265.68 C 724.39 259.97 723.93 254.13 724.43 248.32 C 710.02 253.27 695.76 259.55 683.53 268.71 M 322.68 248.36 C 323.14 254.14 322.76 259.97 321.55 265.64 C 335.67 266.93 349.75 270.39 363.98 268.72 C 351.36 259.88 337.29 253.18 322.68 248.36 M 351.90 288.57 C 366.08 290.10 380.26 292.04 394.13 295.45 C 387.68 287.73 380.53 280.61 372.84 274.12 C 365.41 278.25 358.89 283.77 351.90 288.57 M 674.26 274.20 C 666.86 280.61 659.50 287.25 653.63 295.13 C 667.31 292.11 681.17 289.96 695.11 288.55 C 688.15 283.79 681.68 278.27 674.26 274.20 M 327.32 368.33 C 324.77 374.68 325.42 381.78 326.66 388.36 C 334.19 389.16 342.17 388.55 348.91 384.81 C 359.42 379.09 366.84 369.43 375.92 361.88 C 383.81 354.89 393.12 349.64 402.96 345.93 C 403.28 343.66 403.57 341.38 403.86 339.11 C 376.08 340.10 348.76 350.73 327.32 368.33 M 640.24 339.15 C 640.50 341.05 640.75 342.95 640.99 344.86 C 650.63 348.17 659.93 352.71 667.86 359.17 C 677.80 366.79 685.59 376.97 696.23 383.73 C 703.39 388.22 712.16 389.31 720.44 388.39 C 721.73 381.81 722.32 374.70 719.79 368.35 C 697.59 350.12 669.06 339.20 640.24 339.15 M 348.04 425.06 C 339.73 429.83 329.65 432.80 320.15 430.14 C 307.80 426.86 298.35 417.42 290.59 407.73 C 282.35 414.84 279.70 426.04 274.20 435.08 C 268.55 430.03 263.50 423.99 261.09 416.70 C 259.60 412.58 259.64 408.15 259.20 403.86 C 251.46 419.08 256.26 436.54 258.93 452.42 C 305.79 449.86 352.62 445.22 398.76 436.50 C 399.01 433.29 399.16 430.08 399.19 426.88 C 392.06 429.16 384.83 431.45 377.32 432.01 C 379.29 429.42 381.68 427.18 383.63 424.58 C 390.45 415.29 392.77 403.64 398.94 393.98 C 400.35 392.01 400.60 389.56 400.87 387.23 C 380.59 395.82 366.96 414.30 348.04 425.06 M 643.25 386.30 C 643.99 387.97 644.96 389.53 646.08 390.99 C 653.61 400.70 655.74 413.31 662.63 423.40 C 664.74 426.56 667.54 429.15 669.98 432.04 C 661.23 431.33 652.81 428.63 644.65 425.50 C 644.77 428.95 645.04 432.40 645.29 435.85 C 692.43 444.97 740.31 449.92 788.25 452.34 C 790.45 438.31 794.53 423.69 790.24 409.64 C 789.53 408.04 789.50 405.80 787.76 404.94 C 788.21 416.77 781.78 427.68 772.87 435.03 C 767.63 425.89 764.45 415.30 756.93 407.65 C 751.88 413.01 747.19 418.83 741.14 423.14 C 733.40 428.95 723.43 432.58 713.70 430.62 C 701.29 428.28 691.11 420.18 681.53 412.45 C 669.61 402.68 658.29 391.09 643.25 386.30 M 90.24 396.86 C 94.18 404.63 99.30 411.74 104.93 418.37 C 95.54 423.95 83.91 422.81 73.96 419.42 C 80.67 430.55 90.20 439.71 100.58 447.41 C 104.24 450.07 107.88 452.84 112.01 454.75 C 109.83 451.20 107.07 447.86 106.15 443.70 C 102.95 431.61 109.64 418.17 120.60 412.51 C 120.41 417.27 119.55 422.07 120.41 426.82 C 121.30 432.76 125.04 437.77 129.42 441.69 C 135.64 441.08 142.44 440.61 147.46 436.45 C 149.95 434.45 150.40 431.11 150.94 428.18 C 131.74 418.91 114.34 405.74 101.07 388.97 C 97.17 391.16 93.37 393.62 90.24 396.86 M 896.16 428.23 C 896.72 431.35 897.37 434.88 900.14 436.86 C 905.16 440.34 911.47 441.46 917.48 441.42 C 921.24 438.92 923.94 434.95 925.60 430.79 C 927.88 424.95 926.81 418.59 926.48 412.53 C 937.52 418.17 944.27 431.71 940.96 443.85 C 940.06 447.72 937.42 450.79 935.68 454.28 C 950.73 445.96 963.93 433.98 973.17 419.43 C 963.23 422.85 951.58 423.94 942.17 418.43 C 947.69 411.72 952.91 404.70 956.81 396.91 C 953.75 393.61 949.91 391.23 946.06 389.00 C 932.75 405.75 915.36 418.93 896.16 428.23 Z" />
<path fill="#ffffff" opacity="1.00" d=" M 148.51 657.41 C 158.13 652.45 167.65 646.92 178.24 644.27 C 182.41 643.86 186.08 646.51 189.57 648.45 C 202.22 656.86 209.35 671.10 214.26 685.05 C 221.18 704.98 224.00 726.07 225.32 747.05 C 226.85 773.20 224.76 799.44 220.60 825.27 C 213.95 868.03 203.39 910.48 203.20 953.99 C 203.17 972.78 204.33 991.86 209.90 1009.92 C 214.03 1022.88 221.10 1035.63 232.58 1043.43 C 241.37 1049.40 252.00 1052.27 262.56 1052.56 C 273.49 1042.18 284.08 1031.45 295.01 1021.07 C 330.36 1046.43 368.86 1067.78 410.17 1081.72 C 450.73 1095.56 493.77 1102.29 536.62 1100.56 C 575.68 1099.13 614.37 1090.71 650.81 1076.69 C 686.90 1062.89 720.75 1043.64 752.04 1021.04 C 762.99 1031.40 773.59 1042.11 784.49 1052.53 C 799.73 1052.32 815.27 1046.09 824.82 1033.89 C 837.34 1018.18 841.32 997.63 843.04 978.10 C 846.94 933.85 837.82 889.98 830.11 846.65 C 824.90 817.74 820.64 788.47 821.33 759.01 C 821.65 740.72 823.54 722.42 827.39 704.52 C 830.64 690.11 835.12 675.68 843.26 663.22 C 848.65 655.05 856.05 647.55 865.62 644.61 C 867.66 643.69 869.81 644.59 871.81 645.16 C 890.86 650.95 906.75 664.72 926.64 668.12 C 935.79 670.32 945.48 667.19 954.44 670.46 C 960.07 672.30 964.98 676.86 966.38 682.74 C 968.51 691.08 965.53 699.89 960.78 706.79 C 954.44 715.54 944.32 720.27 936.89 727.92 C 934.29 730.50 932.65 734.89 934.89 738.21 C 936.94 741.50 940.24 745.31 944.56 744.52 C 948.29 743.18 950.40 739.54 952.35 736.33 C 958.17 725.83 963.58 714.75 972.35 706.32 C 977.79 701.02 986.76 701.11 992.96 705.03 C 1003.43 711.11 1011.01 724.83 1005.70 736.65 C 998.79 753.78 985.27 767.21 978.26 784.28 C 973.07 796.21 971.73 809.37 971.56 822.26 C 967.66 814.45 964.81 806.09 963.29 797.50 C 961.46 787.18 962.68 776.37 966.71 766.71 C 970.75 756.86 977.20 748.18 984.58 740.58 C 989.28 736.20 984.99 727.36 978.90 727.26 C 972.92 726.91 967.78 732.09 967.02 737.82 C 965.37 749.22 961.26 760.72 953.15 769.14 C 949.08 773.36 943.25 776.77 937.20 775.68 C 931.55 774.70 927.21 770.41 924.14 765.82 C 921.64 761.53 916.87 759.41 912.41 757.78 C 912.16 783.87 916.63 809.67 920.74 835.35 C 928.42 882.11 934.15 929.57 931.08 977.03 C 928.55 1016.66 919.77 1056.31 902.02 1092.01 C 893.07 1109.69 881.28 1126.22 865.84 1138.81 C 845.60 1155.67 819.13 1163.85 793.00 1164.06 C 787.57 1163.95 781.80 1164.68 776.73 1162.30 C 772.04 1159.89 769.73 1154.49 769.36 1149.46 C 768.85 1139.85 769.40 1130.22 769.04 1120.61 C 743.47 1143.29 714.00 1161.44 682.47 1174.60 C 641.72 1191.72 597.97 1201.13 553.96 1204.26 C 543.30 1204.89 532.68 1206.02 521.99 1205.62 C 511.96 1206.04 502.01 1204.79 492.01 1204.19 C 450.64 1201.08 409.52 1192.57 370.93 1177.18 C 337.12 1163.84 305.46 1144.92 278.28 1120.75 C 278.19 1130.81 278.47 1140.90 277.60 1150.94 C 277.12 1155.33 274.82 1159.63 270.97 1161.95 C 267.11 1164.40 262.35 1163.89 257.99 1164.07 C 235.09 1164.39 211.75 1159.11 192.30 1146.74 C 172.32 1134.28 157.23 1115.27 146.42 1094.58 C 133.75 1070.00 125.55 1043.27 120.65 1016.11 C 113.08 973.54 114.23 929.92 119.02 887.11 C 121.73 862.00 126.24 837.15 130.02 812.19 C 132.71 794.12 134.94 775.90 134.68 757.60 C 130.77 759.44 126.24 760.98 123.76 764.77 C 120.99 768.63 117.94 772.64 113.45 774.60 C 108.09 777.13 101.54 775.60 97.10 771.91 C 89.25 765.68 84.61 756.32 81.92 746.85 C 80.65 742.64 80.65 738.11 78.88 734.05 C 77.00 729.64 72.02 726.59 67.22 727.41 C 62.97 728.11 60.24 732.68 60.53 736.78 C 60.61 739.31 62.89 740.82 64.40 742.57 C 74.56 753.43 82.77 766.96 84.33 782.02 C 85.89 795.93 81.45 809.65 75.75 822.15 C 75.12 810.31 74.39 798.18 69.94 787.02 C 62.96 767.90 47.41 753.39 40.50 734.25 C 37.27 723.58 43.63 712.38 52.21 706.23 C 58.40 701.50 68.00 700.48 74.17 705.78 C 83.10 714.06 88.61 725.12 94.35 735.67 C 96.39 739.08 98.58 742.97 102.48 744.51 C 107.23 745.33 111.12 740.78 112.82 736.83 C 114.67 732.16 110.72 728.25 107.60 725.38 C 99.41 718.33 89.17 712.94 83.98 703.02 C 79.84 695.27 77.93 684.99 83.23 677.31 C 88.50 669.89 98.48 668.21 106.99 668.97 C 121.72 669.89 135.79 664.26 148.51 657.41 Z" />
</g>
</svg>
