<?xml version="1.0" encoding="UTF-8"?>
<!DOCTYPE svg PUBLIC "-//W3C//DTD SVG 1.1//EN" "http://www.w3.org/Graphics/SVG/1.1/DTD/svg11.dtd">
<!-- Creator: CorelDRAW X7 -->
<svg xmlns="http://www.w3.org/2000/svg" xml:space="preserve" width="50mm" height="50mm" version="1.1" style="shape-rendering:geometricPrecision; text-rendering:geometricPrecision; image-rendering:optimizeQuality; fill-rule:evenodd; clip-rule:evenodd"
viewBox="0 0 5000 5000"
 xmlns:xlink="http://www.w3.org/1999/xlink">
 <defs>
  <style type="text/css">
   <![CDATA[
    .fil0 {fill:#DDAD00}
   ]]>
  </style>
 </defs>
 <g id="Слой_x0020_1">
  <metadata id="CorelCorpID_0Corel-Layer"/>
  <g id="_813199312">
   <path class="fil0" d="M3042 4358l0 387 -697 0 0 -851 -155 0 0 851 -619 0 0 -1102 364 219 91 -457 406 94c177,41 300,196 300,377l0 482 155 0 0 -482c0,-254 -173,-471 -420,-528l-586 -135 0 -153c82,-66 148,-154 188,-254 96,-8 187,-51 253,-123 65,-71 98,-165 99,-260l2 0 0 -762c0,-175 -109,-330 -272,-391l-157 -126c-155,-124 -351,-192 -550,-192 -485,0 -879,394 -879,879l0 592 2 0c0,95 34,189 98,260 66,72 157,115 254,123 40,100 105,188 188,254l0 153 -587 135c-247,57 -420,274 -420,528l0 1024 2942 0c85,0 155,-69 155,-155l0 -387 1393 0 0 -155 -1393 0c-86,0 -155,70 -155,155zm-1876 -1000l189 141 -191 115 -41 -246 43 -10zm660 258l-194 -117 189 -141 54 12 -49 246zm381 -1037c-26,29 -60,50 -97,62 2,-21 3,-42 3,-64l0 -370c83,32 145,105 154,192 6,67 -15,131 -60,180l0 0zm-763 -1473c164,0 325,57 453,159l178 143 13 4c108,36 180,136 180,249l0 458c-57,-43 -124,-72 -198,-81l-189 -189 -55 54c-85,86 -199,132 -319,132l-542 0c-92,0 -177,33 -246,84l0 -288c0,-399 326,-725 725,-725l0 0zm-664 1473c-45,-49 -66,-113 -60,-179 9,-88 71,-161 154,-193l0 370c0,22 1,43 4,64 -37,-12 -72,-33 -98,-62l0 0zm249 -2l0 -387 478 0c136,0 265,-44 370,-126l81 81 0 432c0,257 -208,465 -464,465 -257,0 -465,-208 -465,-465zm465 620c82,0 160,-17 232,-46l0 84 -232 175 -233 -175 0 -84c72,29 150,46 233,46zm-1239 679c0,-181 123,-336 300,-377l417 -96 77 461 367 -221 0 1102 -619 0 0 -851 -155 0 0 851 -387 0 0 -869zm0 0z"/>
   <path class="fil0" d="M1726 3971l155 0 0 155 -155 0 0 -155zm0 0z"/>
   <path class="fil0" d="M1726 4281l155 0 0 154 -155 0 0 -154zm0 0z"/>
   <path class="fil0" d="M4745 4203l155 0 0 155 -155 0 0 -155zm0 0z"/>
   <path class="fil0" d="M3042 3894l1858 0 0 154 -1858 0 0 -154zm0 0z"/>
   <path class="fil0" d="M3042 3584l1548 0 0 155 -1548 0 0 -155zm0 0z"/>
   <path class="fil0" d="M4745 3584l155 0 0 155 -155 0 0 -155zm0 0z"/>
   <path class="fil0" d="M3160 2598c23,13 37,38 37,65l0 302c0,256 208,464 464,464 256,0 465,-208 465,-464l0 -302c0,-27 14,-52 37,-66 311,-179 505,-513 505,-871 0,-277 -110,-534 -310,-726 -199,-192 -460,-291 -738,-280 -523,21 -956,464 -965,987 -7,367 187,708 505,891zm192 212l619 0 0 155 -619 0 0 -155zm77 -775l-77 0c-43,0 -78,-34 -78,-77 0,-43 35,-77 78,-77 42,0 77,34 77,77l0 77zm310 620l-155 0 0 -465 155 0 0 465zm-78 619c-114,0 -213,-63 -266,-155l533 0c-54,92 -153,155 -267,155l0 0zm-35 -2399c12,-1 24,-1 36,-1 221,0 429,84 589,238 169,162 262,380 262,614 0,303 -164,585 -427,737 -69,40 -111,113 -114,192l-78 0 0 -465 77 0c128,0 232,-104 232,-232 0,-128 -104,-232 -232,-232 -128,0 -232,104 -232,232l0 77 -155 0 0 -77c0,-128 -104,-232 -232,-232 -128,0 -233,104 -233,232 0,128 105,232 233,232l77 0 0 465 -78 0c-3,-79 -45,-152 -113,-191 -270,-155 -434,-444 -428,-754 8,-443 374,-817 816,-835zm268 1160l0 -77c0,-43 34,-77 77,-77 43,0 77,34 77,77 0,43 -34,77 -77,77l-77 0zm0 0z"/>
   <path class="fil0" d="M4203 1726l155 0c0,-248 -133,-479 -348,-604l-78 134c167,97 271,277 271,470zm0 0z"/>
   <path class="fil0" d="M3835 1051c-56,-15 -115,-22 -174,-22l0 155c46,0 92,6 136,17l38 -150zm0 0z"/>
   <path class="fil0" d="M3584 100l155 0 0 465 -155 0 0 -465zm0 0z"/>
   <path class="fil0" d="M2457 631l109 -110 329 329 -110 109 -328 -328zm0 0z"/>
   <path class="fil0" d="M4428 850l328 -329 110 110 -329 328 -109 -109zm0 0z"/>
  </g>
 </g>
</svg>
