<?xml version="1.0" encoding="UTF-8"?>
<!DOCTYPE svg PUBLIC "-//W3C//DTD SVG 1.1//EN" "http://www.w3.org/Graphics/SVG/1.1/DTD/svg11.dtd">
<!-- Creator: CorelDRAW X7 -->
<svg xmlns="http://www.w3.org/2000/svg" xml:space="preserve" width="50mm" height="50mm" version="1.1" style="shape-rendering:geometricPrecision; text-rendering:geometricPrecision; image-rendering:optimizeQuality; fill-rule:evenodd; clip-rule:evenodd"
viewBox="0 0 5000 5000"
 xmlns:xlink="http://www.w3.org/1999/xlink">
 <defs>
  <style type="text/css">
   <![CDATA[
    .fil0 {fill:#DDAD00}
   ]]>
  </style>
 </defs>
 <g id="Слой_x0020_1">
  <metadata id="CorelCorpID_0Corel-Layer"/>
  <g id="_813196400">
   <g>
    <g>
     <path class="fil0" d="M4473 798c-18,-19 -42,-29 -66,-29 -25,0 -49,10 -66,29 -18,19 -27,45 -27,72 0,27 9,53 27,72 17,18 41,29 66,29 24,0 48,-11 66,-29 17,-19 27,-45 27,-72 0,-27 -10,-53 -27,-72z"/>
    </g>
   </g>
   <g>
    <g>
     <path class="fil0" d="M2333 3185c-17,-19 -41,-29 -66,-29 -24,0 -48,10 -66,29 -17,19 -27,45 -27,72 0,27 10,53 27,72 18,19 42,29 66,29 25,0 49,-10 66,-29 17,-19 27,-45 27,-72 0,-27 -10,-53 -27,-72z"/>
    </g>
   </g>
   <g>
    <g>
     <path class="fil0" d="M4698 1135c-25,-49 -82,-66 -127,-38 -44,28 -60,89 -35,138 277,530 193,1201 -203,1632l-71 77c-17,-49 -43,-95 -79,-134l-957 -1041c62,-34 120,-79 171,-134l184 -200c36,-39 36,-103 0,-143 -37,-40 -96,-40 -132,0l-184 200c-86,94 -201,145 -323,145l-367 0c-24,0 -48,11 -66,30l-280 306c-84,90 -220,90 -303,0 -84,-91 -84,-239 0,-330l641 -698c392,-426 1004,-520 1488,-228 45,28 102,10 127,-39 25,-49 9,-111 -36,-138 -267,-161 -582,-226 -886,-181 -285,41 -546,171 -759,376 -263,-253 -597,-391 -951,-391 -383,0 -743,162 -1014,457 -271,295 -421,687 -421,1104 0,417 150,809 421,1104l35 38c6,7 13,12 20,17 6,87 40,173 101,240 69,75 159,112 248,112 5,0 10,0 15,-1 -1,6 -1,11 -1,16 0,102 37,198 103,270 68,74 158,112 248,112 5,0 10,-1 14,-1 0,5 0,11 0,16 0,102 36,198 103,270 68,74 158,111 248,111 5,0 9,0 14,0 -4,103 30,207 102,286 67,72 155,112 249,112 93,0 182,-40 248,-112l130 -142 176 191c66,72 154,112 248,112 94,0 182,-40 248,-112 73,-79 107,-185 103,-289 5,0 11,1 17,1 90,0 180,-38 248,-112 72,-78 107,-183 103,-285 4,0 9,0 14,0 94,0 182,-40 248,-112 72,-78 106,-182 102,-285 5,0 10,0 15,0 93,0 182,-40 248,-112 34,-36 59,-79 76,-124 9,-5 18,-11 25,-19l181 -197c455,-495 551,-1267 233,-1875zm-3758 2078c-44,0 -85,-18 -116,-52 -31,-34 -48,-79 -48,-127 0,-48 17,-93 48,-127l161 -174c31,-34 72,-53 116,-53 44,0 85,19 117,53 64,70 64,183 0,253l-161 175c-31,34 -72,52 -117,52zm249 345c-31,-34 -49,-79 -49,-127 0,-48 18,-93 49,-127l160 -175c0,0 0,0 0,0 31,-33 73,-52 117,-52 44,0 85,19 116,52 65,70 65,184 0,254l-160 175c-65,70 -169,70 -233,0zm364 396c-31,-33 -48,-78 -48,-126 0,-48 17,-93 48,-127l161 -175c0,0 0,0 0,0 31,-34 73,-52 117,-52 44,0 85,18 116,52 64,70 64,184 0,254l-161 174c-64,70 -168,70 -233,0zm759 223l-161 174c-31,34 -72,53 -116,53 -44,0 -86,-19 -117,-53 -64,-70 -64,-183 0,-253l161 -175c0,0 0,0 0,0 31,-34 72,-52 116,-52 44,0 86,18 117,52 31,34 48,79 48,127 0,48 -17,93 -48,127zm1739 -970c-31,34 -72,52 -116,52 -44,0 -86,-18 -117,-52l-388 -422c0,0 0,0 0,0l-364 -397c-37,-39 -96,-39 -132,0 -36,40 -36,104 0,143l752 819c65,70 65,184 0,254 -31,34 -72,52 -116,52 -44,0 -85,-18 -116,-52l-753 -819c-36,-40 -95,-40 -132,0 -36,39 -36,104 0,143l365 397c0,0 0,0 0,0l388 422c64,70 64,184 0,254 -64,69 -169,69 -233,0l-388 -422c-7,-8 -15,-14 -24,-19l-110 -120c-37,-40 -96,-40 -132,0 -37,39 -37,103 0,143l519 564c64,70 64,184 0,254 -31,34 -73,52 -117,52 -44,0 -85,-18 -116,-52l-198 -215c15,-43 23,-89 23,-136 0,-102 -36,-198 -102,-270 -67,-72 -155,-112 -249,-112 -4,0 -9,0 -14,0 4,-103 -30,-207 -102,-285 -67,-72 -155,-112 -248,-112 -5,0 -10,0 -15,0 4,-102 -30,-207 -102,-285 -66,-72 -154,-112 -248,-112 -5,0 -10,0 -14,1 3,-103 -31,-207 -103,-286 -137,-149 -359,-149 -496,0l-161 175c-20,22 -37,46 -51,72 -219,-253 -339,-582 -339,-931 0,-363 130,-704 365,-961 236,-256 550,-397 883,-397 303,0 590,116 817,330l-573 623c-75,82 -117,192 -117,308 0,116 42,226 117,308 78,85 181,127 283,127 103,0 205,-42 283,-127l254 -276 328 0c28,0 54,-2 81,-6l1028 1119c64,70 64,184 0,254z"/>
    </g>
   </g>
   <g>
   </g>
   <g>
   </g>
   <g>
   </g>
   <g>
   </g>
   <g>
   </g>
   <g>
   </g>
   <g>
   </g>
   <g>
   </g>
   <g>
   </g>
   <g>
   </g>
   <g>
   </g>
   <g>
   </g>
   <g>
   </g>
   <g>
   </g>
   <g>
   </g>
  </g>
 </g>
</svg>
